<svg preserveAspectRatio="none" width="100%" height="100%" overflow="visible" style="display: block;" viewBox="0 0 63 87" fill="none" xmlns="http://www.w3.org/2000/svg">
<g id="freepik--Character--inject-9">
<path id="Vector" d="M35.5575 78.88C35.5722 78.8706 35.589 78.8652 35.6064 78.8643C35.6237 78.8634 35.641 78.867 35.6566 78.8747C35.6722 78.8824 35.6855 78.894 35.6952 78.9084C35.705 78.9228 35.7108 78.9395 35.7122 78.9568C35.7136 78.9741 35.7105 78.9915 35.7032 79.0073C35.6959 79.0231 35.6847 79.0367 35.6706 79.0468C35.6564 79.057 35.6399 79.0633 35.6227 79.0652C35.6054 79.0671 35.5879 79.0644 35.5719 79.0576C35.5562 79.0493 35.5429 79.0372 35.5331 79.0223C35.5233 79.0075 35.5174 78.9904 35.516 78.9727C35.5146 78.955 35.5176 78.9372 35.5249 78.921C35.5321 78.9048 35.5434 78.8907 35.5575 78.88Z" fill="var(--fill-0, white)"/>
<path id="Vector_2" d="M56.6319 7.99598L60.3135 9.65198C60.3135 9.65198 54.5535 17.848 53.3751 19.168C52.1967 20.488 40.5856 22.1392 40.5856 22.1392L40.0311 17.284L49.9287 15.604L56.6319 7.99598Z" fill="var(--fill-0, #6869AC)"/>
<path id="Vector_3" d="M52.8567 19.5568C52.8351 19.5568 52.8087 19.264 52.6839 18.8128C52.6101 18.5489 52.5154 18.2913 52.4007 18.0424C52.2555 17.7407 52.0854 17.4517 51.8919 17.1784C51.691 16.9098 51.4669 16.6592 51.2223 16.4296C51.0214 16.2433 50.8055 16.0739 50.5767 15.9232C50.1855 15.664 49.9143 15.5512 49.9239 15.532C49.9335 15.5128 49.9959 15.5464 50.1207 15.5944C50.2957 15.6645 50.4644 15.7497 50.6247 15.8488C50.8647 15.993 51.0912 16.1584 51.3015 16.3432C51.5551 16.5747 51.7865 16.8294 51.9927 17.104C52.1928 17.3836 52.3641 17.6827 52.5039 17.9968C52.6174 18.2527 52.7066 18.5186 52.7703 18.7912C52.8152 18.9739 52.8441 19.1602 52.8567 19.348C52.8691 19.417 52.8691 19.4877 52.8567 19.5568Z" fill="var(--fill-0, white)"/>
<path id="Vector_4" d="M52.0983 17.704C51.9787 17.7555 51.8551 17.7972 51.7287 17.8288C51.4887 17.9032 51.1383 18.004 50.7063 18.1216C49.8399 18.3616 48.6375 18.6544 47.2959 18.9376C45.9543 19.2208 44.7328 19.4296 43.8472 19.564C43.4032 19.6312 43.0431 19.6792 42.7935 19.708C42.6651 19.7301 42.5351 19.7413 42.4047 19.7416C42.5294 19.7036 42.6571 19.6763 42.7863 19.66L43.8328 19.4752C44.7136 19.3216 45.9327 19.096 47.2719 18.8152C48.6111 18.5344 49.8135 18.2488 50.6847 18.0352L51.7167 17.7832C51.8411 17.7445 51.9689 17.718 52.0983 17.704Z" fill="var(--fill-0, white)"/>
<path id="Vector_5" d="M57.592 8.53118C57.6184 8.55278 56.128 10.2808 54.2656 12.388C52.4032 14.4952 50.8719 16.1872 50.8335 16.1656C50.7951 16.144 52.2976 14.4136 54.16 12.3064C56.0224 10.1992 57.5536 8.50718 57.592 8.53118Z" fill="var(--fill-0, white)"/>
<path id="Vector_6" d="M52.8999 14.3632C52.9146 14.3554 52.931 14.3511 52.9476 14.3508C52.9642 14.3505 52.9807 14.3541 52.9957 14.3613C53.0106 14.3686 53.0237 14.3793 53.0337 14.3925C53.0438 14.4058 53.0506 14.4212 53.0535 14.4376C53.0551 14.455 53.0522 14.4724 53.045 14.4883C53.0378 14.5042 53.0266 14.518 53.0125 14.5283C52.9984 14.5386 52.9819 14.545 52.9646 14.547C52.9472 14.5489 52.9297 14.5464 52.9136 14.5395C52.8976 14.5327 52.8836 14.5218 52.873 14.5079C52.8624 14.494 52.8556 14.4777 52.8533 14.4604C52.8509 14.4431 52.8531 14.4255 52.8596 14.4093C52.8661 14.3931 52.8767 14.3789 52.8903 14.368" fill="var(--fill-0, white)"/>
<path id="Vector_7" d="M46.8711 18.2704C46.8857 18.262 46.9021 18.2573 46.919 18.2567C46.9358 18.2561 46.9525 18.2596 46.9676 18.2669C46.9828 18.2743 46.9959 18.2852 47.0059 18.2988C47.0158 18.3123 47.0223 18.3281 47.0247 18.3448C47.0267 18.3623 47.0239 18.38 47.0169 18.3962C47.0098 18.4124 46.9986 18.4264 46.9844 18.4368C46.9702 18.4473 46.9535 18.4539 46.936 18.4559C46.9184 18.4579 46.9007 18.4552 46.8845 18.4482C46.8683 18.4412 46.8542 18.4301 46.8437 18.4159C46.8332 18.4018 46.8265 18.3851 46.8244 18.3676C46.8224 18.3501 46.8249 18.3323 46.8318 18.3161C46.8388 18.2999 46.8498 18.2858 46.8639 18.2752" fill="var(--fill-0, white)"/>
<path id="Vector_8" d="M49.7703 17.6272C49.7852 17.6193 49.8017 17.6152 49.8185 17.615C49.8353 17.6148 49.8519 17.6186 49.8669 17.6261C49.8819 17.6336 49.8949 17.6446 49.9048 17.6581C49.9148 17.6717 49.9213 17.6874 49.9239 17.704C49.9237 17.7206 49.9195 17.7369 49.9117 17.7516C49.904 17.7663 49.8929 17.7789 49.8793 17.7885C49.8658 17.7981 49.8501 17.8043 49.8337 17.8068C49.8173 17.8092 49.8005 17.8077 49.7847 17.8024C49.7698 17.7949 49.7569 17.7839 49.7472 17.7704C49.7374 17.7569 49.7311 17.7412 49.7287 17.7247C49.7264 17.7082 49.7281 17.6913 49.7336 17.6756C49.7392 17.6599 49.7485 17.6457 49.7607 17.6344" fill="var(--fill-0, white)"/>
<path id="Vector_9" d="M54.5439 12.5176C54.5585 12.5092 54.5749 12.5045 54.5918 12.5039C54.6086 12.5033 54.6253 12.5068 54.6404 12.5141C54.6556 12.5215 54.6687 12.5324 54.6787 12.546C54.6886 12.5595 54.6951 12.5753 54.6975 12.592C54.6995 12.6095 54.6967 12.6272 54.6897 12.6434C54.6826 12.6596 54.6714 12.6736 54.6572 12.684C54.643 12.6945 54.6263 12.7011 54.6088 12.7031C54.5912 12.7051 54.5735 12.7024 54.5573 12.6954C54.5411 12.6884 54.527 12.6773 54.5165 12.6631C54.506 12.649 54.4993 12.6323 54.4972 12.6148C54.4952 12.5973 54.4977 12.5795 54.5046 12.5633C54.5116 12.5471 54.5226 12.533 54.5367 12.5224" fill="var(--fill-0, white)"/>
<path id="Vector_10" d="M56.2672 10.564C56.2817 10.5541 56.2986 10.5483 56.3162 10.547C56.3337 10.5457 56.3513 10.5491 56.3672 10.5567C56.383 10.5643 56.3966 10.5759 56.4066 10.5904C56.4165 10.6049 56.4226 10.6217 56.424 10.6393C56.4254 10.6568 56.4223 10.6744 56.4148 10.6903C56.4073 10.7063 56.3958 10.72 56.3814 10.7301C56.367 10.7402 56.3502 10.7463 56.3327 10.7479C56.3152 10.7495 56.2975 10.7465 56.2816 10.7392C56.2658 10.7312 56.2524 10.7193 56.2426 10.7047C56.2328 10.6901 56.2268 10.6732 56.2254 10.6556C56.224 10.638 56.227 10.6204 56.2343 10.6044C56.2416 10.5883 56.2529 10.5744 56.2672 10.564Z" fill="var(--fill-0, white)"/>
<g id="Group" opacity="0.3">
<path id="Vector_11" d="M49.3504 16.0816C49.3768 16.252 47.8839 16.636 46.0167 16.9384C44.1495 17.2408 42.6087 17.3464 42.5823 17.1784C42.5559 17.0104 44.0464 16.6264 45.916 16.324C47.7856 16.0216 49.3216 15.9112 49.3504 16.0816Z" fill="var(--fill-0, white)"/>
</g>
<path id="Vector_12" d="M44.3607 18.7192C44.3753 18.7093 44.3922 18.7035 44.4098 18.7022C44.4273 18.7009 44.4449 18.7043 44.4608 18.7119C44.4766 18.7195 44.4902 18.7311 44.5002 18.7456C44.5101 18.7601 44.5161 18.7769 44.5176 18.7945C44.519 18.812 44.5159 18.8296 44.5084 18.8455C44.5009 18.8615 44.4894 18.8752 44.475 18.8853C44.4606 18.8954 44.4438 18.9015 44.4263 18.9031C44.4088 18.9047 44.3911 18.9017 44.3751 18.8944C44.3594 18.8864 44.346 18.8745 44.3362 18.8599C44.3264 18.8453 44.3204 18.8284 44.319 18.8108C44.3175 18.7932 44.3206 18.7756 44.3279 18.7596C44.3353 18.7435 44.3465 18.7296 44.3607 18.7192Z" fill="var(--fill-0, white)"/>
<path id="Vector_13" d="M38.9919 16.5712C39.4958 16.4087 40.0369 16.4015 40.5449 16.5504C41.0529 16.6994 41.5044 16.9976 41.8407 17.4064C42.1648 17.8246 42.3847 18.3139 42.4823 18.8338C42.58 19.3538 42.5526 19.8895 42.4023 20.3968C42.1167 21.412 40.7631 22.7824 39.8463 23.164" fill="var(--fill-0, #3E4551)"/>
<path id="Vector_14" d="M61.2975 8.53118C61.6121 8.12158 61.8839 7.68089 62.1087 7.21598C62.3347 6.74881 62.4117 6.22356 62.3295 5.71118C62.2863 5.45626 62.1797 5.21629 62.0195 5.01332C61.8593 4.81035 61.6506 4.65089 61.4127 4.54958C61.1716 4.45661 60.9057 4.45004 60.6602 4.53099C60.4147 4.61193 60.2049 4.77539 60.0663 4.99358L61.0431 3.07358C61.1631 2.83358 61.2831 2.53838 61.1247 2.32478C61.0411 2.23369 60.927 2.17651 60.8039 2.16412C60.6809 2.15173 60.5576 2.18499 60.4575 2.25758C60.2623 2.40955 60.1087 2.60855 60.0111 2.83598L58.5711 5.54558L57.2943 3.54638C57.1647 3.34478 56.9799 3.11438 56.7423 3.15278C56.6494 3.17759 56.5676 3.23303 56.5101 3.31012C56.4526 3.38721 56.4228 3.48145 56.4255 3.57758C56.4384 3.77064 56.4941 3.9584 56.5887 4.12718C56.9607 4.91438 57.6351 6.70718 57.6351 6.70718L61.2975 8.53118Z" fill="var(--fill-0, #6869AC)"/>
<path id="Vector_15" d="M39.8463 23.0272C39.8271 23.008 40.1752 22.7416 40.5928 22.192C40.8376 21.8728 41.0259 21.514 41.1495 21.1312C41.2938 20.66 41.3444 20.165 41.2983 19.6744C41.2317 18.7759 40.9386 17.909 40.4463 17.1544C40.3141 16.9189 40.1313 16.7156 39.9111 16.5592C39.824 16.5106 39.7324 16.4704 39.6375 16.4392C39.6645 16.434 39.6922 16.434 39.7191 16.4392C39.7946 16.4523 39.8676 16.4774 39.9351 16.5136C40.1741 16.6615 40.3747 16.8638 40.5207 17.104C41.0463 17.8609 41.3581 18.7456 41.4231 19.6648C41.4761 20.1746 41.4246 20.6899 41.2719 21.1792C41.1388 21.572 40.9364 21.9377 40.6743 22.2592C40.5018 22.4748 40.3098 22.674 40.1007 22.8544C40.0228 22.9214 39.9374 22.9794 39.8463 23.0272Z" fill="var(--fill-0, #A2A3A8)"/>
<path id="Vector_16" d="M56.632 7.99598C57.6306 8.63456 58.6732 9.20157 59.752 9.69278C60.1816 9.89198 60.7119 10.0768 61.1008 9.80078C61.2326 9.69114 61.3305 9.54631 61.3832 9.38315C61.4359 9.21998 61.4412 9.04521 61.3983 8.87918C61.3059 8.54748 61.1299 8.24505 60.8872 8.00078C60.1821 7.20993 59.2664 6.63634 58.2472 6.34718C57.8896 6.2267 57.5078 6.197 57.136 6.26078C56.9505 6.29393 56.7771 6.37555 56.6333 6.49736C56.4896 6.61918 56.3807 6.77685 56.3176 6.95438C56.2501 7.13774 56.2433 7.33793 56.2981 7.52545C56.353 7.71297 56.4667 7.87791 56.6223 7.99598" fill="var(--fill-0, #3E4551)"/>
<path id="Vector_17" d="M61.2616 9.34718C61.2424 9.34718 61.1032 9.05918 60.7816 8.65118C60.3621 8.11617 59.8276 7.68241 59.2177 7.38204C58.6078 7.08167 57.9382 6.92238 57.2583 6.91598C56.7375 6.91598 56.4159 6.97838 56.4111 6.95678C56.4819 6.92456 56.5572 6.90351 56.6344 6.89438C56.8403 6.85567 57.0489 6.8332 57.2583 6.82718C57.9569 6.80923 58.6494 6.96101 59.2764 7.2695C59.9035 7.578 60.4463 8.034 60.8583 8.59838C60.9835 8.76676 61.0935 8.94586 61.1872 9.13358C61.2238 9.20006 61.249 9.27229 61.2616 9.34718Z" fill="var(--fill-0, #A2A3A8)"/>
<path id="Vector_18" d="M37.5375 34.3792C37.5711 34.4512 37.1103 34.78 36.2679 35.1352C35.7743 35.341 35.2656 35.5087 34.7463 35.6368C33.4683 35.9498 32.1469 36.0472 30.8367 35.9248C30.3043 35.8738 29.7765 35.7831 29.2575 35.6536C28.3719 35.4256 27.8679 35.1736 27.8919 35.092C27.9159 35.0104 28.4655 35.1088 29.3319 35.2192C29.7687 35.2768 30.2919 35.3224 30.8703 35.3488C31.4968 35.3734 32.1241 35.3637 32.7495 35.32C33.375 35.2736 33.9975 35.1935 34.6143 35.08C35.1831 34.9672 35.6919 34.84 36.1167 34.7248C36.9711 34.4752 37.4967 34.2904 37.5375 34.3792Z" fill="var(--fill-0, #3E4551)"/>
<path id="Vector_19" d="M37.2231 35.6968C37.2495 35.776 36.8055 36.0184 36.0351 36.2728C34.0049 36.9123 31.8533 37.0685 29.7519 36.7288C28.9527 36.5896 28.4775 36.412 28.4919 36.3328C28.5255 36.1504 30.4791 36.4288 32.8743 36.2464C35.2695 36.064 37.1655 35.5216 37.2231 35.6968Z" fill="var(--fill-0, #3E4551)"/>
<path id="Vector_20" d="M28.5303 0.361579C28.5303 0.361579 20.6103 1.82558 20.7111 8.91758C20.8119 16.0096 27.5175 14.8168 29.4663 14.5672C30.3495 14.4544 32.1063 14.2048 33.7695 13.9648C37.2903 13.456 39.9183 11.7424 40.1271 8.19038C40.1535 7.77397 40.139 7.35597 40.0839 6.94238C39.5919 3.19358 36.0903 -1.31842 28.5303 0.361579Z" fill="var(--fill-0, #6869AC)"/>
<path id="Vector_21" d="M37.0767 7.47278L26.9703 9.61598C26.4618 9.72411 25.9311 9.62582 25.495 9.34273C25.0588 9.05964 24.753 8.61492 24.6447 8.10638C24.5373 7.59752 24.6362 7.06684 24.9197 6.63083C25.2032 6.19481 25.6481 5.88909 26.1567 5.78078L36.2631 3.63518C36.772 3.52777 37.3027 3.62666 37.7387 3.91014C38.1747 4.19362 38.4804 4.63852 38.5888 5.14718C38.6423 5.39916 38.6456 5.65922 38.5986 5.9125C38.5515 6.16577 38.455 6.4073 38.3146 6.62327C38.1742 6.83924 37.9926 7.02543 37.7802 7.17119C37.5678 7.31695 37.3288 7.41943 37.0767 7.47278Z" fill="var(--fill-0, #3E4551)"/>
<path id="Vector_22" d="M28.3359 8.11838C28.6832 8.11838 28.9647 7.83686 28.9647 7.48958C28.9647 7.1423 28.6832 6.86078 28.3359 6.86078C27.9887 6.86078 27.7071 7.1423 27.7071 7.48958C27.7071 7.83686 27.9887 8.11838 28.3359 8.11838Z" fill="var(--fill-0, white)"/>
<path id="Vector_23" d="M35.3967 6.61598C35.744 6.61598 36.0256 6.33445 36.0256 5.98718C36.0256 5.6399 35.744 5.35838 35.3967 5.35838C35.0495 5.35838 34.7679 5.6399 34.7679 5.98718C34.7679 6.33445 35.0495 6.61598 35.3967 6.61598Z" fill="var(--fill-0, white)"/>
<path id="Vector_24" d="M31.6167 4.10558C31.4896 3.87258 31.3766 3.63215 31.2783 3.38558C31.0248 2.8072 30.6947 2.26555 30.2967 1.77518C29.9101 1.27876 29.3981 0.894364 28.8135 0.661579C28.5653 0.580683 28.312 0.516538 28.0551 0.469578C28.1257 0.455733 28.1982 0.455733 28.2688 0.469578C28.4639 0.484443 28.6566 0.523131 28.8423 0.584779C29.4555 0.801548 29.9936 1.18971 30.3927 1.70318C30.7965 2.2013 31.1204 2.75916 31.3527 3.35678C31.4439 3.59678 31.5111 3.77198 31.5543 3.90158C31.5852 3.9661 31.6062 4.03486 31.6167 4.10558Z" fill="var(--fill-0, white)"/>
<path id="Vector_25" d="M31.8711 14.236C31.8543 14.2216 32.0823 13.996 32.3511 13.5856C32.713 13.0424 32.9506 12.4262 33.0472 11.7808C33.1252 11.1315 33.1195 10.475 33.0304 9.82718C32.977 9.55857 32.9409 9.28681 32.9223 9.01358C32.9533 9.08098 32.9758 9.15191 32.9895 9.22478C33.0231 9.36398 33.0687 9.56318 33.1167 9.81278C33.2349 10.4679 33.2527 11.1371 33.1695 11.7976C33.0738 12.4619 32.8176 13.0929 32.4232 13.636C32.3054 13.7991 32.1746 13.9524 32.0319 14.0944C31.9852 14.1488 31.9311 14.1965 31.8711 14.236Z" fill="var(--fill-0, white)"/>
<g id="Group_2" opacity="0.3">
<path id="Vector_26" d="M39.2271 11.1568C38.2972 10.5853 37.2362 10.2622 36.1456 10.2184C35.0607 10.1788 33.9747 10.2536 32.9056 10.4416C30.424 10.816 27.8823 11.4016 25.8735 12.904C25.2828 13.3011 24.8128 13.8533 24.5151 14.5C24.5151 14.5 25.5807 14.9392 27.7071 14.7976C29.8335 14.656 34.2183 13.8928 34.2183 13.8928C34.2183 13.8928 36.4623 13.5136 37.7295 12.5656C38.9967 11.6176 39.2271 11.1568 39.2271 11.1568Z" fill="var(--fill-0, #101723)"/>
</g>
<path id="Vector_27" d="M39.2031 4.94798C39.2473 5.06556 39.2771 5.18805 39.2919 5.31278C39.346 5.67133 39.313 6.03761 39.1959 6.38078C39.0016 6.92533 38.6218 7.38413 38.1231 7.67678C37.5495 8.03198 36.8031 8.22398 35.9919 8.39678L30.2727 9.65918L28.6191 10.0192C28.0551 10.1344 27.4839 10.2856 26.8815 10.3624C26.2625 10.4721 25.6246 10.3635 25.0767 10.0552C24.5283 9.70507 24.131 9.16218 23.9631 8.53358C23.7958 7.90447 23.8739 7.23527 24.1815 6.66158C24.4809 6.10852 24.9577 5.6723 25.5351 5.42318C25.8152 5.31689 26.1044 5.23655 26.3991 5.18318L27.2511 4.98398L28.8975 4.59998L31.9455 3.87998C32.9055 3.67598 33.7767 3.39998 34.5975 3.24158C34.987 3.16097 35.3815 3.10724 35.7783 3.08078C36.1337 3.05107 36.4914 3.06315 36.8439 3.11678C37.413 3.19774 37.9518 3.42333 38.4087 3.77198C38.6918 3.99631 38.9193 4.28295 39.0735 4.60958C39.115 4.69381 39.1496 4.7813 39.1767 4.87118C39.1881 4.90077 39.197 4.93128 39.2031 4.96238C39.2031 4.96238 39.1623 4.83998 39.0519 4.62158C38.8904 4.30364 38.66 4.0257 38.3775 3.80798C37.9239 3.47369 37.393 3.25983 36.8343 3.18638C36.4869 3.13738 36.135 3.12853 35.7855 3.15998C35.3918 3.18988 35.0006 3.246 34.6143 3.32798C33.8007 3.49598 32.9343 3.77198 31.9743 3.98078L28.9287 4.70078L27.2823 5.09198L26.4303 5.29118C26.1427 5.34491 25.8607 5.42526 25.5879 5.53118C25.0366 5.77102 24.5812 6.18835 24.2943 6.71678C24.0009 7.26225 23.9262 7.89902 24.0855 8.49758C24.2468 9.09257 24.6242 9.60602 25.1439 9.93758C25.6685 10.2302 26.2778 10.3336 26.8695 10.2304C27.4575 10.1536 28.0311 10.0048 28.5951 9.88958L30.2511 9.53438L35.9751 8.30798C36.7133 8.19485 37.4278 7.96049 38.0895 7.61438C38.5803 7.33488 38.9568 6.89127 39.1527 6.36158C39.2713 6.02549 39.3115 5.66677 39.2703 5.31278C39.2391 5.07278 39.1959 4.95038 39.2031 4.94798Z" fill="var(--fill-0, white)"/>
<path id="Vector_28" d="M20.8215 10.0912C20.9328 9.95976 21.063 9.8457 21.2079 9.75278C21.8751 9.26035 22.6255 8.89207 23.4231 8.66558C23.5848 8.60902 23.7537 8.57588 23.9247 8.56718C23.9367 8.60558 23.1783 8.80718 22.3215 9.22238C21.4647 9.63758 20.8455 10.1224 20.8215 10.0912Z" fill="var(--fill-0, white)"/>
<path id="Vector_29" d="M29.0511 1.35518C29.0657 1.34534 29.0826 1.33949 29.1002 1.3382C29.1177 1.33692 29.1353 1.34025 29.1512 1.34787C29.167 1.35548 29.1806 1.36711 29.1906 1.3816C29.2005 1.3961 29.2065 1.41295 29.208 1.43048C29.2094 1.44801 29.2063 1.46561 29.1988 1.48154C29.1913 1.49747 29.1798 1.51116 29.1654 1.52126C29.151 1.53136 29.1342 1.53752 29.1167 1.53912C29.0992 1.54072 29.0815 1.5377 29.0655 1.53038C29.0503 1.52195 29.0374 1.5099 29.028 1.49529C29.0185 1.48068 29.0129 1.46397 29.0114 1.44663C29.01 1.4293 29.0129 1.41188 29.0198 1.39592C29.0267 1.37997 29.0375 1.36597 29.0511 1.35518Z" fill="var(--fill-0, white)"/>
<path id="Vector_30" d="M30.3063 3.19118C30.3209 3.18134 30.3378 3.17549 30.3554 3.1742C30.3729 3.17292 30.3905 3.17625 30.4064 3.18387C30.4222 3.19148 30.4358 3.20311 30.4458 3.2176C30.4557 3.2321 30.4617 3.24895 30.4632 3.26648C30.4646 3.28401 30.4615 3.30162 30.454 3.31754C30.4465 3.33347 30.435 3.34716 30.4206 3.35726C30.4062 3.36736 30.3894 3.37352 30.3719 3.37512C30.3544 3.37672 30.3367 3.3737 30.3207 3.36638C30.306 3.35757 30.2935 3.34536 30.2844 3.33077C30.2753 3.31617 30.2699 3.29962 30.2685 3.28248C30.267 3.26535 30.2698 3.24812 30.2763 3.23224C30.2829 3.21636 30.2932 3.20228 30.3063 3.19118Z" fill="var(--fill-0, white)"/>
<path id="Vector_31" d="M22.7055 8.32718C22.7203 8.31875 22.7369 8.31409 22.7539 8.31362C22.7709 8.31315 22.7877 8.31688 22.8029 8.32448C22.8181 8.33208 22.8312 8.34331 22.841 8.35718C22.8508 8.37105 22.857 8.38712 22.8591 8.40398C22.8594 8.42077 22.8556 8.43738 22.848 8.45236C22.8404 8.46734 22.8292 8.48024 22.8155 8.48994C22.8018 8.49963 22.7859 8.50583 22.7693 8.508C22.7526 8.51017 22.7357 8.50824 22.7199 8.50238C22.7052 8.4944 22.6925 8.48301 22.683 8.46916C22.6735 8.45531 22.6675 8.43939 22.6653 8.42273C22.6632 8.40607 22.6651 8.38914 22.6709 8.37336C22.6766 8.35758 22.686 8.34339 22.6983 8.33198" fill="var(--fill-0, white)"/>
<path id="Vector_32" d="M21.1359 9.17918C21.1506 9.16983 21.1674 9.16444 21.1848 9.16351C21.2021 9.16259 21.2194 9.16616 21.235 9.17389C21.2506 9.18163 21.2639 9.19325 21.2736 9.20764C21.2834 9.22203 21.2892 9.2387 21.2906 9.25602C21.292 9.27334 21.2889 9.29073 21.2816 9.30651C21.2743 9.32228 21.2631 9.3359 21.249 9.34604C21.2348 9.35617 21.2183 9.36249 21.2011 9.36438C21.1838 9.36626 21.1663 9.36364 21.1503 9.35678C21.1356 9.3488 21.1229 9.33741 21.1134 9.32356C21.1039 9.30971 21.0979 9.29379 21.0957 9.27713C21.0936 9.26047 21.0955 9.24354 21.1013 9.22776C21.107 9.21198 21.1164 9.19779 21.1287 9.18638" fill="var(--fill-0, white)"/>
<g id="Group_3" opacity="0.3">
<path id="Vector_33" d="M30.6711 0.476778C30.6903 0.567978 29.9775 0.769579 28.8519 1.13198C27.7263 1.49438 26.1807 2.03438 24.7455 3.05198C24.08 3.53615 23.4896 4.11601 22.9935 4.77278C22.5904 5.31072 22.2671 5.90404 22.0335 6.53438C21.6399 7.61918 21.6903 8.37038 21.5823 8.37278C21.5439 8.37278 21.4863 8.19278 21.4575 7.84958C21.4311 7.36445 21.483 6.87823 21.6111 6.40958C21.8011 5.70758 22.1104 5.0435 22.5255 4.44638C23.0322 3.71463 23.6595 3.07432 24.3807 2.55278C25.099 2.04504 25.8778 1.62902 26.6991 1.31438C27.3611 1.05986 28.0415 0.856071 28.7343 0.704779C29.9127 0.447979 30.6543 0.397578 30.6711 0.476778Z" fill="var(--fill-0, white)"/>
</g>
<g id="Group_4" opacity="0.3">
<path id="Vector_34" d="M23.0151 11.8672C22.9095 12.0016 22.4535 11.8144 22.1175 11.344C21.7815 10.8736 21.7551 10.384 21.9159 10.324C22.0767 10.264 22.3455 10.5904 22.6359 10.9816C22.9263 11.3728 23.1231 11.7304 23.0151 11.8672Z" fill="var(--fill-0, white)"/>
</g>
<path id="Vector_35" d="M39.4359 15.7192C39.9159 15.856 39.8871 22.8064 39.7839 26.3536C39.7287 28.2544 39.5871 30.2392 38.6175 31.8736C37.5375 33.6952 35.4807 34.8592 33.3663 34.9936C30.8247 35.1664 28.3095 33.9352 26.5695 32.0704C24.8295 30.2056 23.7975 27.772 23.2431 25.2832C22.6887 22.7944 22.5807 20.2432 22.4751 17.6824C22.4751 17.692 30.7119 13.2592 39.4359 15.7192Z" fill="var(--fill-0, #6869AC)"/>
<g id="Group_5" opacity="0.2">
<path id="Vector_36" d="M22.8615 21.052C22.8039 23.2936 23.1999 25.8784 23.9175 27.748C24.6951 29.7736 25.8231 31.588 27.7095 33.124C28.2388 33.5198 28.8009 33.8699 29.3895 34.1704C29.8861 34.4268 30.4103 34.6256 30.9519 34.7632C31.8471 35.02 32.3727 33.9112 32.5479 32.9968C32.7231 32.0824 32.3943 31.1248 31.8279 30.3784C31.2405 29.6533 30.5276 29.0395 29.7231 28.5664C28.9202 28.0954 28.1446 27.5793 27.3999 27.0208C26.1779 25.9751 25.2061 24.6686 24.5559 23.1976C23.9091 21.7315 23.3725 20.2194 22.9503 18.6736" fill="var(--fill-0, #101723)"/>
</g>
<path id="Vector_37" d="M28.7367 30.5392C28.7518 30.5314 28.7684 30.5272 28.7853 30.5271C28.8022 30.5269 28.819 30.5307 28.8342 30.5382C28.8493 30.5456 28.8625 30.5566 28.8727 30.5701C28.8829 30.5836 28.8898 30.5993 28.8927 30.616C28.8926 30.6329 28.8884 30.6495 28.8805 30.6644C28.8726 30.6794 28.8613 30.6922 28.8474 30.7018C28.8335 30.7115 28.8176 30.7176 28.8008 30.7198C28.7841 30.722 28.767 30.7201 28.7511 30.7144C28.7364 30.7067 28.7237 30.6955 28.7142 30.6819C28.7047 30.6683 28.6986 30.6525 28.6965 30.636C28.6944 30.6195 28.6963 30.6027 28.702 30.5871C28.7078 30.5715 28.7172 30.5575 28.7295 30.5464" fill="var(--fill-0, white)"/>
<path id="Vector_38" d="M31.8183 30.412C31.833 30.4026 31.8498 30.3972 31.8672 30.3963C31.8845 30.3954 31.9018 30.399 31.9174 30.4067C31.933 30.4144 31.9463 30.4261 31.956 30.4404C31.9657 30.4548 31.9716 30.4715 31.973 30.4888C31.9744 30.5061 31.9713 30.5235 31.964 30.5393C31.9567 30.5551 31.9455 30.5687 31.9313 30.5788C31.9172 30.589 31.9007 30.5953 31.8835 30.5972C31.8662 30.5991 31.8487 30.5964 31.8327 30.5896C31.8178 30.5818 31.8049 30.5706 31.7952 30.5569C31.7855 30.5431 31.7792 30.5272 31.7768 30.5106C31.7745 30.4939 31.7761 30.4769 31.7817 30.461C31.7872 30.4451 31.7965 30.4308 31.8087 30.4192" fill="var(--fill-0, white)"/>
<path id="Vector_39" d="M35.1832 27.2344C35.1977 27.226 35.2141 27.2213 35.231 27.2207C35.2478 27.2201 35.2645 27.2236 35.2796 27.2309C35.2948 27.2383 35.3079 27.2492 35.3179 27.2628C35.3278 27.2763 35.3343 27.2921 35.3367 27.3088C35.3387 27.3263 35.3359 27.344 35.3289 27.3602C35.3218 27.3764 35.3106 27.3904 35.2964 27.4008C35.2822 27.4113 35.2655 27.4179 35.248 27.4199C35.2304 27.4219 35.2127 27.4192 35.1965 27.4122C35.1803 27.4052 35.1663 27.3941 35.1557 27.3799C35.1452 27.3658 35.1385 27.3491 35.1365 27.3316C35.1344 27.3141 35.1369 27.2963 35.1439 27.2801C35.1508 27.2639 35.1619 27.2498 35.176 27.2392" fill="var(--fill-0, white)"/>
<path id="Vector_40" d="M33.6375 19.3792C33.6524 19.3713 33.6689 19.3672 33.6857 19.367C33.7025 19.3668 33.7191 19.3706 33.7341 19.3781C33.7491 19.3856 33.7621 19.3966 33.772 19.4101C33.782 19.4237 33.7885 19.4394 33.7911 19.456C33.7907 19.4726 33.7865 19.4889 33.7788 19.5036C33.771 19.5184 33.76 19.5311 33.7465 19.5409C33.7331 19.5506 33.7175 19.5571 33.7011 19.5599C33.6847 19.5627 33.6679 19.5616 33.6519 19.5568C33.637 19.549 33.6241 19.5378 33.6144 19.5241C33.6047 19.5103 33.5984 19.4944 33.596 19.4778C33.5937 19.4611 33.5953 19.4441 33.6009 19.4282C33.6064 19.4123 33.6157 19.398 33.6279 19.3864" fill="var(--fill-0, white)"/>
<path id="Vector_41" d="M36.7911 20.668C36.8057 20.6596 36.8221 20.6549 36.839 20.6543C36.8558 20.6537 36.8725 20.6572 36.8876 20.6645C36.9028 20.6719 36.9159 20.6828 36.9259 20.6964C36.9358 20.7099 36.9423 20.7257 36.9447 20.7424C36.9463 20.7598 36.9434 20.7772 36.9362 20.7931C36.929 20.809 36.9178 20.8228 36.9037 20.8331C36.8896 20.8434 36.8731 20.8498 36.8558 20.8518C36.8384 20.8537 36.8209 20.8512 36.8048 20.8443C36.7888 20.8375 36.7748 20.8266 36.7642 20.8127C36.7536 20.7988 36.7468 20.7825 36.7445 20.7652C36.7421 20.7479 36.7443 20.7303 36.7508 20.7141C36.7573 20.6979 36.7679 20.6837 36.7816 20.6728" fill="var(--fill-0, white)"/>
<path id="Vector_42" d="M25.2471 29.6248C25.262 29.6169 25.2785 29.6128 25.2953 29.6126C25.3121 29.6124 25.3287 29.6162 25.3437 29.6237C25.3587 29.6312 25.3717 29.6422 25.3816 29.6557C25.3916 29.6693 25.3981 29.685 25.4007 29.7016C25.4005 29.7182 25.3963 29.7345 25.3885 29.7492C25.3808 29.7639 25.3697 29.7765 25.3561 29.7861C25.3426 29.7957 25.3269 29.8019 25.3105 29.8043C25.2941 29.8068 25.2773 29.8053 25.2615 29.8C25.2466 29.7925 25.2337 29.7815 25.224 29.768C25.2142 29.7545 25.2079 29.7388 25.2055 29.7223C25.2032 29.7058 25.2049 29.6889 25.2104 29.6732C25.216 29.6575 25.2253 29.6433 25.2375 29.632" fill="var(--fill-0, white)"/>
<path id="Vector_43" d="M24.7383 27.0112C24.7532 27.0033 24.7697 26.9991 24.7865 26.999C24.8033 26.9988 24.8199 27.0026 24.8349 27.0101C24.8499 27.0176 24.8629 27.0286 24.8728 27.0421C24.8828 27.0557 24.8893 27.0714 24.8919 27.088C24.8917 27.1046 24.8875 27.1209 24.8797 27.1356C24.872 27.1503 24.8609 27.1629 24.8473 27.1725C24.8338 27.1821 24.8181 27.1883 24.8017 27.1907C24.7853 27.1932 24.7685 27.1917 24.7527 27.1864C24.7378 27.1789 24.7249 27.1679 24.7152 27.1544C24.7054 27.1409 24.6991 27.1252 24.6967 27.1087C24.6944 27.0921 24.6961 27.0753 24.7016 27.0596C24.7072 27.0439 24.7165 27.0297 24.7288 27.0184" fill="var(--fill-0, white)"/>
<path id="Vector_44" d="M24.5151 24.6448C24.53 24.6369 24.5465 24.6328 24.5633 24.6326C24.5801 24.6324 24.5967 24.6362 24.6117 24.6437C24.6267 24.6512 24.6397 24.6622 24.6496 24.6757C24.6596 24.6893 24.6661 24.705 24.6687 24.7216C24.669 24.7384 24.6652 24.755 24.6576 24.77C24.65 24.7849 24.6388 24.7978 24.6251 24.8075C24.6114 24.8172 24.5955 24.8234 24.5789 24.8256C24.5622 24.8278 24.5453 24.8258 24.5295 24.82C24.5148 24.812 24.5021 24.8006 24.4926 24.7868C24.4831 24.7729 24.4771 24.757 24.4749 24.7403C24.4728 24.7237 24.4747 24.7067 24.4805 24.691C24.4862 24.6752 24.4956 24.661 24.5079 24.6496" fill="var(--fill-0, white)"/>
<path id="Vector_45" d="M24.2919 22.1392C24.3068 22.1313 24.3233 22.1272 24.3401 22.127C24.3569 22.1268 24.3735 22.1306 24.3885 22.1381C24.4035 22.1456 24.4165 22.1566 24.4264 22.1701C24.4364 22.1837 24.4429 22.1994 24.4455 22.216C24.4453 22.2326 24.4411 22.2489 24.4333 22.2636C24.4256 22.2783 24.4145 22.2909 24.4009 22.3005C24.3874 22.3101 24.3717 22.3163 24.3553 22.3188C24.3389 22.3212 24.3221 22.3197 24.3063 22.3144C24.2914 22.3069 24.2785 22.2959 24.2688 22.2824C24.259 22.2689 24.2527 22.2532 24.2503 22.2367C24.248 22.2202 24.2497 22.2033 24.2552 22.1876C24.2608 22.1719 24.2701 22.1577 24.2823 22.1464" fill="var(--fill-0, white)"/>
<path id="Vector_46" d="M38.6632 20.0536C38.6777 20.0437 38.6946 20.0379 38.7122 20.0366C38.7297 20.0353 38.7473 20.0387 38.7632 20.0463C38.779 20.0539 38.7926 20.0655 38.8026 20.08C38.8125 20.0945 38.8186 20.1113 38.82 20.1289C38.8214 20.1464 38.8183 20.164 38.8108 20.1799C38.8033 20.1959 38.7918 20.2096 38.7774 20.2197C38.763 20.2298 38.7462 20.2359 38.7287 20.2375C38.7112 20.2391 38.6935 20.2361 38.6776 20.2288C38.6618 20.2208 38.6484 20.2089 38.6386 20.1943C38.6288 20.1797 38.6228 20.1628 38.6214 20.1452C38.62 20.1276 38.623 20.11 38.6303 20.094C38.6376 20.0779 38.6489 20.064 38.6632 20.0536Z" fill="var(--fill-0, white)"/>
<path id="Vector_47" d="M35.6967 30.1768C35.7113 30.1684 35.7277 30.1637 35.7446 30.1631C35.7614 30.1625 35.7781 30.166 35.7932 30.1733C35.8084 30.1807 35.8215 30.1916 35.8315 30.2052C35.8414 30.2187 35.8479 30.2345 35.8503 30.2512C35.8523 30.2687 35.8495 30.2864 35.8425 30.3026C35.8354 30.3188 35.8242 30.3328 35.81 30.3432C35.7958 30.3537 35.7791 30.3603 35.7616 30.3623C35.744 30.3643 35.7263 30.3616 35.7101 30.3546C35.6939 30.3476 35.6798 30.3365 35.6693 30.3223C35.6588 30.3082 35.6521 30.2915 35.65 30.274C35.648 30.2565 35.6505 30.2387 35.6575 30.2225C35.6644 30.2063 35.6754 30.1922 35.6895 30.1816" fill="var(--fill-0, white)"/>
<path id="Vector_48" d="M36.0351 32.6584C36.0497 32.6485 36.0666 32.6427 36.0842 32.6414C36.1017 32.6401 36.1193 32.6435 36.1352 32.6511C36.151 32.6587 36.1646 32.6703 36.1746 32.6848C36.1845 32.6993 36.1905 32.7161 36.192 32.7337C36.1934 32.7512 36.1903 32.7688 36.1828 32.7847C36.1753 32.8007 36.1638 32.8144 36.1494 32.8245C36.135 32.8346 36.1182 32.8407 36.1007 32.8423C36.0832 32.8439 36.0655 32.8409 36.0495 32.8336C36.0343 32.8252 36.0214 32.8131 36.012 32.7985C36.0025 32.7839 35.9969 32.7672 35.9954 32.7498C35.994 32.7325 35.9969 32.7151 36.0038 32.6991C36.0107 32.6832 36.0215 32.6692 36.0351 32.6584Z" fill="var(--fill-0, white)"/>
<g id="Group_6" opacity="0.3">
<path id="Vector_49" d="M37.5256 17.5792C37.5496 17.6536 36.8055 17.9872 35.5335 18.3304C34.7885 18.5318 34.033 18.692 33.2703 18.8104C31.3993 19.1014 29.5 19.1658 27.6135 19.0024C26.8452 18.9354 26.081 18.828 25.3239 18.6808C24.0327 18.4216 23.2671 18.1408 23.2863 18.064C23.3247 17.8744 26.4831 18.6016 30.4287 18.4528C34.3743 18.304 37.4728 17.4016 37.5256 17.5792Z" fill="var(--fill-0, white)"/>
</g>
<path id="Vector_50" d="M28.4511 33.6592C28.4511 33.6592 28.4031 33.628 28.3191 33.5584C28.2351 33.4888 28.1151 33.3784 27.9687 33.232C27.5465 32.8175 27.2033 32.3295 26.9559 31.792C26.7922 31.4205 26.6574 31.037 26.5527 30.6448C26.4279 30.2296 26.3127 29.7808 26.1783 29.308C25.9263 28.36 25.6815 27.3136 25.4583 26.2048C25.0849 24.3062 24.8197 22.3879 24.6639 20.4592C24.6087 19.7224 24.5775 19.1248 24.5631 18.7096V18.2296C24.5589 18.1737 24.5589 18.1175 24.5631 18.0616C24.5763 18.1158 24.5835 18.1714 24.5847 18.2272C24.5847 18.3496 24.6063 18.5056 24.6207 18.7072C24.6495 19.12 24.6951 19.7176 24.7623 20.452C24.9039 21.9232 25.1511 23.9536 25.5927 26.1664C25.8135 27.2704 26.0535 28.3264 26.3127 29.2648C26.4351 29.7448 26.5527 30.184 26.6751 30.6016C26.774 30.9905 26.9016 31.3715 27.0567 31.7416C27.2913 32.2733 27.6161 32.7605 28.0167 33.1816C28.1559 33.3328 28.2711 33.4456 28.3479 33.5224C28.3854 33.5656 28.4199 33.6113 28.4511 33.6592Z" fill="var(--fill-0, white)"/>
<path id="Vector_51" d="M34.0383 26.0032C34.0719 26.0032 34.3288 27.9088 34.6144 30.2704C34.9 32.632 35.0943 34.5496 35.0679 34.5544C35.0415 34.5592 34.7751 32.6464 34.4895 30.2848C34.2039 27.9232 34.0023 26.0056 34.0383 26.0032Z" fill="var(--fill-0, white)"/>
<path id="Vector_52" d="M30.4239 15.2296C30.4891 15.2791 30.5472 15.3373 30.5967 15.4024C30.6999 15.5176 30.8367 15.688 31.0287 15.8992C31.3911 16.324 31.8831 16.9168 32.4207 17.5792L32.6199 17.8192L32.6439 17.848C32.6572 17.8576 32.6672 17.871 32.6727 17.8864C32.6802 17.9036 32.6866 17.9212 32.6919 17.9392V17.98C32.7039 18.0328 32.7087 18.0832 32.7159 18.1336C32.7351 18.3352 32.7471 18.5296 32.7567 18.7144C32.7759 19.0816 32.7831 19.4152 32.7903 19.6936C32.7975 19.972 32.7903 20.1976 32.7903 20.3536C32.7962 20.434 32.7905 20.5148 32.7735 20.5936C32.7288 20.2956 32.704 19.9949 32.6991 19.6936C32.6823 19.4056 32.6607 19.0768 32.6391 18.7192C32.6391 18.5344 32.6127 18.3424 32.5911 18.1456C32.5911 18.0976 32.5791 18.0472 32.5695 18.0016V17.9656V17.9464C32.5695 17.9464 32.5407 17.9152 32.5287 17.8936L32.3295 17.6536C31.7919 16.996 31.3095 16.3936 30.9663 15.9568C30.7935 15.736 30.6567 15.5584 30.5631 15.4312C30.5086 15.37 30.4618 15.3023 30.4239 15.2296Z" fill="var(--fill-0, white)"/>
<path id="Vector_53" d="M34.2519 29.6248C34.1547 29.6572 34.054 29.6781 33.9519 29.6872C33.7551 29.7208 33.4719 29.7592 33.1239 29.8024C32.4231 29.8912 31.4439 29.9848 30.3759 30.0424C29.3079 30.1 28.3239 30.1 27.6183 30.0856C27.2679 30.0856 26.9823 30.0664 26.7855 30.0544C26.6824 30.0537 26.5795 30.0433 26.4783 30.0232C26.5798 30.0058 26.6828 29.9994 26.7855 30.004H27.6207C28.3239 30.004 29.3007 29.9776 30.3711 29.9248C31.4415 29.872 32.4135 29.7904 33.1143 29.7256L33.9447 29.6488C34.0462 29.6312 34.149 29.6231 34.2519 29.6248Z" fill="var(--fill-0, white)"/>
<path id="Vector_54" d="M39.8319 20.3536C39.8319 20.3536 39.7767 20.404 39.6663 20.4712C39.5109 20.568 39.3507 20.6569 39.1863 20.7376C38.6415 21.0032 38.0746 21.2208 37.4919 21.388C36.9113 21.5599 36.3195 21.6914 35.7207 21.7816C35.4742 21.8307 35.2233 21.8548 34.9719 21.8536C35.2123 21.785 35.4568 21.7321 35.7039 21.6952C36.1575 21.604 36.7815 21.4552 37.4559 21.2704C38.0327 21.1012 38.5986 20.8968 39.1503 20.6584C39.5559 20.4712 39.8103 20.3368 39.8319 20.3536Z" fill="var(--fill-0, white)"/>
<path id="Vector_55" d="M35.2251 25.2584C36.3236 24.1599 36.3236 22.3789 35.2251 21.2805C34.1266 20.182 32.3457 20.182 31.2472 21.2805C30.1487 22.3789 30.1487 24.1599 31.2472 25.2584C32.3457 26.3568 34.1266 26.3568 35.2251 25.2584Z" fill="var(--fill-0, #3E4551)"/>
<path id="Vector_56" d="M33.9871 25.1795C35.0402 24.7643 35.5572 23.574 35.142 22.521C34.7268 21.4679 33.5365 20.9508 32.4834 21.3661C31.4304 21.7813 30.9133 22.9716 31.3285 24.0246C31.7438 25.0777 32.9341 25.5948 33.9871 25.1795Z" fill="var(--fill-0, white)"/>
<path id="Vector_57" d="M34.3263 23.7112C34.3043 23.6011 34.2898 23.4896 34.2831 23.3776C34.2639 23.1664 34.2376 22.864 34.2088 22.4968L34.2351 22.5352L33.1383 22H33.1983L32.1807 22.6744C32.1543 22.7248 32.2143 22.6072 32.2071 22.6192V22.6936V22.7728V22.9312C32.2071 23.0368 32.2191 23.14 32.2239 23.2408C32.2359 23.4448 32.2455 23.6416 32.2575 23.8312L32.2239 23.7832L33.3088 24.3424H33.2631C33.5751 24.1432 33.8319 23.9848 34.0119 23.8744C34.107 23.8134 34.2056 23.7581 34.3072 23.7088C34.2309 23.7837 34.1463 23.8497 34.0551 23.9056C33.8847 24.028 33.6327 24.2032 33.3135 24.4192L33.2919 24.4336H33.2679L32.1711 23.8984L32.1423 23.884V23.848C32.1303 23.6584 32.1159 23.4616 32.1039 23.2576C32.1039 23.1568 32.0919 23.0536 32.0847 22.948V22.7896V22.7104V22.6192C32.0847 22.6312 32.1399 22.5136 32.1135 22.5616L33.1359 21.8944L33.1647 21.8752L33.1935 21.892L34.2783 22.4512L34.3047 22.4632V22.4896C34.3215 22.8712 34.3311 23.1808 34.3359 23.392C34.3442 23.4984 34.341 23.6054 34.3263 23.7112Z" fill="var(--fill-0, #6869AC)"/>
<g id="Group_7" opacity="0.2">
<path id="Vector_58" d="M22.4751 17.692C22.4751 17.692 30.7143 13.192 39.4359 15.7192C39.4359 15.7192 35.7039 19.2592 22.4751 17.692Z" fill="var(--fill-0, #101723)"/>
</g>
<path id="Vector_59" d="M35.7519 73.0624C35.7664 73.0524 35.7832 73.0463 35.8007 73.0448C35.8182 73.0434 35.8358 73.0465 35.8518 73.0539C35.8677 73.0613 35.8814 73.0727 35.8916 73.0871C35.9017 73.1014 35.9079 73.1182 35.9096 73.1357C35.9113 73.1531 35.9084 73.1708 35.9011 73.1868C35.8939 73.2028 35.8826 73.2166 35.8684 73.2269C35.8541 73.2372 35.8374 73.2436 35.82 73.2455C35.8025 73.2474 35.7848 73.2446 35.7687 73.2376C35.7538 73.2298 35.7409 73.2186 35.7312 73.2049C35.7215 73.1911 35.7152 73.1752 35.7128 73.1586C35.7105 73.1419 35.7121 73.1249 35.7177 73.109C35.7232 73.0931 35.7325 73.0788 35.7447 73.0672" fill="var(--fill-0, white)"/>
<path id="Vector_60" d="M32.1735 42.2368C32.3247 48.0976 32.9223 53.9608 34.4151 59.6296C34.6695 60.604 34.9719 61.6144 35.6703 62.3392C36.3687 63.064 37.5903 63.388 38.3967 62.788C39.0903 62.2768 39.2463 61.3216 39.3423 60.4648C40.088 54.187 40.5022 47.8742 40.5831 41.5528C40.5831 41.5528 40.7679 36.7216 37.3599 36.724C33.9519 36.7264 32.0823 38.6464 32.1735 42.2368Z" fill="var(--fill-0, #6869AC)"/>
<g id="Group_8" opacity="0.2">
<path id="Vector_61" d="M34.5519 37.2592C34.9791 36.7432 35.8383 36.7792 36.3591 37.1992C36.8799 37.6192 37.1079 38.3056 37.1847 38.9704C37.4247 41.0728 36.3928 43.0888 36.0256 45.172C35.6728 47.1784 35.9416 49.2376 35.8456 51.2704C35.7496 53.3032 35.3007 55.3816 33.7095 56.6488C33.7095 56.6488 32.1687 48.8128 32.3847 45.82C32.5455 43.6288 34.5519 37.2592 34.5519 37.2592Z" fill="var(--fill-0, #101723)"/>
</g>
<path id="Vector_62" d="M35.0079 45.1552C35.0235 45.2149 35.0332 45.276 35.0367 45.3376L35.0944 45.8632C35.1424 46.3312 35.2095 46.9864 35.2911 47.7832C35.4615 49.4128 35.7087 51.6616 36.0279 54.1384C36.3471 56.6152 36.676 58.8544 36.9256 60.472C37.0504 61.2712 37.1512 61.924 37.2232 62.392C37.2544 62.608 37.2808 62.7808 37.3 62.9128C37.3122 62.9728 37.3186 63.0339 37.3191 63.0952C37.2985 63.0377 37.284 62.9781 37.276 62.9176C37.2488 62.788 37.2151 62.6152 37.1751 62.3992C37.0887 61.948 36.9735 61.2976 36.8391 60.4792C36.5679 58.864 36.2224 56.6272 35.9032 54.148C35.584 51.6688 35.3512 49.4176 35.2048 47.7856C35.1304 46.9696 35.0775 46.3096 35.0463 45.8512C35.0319 45.632 35.02 45.4568 35.0104 45.3256C35.0051 45.2689 35.0043 45.212 35.0079 45.1552Z" fill="var(--fill-0, white)"/>
<path id="Vector_63" d="M29.9919 46.4752C31.5831 47.2528 33.8535 46.6216 34.9551 45.0136C36.0567 43.4056 36.3951 41.4136 36.7191 39.4936C36.8247 38.848 36.9111 38.116 36.5103 37.6C36.0495 37.0096 35.1831 36.9808 34.4367 37.0048L27.3207 37.2448C27.3207 37.2448 24.7311 37.9864 24.7311 39.5488C24.7311 41.1112 27.8151 45.4192 29.9919 46.4752Z" fill="var(--fill-0, #3E4551)"/>
<path id="Vector_64" d="M36.1048 63.6592C35.3392 63.6952 34.6959 64.3096 34.3935 65.0152C34.0911 65.7208 34.0575 66.508 34.0311 67.2736C33.8679 71.9392 33.7047 76.6144 33.9639 81.2752C34.0191 82.2856 34.1176 83.3584 34.7344 84.1552C35.3512 84.952 36.676 85.2904 37.3744 84.5584C37.7728 84.1408 37.8543 83.5216 37.9167 82.948L39.7311 66.2632C39.7983 65.6344 39.8583 64.9552 39.5367 64.4104C39.3671 64.1575 39.1422 63.9466 38.879 63.7936C38.6158 63.6406 38.3212 63.5495 38.0176 63.5272C37.4107 63.4857 36.8011 63.5384 36.2104 63.6832" fill="var(--fill-0, #6869AC)"/>
<path id="Vector_65" d="M35.1639 85.6072C35.1627 85.5888 35.1627 85.5704 35.1639 85.552L35.1423 85.3864C35.1255 85.2424 35.0992 85.0288 35.0728 84.7528C35.02 84.2008 34.9599 83.3992 34.9167 82.408C34.8207 80.4232 34.8399 77.68 34.9311 74.6536C35.0223 71.6272 35.1111 68.8936 35.1711 66.9064C35.1693 66.1175 35.3057 65.3345 35.5744 64.5928C35.6563 64.3945 35.7576 64.2048 35.8767 64.0264L35.9775 63.8944C35.9991 63.8632 36.0135 63.8488 36.0135 63.8512C36.007 63.869 35.9981 63.886 35.9872 63.9016L35.8983 64.0408C35.7894 64.2221 35.6963 64.4124 35.62 64.6096C35.3706 65.35 35.2488 66.1275 35.26 66.9088C35.2072 68.9008 35.1352 71.6368 35.056 74.6584C34.9768 77.68 34.9312 80.4184 35.0032 82.4032C35.0368 83.3944 35.0848 84.196 35.1232 84.748C35.14 85.0168 35.1567 85.228 35.1663 85.384V85.552C35.1697 85.5703 35.1689 85.5892 35.1639 85.6072Z" fill="var(--fill-0, white)"/>
<path id="Vector_66" d="M34.3935 85.9792C34.3081 85.5042 34.2855 85.02 34.3263 84.5392C34.3697 84.0567 34.6017 83.6108 34.972 83.2984C35.2844 83.0986 35.6398 82.9755 36.0089 82.9392C36.378 82.9029 36.7505 82.9544 37.096 83.0896C37.3479 83.2357 37.5619 83.4392 37.7203 83.6836C37.8788 83.928 37.9774 84.2063 38.0079 84.496L38.3656 86.236" fill="var(--fill-0, #3E4551)"/>
<path id="Vector_67" d="M34.2519 85.8976L38.3943 85.9408C38.3943 85.9408 41.4423 86.632 41.3775 86.8768C41.3127 87.1216 34.1295 86.8288 34.1295 86.8288L34.2519 85.8976Z" fill="var(--fill-0, #6869AC)"/>
<path id="Vector_68" d="M33.2223 37.2256C33.2785 37.3457 33.325 37.4701 33.3615 37.5976C33.4141 37.7445 33.4582 37.8944 33.4935 38.0464C33.55 38.2455 33.5965 38.4474 33.6327 38.6512C33.6846 38.8962 33.7239 39.1437 33.7503 39.3928C33.7887 39.6616 33.8007 39.9496 33.8199 40.2544C33.8398 40.914 33.8021 41.5741 33.7071 42.2272C33.6051 42.8803 33.4445 43.5229 33.2271 44.1472C33.1143 44.4304 33.0159 44.7016 32.8911 44.944C32.8311 45.064 32.7783 45.184 32.7183 45.2944L32.5407 45.6088C32.4385 45.7887 32.3272 45.9634 32.2071 46.132C32.123 46.2638 32.03 46.3897 31.9287 46.5088C31.8518 46.6166 31.765 46.717 31.6695 46.8088C31.7338 46.6932 31.8076 46.5832 31.8903 46.48C31.984 46.3549 32.0714 46.2251 32.1519 46.0912C32.2479 45.9376 32.3631 45.7672 32.4663 45.5632C32.5215 45.4624 32.5767 45.3568 32.6367 45.2488C32.6967 45.1408 32.7423 45.0088 32.7999 44.896C32.9175 44.656 33.0111 44.3848 33.1215 44.1064C33.3356 43.4885 33.4961 42.8533 33.6015 42.208C33.6959 41.562 33.7368 40.9094 33.7239 40.2568C33.7095 39.9568 33.7023 39.6712 33.6663 39.4048C33.6303 39.1384 33.6039 38.8912 33.5655 38.668C33.5271 38.4448 33.4839 38.2408 33.4455 38.0632C33.4071 37.8856 33.3711 37.7344 33.3351 37.612C33.2882 37.4861 33.2505 37.357 33.2223 37.2256Z" fill="var(--fill-0, #A2A3A8)"/>
<path id="Vector_69" d="M36.4719 51.196C36.4866 51.1882 36.503 51.1839 36.5196 51.1836C36.5362 51.1833 36.5527 51.1869 36.5677 51.1941C36.5826 51.2014 36.5957 51.2121 36.6057 51.2253C36.6158 51.2386 36.6226 51.254 36.6256 51.2704C36.6271 51.2878 36.6242 51.3052 36.617 51.3211C36.6098 51.337 36.5986 51.3508 36.5845 51.3611C36.5704 51.3713 36.5539 51.3778 36.5366 51.3798C36.5192 51.3817 36.5017 51.3792 36.4856 51.3723C36.4696 51.3655 36.4556 51.3546 36.445 51.3407C36.4344 51.3268 36.4276 51.3105 36.4253 51.2932C36.4229 51.2759 36.4251 51.2583 36.4316 51.2421C36.4381 51.2259 36.4487 51.2117 36.4623 51.2008" fill="var(--fill-0, white)"/>
<path id="Vector_70" d="M37.0695 56.3296C37.0842 56.3202 37.101 56.3148 37.1184 56.3139C37.1357 56.313 37.153 56.3166 37.1686 56.3243C37.1842 56.332 37.1975 56.3437 37.2072 56.358C37.217 56.3724 37.2228 56.3891 37.2242 56.4064C37.2256 56.4237 37.2225 56.4411 37.2152 56.4569C37.2079 56.4727 37.1967 56.4863 37.1826 56.4964C37.1684 56.5066 37.1519 56.5129 37.1347 56.5148C37.1174 56.5167 37.0999 56.514 37.0839 56.5072C37.0692 56.4992 37.0565 56.4878 37.047 56.474C37.0375 56.4601 37.0315 56.4442 37.0293 56.4275C37.0272 56.4109 37.0291 56.3939 37.0349 56.3782C37.0406 56.3624 37.05 56.3482 37.0623 56.3368" fill="var(--fill-0, white)"/>
<path id="Vector_71" d="M35.8503 45.9568C35.8649 45.9469 35.8818 45.9411 35.8994 45.9398C35.9169 45.9385 35.9345 45.9419 35.9504 45.9495C35.9662 45.9571 35.9798 45.9687 35.9898 45.9832C35.9997 45.9977 36.0057 46.0145 36.0072 46.0321C36.0086 46.0496 36.0055 46.0672 35.998 46.0831C35.9905 46.0991 35.979 46.1128 35.9646 46.1229C35.9502 46.133 35.9334 46.1391 35.9159 46.1407C35.8984 46.1423 35.8807 46.1393 35.8647 46.132C35.85 46.124 35.8373 46.1126 35.8278 46.0988C35.8183 46.0849 35.8123 46.069 35.8101 46.0523C35.808 46.0357 35.8099 46.0187 35.8157 46.003C35.8214 45.9872 35.8308 45.973 35.8431 45.9616" fill="var(--fill-0, white)"/>
<path id="Vector_72" d="M35.8503 68.164C35.8651 68.1556 35.8817 68.1509 35.8987 68.1504C35.9157 68.15 35.9325 68.1537 35.9477 68.1613C35.9629 68.1689 35.976 68.1801 35.9858 68.194C35.9956 68.2078 36.0018 68.2239 36.0039 68.2408C36.0042 68.2576 36.0004 68.2742 35.9928 68.2892C35.9852 68.3041 35.974 68.317 35.9603 68.3267C35.9466 68.3364 35.9307 68.3426 35.9141 68.3448C35.8974 68.347 35.8805 68.345 35.8647 68.3392C35.85 68.3312 35.8373 68.3198 35.8278 68.306C35.8183 68.2921 35.8123 68.2762 35.8101 68.2595C35.808 68.2429 35.8099 68.226 35.8157 68.2102C35.8214 68.1944 35.8308 68.1802 35.8431 68.1688" fill="var(--fill-0, white)"/>
<path id="Vector_73" d="M38.0872 84.5392C37.9194 84.6317 37.7391 84.6996 37.5519 84.7408C37.1074 84.8629 36.6513 84.9385 36.1911 84.9664C35.7311 84.9954 35.2693 84.9753 34.8135 84.9064C34.6233 84.8882 34.4366 84.843 34.2591 84.772C34.897 84.8367 35.5383 84.8599 36.1791 84.8416C36.8209 84.7813 37.4582 84.6803 38.0872 84.5392Z" fill="var(--fill-0, #A2A3A8)"/>
<g id="Group_9" opacity="0.2">
<path id="Vector_74" d="M33.8319 77.7184C34.9287 76.9168 35.6319 75.6664 36.0231 74.3584C36.4143 73.0504 36.52 71.6896 36.6256 70.3336C36.7312 68.9776 36.8415 67.6096 37.2423 66.3088C37.3574 66.0346 37.4012 65.7357 37.3695 65.44C37.2711 64.9744 36.796 64.7008 36.3616 64.504C35.824 64.264 35.1472 64.06 34.6816 64.4272C34.3336 64.7032 34.2567 65.1928 34.2135 65.6272C33.7959 69.7072 33.8295 73.7992 33.8631 77.8888" fill="var(--fill-0, #101723)"/>
</g>
<path id="Vector_75" d="M37.3863 65.884C39.014 65.884 40.3335 64.5645 40.3335 62.9368C40.3335 61.3091 39.014 59.9896 37.3863 59.9896C35.7587 59.9896 34.4391 61.3091 34.4391 62.9368C34.4391 64.5645 35.7587 65.884 37.3863 65.884Z" fill="var(--fill-0, #3E4551)"/>
<path id="Vector_76" d="M40.1679 62.512C40.1269 62.5806 40.075 62.6422 40.0143 62.6944C39.8584 62.845 39.6842 62.9756 39.4959 63.0832C38.8632 63.4283 38.1468 63.5903 37.4271 63.5512C36.7157 63.5063 36.0139 63.3634 35.3415 63.1264C35.0847 63.0424 34.8783 62.9656 34.7367 62.9104C34.6612 62.8872 34.5886 62.8549 34.5207 62.8144C34.808 62.8709 35.0911 62.9471 35.3679 63.0424C36.039 63.2474 36.7317 63.3739 37.4319 63.4192C38.1305 63.456 38.8267 63.3113 39.4527 62.9992C39.7042 62.8568 39.9434 62.6938 40.1679 62.512Z" fill="var(--fill-0, #A2A3A8)"/>
<path id="Vector_77" d="M6.78635 15.3928C6.78635 15.3928 6.20795 13.024 5.89835 12.9112C5.58875 12.7984 1.87595 13.3312 1.87595 13.3312C1.87595 13.3312 0.675948 11.6512 0.483948 11.4256C0.291948 11.2 -0.104052 11.7592 0.0255476 12.0136C0.155148 12.268 1.04075 14.7232 1.59035 14.8072C2.23574 14.8451 2.88303 14.8362 3.52715 14.7808L3.97835 16.3264L6.78635 15.3928Z" fill="var(--fill-0, #6869AC)"/>
<path id="Vector_78" d="M22.8351 24.5608C20.4927 25.4152 18.9951 25.8472 16.6503 26.7208C15.3495 27.2008 13.6935 27.7384 12.4671 28.0528C11.6487 28.264 10.7103 28.3288 9.91835 27.9832C9.24395 27.6904 8.74955 27.1024 8.30555 26.5144C6.22475 23.764 5.06555 20.2744 4.25675 16.9144L7.07195 16.384L12.1647 23.5072L21.4215 20.3416L22.9479 24.1048C22.9803 24.1387 23.0035 24.1802 23.0155 24.2254C23.0275 24.2707 23.0279 24.3183 23.0167 24.3637C23.0055 24.4092 22.9829 24.4511 22.9512 24.4855C22.9194 24.52 22.8795 24.5459 22.8351 24.5608Z" fill="var(--fill-0, #6869AC)"/>
<path id="Vector_79" d="M22.9311 18.6136C22.3625 18.7877 21.8517 19.1128 21.4532 19.5542C21.0547 19.9956 20.7834 20.5368 20.6681 21.1203C20.5529 21.7037 20.598 22.3074 20.7987 22.8672C20.9995 23.427 21.3482 23.9219 21.8079 24.2992C22.1919 24.6136 22.7319 24.856 23.1807 24.376C23.32 24.2219 23.4204 24.0367 23.4735 23.836C23.9728 22.0904 23.7785 20.2194 22.9311 18.6136Z" fill="var(--fill-0, #3E4551)"/>
<path id="Vector_80" d="M21.5103 19.5136C21.5103 19.5136 21.5103 19.492 21.5439 19.4584C21.582 19.4102 21.6264 19.3674 21.6759 19.3312C21.7162 19.3041 21.7622 19.2868 21.8103 19.2808C21.8665 19.2804 21.9221 19.2918 21.9735 19.3144C22.0345 19.3389 22.0875 19.3796 22.1271 19.432L22.2471 19.5904C22.688 20.1789 22.9915 20.8588 23.1351 21.58C23.2869 22.301 23.2663 23.0476 23.0751 23.7592C23.0134 23.9779 22.894 24.176 22.7295 24.3328C22.671 24.392 22.597 24.4336 22.5159 24.4528C22.5159 24.4528 22.5903 24.4048 22.6959 24.2968C22.8386 24.1364 22.94 23.9436 22.9911 23.7352C23.1513 23.0354 23.1587 22.3093 23.0127 21.6064C22.8713 20.9014 22.5862 20.2331 22.1751 19.6432C22.0935 19.528 22.0383 19.4032 21.9351 19.3768C21.8987 19.3557 21.8573 19.3446 21.8151 19.3446C21.773 19.3446 21.7316 19.3557 21.6951 19.3768C21.5751 19.4512 21.5175 19.5232 21.5103 19.5136Z" fill="var(--fill-0, #A2A3A8)"/>
<path id="Vector_81" d="M12.1647 23.5192C12.1903 23.5851 12.2041 23.6549 12.2055 23.7256C12.2325 23.9155 12.2413 24.1076 12.2319 24.2992C12.2213 24.5848 12.1779 24.8683 12.1023 25.144C11.8414 26.1029 11.2454 26.9365 10.4223 27.4936C10.2653 27.6038 10.1 27.7016 9.92795 27.7864C9.86736 27.8221 9.80187 27.8488 9.73355 27.8656C9.73355 27.844 9.99035 27.7096 10.3695 27.4216C10.8644 27.0485 11.2804 26.5811 11.5935 26.0464C11.7619 25.7516 11.8956 25.4383 11.9919 25.1128C12.0688 24.8455 12.1195 24.5714 12.1431 24.2944C12.1791 23.8192 12.1407 23.5216 12.1647 23.5192Z" fill="var(--fill-0, white)"/>
<path id="Vector_82" d="M20.9799 21.22C20.9919 21.2512 19.0287 22.0192 16.5951 22.9336C14.1615 23.848 12.1791 24.5656 12.1671 24.532C12.1551 24.4984 14.1159 23.7328 16.5519 22.8184C18.9879 21.904 20.9679 21.1792 20.9799 21.22Z" fill="var(--fill-0, white)"/>
<path id="Vector_83" d="M5.17355 16.8592C5.19468 16.8935 5.21084 16.9307 5.22155 16.9696L5.34155 17.296C5.44235 17.5768 5.58155 17.9848 5.78555 18.496C6.16955 19.4968 6.74555 20.8624 7.47755 22.336C7.84475 23.056 8.21675 23.752 8.56955 24.3664C8.92235 24.9808 9.26075 25.5232 9.55835 25.9672C9.70475 26.1928 9.84155 26.392 9.96395 26.5672C10.0863 26.7424 10.1895 26.8936 10.2807 27.0112L10.4823 27.2944C10.5255 27.3592 10.5495 27.3952 10.5447 27.3976C10.5143 27.3711 10.4869 27.3413 10.4631 27.3088L10.2423 27.0424C10.1463 26.9272 10.0336 26.7808 9.90875 26.608C9.78395 26.4352 9.63515 26.2408 9.48635 26.0176C9.17675 25.5784 8.83595 25.0336 8.46875 24.4264C8.10155 23.8192 7.73435 23.1256 7.36475 22.3936C6.73864 21.1409 6.18337 19.8541 5.70155 18.5392C5.51675 18.0328 5.38235 17.62 5.29595 17.3392C5.25755 17.2072 5.22395 17.0992 5.19755 17.008C5.18094 16.9602 5.17282 16.9098 5.17355 16.8592Z" fill="var(--fill-0, white)"/>
<path id="Vector_84" d="M13.9863 24.3856C14.0002 24.3761 14.0115 24.3634 14.0194 24.3485C14.0272 24.3337 14.0313 24.3172 14.0313 24.3004C14.0313 24.2836 14.0272 24.2671 14.0194 24.2522C14.0115 24.2374 14.0002 24.2247 13.9863 24.2152C13.971 24.2064 13.9537 24.2019 13.936 24.202C13.9184 24.2021 13.9011 24.2068 13.8858 24.2156C13.8706 24.2245 13.8579 24.2372 13.8491 24.2525C13.8403 24.2678 13.8357 24.2851 13.8357 24.3028C13.8357 24.3204 13.8403 24.3378 13.8491 24.353C13.8579 24.3683 13.8706 24.3811 13.8858 24.3899C13.9011 24.3988 13.9184 24.4035 13.936 24.4036C13.9537 24.4037 13.971 24.3991 13.9863 24.3904" fill="var(--fill-0, white)"/>
<path id="Vector_85" d="M10.0719 25.5448C10.0871 25.536 10.0997 25.5234 10.1086 25.5083C10.1174 25.4931 10.1221 25.476 10.1223 25.4584C10.1224 25.4409 10.118 25.4237 10.1095 25.4084C10.1009 25.3931 10.0885 25.3803 10.0735 25.3712C10.0585 25.3622 10.0414 25.3572 10.0239 25.3568C10.0064 25.3563 9.98906 25.3605 9.97364 25.3688C9.95821 25.3771 9.94522 25.3893 9.93595 25.4042C9.92667 25.419 9.92143 25.4361 9.92075 25.4536C9.92077 25.4713 9.92538 25.4888 9.93412 25.5042C9.94286 25.5197 9.95544 25.5326 9.97065 25.5418C9.98585 25.551 10.0032 25.5561 10.0209 25.5566C10.0386 25.5571 10.0562 25.553 10.0719 25.5448Z" fill="var(--fill-0, white)"/>
<path id="Vector_86" d="M8.28395 22.7608C8.29901 22.752 8.31154 22.7395 8.32034 22.7245C8.32913 22.7095 8.33389 22.6924 8.33413 22.675C8.33438 22.6576 8.33011 22.6404 8.32175 22.6252C8.31338 22.6099 8.3012 22.5971 8.2864 22.5879C8.27159 22.5787 8.25467 22.5736 8.23727 22.5729C8.21987 22.5722 8.2026 22.576 8.18712 22.584C8.17165 22.592 8.15851 22.6039 8.14898 22.6184C8.13945 22.633 8.13386 22.6498 8.13275 22.6672C8.13302 22.6849 8.13775 22.7022 8.14648 22.7176C8.15522 22.733 8.1677 22.746 8.18275 22.7553C8.19781 22.7646 8.21497 22.77 8.23265 22.771C8.25034 22.7719 8.26798 22.7684 8.28395 22.7608Z" fill="var(--fill-0, white)"/>
<path id="Vector_87" d="M16.2855 23.5792C16.3007 23.5704 16.3133 23.5578 16.3222 23.5427C16.331 23.5275 16.3357 23.5104 16.3359 23.4928C16.336 23.4753 16.3316 23.4581 16.3231 23.4428C16.3145 23.4275 16.3021 23.4147 16.2871 23.4056C16.2721 23.3966 16.255 23.3916 16.2375 23.3912C16.22 23.3907 16.2027 23.3949 16.1872 23.4032C16.1718 23.4115 16.1588 23.4237 16.1495 23.4386C16.1403 23.4534 16.135 23.4705 16.1343 23.488C16.135 23.5055 16.14 23.5225 16.1489 23.5376C16.1578 23.5527 16.1703 23.5653 16.1853 23.5744C16.2003 23.5834 16.2173 23.5886 16.2348 23.5894C16.2523 23.5903 16.2698 23.5868 16.2855 23.5792Z" fill="var(--fill-0, white)"/>
<path id="Vector_88" d="M18.8799 22.6864C18.8948 22.6785 18.9113 22.6743 18.9281 22.6742C18.9449 22.674 18.9615 22.6778 18.9765 22.6853C18.9915 22.6928 19.0045 22.7038 19.0144 22.7173C19.0244 22.7309 19.0309 22.7466 19.0335 22.7632C19.0331 22.7798 19.0289 22.7961 19.0212 22.8108C19.0134 22.8256 19.0024 22.8383 18.9889 22.8481C18.9754 22.8578 18.9599 22.8643 18.9435 22.8671C18.9271 22.8699 18.9103 22.8688 18.8943 22.864C18.8794 22.8562 18.8665 22.845 18.8568 22.8313C18.8471 22.8175 18.8408 22.8016 18.8384 22.785C18.8361 22.7683 18.8377 22.7513 18.8433 22.7354C18.8488 22.7195 18.8581 22.7052 18.8703 22.6936" fill="var(--fill-0, white)"/>
<path id="Vector_89" d="M4.19435 16.9432C5.15617 16.8742 6.11206 16.7387 7.05515 16.5376C7.43195 16.4608 7.86875 16.324 7.98635 15.9568C8.02094 15.8224 8.01676 15.681 7.97428 15.5489C7.93181 15.4168 7.85278 15.2994 7.74635 15.2104C7.52464 15.0402 7.26396 14.928 6.98795 14.884C6.14547 14.7095 5.27078 14.7778 4.46555 15.0808C4.17481 15.1755 3.91187 15.3404 3.69995 15.5608C3.59497 15.6724 3.52128 15.8097 3.48631 15.9588C3.45133 16.108 3.45631 16.2638 3.50075 16.4104C3.54545 16.5628 3.63791 16.6968 3.7645 16.7927C3.8911 16.8886 4.04513 16.9414 4.20395 16.9432" fill="var(--fill-0, #3E4551)"/>
<path id="Vector_90" d="M7.86155 15.592C7.86155 15.6112 7.62155 15.4888 7.20635 15.3784C6.67651 15.2374 6.12207 15.2153 5.5827 15.3136C5.04332 15.412 4.53235 15.6283 4.08635 15.9472C3.74315 16.1872 3.56555 16.3912 3.54875 16.3744C3.57688 16.3176 3.6151 16.2663 3.66155 16.2232C3.7758 16.0972 3.90022 15.9808 4.03355 15.8752C4.48002 15.524 5.00566 15.2875 5.56457 15.1863C6.12348 15.0851 6.69868 15.1222 7.23995 15.2944C7.40542 15.3448 7.56605 15.4098 7.71995 15.4888C7.77225 15.5156 7.82004 15.5504 7.86155 15.592Z" fill="var(--fill-0, #A2A3A8)"/>
<path id="Vector_91" d="M27.3519 63.4192C26.5887 63.5032 25.9839 64.1536 25.7247 64.8736C25.4655 65.5936 25.4847 66.3856 25.4967 67.1512C25.6095 71.8192 25.7223 76.4944 26.2551 81.1336C26.3727 82.1368 26.5335 83.2024 27.1959 83.9656C27.8583 84.7288 29.2023 84.9832 29.8551 84.2056C30.2271 83.764 30.2727 83.1424 30.3015 82.5664C30.5751 76.9792 30.8495 71.3912 31.1247 65.8024C31.1559 65.1712 31.1727 64.4896 30.8199 63.964C30.6369 63.7259 30.4028 63.5318 30.135 63.396C29.8671 63.2602 29.5722 63.1861 29.2719 63.1792C28.6636 63.1748 28.0581 63.2639 27.4767 63.4432" fill="var(--fill-0, #6869AC)"/>
<path id="Vector_92" d="M23.3871 42.2992C23.5359 48.16 24.1359 54.0256 25.6263 59.6944C25.8831 60.6688 26.1855 61.6768 26.8839 62.4016C27.5823 63.1264 28.8039 63.4504 29.6103 62.8528C30.3015 62.3392 30.4599 61.3864 30.5535 60.5296C31.3 54.251 31.7149 47.9374 31.7967 41.6152C31.7967 41.6152 31.9791 36.784 28.5735 36.7864C25.1679 36.7888 23.2959 38.7136 23.3871 42.2992Z" fill="var(--fill-0, #6869AC)"/>
<g id="Group_10" opacity="0.3">
<path id="Vector_93" d="M26.2359 60.5392C26.1519 60.5512 25.8783 59.3152 25.5159 57.3016C25.1535 55.288 24.6807 52.5016 24.3159 49.396C24.1311 47.8432 23.9967 46.3576 23.8863 45.0112C23.7759 43.6648 23.6871 42.424 23.8215 41.38C23.8947 40.5467 24.1636 39.7425 24.6063 39.0328L24.8463 38.7232C24.908 38.6499 24.9745 38.581 25.0455 38.5168C25.1559 38.4112 25.2231 38.3656 25.2375 38.38C25.2519 38.3944 25.2207 38.4688 25.1415 38.596C25.1055 38.6632 25.0503 38.7352 24.9975 38.836C24.9447 38.9368 24.8871 39.0424 24.8199 39.1624C24.4861 39.8731 24.2977 40.6434 24.2655 41.428C24.1935 42.424 24.3135 43.6216 24.4647 44.9632C24.6159 46.3048 24.7575 47.7832 24.9447 49.3288C25.3071 52.42 25.7031 55.2136 25.9599 57.2488C26.2167 59.284 26.3223 60.5248 26.2359 60.5392Z" fill="var(--fill-0, white)"/>
</g>
<path id="Vector_94" d="M28.1079 63.1072C28.0983 63.0857 28.091 63.0631 28.0863 63.04L28.0359 62.8432L27.8559 62.08C27.7071 61.4176 27.5079 60.4528 27.2871 59.2576C26.8551 56.8576 26.4039 53.5336 26.0871 49.8376C25.9239 47.9896 25.7943 46.2256 25.6815 44.6224C25.6239 43.8232 25.5711 43.06 25.5207 42.3472C25.4617 41.6849 25.4433 41.0197 25.4655 40.3552C25.4866 39.8042 25.591 39.2597 25.7751 38.74C25.9143 38.3472 26.117 37.9799 26.3751 37.6528C26.5391 37.4468 26.7305 37.2643 26.9439 37.1104C27.02 37.0561 27.1003 37.008 27.1839 36.9664C26.8952 37.1671 26.6379 37.4098 26.4207 37.6864C26.1728 38.0133 25.9792 38.3779 25.8471 38.7664C25.6739 39.2814 25.5777 39.8192 25.5615 40.3624C25.5446 41.0232 25.5679 41.6844 25.6311 42.3424C25.6863 43.0624 25.7415 43.816 25.8015 44.6176C25.9239 46.2184 26.0559 47.9776 26.2191 49.828C26.5383 53.5216 26.9751 56.8504 27.3855 59.2456C27.5919 60.4456 27.7791 61.4056 27.9135 62.0728C27.9807 62.3992 28.0335 62.656 28.0695 62.8384C28.0863 62.9224 28.0983 62.9872 28.1079 63.04C28.1101 63.0623 28.1101 63.0848 28.1079 63.1072Z" fill="var(--fill-0, white)"/>
<path id="Vector_95" d="M27.4455 83.9272C27.4278 83.8621 27.4165 83.7953 27.4119 83.728C27.3927 83.584 27.3687 83.392 27.3399 83.152C27.2799 82.6504 27.2007 81.9256 27.1143 81.028C26.9367 79.2328 26.7327 76.7488 26.5839 74.0008C26.4351 71.2528 26.3679 68.7592 26.3439 66.9568C26.3439 66.0544 26.3319 65.3248 26.3439 64.8208C26.3439 64.5808 26.3439 64.384 26.3439 64.24C26.3372 64.1729 26.3372 64.1054 26.3439 64.0384C26.3549 64.105 26.3597 64.1725 26.3583 64.24C26.3583 64.384 26.3583 64.576 26.3727 64.8208C26.3727 65.3368 26.3991 66.0616 26.4159 66.9544C26.4591 68.7568 26.5383 71.2456 26.6871 73.9936C26.8359 76.7416 27.0255 79.2232 27.1791 81.0184C27.2583 81.9088 27.3207 82.6312 27.3663 83.1472C27.3855 83.3872 27.4023 83.5816 27.4143 83.7256C27.4285 83.7921 27.439 83.8594 27.4455 83.9272Z" fill="var(--fill-0, white)"/>
<path id="Vector_96" d="M28.1871 65.9536C29.8148 65.9536 31.1343 64.6341 31.1343 63.0064C31.1343 61.3787 29.8148 60.0592 28.1871 60.0592C26.5595 60.0592 25.2399 61.3787 25.2399 63.0064C25.2399 64.6341 26.5595 65.9536 28.1871 65.9536Z" fill="var(--fill-0, #3E4551)"/>
<path id="Vector_97" d="M26.4687 86.5504C26.4687 86.0704 26.4687 84.7384 26.6079 84.2776C26.7239 83.8077 27.0183 83.4014 27.4287 83.1448C27.7656 82.9785 28.1419 82.9088 28.5159 82.9432C28.8858 82.9484 29.247 83.0555 29.5599 83.2528C29.7884 83.4335 29.9706 83.6659 30.0916 83.9309C30.2127 84.1959 30.269 84.4858 30.2559 84.7768L30.3543 86.5504" fill="var(--fill-0, #3E4551)"/>
<path id="Vector_98" d="M26.5335 85.9792L30.6783 85.9408C30.6783 85.9408 33.7383 86.5696 33.6783 86.8168C33.6183 87.064 26.4303 86.9104 26.4303 86.9104L26.5335 85.9792Z" fill="var(--fill-0, #6869AC)"/>
<path id="Vector_99" d="M26.6487 47.1832C26.6634 47.1753 26.6797 47.1711 26.6964 47.1708C26.713 47.1705 26.7295 47.1741 26.7445 47.1813C26.7594 47.1886 26.7725 47.1993 26.7825 47.2125C26.7926 47.2258 26.7994 47.2412 26.8023 47.2576C26.8039 47.275 26.801 47.2924 26.7938 47.3083C26.7866 47.3242 26.7754 47.338 26.7613 47.3483C26.7472 47.3585 26.7307 47.365 26.7134 47.367C26.696 47.3689 26.6785 47.3664 26.6624 47.3595C26.6464 47.3527 26.6324 47.3418 26.6218 47.3279C26.6112 47.314 26.6044 47.2977 26.6021 47.2804C26.5997 47.2631 26.6019 47.2455 26.6084 47.2293C26.6149 47.2131 26.6255 47.1988 26.6391 47.188" fill="var(--fill-0, white)"/>
<path id="Vector_100" d="M26.3487 42.7552C26.3633 42.7453 26.3802 42.7395 26.3978 42.7382C26.4153 42.7369 26.4329 42.7403 26.4488 42.7479C26.4646 42.7555 26.4782 42.7671 26.4882 42.7816C26.4981 42.7961 26.5041 42.8129 26.5056 42.8305C26.507 42.848 26.5039 42.8656 26.4964 42.8815C26.4889 42.8975 26.4774 42.9112 26.463 42.9213C26.4486 42.9314 26.4318 42.9375 26.4143 42.9391C26.3968 42.9407 26.3791 42.9377 26.3631 42.9304C26.3479 42.922 26.335 42.9099 26.3256 42.8953C26.3161 42.8807 26.3105 42.864 26.309 42.8466C26.3076 42.8293 26.3105 42.8119 26.3174 42.7959C26.3243 42.78 26.3351 42.766 26.3487 42.7552Z" fill="var(--fill-0, white)"/>
<path id="Vector_101" d="M27.0183 52.6192C27.0332 52.6113 27.0497 52.6072 27.0665 52.607C27.0833 52.6068 27.0999 52.6106 27.1149 52.6181C27.1299 52.6256 27.1429 52.6366 27.1528 52.6501C27.1628 52.6637 27.1693 52.6794 27.1719 52.696C27.1715 52.7126 27.1673 52.7289 27.1596 52.7436C27.1518 52.7584 27.1408 52.7711 27.1273 52.7809C27.1138 52.7906 27.0983 52.7971 27.0819 52.7999C27.0655 52.8027 27.0487 52.8016 27.0327 52.7968C27.0178 52.789 27.0049 52.7778 26.9952 52.7641C26.9855 52.7503 26.9792 52.7344 26.9768 52.7178C26.9745 52.7011 26.9761 52.6841 26.9817 52.6682C26.9872 52.6523 26.9965 52.638 27.0087 52.6264" fill="var(--fill-0, white)"/>
<path id="Vector_102" d="M27.7671 58.7296C27.782 58.7217 27.7985 58.7176 27.8153 58.7174C27.8321 58.7172 27.8487 58.721 27.8637 58.7285C27.8787 58.736 27.8917 58.747 27.9016 58.7605C27.9116 58.7741 27.9181 58.7898 27.9207 58.8064C27.9203 58.823 27.9161 58.8393 27.9084 58.854C27.9006 58.8688 27.8896 58.8815 27.8761 58.8913C27.8626 58.901 27.8471 58.9075 27.8307 58.9103C27.8143 58.9131 27.7975 58.912 27.7815 58.9072C27.7666 58.8994 27.7537 58.8882 27.744 58.8745C27.7343 58.8607 27.728 58.8448 27.7256 58.8282C27.7233 58.8115 27.7249 58.7945 27.7305 58.7786C27.736 58.7627 27.7453 58.7484 27.7575 58.7368" fill="var(--fill-0, white)"/>
<path id="Vector_103" d="M26.9199 68.056C26.9346 68.0466 26.9514 68.0412 26.9688 68.0403C26.9861 68.0394 27.0034 68.043 27.019 68.0507C27.0346 68.0584 27.0479 68.0701 27.0576 68.0844C27.0674 68.0988 27.0732 68.1155 27.0746 68.1328C27.076 68.1501 27.0729 68.1675 27.0656 68.1833C27.0583 68.1991 27.0471 68.2127 27.033 68.2228C27.0188 68.233 27.0023 68.2393 26.9851 68.2412C26.9678 68.2431 26.9503 68.2404 26.9343 68.2336C26.9186 68.2253 26.9053 68.2132 26.8955 68.1983C26.8857 68.1835 26.8798 68.1664 26.8784 68.1487C26.877 68.131 26.88 68.1132 26.8873 68.097C26.8945 68.0808 26.9058 68.0667 26.9199 68.056Z" fill="var(--fill-0, white)"/>
<path id="Vector_104" d="M27.3879 72.8728C27.4025 72.8629 27.4194 72.8571 27.437 72.8558C27.4545 72.8545 27.4721 72.8579 27.488 72.8655C27.5038 72.8731 27.5174 72.8847 27.5274 72.8992C27.5373 72.9137 27.5433 72.9306 27.5448 72.9481C27.5462 72.9656 27.5431 72.9832 27.5356 72.9991C27.5281 73.0151 27.5166 73.0288 27.5022 73.0389C27.4878 73.049 27.471 73.0551 27.4535 73.0567C27.436 73.0583 27.4183 73.0553 27.4023 73.048C27.3866 73.04 27.3732 73.0281 27.3634 73.0135C27.3536 72.9989 27.3476 72.982 27.3462 72.9644C27.3447 72.9468 27.3478 72.9292 27.3551 72.9132C27.3624 72.8971 27.3737 72.8832 27.3879 72.8728Z" fill="var(--fill-0, white)"/>
<path id="Vector_105" d="M27.4455 78.2704C27.4602 78.261 27.477 78.2556 27.4944 78.2547C27.5117 78.2538 27.529 78.2574 27.5446 78.2651C27.5602 78.2728 27.5735 78.2844 27.5832 78.2988C27.593 78.3132 27.5988 78.3299 27.6002 78.3472C27.6016 78.3645 27.5985 78.3819 27.5912 78.3977C27.5839 78.4135 27.5727 78.4271 27.5586 78.4372C27.5444 78.4474 27.5279 78.4537 27.5107 78.4556C27.4934 78.4574 27.4759 78.4548 27.4599 78.448C27.4442 78.4397 27.4309 78.4275 27.4211 78.4127C27.4113 78.3979 27.4054 78.3808 27.404 78.3631C27.4026 78.3454 27.4056 78.3276 27.4129 78.3114C27.4201 78.2952 27.4314 78.2811 27.4455 78.2704Z" fill="var(--fill-0, white)"/>
<path id="Vector_106" d="M31.0767 62.4208C31.0767 62.4208 31.0239 62.4928 30.9063 62.5984C30.7378 62.745 30.5563 62.876 30.3639 62.9896C29.7253 63.3741 28.9976 63.5858 28.2524 63.6039C27.5072 63.6219 26.7701 63.4458 26.1135 63.0928C25.9162 62.9866 25.7283 62.8638 25.5519 62.7256C25.4835 62.6794 25.4227 62.6227 25.3719 62.5576C25.3863 62.5384 25.6527 62.7664 26.1543 63.0136C26.8042 63.3365 27.523 63.4963 28.2485 63.4792C28.974 63.462 29.6844 63.2685 30.3183 62.9152C30.8079 62.644 31.0623 62.404 31.0767 62.4208Z" fill="var(--fill-0, #A2A3A8)"/>
<path id="Vector_107" d="M30.2319 84.7024C30.0695 84.7949 29.8939 84.8621 29.7111 84.9016C29.2774 85.0224 28.8314 85.0941 28.3815 85.1152C27.9309 85.1361 27.4794 85.1071 27.0351 85.0288C26.8497 85.0056 26.6685 84.9555 26.4975 84.88C27.1197 84.9617 27.7469 84.9986 28.3743 84.9904C28.9996 84.9389 29.6204 84.8427 30.2319 84.7024Z" fill="var(--fill-0, #A2A3A8)"/>
<path id="Vector_108" d="M33.3039 6.50558C33.3663 6.67771 33.3663 6.86625 33.3039 7.03838C33.2501 7.23003 33.1514 7.40609 33.0159 7.55198C32.8981 7.67873 32.7548 7.7793 32.5956 7.84719C32.4364 7.91507 32.2646 7.94874 32.0915 7.94602C31.9185 7.94331 31.7479 7.90426 31.5908 7.83142C31.4338 7.75858 31.2938 7.65357 31.1799 7.52318C31.0469 7.39574 30.962 7.22612 30.9399 7.04318C31.0259 7.19252 31.1273 7.33248 31.2423 7.46078C31.3713 7.59091 31.528 7.69019 31.7007 7.75118C31.9115 7.82431 32.1388 7.83596 32.3559 7.78478C32.5733 7.73696 32.7723 7.62785 32.9295 7.47038C33.0574 7.33913 33.1556 7.182 33.2175 7.00958C33.2637 6.84503 33.2927 6.67612 33.3039 6.50558Z" fill="var(--fill-0, white)"/>
</g>
</svg>
