<svg preserveAspectRatio="none" width="100%" height="100%" overflow="visible" style="display: block;" viewBox="0 0 85 20" fill="none" xmlns="http://www.w3.org/2000/svg">
<g id="freepik--Plants--inject-32">
<path id="Vector" d="M9.01938 17.4764C9.01938 17.4764 9.04807 13.3408 6.44046 10.2403C4.13273 7.49453 2.90454 5.75265 3.63207 4.94951C4.35959 4.14636 5.92415 3.9534 8.03371 6.17508C10.1433 8.39676 10.3075 14.5507 10.0155 15.9432L9.01938 17.4764Z" fill="var(--fill-0, #6869AC)"/>
<path id="Vector_2" opacity="0.2" d="M9.01938 17.4764C9.01938 17.4764 9.04807 13.3408 6.44046 10.2403C4.13273 7.49453 2.90454 5.75265 3.63207 4.94951C4.35959 4.14636 5.92415 3.9534 8.03371 6.17508C10.1433 8.39676 10.3075 14.5507 10.0155 15.9432L9.01938 17.4764Z" fill="var(--fill-0, #101723)"/>
<path id="Vector_3" d="M9.45743 13.0304C9.42774 13.0305 9.39889 13.0205 9.37565 13.002C9.35242 12.9835 9.3362 12.9577 9.32966 12.9287C8.417 8.66004 6.07537 6.30015 4.75853 5.27276C4.73126 5.25162 4.71349 5.22055 4.70909 5.18634C4.70469 5.15212 4.71403 5.11756 4.73506 5.09022C4.75666 5.06279 4.78818 5.04496 4.82282 5.04056C4.85746 5.03617 4.89243 5.04558 4.9202 5.06675C6.26311 6.1098 8.65429 8.52444 9.58521 12.8739C9.58903 12.8906 9.58949 12.9078 9.58655 12.9246C9.58361 12.9414 9.57734 12.9574 9.56811 12.9718C9.55887 12.9861 9.54686 12.9984 9.53278 13.0081C9.5187 13.0177 9.50283 13.0244 9.48612 13.0278L9.45743 13.0304Z" fill="var(--fill-0, white)"/>
<path id="Vector_4" d="M8.92027 19.0122L7.85898 19.625C7.74577 19.3156 7.55485 19.0406 7.30458 18.8264C7.05431 18.6122 6.75313 18.4661 6.43001 18.402C5.26962 18.1412 4.06491 18.1856 3.25133 17.179C2.43776 16.1725 3.42865 15.0773 3.25133 14.3367C3.07402 13.5962 2.95928 13.3823 1.50424 12.6418C0.0491906 11.9012 -0.524484 10.673 0.570712 9.8412C1.66591 9.00938 3.43908 9.61956 4.51342 10.3627C5.4678 11.0146 6.37525 11.1867 7.44176 11.3197C8.50827 11.4527 10.2449 12.0446 9.97896 14.5219C9.8048 16.0552 9.44942 17.5625 8.92027 19.0122Z" fill="var(--fill-0, #6869AC)"/>
<path id="Vector_5" d="M4.84717 15.7579C4.81939 15.7577 4.79238 15.7488 4.76993 15.7324C4.74748 15.716 4.73072 15.693 4.72201 15.6667C4.71214 15.6335 4.7156 15.5977 4.73167 15.567C4.74774 15.5364 4.77515 15.5132 4.80806 15.5024C4.90193 15.4737 7.15491 14.7592 8.1119 15.5258C8.13565 15.5483 8.15013 15.5788 8.15245 15.6114C8.15478 15.6439 8.14479 15.6762 8.12447 15.7018C8.10414 15.7273 8.07496 15.7444 8.0427 15.7494C8.01043 15.7545 7.97743 15.7473 7.95023 15.7292C7.10536 15.0513 4.90976 15.7449 4.88629 15.7527L4.84717 15.7579Z" fill="var(--fill-0, white)"/>
<path id="Vector_6" d="M9.03762 18.8142C9.00588 18.8143 8.97521 18.8027 8.95159 18.7815C8.92797 18.7603 8.91309 18.731 8.90985 18.6994C8.32835 13.2078 1.71285 10.6028 1.64766 10.5767C1.6315 10.5707 1.6167 10.5614 1.60413 10.5496C1.59155 10.5378 1.58145 10.5236 1.57442 10.5078C1.56738 10.492 1.56355 10.475 1.56314 10.4578C1.56273 10.4405 1.56576 10.4233 1.57204 10.4072C1.58486 10.3756 1.60933 10.3502 1.64038 10.3361C1.67144 10.322 1.70672 10.3204 1.73893 10.3316C1.80933 10.3603 8.57086 13.0201 9.16801 18.676C9.17167 18.7102 9.16167 18.7444 9.14018 18.7713C9.11869 18.7982 9.08745 18.8154 9.05327 18.8194L9.03762 18.8142Z" fill="var(--fill-0, white)"/>
<path id="Vector_7" d="M73.8966 15.4059C73.9253 15.3147 75.044 9.55707 73.8966 5.47355C72.8536 1.72903 71.4924 0.347 69.5524 0.0419101C67.6123 -0.26318 66.7701 1.1345 67.8001 3.02762C68.8301 4.92075 71.3099 7.43187 71.9175 11.6614C72.1782 13.4033 72.3764 14.9157 72.3764 14.9157L73.8966 15.4059Z" fill="var(--fill-0, #6869AC)"/>
<path id="Vector_8" opacity="0.2" d="M73.8966 15.4059C73.9253 15.3147 75.044 9.55707 73.8966 5.47355C72.8536 1.72903 71.4924 0.347 69.5524 0.0419101C67.6123 -0.26318 66.7701 1.1345 67.8001 3.02762C68.8301 4.92075 71.3099 7.43187 71.9175 11.6614C72.1782 13.4033 72.3764 14.9157 72.3764 14.9157L73.8966 15.4059Z" fill="var(--fill-0, #101723)"/>
<path id="Vector_9" d="M73.2422 12.0995C73.225 12.0985 73.2083 12.0942 73.1928 12.0867C73.1774 12.0792 73.1636 12.0687 73.1522 12.0559C73.1408 12.043 73.1321 12.0281 73.1265 12.0118C73.1209 11.9956 73.1185 11.9784 73.1196 11.9613C73.3804 7.29891 71.8575 3.13717 69.1273 1.09541C69.0997 1.07467 69.0814 1.04378 69.0765 1.00955C69.0716 0.975318 69.0805 0.940541 69.1013 0.912878C69.1224 0.885783 69.1533 0.867932 69.1873 0.86307C69.2213 0.858209 69.2559 0.866712 69.2838 0.8868C72.0818 2.97289 73.6515 7.2285 73.3777 11.977C73.3757 12.0111 73.3604 12.043 73.335 12.066C73.3097 12.0889 73.2763 12.1009 73.2422 12.0995Z" fill="var(--fill-0, white)"/>
<path id="Vector_10" d="M76.898 18.4046C76.7494 17.3329 77.3648 15.7266 78.8276 15.3459C80.2905 14.9652 80.9424 14.1255 80.4157 13.2077C79.8889 12.2898 80.0115 11.4475 81.3387 11.0668C82.666 10.6861 83.829 10.0238 83.065 8.62087C82.5096 7.60651 82.387 6.94939 83.7482 4.95197C84.8773 3.29353 83.9542 2.32089 82.5409 2.50343C81.1275 2.68596 80.254 4.37047 79.37 4.65209C78.486 4.93371 78.2826 3.43173 77.117 4.10449C75.9514 4.77726 76.0218 6.50089 75.9853 7.703C75.9488 8.9051 75.8706 9.17629 74.8171 9.03027C73.7636 8.88424 72.731 9.05634 72.7545 11.604C72.7728 13.7892 73.9384 16.4959 73.9384 16.4959L76.898 18.4046Z" fill="var(--fill-0, #6869AC)"/>
<path id="Vector_11" d="M75.0492 16.775H75.0362C75.0013 16.7711 74.9694 16.7535 74.9474 16.7262C74.9255 16.6988 74.9152 16.6639 74.9188 16.629C75.6542 10.0604 81.2918 4.51924 82.7625 3.39536C82.7902 3.37427 82.8251 3.36503 82.8596 3.36968C82.8941 3.37432 82.9253 3.39247 82.9464 3.42014C82.9675 3.4478 82.9767 3.48271 82.9721 3.51719C82.9674 3.55167 82.9493 3.58288 82.9216 3.60398C81.4692 4.71221 75.9045 10.1804 75.1796 16.6577C75.1758 16.6897 75.1605 16.7193 75.1365 16.7409C75.1125 16.7625 75.0815 16.7746 75.0492 16.775Z" fill="var(--fill-0, white)"/>
<path id="Vector_12" d="M77.6203 9.75252C77.5939 9.75235 77.5682 9.74433 77.5463 9.72947C77.5245 9.71461 77.5076 9.69359 77.4978 9.66909C77.4866 9.63619 77.4885 9.60027 77.5031 9.56873C77.5176 9.53719 77.5437 9.51244 77.576 9.49958C79.6777 8.7173 82.0611 9.08759 82.1628 9.10323C82.1966 9.10899 82.2267 9.12781 82.2467 9.15563C82.2667 9.18344 82.275 9.21801 82.2697 9.25187C82.2633 9.28552 82.2445 9.31551 82.2169 9.33583C82.1893 9.35615 82.1551 9.36527 82.1211 9.36138C82.0976 9.36138 79.7038 8.98589 77.6673 9.7447C77.6521 9.74981 77.6363 9.75245 77.6203 9.75252Z" fill="var(--fill-0, white)"/>
<path id="Vector_13" d="M75.7481 13.7006C75.7298 13.7004 75.7117 13.6963 75.6951 13.6887C75.6785 13.681 75.6637 13.67 75.6516 13.6562C74.7775 12.6384 74.1851 11.4094 73.9332 10.0916C73.9306 10.0747 73.9314 10.0574 73.9355 10.0407C73.9396 10.0241 73.9469 10.0084 73.9571 9.99459C73.9673 9.98079 73.9801 9.96913 73.9948 9.96027C74.0094 9.95142 74.0257 9.94555 74.0427 9.943C74.0596 9.94041 74.0769 9.94119 74.0936 9.9453C74.1102 9.9494 74.1259 9.95675 74.1397 9.96692C74.1535 9.9771 74.1652 9.98989 74.1741 10.0046C74.1829 10.0193 74.1888 10.0356 74.1913 10.0525C74.4406 11.3184 75.0108 12.4991 75.8472 13.4815C75.8635 13.5007 75.874 13.5242 75.8775 13.5491C75.881 13.574 75.8773 13.5995 75.8669 13.6224C75.8566 13.6454 75.8399 13.6649 75.8188 13.6787C75.7978 13.6926 75.7733 13.7001 75.7481 13.7006Z" fill="var(--fill-0, white)"/>
</g>
</svg>
