<svg preserveAspectRatio="none" width="100%" height="100%" overflow="visible" style="display: block;" viewBox="0 0 20 20" fill="none" xmlns="http://www.w3.org/2000/svg">
<g id="star">
<path id="Vector" d="M9.81327 2.09734C9.82046 2.10165 9.83102 2.10934 9.84257 2.13249L12.0564 6.62077L12.2889 7.09148L12.8084 7.16765L17.7625 7.8903H17.7635C17.7902 7.89419 17.8004 7.90143 17.8055 7.90593C17.8137 7.91321 17.8242 7.92737 17.8308 7.94792C17.8375 7.96841 17.8372 7.98588 17.8348 7.99675C17.8332 8.00354 17.8291 8.01557 17.8094 8.03484V8.03581L14.2254 11.528L13.8484 11.8952L13.9373 12.4137L14.785 17.3473C14.7897 17.3756 14.7851 17.3874 14.783 17.3923C14.779 17.4011 14.77 17.415 14.7527 17.4274C14.735 17.4401 14.7171 17.4448 14.7049 17.446L14.6629 17.4352L10.2312 15.1061L9.76542 14.861L9.30058 15.1061L4.86893 17.4352L4.86503 17.4372C4.84379 17.4484 4.8321 17.4486 4.82499 17.4479C4.81373 17.4468 4.79649 17.4419 4.77909 17.4294C4.76192 17.417 4.75304 17.4027 4.74882 17.3932C4.74645 17.3878 4.74118 17.3755 4.74589 17.3473L5.59354 12.4137L5.68241 11.8952L5.30643 11.528L1.72147 8.03581V8.03484C1.70196 8.01574 1.69859 8.00353 1.69706 7.99675C1.69461 7.98585 1.69428 7.96851 1.70097 7.94792C1.70765 7.92733 1.71811 7.9132 1.72636 7.90593C1.73151 7.90142 1.74135 7.89414 1.76737 7.8903H1.76835L6.72245 7.16765L7.24296 7.09148L7.47538 6.62077L9.68925 2.13151C9.70193 2.10582 9.71248 2.09841 9.71757 2.09538C9.72617 2.09031 9.74212 2.0846 9.76347 2.08464C9.78501 2.08471 9.8026 2.091 9.81327 2.09734Z" stroke="var(--stroke-0, #787C84)" stroke-width="2"/>
</g>
</svg>
