<svg preserveAspectRatio="none" width="100%" height="100%" overflow="visible" style="display: block;" viewBox="0 0 19 19" fill="none" xmlns="http://www.w3.org/2000/svg">
<g id="thumbs-down" clip-path="url(#clip0_2035_328)">
<path id="Vector" d="M16.5063 12.2157C16.4137 12.2265 16.3205 12.2319 16.2273 12.2323L13.8824 12.2323L14.2236 15.8281C14.2233 16.6021 13.9161 17.3443 13.3691 17.8921C12.8223 18.4397 12.0806 18.7482 11.3066 18.7498C10.6099 18.757 9.93293 18.5181 9.39516 18.0753C8.85718 17.6324 8.49276 17.0139 8.36618 16.3288C8.29797 15.8181 8.16319 15.3187 7.96512 14.8432C7.55588 13.9054 6.82442 12.5921 5.49479 12.2112C5.12595 12.1559 4.75284 12.1326 4.37992 12.142C3.5029 12.142 2.50398 12.2112 2.50398 12.2112C1.88163 12.2087 1.28557 11.9596 0.846571 11.5185C0.407409 11.0775 0.161072 10.4803 0.161407 9.85811L0.161406 2.34488C0.161406 1.72298 0.408552 1.12646 0.848204 0.686798C1.28804 0.246967 1.88439 1.77737e-06 2.50628 1.723e-06L15.3667 5.9871e-07C15.9454 -0.000490159 16.5039 0.211817 16.9362 0.596352C17.3685 0.980895 17.6445 1.51102 17.7116 2.08577L18.5709 9.58937C18.6476 10.2119 18.4728 10.8392 18.0851 11.3322C17.6975 11.8251 17.1292 12.1433 16.5062 12.2156L16.5063 12.2157ZM4.48673 1.74838L2.50644 1.74838C2.3522 1.7523 2.20532 1.81528 2.09622 1.92437C1.98712 2.03347 1.92415 2.18035 1.92022 2.3346L1.92022 9.84867C1.92349 9.99866 1.98254 10.1419 2.08608 10.2504C2.18962 10.3588 2.32995 10.4248 2.47945 10.4349C2.74786 10.4172 3.60152 10.368 4.3976 10.368L4.4856 10.368L4.48673 1.74838ZM16.8057 9.78418L15.9581 2.28058C15.9411 2.13615 15.8722 2.00301 15.7645 1.90552C15.6567 1.80804 15.5171 1.75308 15.3719 1.75063L6.2407 1.75063L6.2407 10.5753C8.35101 11.3187 9.27614 13.4068 9.58563 14.1126L9.58579 14.1126C9.84569 14.7261 10.0246 15.3709 10.118 16.0308C10.1735 16.3057 10.323 16.5529 10.5407 16.7298C10.7586 16.9068 11.0311 17.0023 11.3116 17.0004C11.6066 16.9966 11.8896 16.8816 12.1036 16.6783C12.3177 16.4752 12.4472 16.1987 12.4663 15.9042L12.1474 12.368L11.9752 10.4547L16.2215 10.4547C16.381 10.4501 16.5319 10.3827 16.6417 10.2671C16.7516 10.1516 16.8113 9.99733 16.8077 9.83802C16.809 9.82036 16.8077 9.80286 16.8054 9.78405L16.8057 9.78418Z" fill="var(--fill-0, #787C84)"/>
</g>
<defs>
<clipPath id="clip0_2035_328">
<rect width="18.75" height="18.75" fill="white"/>
</clipPath>
</defs>
</svg>
