<svg preserveAspectRatio="none" width="100%" height="100%" overflow="visible" style="display: block;" viewBox="0 0 19 10" fill="none" xmlns="http://www.w3.org/2000/svg">
<g id="freepik--Gears--inject-9">
<path id="Vector" fill-rule="evenodd" clip-rule="evenodd" d="M10.6512 2.9664C10.8078 2.66067 11.0048 2.37734 11.2368 2.124L10.9104 1.2312L12.2328 0.3792L12.912 1.0464C13.239 0.939998 13.5789 0.877845 13.9224 0.861599L14.3232 0L15.8592 0.3336V1.2936C16.1653 1.44956 16.4488 1.64658 16.7016 1.8792L17.5968 1.5528L18.4464 2.8752L17.7816 3.5544C17.8871 3.88075 17.9485 4.21976 17.964 4.5624L18.8256 4.9656L18.492 6.5016H17.532C17.3761 6.80719 17.18 7.09051 16.9488 7.344L17.2728 8.2368L15.9504 9.0888L15.2712 8.424C14.9446 8.52869 14.6057 8.59001 14.2632 8.6064L13.8624 9.468L12.324 9.1344V8.1744C12.0188 8.01784 11.7356 7.82176 11.4816 7.5912L10.5984 7.92L9.7464 6.5976L10.4136 5.9184C10.307 5.59223 10.2448 5.25318 10.2288 4.9104L9.3672 4.5096L9.7008 2.9712H10.6608L10.6512 2.9664ZM12.468 4.308C12.3996 4.63244 12.4286 4.96989 12.5516 5.27783C12.6746 5.58577 12.8859 5.85043 13.159 6.03849C13.4321 6.22654 13.7548 6.32958 14.0863 6.33461C14.4179 6.33964 14.7435 6.24646 15.0222 6.06678C15.3008 5.8871 15.5201 5.62897 15.6524 5.3249C15.7846 5.02084 15.824 4.68443 15.7654 4.35806C15.7068 4.03169 15.553 3.72995 15.3233 3.49084C15.0935 3.25174 14.7982 3.08596 14.4744 3.0144C14.2568 2.96664 14.0319 2.96263 13.8128 3.00259C13.5936 3.04256 13.3846 3.12571 13.1979 3.24721C13.0112 3.3687 12.8505 3.52612 12.7252 3.71029C12.5999 3.89447 12.5125 4.10172 12.468 4.32V4.308Z" fill="var(--fill-0, #6869AC)"/>
<path id="Vector_2" opacity="0.5" fill-rule="evenodd" clip-rule="evenodd" d="M10.6512 2.9664C10.8078 2.66067 11.0048 2.37734 11.2368 2.124L10.9104 1.2312L12.2328 0.3792L12.912 1.0464C13.239 0.939998 13.5789 0.877845 13.9224 0.861599L14.3232 0L15.8592 0.3336V1.2936C16.1653 1.44956 16.4488 1.64658 16.7016 1.8792L17.5968 1.5528L18.4464 2.8752L17.7816 3.5544C17.8871 3.88075 17.9485 4.21976 17.964 4.5624L18.8256 4.9656L18.492 6.5016H17.532C17.3761 6.80719 17.18 7.09051 16.9488 7.344L17.2728 8.2368L15.9504 9.0888L15.2712 8.424C14.9446 8.52869 14.6057 8.59001 14.2632 8.6064L13.8624 9.468L12.324 9.1344V8.1744C12.0188 8.01784 11.7356 7.82176 11.4816 7.5912L10.5984 7.92L9.7464 6.5976L10.4136 5.9184C10.307 5.59223 10.2448 5.25318 10.2288 4.9104L9.3672 4.5096L9.7008 2.9712H10.6608L10.6512 2.9664ZM12.468 4.308C12.3996 4.63244 12.4286 4.96989 12.5516 5.27783C12.6746 5.58577 12.8859 5.85043 13.159 6.03849C13.4321 6.22654 13.7548 6.32958 14.0863 6.33461C14.4179 6.33964 14.7435 6.24646 15.0222 6.06678C15.3008 5.8871 15.5201 5.62897 15.6524 5.3249C15.7846 5.02084 15.824 4.68443 15.7654 4.35806C15.7068 4.03169 15.553 3.72995 15.3233 3.49084C15.0935 3.25174 14.7982 3.08596 14.4744 3.0144C14.2568 2.96664 14.0319 2.96263 13.8128 3.00259C13.5936 3.04256 13.3846 3.12571 13.1979 3.24721C13.0112 3.3687 12.8505 3.52612 12.7252 3.71029C12.5999 3.89447 12.5125 4.10172 12.468 4.32V4.308Z" fill="var(--fill-0, white)"/>
<g id="Vector_3">
</g>
<path id="Vector_4" d="M2.2728 5.484C2.2728 5.484 2.2728 5.4576 2.2728 5.4072C2.2857 5.33228 2.30913 5.25956 2.3424 5.1912C2.45767 4.93073 2.66184 4.71975 2.9184 4.596C3.10987 4.50275 3.32179 4.45935 3.5345 4.46984C3.74721 4.48033 3.95383 4.54436 4.1352 4.656C4.36005 4.79335 4.53669 4.99713 4.64073 5.2392C4.74478 5.48126 4.77108 5.74966 4.71602 6.00732C4.66096 6.26498 4.52725 6.49918 4.33335 6.67757C4.13945 6.85597 3.89495 6.96975 3.6336 7.0032C3.42307 7.03141 3.20882 7.00594 3.01077 6.92916C2.81272 6.85237 2.63729 6.72676 2.5008 6.564C2.31947 6.34466 2.22094 6.06859 2.2224 5.784C2.22164 5.70892 2.2297 5.63401 2.2464 5.5608C2.2584 5.5104 2.268 5.484 2.2728 5.484C2.2776 5.484 2.2584 5.5944 2.2728 5.784C2.29243 6.051 2.39956 6.30407 2.5776 6.504C2.72081 6.66652 2.90628 6.78613 3.11339 6.84955C3.32051 6.91297 3.54115 6.91772 3.7508 6.86325C3.96045 6.80879 4.15089 6.69725 4.30094 6.54104C4.451 6.38483 4.5548 6.19007 4.6008 5.9784C4.64489 5.76633 4.6293 5.54618 4.55577 5.34244C4.48224 5.13869 4.35364 4.95933 4.18428 4.82429C4.01492 4.68925 3.81143 4.60382 3.59643 4.5775C3.38142 4.55118 3.16334 4.585 2.9664 4.6752C2.72153 4.78474 2.52043 4.97317 2.3952 5.2104C2.304 5.3808 2.2848 5.4888 2.2728 5.484Z" fill="var(--fill-0, #3E4551)"/>
<path id="Vector_5" d="M0.955202 4.5192C0.898539 4.52478 0.841465 4.52478 0.784802 4.5192L0.268801 4.536L0.288002 4.5216C0.228002 4.8096 0.153601 5.184 0.0624014 5.6352L0.0432009 5.6016L0.669601 5.8848H0.688801V5.9064C0.701702 6.15147 0.74772 6.39367 0.825601 6.6264V6.6504L0.808801 6.6696L0.328801 7.164V7.1088C0.523201 7.4088 0.732001 7.7256 0.950401 8.0688L0.892801 8.0496L1.536 7.8096H1.5672L1.5888 7.8312C1.77083 7.9937 1.97335 8.13167 2.1912 8.2416L2.22 8.256V8.2896C2.22 8.5008 2.22 8.736 2.22 8.976L2.1768 8.9232L3.2904 9.1632L3.2256 9.1968L3.5112 8.5728L3.528 8.5392H3.564C3.80892 8.52845 4.05119 8.48403 4.284 8.4072L4.3176 8.3952L4.344 8.4216C4.5 8.5704 4.668 8.736 4.8384 8.9016H4.7616L5.7216 8.2824L5.6952 8.3568L5.4552 7.7112L5.4432 7.6752L5.4672 7.6464C5.6306 7.46719 5.76941 7.26703 5.88 7.0512L5.9352 7.0152H6.3024H6.6456L6.5856 7.0632C6.6648 6.6888 6.744 6.3168 6.8256 5.952L6.8592 6.0192L6.2352 5.7312L6.2016 5.7168V5.6784C6.19011 5.43357 6.14571 5.19139 6.0696 4.9584L6.0576 4.9224L6.084 4.896L6.564 4.416V4.488C6.3528 4.1616 6.1464 3.8448 5.9472 3.528L6.0144 3.552L5.3688 3.792H5.3376L5.3112 3.768C5.13098 3.60476 4.93006 3.46597 4.7136 3.3552L4.6848 3.3408V3.3072C4.6848 3.0672 4.6848 2.844 4.6848 2.6208L4.7256 2.6712L3.6144 2.4312L3.6672 2.4048L3.3768 3.0288L3.3648 3.0528H3.3384C3.09377 3.06434 2.8517 3.10791 2.6184 3.1824H2.5944L2.5776 3.1656L2.0976 2.6856H2.1432L1.1832 3.2976V3.264L1.4232 3.912V3.924C1.29761 4.05948 1.18511 4.20653 1.0872 4.3632C1.05718 4.4169 1.02433 4.46897 0.988801 4.5192L1.0056 4.476C1.0056 4.4496 1.0392 4.4088 1.068 4.3536C1.1594 4.18913 1.26888 4.03537 1.3944 3.8952V3.9168C1.3272 3.7392 1.248 3.528 1.1544 3.2736V3.252L1.1736 3.24L2.1336 2.6136L2.16 2.5968L2.1816 2.6184L2.676 3.0984H2.6352C2.87412 3.01821 3.12276 2.97059 3.3744 2.9568L3.336 2.9832L3.6216 2.3568L3.6384 2.3232H3.6744L4.788 2.5632H4.8288V2.604C4.8288 2.8272 4.8288 3.0552 4.8408 3.2928L4.812 3.2448C5.03821 3.35859 5.24809 3.50228 5.436 3.672H5.3784L6.0216 3.432L6.0648 3.4152L6.0912 3.4536C6.2928 3.7632 6.4992 4.0824 6.7128 4.4136L6.7368 4.4544L6.7056 4.488L6.2256 4.9824L6.24 4.92C6.31811 5.16183 6.36489 5.41267 6.3792 5.6664L6.3432 5.6136L6.9672 5.9016L7.0128 5.9208V5.9688C6.936 6.336 6.8568 6.7056 6.7728 7.0824V7.1304H6.7248H6.3816H6.036L6.0912 7.0968C5.9761 7.32281 5.83165 7.53263 5.6616 7.7208V7.6584L5.9016 8.304L5.9184 8.3496L5.8776 8.3784L4.9176 8.9952L4.8768 9.0216L4.8408 8.988L4.3608 8.508L4.4232 8.5224C4.18139 8.60021 3.93048 8.64619 3.6768 8.6592L3.7272 8.6232C3.6288 8.8392 3.528 9.0528 3.4392 9.2472L3.42 9.2904H3.3744L2.2608 9.0504H2.2176V9.0072C2.2176 8.7672 2.2176 8.5272 2.2176 8.3184L2.2464 8.3664C2.02139 8.25086 1.81243 8.10644 1.6248 7.9368H1.6776L1.032 8.1768H0.996001L0.974402 8.1456L0.357602 7.1856L0.338402 7.1544L0.364802 7.1304L0.844802 6.6504V6.6912C0.768156 6.45167 0.722976 6.20318 0.710401 5.952L0.732002 5.9832L0.110401 5.6904H0.086401V5.6664C0.187201 5.2176 0.271201 4.8432 0.326401 4.5552V4.5408H0.782401H0.914402L0.955202 4.5192Z" fill="var(--fill-0, #3E4551)"/>
<path id="Vector_6" d="M2.2728 5.484C2.28183 5.43429 2.29467 5.38535 2.3112 5.3376C2.35816 5.19755 2.43057 5.06736 2.5248 4.9536C2.65596 4.79939 2.82307 4.67983 3.01137 4.60547C3.19967 4.5311 3.40337 4.50423 3.60451 4.52721C3.80565 4.55019 3.99805 4.62232 4.16472 4.73724C4.33139 4.85216 4.46722 5.00634 4.56022 5.18616C4.65322 5.36599 4.70053 5.56594 4.69798 5.76837C4.69543 5.97081 4.6431 6.1695 4.5456 6.34693C4.4481 6.52435 4.30843 6.67506 4.13892 6.78574C3.9694 6.89643 3.77526 6.96369 3.5736 6.9816C3.32367 7.00307 3.07301 6.9496 2.8536 6.828C2.62527 6.69656 2.44204 6.49911 2.328 6.2616C2.27207 6.13971 2.23407 6.01037 2.2152 5.8776C2.21161 5.81045 2.21161 5.74315 2.2152 5.676C2.2152 5.6424 2.2152 5.6088 2.2152 5.5752V5.5248V5.4912C2.2152 5.4912 2.2152 5.532 2.2656 5.5368L2.3328 5.4984C2.31702 5.54743 2.30735 5.59821 2.304 5.6496C2.28271 5.89496 2.33947 6.14078 2.46619 6.35197C2.5929 6.56315 2.78309 6.72892 3.0096 6.8256C3.21157 6.90904 3.4325 6.93574 3.64853 6.90283C3.86457 6.86991 4.06751 6.77863 4.23547 6.63883C4.40343 6.49902 4.53003 6.31601 4.6016 6.10954C4.67317 5.90306 4.687 5.68096 4.6416 5.4672C4.60186 5.28906 4.52255 5.12215 4.40954 4.97882C4.29654 4.83549 4.15274 4.71942 3.9888 4.6392C3.74809 4.5255 3.47664 4.49421 3.21637 4.55016C2.95611 4.60612 2.72151 4.74621 2.5488 4.9488C2.4208 5.10087 2.33036 5.28092 2.2848 5.4744C2.27916 5.4222 2.28659 5.36942 2.3064 5.3208C2.34645 5.17399 2.41584 5.03683 2.5104 4.9176C2.66103 4.72729 2.86361 4.58474 3.0936 4.5072C3.40335 4.40479 3.74041 4.42366 4.0368 4.56C4.25274 4.6603 4.43708 4.81784 4.56979 5.01552C4.70251 5.2132 4.77853 5.44346 4.78961 5.68129C4.80068 5.91913 4.74639 6.15546 4.63263 6.36462C4.51886 6.57378 4.34996 6.74777 4.14428 6.86771C3.9386 6.98764 3.70399 7.04894 3.46592 7.04494C3.22786 7.04094 2.99545 6.9718 2.79391 6.84502C2.59237 6.71825 2.42942 6.53868 2.32274 6.32581C2.21606 6.11295 2.16974 5.87493 2.1888 5.6376C2.19405 5.57488 2.20612 5.51291 2.2248 5.4528L2.2416 5.4048H2.2944C2.30669 5.40816 2.31795 5.41453 2.32717 5.42333C2.33639 5.43213 2.34327 5.44308 2.3472 5.4552V5.52V5.568C2.3472 5.5992 2.3472 5.628 2.3472 5.6592C2.34356 5.72075 2.34356 5.78246 2.3472 5.844C2.3705 6.03896 2.44387 6.22457 2.56016 6.38277C2.67646 6.54097 2.83172 6.66638 3.01084 6.7468C3.18997 6.82722 3.38685 6.8599 3.58235 6.84168C3.77785 6.82345 3.96531 6.75494 4.12648 6.6428C4.28765 6.53065 4.41706 6.3787 4.50211 6.20173C4.58715 6.02476 4.62495 5.82879 4.61181 5.63288C4.59868 5.43697 4.53506 5.2478 4.42714 5.08377C4.31923 4.91973 4.1707 4.78642 3.996 4.6968C3.73142 4.56104 3.42511 4.53101 3.1392 4.6128C2.9223 4.67598 2.72763 4.7991 2.5776 4.968C2.45109 5.12402 2.34838 5.2979 2.2728 5.484Z" fill="var(--fill-0, #3E4551)"/>
<path id="Vector_7" d="M0.955202 4.5192H0.259201H0.271202C0.211202 4.8072 0.129602 5.1888 0.031202 5.6544L0.0192013 5.628L0.657602 5.9232L0.624 5.9616V5.9424L0.672002 5.928C0.686143 6.17292 0.732129 6.41496 0.808801 6.648H0.751202V6.624L0.801602 6.6528L0.302401 7.1712V7.1304C0.504001 7.44 0.717601 7.7712 0.945601 8.1192L0.902401 8.1048L1.5672 7.8648V7.9392H1.5384L1.572 7.8744C1.75484 8.04009 1.95906 8.18054 2.1792 8.292L2.1264 8.3496L2.1096 8.3232L2.1864 8.3016C2.1864 8.5176 2.1864 8.7624 2.1864 9.0216L2.1528 8.9784L3.3144 9.2184L3.264 9.2448C3.3552 9.048 3.4584 8.8224 3.564 8.5968L3.6312 8.6544L3.6024 8.6736L3.576 8.5872C3.82094 8.57487 4.06311 8.52967 4.296 8.4528V8.5464H4.26L4.3056 8.4624L4.8192 8.9616H4.7568L5.7552 8.3112L5.736 8.3712C5.6592 8.1672 5.5752 7.9344 5.496 7.7016H5.5968V7.7376L5.5056 7.692C5.67078 7.50787 5.81117 7.30294 5.9232 7.0824L6 7.1544L5.9688 7.1736L5.94 7.0728H6.66L6.6072 7.116L6.8472 5.9496L6.8784 6.012L6.228 5.7144L6.3 5.6304L6.3192 5.6592L6.216 5.6928C6.20227 5.44783 6.15628 5.20574 6.0792 4.9728H6.192V5.0064L6.096 4.9536L6.5928 4.4424V4.5144L5.9424 3.516L6.0144 3.54L5.3448 3.78V3.6648H5.376L5.3256 3.768C5.14264 3.60424 4.93937 3.46469 4.7208 3.3528L4.7976 3.2664L4.8144 3.2928L4.704 3.3264C4.704 3.1056 4.704 2.8608 4.692 2.6064L4.74 2.6664L3.5832 2.4264L3.6528 2.3928L3.3576 3.036L3.2664 2.9592L3.288 2.9448L3.3264 3.0576C3.08154 3.07058 2.83946 3.11577 2.6064 3.192V3.0744H2.6304L2.5728 3.18L2.0664 2.7H2.1432L1.1664 3.3384L1.1928 3.264L1.4328 3.9192H1.3128L1.4208 3.972C1.27981 4.12923 1.15888 4.30337 1.0608 4.4904L1.0368 4.5336H1.0248C1.044 4.5336 0.952802 4.4832 0.938402 4.512L0.991202 4.4208C1.0272 4.3584 1.0656 4.296 1.1064 4.2384C1.18715 4.11949 1.27617 4.00641 1.3728 3.9V3.9648C1.2936 3.744 1.2144 3.528 1.1328 3.312H1.2504V3.3312L1.1592 3.2592L2.1192 2.6424L2.1456 2.7576H2.1192L2.1696 2.652C2.3376 2.8152 2.5032 2.9808 2.6712 3.132L2.6088 3.1176C2.8573 3.03657 3.11567 2.98974 3.3768 2.9784L3.3216 3.0144L3.6192 2.3784L3.7032 2.4576L3.672 2.4744L3.6576 2.3592L4.7688 2.5992L4.7112 2.6952L4.6872 2.6688L4.7952 2.628C4.7952 2.8664 4.7952 3.1016 4.7952 3.3336L4.7616 3.2808C4.99742 3.39954 5.21552 3.5506 5.4096 3.7296L5.3472 3.7176L6.012 3.4776V3.588L5.9736 3.576L6.0408 3.4872L6.66 4.4472L6.552 4.4736V4.4328L6.6504 4.4784L6.156 4.9848L6.1704 4.9272C6.25263 5.17796 6.30027 5.43876 6.312 5.7024L6.2784 5.6544L6.9216 5.952L6.8472 6.0288L6.828 5.9904L6.9336 5.976C6.852 6.3552 6.7728 6.7248 6.6936 7.0872L6.6072 7.0344L6.6408 7.0056L6.6744 7.104H5.9664L6.0144 7.0752C5.89607 7.31126 5.74497 7.52941 5.5656 7.7232L5.5776 7.6704C5.6616 7.9104 5.7408 8.1216 5.8176 8.3352H5.7216L5.7336 8.2944L5.8104 8.3544L4.8504 8.9712L4.8288 8.88H4.872L4.8312 8.964L4.3248 8.4696L4.3752 8.4816C4.12567 8.56541 3.86544 8.61309 3.6024 8.6232L3.6408 8.5968L3.3456 9.2376L3.2832 9.18L3.3192 9.1608V9.2448L2.2056 9.0048L2.2488 8.9352L2.2728 8.9664L2.196 8.9928C2.196 8.7336 2.196 8.5128 2.196 8.2872L2.2176 8.3232C1.98407 8.20726 1.76829 8.05856 1.5768 7.8816H1.6152L0.952801 8.1216V8.0544H0.984L0.943201 8.1096L0.326401 7.1496L0.384 7.1352V7.164L0.328801 7.14L0.808801 6.6384V6.6672C0.728373 6.42267 0.681544 6.16834 0.669601 5.9112L0.686401 5.9328L0.0504006 5.6376L0.0792013 5.6088V5.628H0.0384017C0.141602 5.148 0.218402 4.7904 0.278402 4.5168L0.302401 4.5312V4.5072H0.991202C0.935132 4.51845 0.877965 4.52328 0.820802 4.5216L0.304802 4.5408H0.264L0.295202 4.5144L0.326401 4.488V4.5264C0.271201 4.8024 0.199201 5.1576 0.103201 5.6424V5.7048L0.0744021 5.6472V5.628L0.0456014 5.5728L0.103201 5.5992L0.739201 5.8848H0.753601V5.9016C0.766675 6.15333 0.814322 6.40206 0.895202 6.6408V6.6576V6.672L0.415202 7.176L0.352801 7.2432V7.152V7.1208V7.0296L0.403201 7.1064L1.0272 8.0664L1.0848 8.1528L0.986401 8.1216L0.952801 8.1096L0.854402 8.0784L0.952801 8.0424L1.6128 7.8024H1.6344L1.6512 7.8192C1.83891 7.9903 2.04978 8.13411 2.2776 8.2464L2.3016 8.2584V8.2824C2.3016 8.5032 2.3016 8.7288 2.3136 8.988V9.108L2.2344 9.0144L2.2104 8.9856L2.1336 8.892L2.2512 8.916L3.3648 9.156L3.492 9.1824L3.3768 9.2424L3.3408 9.2592L3.2256 9.3168L3.2784 9.1992C3.372 8.9952 3.468 8.7888 3.5736 8.556L3.5856 8.532H3.6144C3.86846 8.52051 4.11968 8.47367 4.3608 8.3928H4.3896L4.4088 8.412L4.9176 8.9064L5.0208 9.0048L4.8792 8.9904H4.836L4.6944 8.9784L4.8144 8.8992L5.7744 8.28L5.8968 8.1984L5.8512 8.3376L5.8368 8.3808L5.7912 8.52L5.7408 8.3808L5.5008 7.716V7.6872L5.5224 7.6632C5.6941 7.47545 5.8387 7.26461 5.952 7.0368L5.9664 7.008H6H6.708H6.864L6.744 7.1088L6.7104 7.1352L6.588 7.236L6.6216 7.0824C6.6984 6.72 6.7752 6.3504 6.8616 5.9688L6.8952 5.8128L6.9672 5.9568L6.9864 5.9952L7.0584 6.1392L6.912 6.0696L6.2688 5.7744L6.2376 5.76V5.724C6.22727 5.4708 6.18121 5.22032 6.1008 4.98V4.9464L6.1248 4.9224L6.6192 4.4136L6.7368 4.2936L6.72 4.4616V4.5024L6.7056 4.668L6.6144 4.5288L5.9952 3.5688L5.9016 3.4272L6.0624 3.48L6.1008 3.492L6.264 3.5472L6.1032 3.6048L5.4408 3.8448L5.4048 3.8568L5.3784 3.8328C5.19252 3.66097 4.98324 3.51633 4.7568 3.4032L4.7256 3.3864V3.3504C4.7256 3.1104 4.7256 2.8824 4.7256 2.6448V2.472L4.836 2.6064L4.86 2.6328L4.9704 2.7672L4.8 2.7312L3.6864 2.4912L3.516 2.4528L3.672 2.376L3.7032 2.3616L3.8592 2.2824L3.7848 2.4408C3.6888 2.652 3.588 2.8656 3.4896 3.0792L3.4752 3.1128H3.4368C3.18635 3.1232 2.93848 3.1676 2.7 3.2448H2.6664L2.6376 3.2184L2.1384 2.7384L2.0112 2.6136L2.1864 2.6304H2.2128L2.3904 2.6496L2.2416 2.7456L1.2816 3.36L1.1328 3.456L1.188 3.288V3.2712L1.2432 3.0984L1.3056 3.2688C1.3824 3.4848 1.4616 3.7008 1.5456 3.9216V3.9576L1.5216 3.9864C1.4275 4.08653 1.34163 4.19408 1.2648 4.308C1.2264 4.3656 1.188 4.4232 1.1544 4.4856L1.0992 4.5768V4.5888C1.0848 4.62 0.993601 4.572 1.0104 4.5696V4.5336C1.0131 4.5129 1.01876 4.49269 1.0272 4.4736L1.0536 4.4256C1.15527 4.22856 1.28191 4.04545 1.4304 3.8808L1.5816 3.7104L1.5384 3.936L1.4976 4.1544L1.4184 3.948L1.1784 3.2928L1.1616 3.2448L1.2024 3.2184L2.1792 2.5776L2.22 2.5512L2.256 2.5848C2.4288 2.7552 2.604 2.9232 2.7624 3.0768L2.9232 3.2304L2.7048 3.18H2.6808L2.4672 3.1296L2.676 3.06C2.91925 2.98099 3.1718 2.93419 3.4272 2.9208H3.6504L3.4656 3.0456L3.444 3.06L3.2616 3.1824L3.3528 2.9832C3.456 2.76 3.5568 2.5392 3.648 2.3376L3.6696 2.2944H3.7176L4.8744 2.5344H4.9224V2.5824C4.9224 2.8224 4.9224 3.0624 4.9224 3.3024V3.5208L4.8096 3.336L4.7928 3.3096L4.6776 3.1272L4.8696 3.2232C5.0986 3.33891 5.31092 3.48504 5.5008 3.6576L5.6616 3.8016L5.4504 3.7608H5.4192L5.208 3.72L5.4096 3.6456L6.0792 3.4056L6.1224 3.3888L6.1488 3.4272L6.7968 4.4256L6.8232 4.4664L6.7896 4.5L6.2904 5.0112L6.1464 5.16L6.192 4.956V4.9224L6.2376 4.7232L6.3024 4.9176C6.38172 5.16159 6.42853 5.41497 6.4416 5.6712V5.8752L6.3288 5.7072L6.3072 5.676L6.1944 5.508L6.3792 5.592L7.0272 5.892L7.068 5.9112V5.9568C6.9792 6.3624 6.8952 6.7632 6.816 7.1232V7.1664H6.7704H6.0504H5.8584L6.0216 7.0656L6.0528 7.0464L6.216 6.9456L6.1296 7.1184C6.01279 7.34528 5.86674 7.55587 5.6952 7.7448L5.568 7.884L5.604 7.6992V7.6656L5.64 7.4784L5.7048 7.656L5.9448 8.328L5.9592 8.3664L5.9256 8.3904L4.9224 9.036L4.8888 9.0576L4.8624 9.0312L4.3512 8.5296L4.1424 8.4L4.3104 8.4384H4.3464L4.5144 8.4768L4.3488 8.5296C4.10578 8.60913 3.85305 8.65515 3.5976 8.6664H3.432L3.5712 8.5728L3.5976 8.5536L3.7392 8.46L3.6672 8.6112L3.3672 9.2592L3.3504 9.2904H3.3168L2.1528 9.0384H2.1216V9.0048C2.1216 8.7648 2.1216 8.5104 2.1216 8.2848V8.1408L2.1984 8.2632L2.2152 8.2896L2.292 8.4144L2.1624 8.3472C1.93555 8.23157 1.7256 8.08541 1.5384 7.9128L1.4376 7.8216L1.572 7.848H1.6008L1.7376 7.8744L1.608 7.9224L0.940802 8.1624H0.912002L0.897602 8.1384L0.259201 7.1448V7.1232L0.276001 7.104L0.772801 6.6L0.847201 6.5256L0.823201 6.6288V6.6504L0.799201 6.756L0.765601 6.6528C0.688523 6.41264 0.644123 6.1632 0.633601 5.9112V5.8176L0.684 5.8944V5.9136L0.736801 5.9904L0.652801 5.952L0.0168008 5.6496H8.39233e-07V5.6328L0.256801 4.5H0.777602H0.909601L0.955202 4.5192Z" fill="var(--fill-0, #3E4551)"/>
</g>
</svg>
