<svg preserveAspectRatio="none" width="100%" height="100%" overflow="visible" style="display: block;" viewBox="0 0 15 19" fill="none" xmlns="http://www.w3.org/2000/svg">
<g id="file-lines-solid 3" clip-path="url(#clip0_2035_342)">
<path id="Vector" d="M2.34375 0C1.05103 0 0 1.05103 0 2.34375V16.4062C0 17.699 1.05103 18.75 2.34375 18.75H11.7188C13.0115 18.75 14.0625 17.699 14.0625 16.4062V5.85938H9.375C8.72681 5.85938 8.20312 5.33569 8.20312 4.6875V0H2.34375ZM9.375 0V4.6875H14.0625L9.375 0ZM4.10156 11.7188H9.96094C10.2832 11.7188 10.5469 11.9824 10.5469 12.3047C10.5469 12.627 10.2832 12.8906 9.96094 12.8906H4.10156C3.7793 12.8906 3.51562 12.627 3.51562 12.3047C3.51562 11.9824 3.7793 11.7188 4.10156 11.7188ZM4.10156 14.0625H9.96094C10.2832 14.0625 10.5469 14.3262 10.5469 14.6484C10.5469 14.9707 10.2832 15.2344 9.96094 15.2344H4.10156C3.7793 15.2344 3.51562 14.9707 3.51562 14.6484C3.51562 14.3262 3.7793 14.0625 4.10156 14.0625Z" fill="var(--fill-0, #787C84)"/>
</g>
<defs>
<clipPath id="clip0_2035_342">
<rect width="14.0625" height="18.75" fill="white"/>
</clipPath>
</defs>
</svg>
