<svg preserveAspectRatio="none" width="100%" height="100%" overflow="visible" style="display: block;" viewBox="0 0 15 19" fill="none" xmlns="http://www.w3.org/2000/svg">
<g id="file-lines-solid 1" clip-path="url(#clip0_2035_331)">
<path id="Exclude" fill-rule="evenodd" clip-rule="evenodd" d="M0 2.34375C0 1.05103 1.05103 0 2.34375 0H8.20312V4.6875C8.20312 5.33569 8.72681 5.85938 9.375 5.85938H14.0625V16.4062C14.0625 17.699 13.0115 18.75 11.7188 18.75H2.34375C1.05103 18.75 0 17.699 0 16.4062V2.34375ZM14.0625 4.6875H9.375V0L14.0625 4.6875ZM9.96094 9.375H4.10156C3.7793 9.375 3.51562 9.63867 3.51562 9.96094C3.51562 10.2832 3.7793 10.5469 4.10156 10.5469H9.96094C10.2832 10.5469 10.5469 10.2832 10.5469 9.96094C10.5469 9.63867 10.2832 9.375 9.96094 9.375ZM9.96094 11.7188H4.10156C3.7793 11.7188 3.51562 11.9824 3.51562 12.3047C3.51562 12.627 3.7793 12.8906 4.10156 12.8906H9.96094C10.2832 12.8906 10.5469 12.627 10.5469 12.3047C10.5469 11.9824 10.2832 11.7188 9.96094 11.7188ZM9.96094 14.0625H4.10156C3.7793 14.0625 3.51562 14.3262 3.51562 14.6484C3.51562 14.9707 3.7793 15.2344 4.10156 15.2344H9.96094C10.2832 15.2344 10.5469 14.9707 10.5469 14.6484C10.5469 14.3262 10.2832 14.0625 9.96094 14.0625ZM4.10156 7.05643C3.77796 7.05643 3.51562 7.31876 3.51562 7.64236C3.51562 7.96597 3.77796 8.2283 4.10156 8.2283L9.96094 8.2283C10.2845 8.2283 10.5469 7.96597 10.5469 7.64237C10.5469 7.31876 10.2845 7.05643 9.96094 7.05643L4.10156 7.05643ZM3.51562 5.37186C3.51562 5.04825 3.77796 4.78592 4.10156 4.78592L7.1875 4.78592V5.95779L4.10156 5.95779C3.77796 5.95779 3.51562 5.69546 3.51562 5.37186ZM4.10156 2.44217C3.77796 2.44217 3.51562 2.7045 3.51562 3.02811C3.51562 3.35171 3.77796 3.61404 4.10156 3.61404L7.1875 3.61404V2.44217L4.10156 2.44217Z" fill="var(--fill-0, #787C84)"/>
</g>
<defs>
<clipPath id="clip0_2035_331">
<rect width="14.0625" height="18.75" fill="white"/>
</clipPath>
</defs>
</svg>
