<svg preserveAspectRatio="none" width="100%" height="100%" overflow="visible" style="display: block;" viewBox="0 0 25 25" fill="none" xmlns="http://www.w3.org/2000/svg">
<g id="Close" clip-path="url(#clip0_2029_249)">
<path id="Vector" d="M20.7864 17.4718L15.8146 12.5L20.7864 7.52816C21.3965 6.91807 21.3965 5.92853 20.7864 5.31845L19.6816 4.21359C19.0715 3.60351 18.0819 3.60351 17.4718 4.21359L12.5 9.18544L7.52816 4.21359C6.91807 3.60351 5.92853 3.60351 5.31845 4.21359L4.21359 5.31845C3.60351 5.92853 3.60351 6.91807 4.21359 7.52816L9.18544 12.5L4.21359 17.4718C3.60351 18.0819 3.60351 19.0715 4.21359 19.6816L5.31845 20.7864C5.92853 21.3965 6.91807 21.3965 7.52816 20.7864L12.5 15.8146L17.4718 20.7864C18.0819 21.3965 19.0715 21.3965 19.6816 20.7864L20.7864 19.6816C21.3965 19.0715 21.3965 18.0819 20.7864 17.4718Z" fill="var(--fill-0, #787C84)"/>
</g>
<defs>
<clipPath id="clip0_2029_249">
<rect width="25" height="25" fill="white"/>
</clipPath>
</defs>
</svg>
