<svg preserveAspectRatio="none" width="100%" height="100%" overflow="visible" style="display: block;" viewBox="0 0 19 19" fill="none" xmlns="http://www.w3.org/2000/svg">
<path id="Vector" d="M16.3449 6.53426C16.2523 6.52347 16.1591 6.51807 16.0659 6.51774H13.721L14.0622 2.92192C14.0619 2.14794 13.7547 1.40566 13.2077 0.85788C12.6609 0.310268 11.9192 0.00179098 11.1452 0.000157946C10.4485 -0.00703915 9.77152 0.231932 9.23375 0.674687C8.69577 1.11762 8.33135 1.73608 8.20477 2.42124C8.13656 2.93188 8.00178 3.43126 7.80371 3.90676C7.39447 4.84463 6.66301 6.15793 5.33338 6.53885C4.96454 6.59413 4.59144 6.61736 4.21852 6.60803C3.34149 6.60803 2.34257 6.53885 2.34257 6.53885C1.72022 6.5413 1.12416 6.79041 0.685165 7.23155C0.246003 7.67251 -0.000334641 8.2697 3.41198e-07 8.89189V16.4051C3.41198e-07 17.027 0.247146 17.6235 0.686798 18.0632C1.12663 18.503 1.72298 18.75 2.34488 18.75H15.2053C15.784 18.7505 16.3425 18.5382 16.7748 18.1536C17.2071 17.7691 17.4831 17.239 17.5501 16.6642L18.4095 9.16063C18.4862 8.5381 18.3114 7.91081 17.9237 7.41784C17.536 6.92487 16.9678 6.60672 16.3448 6.53441L16.3449 6.53426ZM4.32533 17.0016H2.34504C2.19079 16.9977 2.04391 16.9347 1.93481 16.8256C1.82571 16.7165 1.76274 16.5696 1.75882 16.4154V8.90133C1.76209 8.75134 1.82114 8.60806 1.92467 8.49961C2.02821 8.39117 2.16855 8.32525 2.31804 8.31511C2.58646 8.33278 3.44011 8.38201 4.2362 8.38201H4.3242L4.32533 17.0016ZM16.6443 8.96581L15.7967 16.4694C15.7797 16.6138 15.7108 16.747 15.6031 16.8445C15.4953 16.942 15.3557 16.9969 15.2105 16.9994H6.07929V8.17468C8.1896 7.43127 9.11474 5.3432 9.42422 4.63739H9.42438C9.68429 4.02387 9.86321 3.37907 9.95663 2.71924C10.0121 2.44429 10.1616 2.19713 10.3793 2.02017C10.5972 1.84319 10.8697 1.74767 11.1502 1.74964C11.4452 1.7534 11.7282 1.86839 11.9422 2.0717C12.1563 2.27485 12.2858 2.55127 12.3049 2.84584L11.986 6.38196L11.8138 8.29534H16.0601C16.2195 8.29992 16.3705 8.36731 16.4803 8.48295C16.5902 8.59842 16.6499 8.75267 16.6463 8.91197C16.6476 8.92964 16.6463 8.94714 16.644 8.96595L16.6443 8.96581Z" fill="var(--fill-0, #787C84)"/>
</svg>
