<svg preserveAspectRatio="none" width="100%" height="100%" overflow="visible" style="display: block;" viewBox="0 0 20 20" fill="none" xmlns="http://www.w3.org/2000/svg">
<g id="arrows-rotate-solid 1">
<path id="Vector" d="M4.00925 7.72858C4.30298 6.89697 4.77982 6.11496 5.4512 5.44739C7.83539 3.0632 11.6997 3.0632 14.0839 5.44739L14.7362 6.10352H12.8174C12.1422 6.10352 11.5967 6.64902 11.5967 7.32422C11.5967 7.99942 12.1422 8.54492 12.8174 8.54492H17.6811H17.6964C18.3716 8.54492 18.9171 7.99942 18.9171 7.32422V2.44141C18.9171 1.7662 18.3716 1.2207 17.6964 1.2207C17.0212 1.2207 16.4757 1.7662 16.4757 2.44141V4.39453L15.8081 3.72314C12.4702 0.385284 7.061 0.385284 3.72314 3.72314C2.79236 4.65393 2.12097 5.74875 1.70898 6.91986C1.48392 7.55691 1.81961 8.25119 2.45285 8.47626C3.08609 8.70132 3.78418 8.36563 4.00925 7.73239V7.72858ZM1.48773 11.0359C1.297 11.0931 1.11389 11.1961 0.965118 11.3487C0.81253 11.5013 0.709534 11.6844 0.656128 11.8828C0.644684 11.9286 0.63324 11.9781 0.62561 12.0277C0.614166 12.0926 0.610352 12.1574 0.610352 12.2223V17.0898C0.610352 17.765 1.15585 18.3105 1.83105 18.3105C2.50626 18.3105 3.05176 17.765 3.05176 17.0898V15.1405L3.72314 15.8081C7.061 19.1422 12.4702 19.1422 15.8043 15.8081C16.7351 14.8773 17.4103 13.7825 17.8223 12.6152C18.0473 11.9781 17.7116 11.2839 17.0784 11.0588C16.4452 10.8337 15.7471 11.1694 15.522 11.8027C15.2283 12.6343 14.7514 13.4163 14.08 14.0839C11.6959 16.468 7.83157 16.468 5.44739 14.0839L5.44357 14.08L4.79126 13.4277H6.71387C7.38907 13.4277 7.93457 12.8822 7.93457 12.207C7.93457 11.5318 7.38907 10.9863 6.71387 10.9863H1.84631C1.78528 10.9863 1.72424 10.9901 1.66321 10.9978C1.60217 11.0054 1.54495 11.0168 1.48773 11.0359Z" fill="var(--fill-0, #787C84)"/>
</g>
</svg>
