<svg width="120" height="120" viewBox="0 0 120 120" fill="none" xmlns="http://www.w3.org/2000/svg">
<path d="M8.85109 112.044C8.85109 112.078 31.7543 112.106 59.9975 112.106C88.2407 112.106 111.149 112.08 111.149 112.044C111.149 112.008 88.2503 111.982 59.9975 111.982C31.7447 111.982 8.85109 112.008 8.85109 112.044Z" fill="#3E4551"/>
<path d="M55.8744 103.781C55.8597 103.771 55.8429 103.766 55.8255 103.765C55.8082 103.764 55.7909 103.768 55.7753 103.776C55.7598 103.783 55.7465 103.795 55.7367 103.809C55.727 103.824 55.7211 103.84 55.7197 103.858C55.7183 103.875 55.7214 103.892 55.7287 103.908C55.736 103.924 55.7472 103.938 55.7614 103.948C55.7755 103.958 55.792 103.964 55.8093 103.966C55.8265 103.968 55.844 103.965 55.86 103.958C55.8757 103.95 55.889 103.938 55.8988 103.923C55.9086 103.908 55.9145 103.891 55.9159 103.874C55.9174 103.856 55.9143 103.838 55.907 103.822C55.8998 103.806 55.8885 103.792 55.8744 103.781Z" fill="white"/>
<path d="M34.7998 32.8969L31.1182 34.5528C31.1182 34.5528 36.8782 42.7488 38.0566 44.0688C39.235 45.3888 50.8462 47.04 50.8462 47.04L51.4006 42.1848L41.503 40.5048L34.7998 32.8969Z" fill="#6869AC"/>
<path d="M38.5753 44.4577C38.5969 44.4577 38.6233 44.1649 38.7481 43.7137C38.8219 43.4498 38.9166 43.1922 39.0313 42.9433C39.1764 42.6416 39.3466 42.3526 39.5401 42.0793C39.741 41.8106 39.9651 41.5601 40.2097 41.3305C40.4105 41.1442 40.6265 40.9748 40.8553 40.8241C41.2465 40.5649 41.5177 40.4521 41.5081 40.4329C41.4985 40.4137 41.4361 40.4473 41.3113 40.4953C41.1363 40.5654 40.9676 40.6505 40.8073 40.7497C40.5673 40.8939 40.3408 41.0593 40.1304 41.2441C39.8769 41.4756 39.6455 41.7303 39.4392 42.0049C39.2392 42.2845 39.0679 42.5836 38.9281 42.8977C38.8146 43.1535 38.7254 43.4195 38.6617 43.6921C38.6168 43.8748 38.5879 44.0611 38.5753 44.2489C38.5629 44.3179 38.5629 44.3886 38.5753 44.4577Z" fill="white"/>
<path d="M39.3335 42.6049C39.4531 42.6563 39.5767 42.6981 39.7031 42.7297C39.9431 42.8041 40.2935 42.9049 40.7255 43.0225C41.5919 43.2625 42.7943 43.5553 44.1359 43.8385C45.4775 44.1217 46.6991 44.3305 47.5847 44.4649C48.0287 44.5321 48.3887 44.5801 48.6383 44.6089C48.7667 44.6309 48.8968 44.6422 49.0271 44.6425C48.9024 44.6045 48.7748 44.5772 48.6455 44.5609L47.5991 44.3761C46.7183 44.2225 45.4991 43.9969 44.1599 43.7161C42.8207 43.4353 41.6183 43.1497 40.7471 42.9361L39.7151 42.6841C39.5908 42.6454 39.463 42.6189 39.3335 42.6049Z" fill="white"/>
<path d="M33.84 33.4321C33.8136 33.4537 35.304 35.1817 37.1664 37.2889C39.0288 39.3961 40.56 41.0881 40.5984 41.0665C40.6368 41.0449 39.1344 39.3145 37.272 37.2073C35.4096 35.1001 33.8784 33.4081 33.84 33.4321Z" fill="white"/>
<path d="M38.532 39.2641C38.5173 39.2562 38.501 39.252 38.4844 39.2517C38.4677 39.2513 38.4513 39.255 38.4363 39.2622C38.4213 39.2695 38.4083 39.2801 38.3982 39.2934C38.3882 39.3067 38.3814 39.3221 38.3784 39.3385C38.3768 39.3558 38.3798 39.3733 38.3869 39.3892C38.3941 39.4051 38.4053 39.4189 38.4194 39.4292C38.4335 39.4394 38.4501 39.4459 38.4674 39.4478C38.4847 39.4498 38.5023 39.4473 38.5183 39.4404C38.5344 39.4336 38.5484 39.4227 38.559 39.4088C38.5695 39.3949 38.5763 39.3785 38.5787 39.3612C38.581 39.344 38.5788 39.3264 38.5723 39.3102C38.5658 39.294 38.5553 39.2797 38.5416 39.2689" fill="white"/>
<path d="M44.5608 43.1712C44.5462 43.1628 44.5297 43.1581 44.5129 43.1575C44.4961 43.1569 44.4794 43.1605 44.4643 43.1678C44.4491 43.1751 44.436 43.1861 44.426 43.1996C44.4161 43.2132 44.4096 43.229 44.4071 43.2456C44.4052 43.2632 44.408 43.2809 44.415 43.2971C44.4221 43.3132 44.4333 43.3272 44.4475 43.3377C44.4617 43.3482 44.4784 43.3547 44.4959 43.3567C44.5135 43.3587 44.5312 43.3561 44.5474 43.3491C44.5636 43.3421 44.5776 43.331 44.5882 43.3168C44.5987 43.3027 44.6054 43.286 44.6075 43.2685C44.6095 43.251 44.607 43.2332 44.6 43.217C44.5931 43.2008 44.582 43.1866 44.568 43.176" fill="white"/>
<path d="M41.6614 42.528C41.6466 42.5202 41.6301 42.516 41.6133 42.5158C41.5965 42.5156 41.5799 42.5194 41.5649 42.527C41.5499 42.5345 41.5369 42.5454 41.527 42.559C41.517 42.5725 41.5105 42.5882 41.5079 42.6048C41.5081 42.6214 41.5123 42.6377 41.5201 42.6524C41.5278 42.6671 41.5389 42.6798 41.5525 42.6894C41.566 42.6989 41.5817 42.7052 41.5981 42.7076C41.6145 42.71 41.6313 42.7085 41.647 42.7032C41.662 42.6958 41.6749 42.6848 41.6846 42.6713C41.6944 42.6577 41.7007 42.642 41.7031 42.6255C41.7054 42.609 41.7037 42.5922 41.6982 42.5764C41.6926 42.5607 41.6833 42.5466 41.6711 42.5352" fill="white"/>
<path d="M36.8879 37.4184C36.8733 37.41 36.8569 37.4053 36.8401 37.4047C36.8233 37.4041 36.8066 37.4077 36.7914 37.415C36.7763 37.4223 36.7631 37.4332 36.7532 37.4468C36.7432 37.4604 36.7367 37.4762 36.7343 37.4928C36.7324 37.5104 36.7351 37.5281 36.7422 37.5443C36.7493 37.5604 36.7605 37.5744 36.7747 37.5849C36.7889 37.5954 36.8056 37.6019 36.8231 37.6039C36.8406 37.6059 36.8584 37.6033 36.8745 37.5963C36.8907 37.5893 36.9048 37.5781 36.9153 37.564C36.9259 37.5499 36.9325 37.5332 36.9346 37.5157C36.9367 37.4982 36.9341 37.4804 36.9272 37.4642C36.9203 37.448 36.9092 37.4338 36.8951 37.4232" fill="white"/>
<path d="M35.1647 35.4649C35.1501 35.455 35.1332 35.4492 35.1157 35.4479C35.0981 35.4466 35.0805 35.4499 35.0647 35.4576C35.0488 35.4652 35.0352 35.4768 35.0253 35.4913C35.0153 35.5058 35.0093 35.5226 35.0078 35.5402C35.0064 35.5577 35.0096 35.5753 35.0171 35.5912C35.0245 35.6072 35.036 35.6209 35.0504 35.631C35.0648 35.6411 35.0816 35.6472 35.0991 35.6488C35.1167 35.6504 35.1343 35.6474 35.1503 35.6401C35.166 35.6321 35.1794 35.6202 35.1893 35.6056C35.1991 35.591 35.205 35.5741 35.2064 35.5565C35.2079 35.5389 35.2048 35.5213 35.1975 35.5052C35.1902 35.4892 35.1789 35.4753 35.1647 35.4649Z" fill="white"/>
<g opacity="0.3">
<path d="M42.0815 40.9825C42.0551 41.1529 43.5479 41.5369 45.4151 41.8393C47.2823 42.1417 48.8231 42.2473 48.8495 42.0793C48.8759 41.9113 47.3855 41.5273 45.5159 41.2249C43.6463 40.9225 42.1103 40.8121 42.0815 40.9825Z" fill="white"/>
</g>
<path d="M47.0712 43.6201C47.0566 43.6102 47.0397 43.6044 47.0222 43.6031C47.0046 43.6018 46.987 43.6052 46.9712 43.6128C46.9553 43.6204 46.9417 43.632 46.9318 43.6465C46.9218 43.661 46.9158 43.6779 46.9143 43.6954C46.9129 43.7129 46.9161 43.7305 46.9235 43.7465C46.931 43.7624 46.9425 43.7761 46.9569 43.7862C46.9713 43.7963 46.9881 43.8024 47.0056 43.804C47.0232 43.8056 47.0408 43.8026 47.0568 43.7953C47.0725 43.7873 47.0859 43.7754 47.0957 43.7608C47.1056 43.7462 47.1115 43.7293 47.1129 43.7117C47.1144 43.6941 47.1113 43.6765 47.104 43.6605C47.0967 43.6444 47.0854 43.6305 47.0712 43.6201Z" fill="white"/>
<path d="M52.4399 41.4721C51.9361 41.3096 51.395 41.3024 50.887 41.4513C50.379 41.6002 49.9275 41.8985 49.5911 42.3073C49.2671 42.7255 49.0472 43.2147 48.9496 43.7347C48.8519 44.2547 48.8793 44.7904 49.0295 45.2977C49.3151 46.3129 50.6687 47.6833 51.5855 48.0649" fill="#3E4551"/>
<path d="M30.1344 33.4321C29.8199 33.0225 29.5481 32.5818 29.3232 32.1169C29.0973 31.6497 29.0202 31.1245 29.1024 30.6121C29.1457 30.3572 29.2523 30.1172 29.4125 29.9142C29.5727 29.7113 29.7813 29.5518 30.0192 29.4505C30.2604 29.3575 30.5263 29.351 30.7718 29.4319C31.0172 29.5129 31.2271 29.6763 31.3656 29.8945L30.3888 27.9745C30.2688 27.7345 30.1488 27.4393 30.3072 27.2257C30.3908 27.1346 30.505 27.0774 30.628 27.065C30.751 27.0526 30.8743 27.0859 30.9744 27.1585C31.1697 27.3105 31.3233 27.5095 31.4208 27.7369L32.8608 30.4465L34.1376 28.4473C34.2672 28.2457 34.452 28.0153 34.6896 28.0537C34.7825 28.0785 34.8644 28.134 34.9218 28.211C34.9793 28.2881 35.0091 28.3824 35.0064 28.4785C34.9936 28.6716 34.9378 28.8593 34.8432 29.0281C34.4712 29.8153 33.7968 31.6081 33.7968 31.6081L30.1344 33.4321Z" fill="#6869AC"/>
<path d="M51.5856 47.9281C51.6048 47.9089 51.2568 47.6425 50.8392 47.0929C50.5944 46.7737 50.4061 46.4149 50.2824 46.0321C50.1382 45.5608 50.0876 45.0659 50.1336 44.5753C50.2003 43.6768 50.4934 42.8099 50.9856 42.0553C51.1179 41.8198 51.3007 41.6165 51.5208 41.4601C51.608 41.4115 51.6996 41.3713 51.7944 41.3401C51.7675 41.3349 51.7398 41.3349 51.7128 41.3401C51.6373 41.3532 51.5644 41.3783 51.4968 41.4145C51.2579 41.5624 51.0573 41.7647 50.9112 42.0049C50.3856 42.7618 50.0739 43.6465 50.0088 44.5657C49.9559 45.0755 50.0073 45.5908 50.16 46.0801C50.2931 46.4729 50.4955 46.8386 50.7576 47.1601C50.9302 47.3757 51.1222 47.5749 51.3312 47.7553C51.4092 47.8223 51.4946 47.8803 51.5856 47.9281Z" fill="#A2A3A8"/>
<path d="M34.7999 32.8969C33.8013 33.5354 32.7587 34.1024 31.6799 34.5936C31.2503 34.7928 30.7199 34.9776 30.3311 34.7016C30.1993 34.592 30.1013 34.4472 30.0486 34.284C29.9959 34.1209 29.9907 33.9461 30.0335 33.78C30.126 33.4484 30.302 33.1459 30.5447 32.9016C31.2497 32.1108 32.1655 31.5372 33.1847 31.248C33.5422 31.1276 33.9241 31.0979 34.2959 31.1616C34.4814 31.1948 34.6548 31.2764 34.7985 31.3982C34.9422 31.5201 35.0512 31.6777 35.1143 31.8552C35.1818 32.0386 35.1886 32.2388 35.1337 32.4263C35.0788 32.6138 34.9652 32.7788 34.8095 32.8969" fill="#3E4551"/>
<path d="M30.1703 34.248C30.1895 34.248 30.3287 33.9601 30.6503 33.5521C31.0698 33.017 31.6043 32.5833 32.2142 32.2829C32.8241 31.9825 33.4937 31.8233 34.1736 31.8169C34.6944 31.8169 35.016 31.8793 35.0208 31.8577C34.95 31.8254 34.8747 31.8044 34.7975 31.7952C34.5916 31.7565 34.383 31.7341 34.1736 31.728C33.475 31.7101 32.7825 31.8619 32.1555 32.1704C31.5284 32.4789 30.9856 32.9349 30.5736 33.4993C30.4484 33.6676 30.3384 33.8467 30.2447 34.0344C30.2081 34.1009 30.1829 34.1732 30.1703 34.248Z" fill="#A2A3A8"/>
<path d="M53.8944 59.28C53.8608 59.352 54.3216 59.6808 55.164 60.036C55.6576 60.2419 56.1663 60.4096 56.6856 60.5377C57.9636 60.8507 59.285 60.948 60.5952 60.8256C61.1276 60.7746 61.6554 60.684 62.1744 60.5544C63.06 60.3264 63.564 60.0744 63.54 59.9928C63.516 59.9112 62.9664 60.0096 62.1 60.12C61.6632 60.1776 61.14 60.2232 60.5616 60.2496C59.9351 60.2742 59.3078 60.2646 58.6824 60.2208C58.0569 60.1745 57.4344 60.0943 56.8175 59.9808C56.2487 59.868 55.74 59.7408 55.3152 59.6256C54.4608 59.376 53.9352 59.1912 53.8944 59.28Z" fill="#3E4551"/>
<path d="M54.2087 60.5977C54.1823 60.6769 54.6263 60.9193 55.3967 61.1737C57.4269 61.8132 59.5785 61.9693 61.6799 61.6297C62.4791 61.4905 62.9543 61.3129 62.9399 61.2337C62.9063 61.0513 60.9527 61.3297 58.5575 61.1473C56.1623 60.9649 54.2663 60.4225 54.2087 60.5977Z" fill="#3E4551"/>
<path d="M62.9015 25.2625C62.9015 25.2625 70.8215 26.7265 70.7207 33.8185C70.6199 40.9105 63.9143 39.7177 61.9655 39.4681C61.0823 39.3553 59.3255 39.1057 57.6623 38.8657C54.1415 38.3569 51.5135 36.6433 51.3047 33.0913C51.2784 32.6748 51.2929 32.2569 51.3479 31.8433C51.8399 28.0945 55.3415 23.5825 62.9015 25.2625Z" fill="#6869AC"/>
<path d="M54.3553 32.3736L64.4617 34.5168C64.9702 34.625 65.5009 34.5267 65.937 34.2436C66.3732 33.9605 66.679 33.5158 66.7873 33.0072C66.8947 32.4984 66.7958 31.9677 66.5123 31.5317C66.2288 31.0957 65.7839 30.79 65.2753 30.6816L55.1689 28.536C54.66 28.4286 54.1293 28.5275 53.6933 28.811C53.2573 29.0945 52.9516 29.5394 52.8433 30.048C52.7897 30.3 52.7864 30.5601 52.8334 30.8134C52.8805 31.0666 52.977 31.3082 53.1174 31.5241C53.2578 31.7401 53.4394 31.9263 53.6518 32.0721C53.8642 32.2178 54.1032 32.3203 54.3553 32.3736Z" fill="#3E4551"/>
<path d="M63.0961 33.0193C62.7488 33.0193 62.4673 32.7377 62.4673 32.3905C62.4673 32.0432 62.7488 31.7617 63.0961 31.7617C63.4433 31.7617 63.7249 32.0432 63.7249 32.3905C63.7249 32.7377 63.4433 33.0193 63.0961 33.0193Z" fill="white"/>
<path d="M56.0353 31.5169C55.688 31.5169 55.4065 31.2354 55.4065 30.8881C55.4065 30.5408 55.688 30.2593 56.0353 30.2593C56.3825 30.2593 56.6641 30.5408 56.6641 30.8881C56.6641 31.2354 56.3825 31.5169 56.0353 31.5169Z" fill="white"/>
<path d="M59.8151 29.0065C59.9422 28.7735 60.0553 28.5331 60.1535 28.2865C60.407 27.7081 60.7372 27.1665 61.1351 26.6761C61.5217 26.1797 62.0337 25.7953 62.6183 25.5625C62.8665 25.4816 63.1199 25.4175 63.3767 25.3705C63.3062 25.3566 63.2336 25.3566 63.1631 25.3705C62.9679 25.3854 62.7753 25.424 62.5895 25.4857C61.9763 25.7025 61.4382 26.0906 61.0391 26.6041C60.6354 27.1022 60.3115 27.6601 60.0791 28.2577C59.9879 28.4977 59.9207 28.6729 59.8775 28.8025C59.8467 28.867 59.8257 28.9358 59.8151 29.0065Z" fill="white"/>
<path d="M59.5607 39.1368C59.5775 39.1224 59.3495 38.8968 59.0807 38.4864C58.7188 37.9433 58.4812 37.3271 58.3846 36.6816C58.3066 36.0324 58.3123 35.3758 58.4014 34.728C58.4548 34.4594 58.4909 34.1877 58.5095 33.9144C58.4785 33.9818 58.456 34.0528 58.4423 34.1256C58.4087 34.2648 58.3631 34.464 58.3151 34.7136C58.1969 35.3687 58.1791 36.038 58.2623 36.6984C58.358 37.3628 58.6142 37.9938 59.0086 38.5368C59.1264 38.7 59.2572 38.8533 59.3999 38.9952C59.4466 39.0497 59.5007 39.0974 59.5607 39.1368Z" fill="white"/>
<g opacity="0.3">
<path d="M52.2047 36.0576C53.1347 35.4862 54.1957 35.163 55.2863 35.1192C56.3712 35.0796 57.4572 35.1544 58.5263 35.3424C61.0079 35.7168 63.5495 36.3024 65.5583 37.8048C66.1491 38.202 66.6191 38.7542 66.9167 39.4008C66.9167 39.4008 65.8511 39.84 63.7247 39.6984C61.5983 39.5568 57.2135 38.7936 57.2135 38.7936C57.2135 38.7936 54.9695 38.4144 53.7023 37.4664C52.4351 36.5184 52.2047 36.0576 52.2047 36.0576Z" fill="#101723"/>
</g>
<path d="M52.2287 29.8489C52.1845 29.9665 52.1547 30.0889 52.1399 30.2137C52.0859 30.5722 52.1188 30.9385 52.2359 31.2817C52.4303 31.8262 52.8101 32.285 53.3087 32.5777C53.8823 32.9329 54.6287 33.1249 55.4399 33.2977L61.1591 34.5601L62.8127 34.9201C63.3767 35.0353 63.9479 35.1865 64.5503 35.2633C65.1693 35.373 65.8072 35.2644 66.3551 34.9561C66.9035 34.606 67.3008 34.0631 67.4687 33.4345C67.6361 32.8054 67.558 32.1362 67.2503 31.5625C66.951 31.0094 66.4742 30.5732 65.8967 30.3241C65.6167 30.2178 65.3275 30.1374 65.0327 30.0841L64.1807 29.8849L62.5343 29.5009L59.4863 28.7809C58.5263 28.5769 57.6551 28.3009 56.8343 28.1425C56.4449 28.0619 56.0503 28.0081 55.6535 27.9817C55.2981 27.952 54.9405 27.964 54.5879 28.0177C54.0189 28.0986 53.4801 28.3242 53.0231 28.6729C52.74 28.8972 52.5125 29.1838 52.3583 29.5105C52.3168 29.5947 52.2823 29.6822 52.2551 29.7721C52.2437 29.8017 52.2349 29.8322 52.2287 29.8633C52.2287 29.8633 52.2695 29.7409 52.3799 29.5225C52.5415 29.2045 52.7719 28.9266 53.0543 28.7089C53.5079 28.3746 54.0389 28.1607 54.5975 28.0873C54.9449 28.0383 55.2969 28.0294 55.6463 28.0609C56.04 28.0908 56.4313 28.1469 56.8175 28.2289C57.6311 28.3969 58.4975 28.6729 59.4575 28.8817L62.5031 29.6017L64.1495 29.9929L65.0015 30.1921C65.2891 30.2458 65.5712 30.3262 65.8439 30.4321C66.3953 30.6719 66.8506 31.0892 67.1375 31.6177C67.431 32.1631 67.5057 32.7999 67.3463 33.3985C67.185 33.9935 66.8076 34.5069 66.2879 34.8385C65.7633 35.1311 65.1541 35.2345 64.5623 35.1313C63.9743 35.0545 63.4007 34.9057 62.8367 34.7905L61.1807 34.4353L55.4567 33.2089C54.7185 33.0957 54.0041 32.8614 53.3423 32.5153C52.8516 32.2358 52.4751 31.7922 52.2791 31.2625C52.1606 30.9264 52.1203 30.5677 52.1615 30.2137C52.1927 29.9737 52.2359 29.8513 52.2287 29.8489Z" fill="white"/>
<path d="M70.6104 34.9921C70.4991 34.8607 70.3689 34.7466 70.224 34.6537C69.5568 34.1613 68.8064 33.793 68.0087 33.5665C67.8471 33.5099 67.6782 33.4768 67.5071 33.4681C67.4951 33.5065 68.2536 33.7081 69.1104 34.1233C69.9672 34.5385 70.5864 35.0233 70.6104 34.9921Z" fill="white"/>
<path d="M62.3808 26.256C62.3662 26.2462 62.3493 26.2403 62.3318 26.239C62.3143 26.2378 62.2967 26.2411 62.2808 26.2487C62.265 26.2563 62.2514 26.2679 62.2414 26.2824C62.2314 26.2969 62.2254 26.3138 62.224 26.3313C62.2225 26.3488 62.2257 26.3664 62.2332 26.3824C62.2407 26.3983 62.2522 26.412 62.2666 26.4221C62.281 26.4322 62.2978 26.4384 62.3153 26.44C62.3328 26.4416 62.3504 26.4385 62.3664 26.4312C62.3817 26.4228 62.3946 26.4107 62.404 26.3961C62.4134 26.3815 62.4191 26.3648 62.4205 26.3475C62.422 26.3301 62.4191 26.3127 62.4122 26.2968C62.4052 26.2808 62.3945 26.2668 62.3808 26.256Z" fill="white"/>
<path d="M61.1256 28.0921C61.111 28.0822 61.0941 28.0764 61.0765 28.0751C61.059 28.0738 61.0414 28.0771 61.0256 28.0848C61.0097 28.0924 60.9961 28.104 60.9861 28.1185C60.9762 28.133 60.9702 28.1498 60.9687 28.1674C60.9673 28.1849 60.9705 28.2025 60.9779 28.2184C60.9854 28.2344 60.9969 28.2481 61.0113 28.2582C61.0257 28.2683 61.0425 28.2744 61.06 28.276C61.0775 28.2776 61.0952 28.2746 61.1112 28.2673C61.1259 28.2585 61.1384 28.2463 61.1475 28.2317C61.1566 28.2171 61.162 28.2005 61.1635 28.1834C61.1649 28.1662 61.1622 28.149 61.1556 28.1331C61.149 28.1173 61.1387 28.1032 61.1256 28.0921Z" fill="white"/>
<path d="M68.7263 33.2281C68.7115 33.2196 68.6949 33.215 68.678 33.2145C68.661 33.214 68.6441 33.2178 68.6289 33.2254C68.6137 33.233 68.6007 33.2442 68.5908 33.2581C68.581 33.2719 68.5748 33.288 68.5727 33.3049C68.5724 33.3217 68.5762 33.3383 68.5838 33.3533C68.5914 33.3682 68.6026 33.3811 68.6163 33.3908C68.63 33.4005 68.6459 33.4067 68.6626 33.4089C68.6792 33.4111 68.6962 33.4091 68.7119 33.4033C68.7267 33.3953 68.7393 33.3839 68.7488 33.3701C68.7583 33.3562 68.7644 33.3403 68.7665 33.3236C68.7686 33.307 68.7667 33.29 68.761 33.2743C68.7552 33.2585 68.7458 33.2443 68.7335 33.2329" fill="white"/>
<path d="M70.2959 34.0801C70.2812 34.0707 70.2644 34.0653 70.247 34.0644C70.2297 34.0635 70.2124 34.0671 70.1968 34.0748C70.1813 34.0825 70.168 34.0942 70.1582 34.1085C70.1485 34.1229 70.1426 34.1396 70.1412 34.1569C70.1398 34.1742 70.1429 34.1916 70.1502 34.2074C70.1575 34.2232 70.1688 34.2368 70.1829 34.2469C70.197 34.2571 70.2135 34.2634 70.2308 34.2653C70.248 34.2672 70.2655 34.2645 70.2815 34.2577C70.2963 34.2497 70.3089 34.2383 70.3184 34.2245C70.3279 34.2106 70.334 34.1947 70.3361 34.178C70.3382 34.1614 70.3363 34.1444 70.3306 34.1287C70.3248 34.1129 70.3154 34.0987 70.3031 34.0873" fill="white"/>
<g opacity="0.3">
<path d="M60.7607 25.3776C60.7415 25.4688 61.4543 25.6704 62.5799 26.0328C63.7055 26.3952 65.2511 26.9352 66.6863 27.9528C67.3518 28.437 67.9422 29.0169 68.4383 29.6736C68.8414 30.2116 69.1647 30.8049 69.3983 31.4352C69.7919 32.52 69.7415 33.2712 69.8495 33.2736C69.8879 33.2736 69.9455 33.0936 69.9743 32.7504C70.0007 32.2653 69.9488 31.7791 69.8207 31.3104C69.6307 30.6084 69.3214 29.9443 68.9063 29.3472C68.3996 28.6155 67.7723 27.9752 67.0511 27.4536C66.3329 26.9459 65.554 26.5299 64.7327 26.2152C64.0707 25.9607 63.3903 25.7569 62.6975 25.6056C61.5191 25.3488 60.7775 25.2984 60.7607 25.3776Z" fill="white"/>
</g>
<g opacity="0.3">
<path d="M68.4166 36.7681C68.5222 36.9025 68.9782 36.7153 69.3142 36.2449C69.6502 35.7745 69.6766 35.2849 69.5158 35.2249C69.355 35.1649 69.0862 35.4913 68.7958 35.8825C68.5054 36.2737 68.3086 36.6313 68.4166 36.7681Z" fill="white"/>
</g>
<path d="M51.996 40.62C51.516 40.7568 51.5448 47.7072 51.648 51.2544C51.7032 53.1552 51.8448 55.14 52.8144 56.7744C53.8944 58.596 55.9512 59.76 58.0656 59.8944C60.6072 60.0672 63.1224 58.836 64.8624 56.9712C66.6024 55.1064 67.6344 52.6728 68.1888 50.184C68.7432 47.6952 68.8512 45.144 68.9568 42.5832C68.9568 42.5928 60.72 38.16 51.996 40.62Z" fill="#6869AC"/>
<g opacity="0.2">
<path d="M68.5704 45.9529C68.628 48.1945 68.232 50.7793 67.5144 52.6489C66.7368 54.6745 65.6088 56.4889 63.7224 58.0249C63.1931 58.4207 62.6311 58.7708 62.0424 59.0713C61.5458 59.3276 61.0217 59.5265 60.48 59.6641C59.5848 59.9209 59.0592 58.8121 58.884 57.8977C58.7088 56.9833 59.0376 56.0257 59.604 55.2793C60.1915 54.5541 60.9044 53.9404 61.7088 53.4673C62.5117 52.9963 63.2874 52.4802 64.032 51.9217C65.254 50.876 66.2259 49.5695 66.876 48.0985C67.5228 46.6324 68.0595 45.1202 68.4816 43.5745" fill="#101723"/>
</g>
<path d="M62.6952 55.44C62.6802 55.4322 62.6636 55.4281 62.6466 55.4279C62.6297 55.4277 62.613 55.4316 62.5978 55.439C62.5826 55.4465 62.5694 55.4574 62.5592 55.4709C62.5491 55.4845 62.5422 55.5002 62.5392 55.5168C62.5394 55.5337 62.5435 55.5503 62.5514 55.5653C62.5593 55.5802 62.5707 55.593 62.5846 55.6027C62.5984 55.6123 62.6144 55.6185 62.6312 55.6207C62.6479 55.6229 62.6649 55.621 62.6808 55.6152C62.6956 55.6075 62.7082 55.5964 62.7178 55.5828C62.7273 55.5691 62.7334 55.5534 62.7355 55.5369C62.7376 55.5204 62.7357 55.5036 62.73 55.488C62.7242 55.4724 62.7147 55.4584 62.7024 55.4472" fill="white"/>
<path d="M59.6134 55.3129C59.5988 55.3035 59.582 55.2981 59.5646 55.2972C59.5472 55.2963 59.5299 55.2999 59.5144 55.3076C59.4988 55.3153 59.4855 55.3269 59.4758 55.3413C59.466 55.3557 59.4602 55.3724 59.4588 55.3897C59.4574 55.407 59.4605 55.4244 59.4678 55.4402C59.4751 55.456 59.4863 55.4696 59.5004 55.4797C59.5145 55.4899 59.531 55.4962 59.5483 55.4981C59.5656 55.4999 59.5831 55.4973 59.599 55.4905C59.614 55.4827 59.6269 55.4715 59.6366 55.4578C59.6463 55.444 59.6526 55.4281 59.655 55.4115C59.6573 55.3948 59.6556 55.3778 59.6501 55.3619C59.6445 55.346 59.6353 55.3316 59.623 55.3201" fill="white"/>
<path d="M56.2487 52.1352C56.2342 52.1268 56.2177 52.1221 56.2009 52.1215C56.1841 52.1209 56.1674 52.1244 56.1523 52.1318C56.1371 52.1391 56.124 52.15 56.114 52.1636C56.1041 52.1772 56.0976 52.193 56.0951 52.2096C56.0932 52.2272 56.0959 52.2449 56.103 52.2611C56.1101 52.2772 56.1213 52.2912 56.1355 52.3017C56.1497 52.3122 56.1664 52.3187 56.1839 52.3207C56.2014 52.3227 56.2192 52.3201 56.2354 52.3131C56.2516 52.3061 56.2656 52.2949 56.2762 52.2808C56.2867 52.2667 56.2934 52.25 56.2954 52.2325C56.2975 52.215 56.295 52.1972 56.288 52.181C56.2811 52.1648 56.27 52.1506 56.2559 52.14" fill="white"/>
<path d="M57.7943 44.28C57.7795 44.2722 57.763 44.268 57.7462 44.2678C57.7294 44.2676 57.7128 44.2715 57.6978 44.279C57.6828 44.2865 57.6698 44.2975 57.6599 44.311C57.6499 44.3245 57.6434 44.3403 57.6407 44.3568C57.6411 44.3735 57.6454 44.3898 57.6531 44.4045C57.6609 44.4192 57.6719 44.432 57.6854 44.4417C57.6988 44.4515 57.7144 44.458 57.7308 44.4608C57.7472 44.4635 57.764 44.4625 57.7799 44.4576C57.7949 44.4499 57.8078 44.4387 57.8175 44.4249C57.8272 44.4112 57.8335 44.3953 57.8359 44.3786C57.8382 44.362 57.8366 44.345 57.831 44.3291C57.8254 44.3132 57.8162 44.2988 57.8039 44.2872" fill="white"/>
<path d="M54.6407 45.5689C54.6261 45.5605 54.6097 45.5558 54.5928 45.5552C54.576 45.5546 54.5593 45.5581 54.5442 45.5654C54.529 45.5728 54.5159 45.5837 54.5059 45.5973C54.496 45.6108 54.4895 45.6266 54.4871 45.6433C54.4855 45.6607 54.4884 45.6782 54.4956 45.6941C54.5028 45.7099 54.514 45.7237 54.5281 45.734C54.5422 45.7443 54.5587 45.7507 54.576 45.7527C54.5934 45.7546 54.6109 45.7521 54.627 45.7452C54.643 45.7384 54.657 45.7275 54.6676 45.7136C54.6782 45.6997 54.685 45.6834 54.6873 45.6661C54.6897 45.6488 54.6875 45.6312 54.681 45.615C54.6745 45.5988 54.6639 45.5846 54.6503 45.5737" fill="white"/>
<path d="M66.1846 54.5256C66.1698 54.5178 66.1533 54.5136 66.1365 54.5134C66.1197 54.5132 66.1031 54.5171 66.0881 54.5246C66.0731 54.5321 66.0601 54.5431 66.0502 54.5566C66.0402 54.5701 66.0337 54.5859 66.031 54.6024C66.0313 54.6191 66.0355 54.6354 66.0432 54.65C66.051 54.6647 66.0621 54.6774 66.0757 54.687C66.0892 54.6966 66.1049 54.7028 66.1213 54.7052C66.1377 54.7076 66.1545 54.7061 66.1702 54.7008C66.1852 54.6934 66.1981 54.6824 66.2078 54.6689C66.2176 54.6553 66.2239 54.6397 66.2263 54.6231C66.2286 54.6066 66.2269 54.5898 66.2214 54.574C66.2158 54.5583 66.2065 54.5442 66.1942 54.5328" fill="white"/>
<path d="M66.6934 51.9121C66.6786 51.9042 66.6621 51.9 66.6453 51.8998C66.6285 51.8997 66.6119 51.9035 66.5969 51.911C66.5819 51.9185 66.5689 51.9295 66.5589 51.943C66.549 51.9566 66.5425 51.9723 66.5398 51.9889C66.5401 52.0055 66.5443 52.0218 66.552 52.0365C66.5598 52.0511 66.5709 52.0638 66.5845 52.0734C66.598 52.083 66.6137 52.0892 66.6301 52.0916C66.6465 52.094 66.6633 52.0925 66.679 52.0873C66.694 52.0798 66.7068 52.0688 66.7166 52.0553C66.7264 52.0418 66.7327 52.0261 66.735 52.0095C66.7374 51.993 66.7357 51.9762 66.7302 51.9605C66.7246 51.9447 66.7153 51.9306 66.703 51.9193" fill="white"/>
<path d="M66.9167 49.5457C66.9019 49.5378 66.8854 49.5336 66.8686 49.5335C66.8518 49.5333 66.8352 49.5371 66.8202 49.5446C66.8052 49.5521 66.7922 49.5631 66.7822 49.5766C66.7723 49.5902 66.7658 49.6059 66.7631 49.6225C66.7628 49.6393 66.7667 49.6559 66.7743 49.6709C66.7819 49.6858 66.793 49.6987 66.8067 49.7084C66.8205 49.7181 66.8363 49.7243 66.853 49.7265C66.8696 49.7287 66.8866 49.7267 66.9023 49.7209C66.9171 49.7129 66.9298 49.7015 66.9393 49.6877C66.9488 49.6738 66.9548 49.6579 66.9569 49.6412C66.959 49.6246 66.9571 49.6076 66.9514 49.5918C66.9457 49.5761 66.9362 49.5619 66.9239 49.5505" fill="white"/>
<path d="M67.14 47.0401C67.1251 47.0322 67.1086 47.028 67.0918 47.0278C67.075 47.0277 67.0584 47.0315 67.0434 47.039C67.0284 47.0465 67.0154 47.0575 67.0055 47.071C66.9956 47.0846 66.989 47.1003 66.9864 47.1169C66.9866 47.1335 66.9908 47.1498 66.9986 47.1645C67.0063 47.1791 67.0174 47.1918 67.031 47.2014C67.0446 47.211 67.0602 47.2172 67.0766 47.2196C67.0931 47.222 67.1098 47.2205 67.1256 47.2153C67.1405 47.2078 67.1534 47.1968 67.1631 47.1833C67.1729 47.1698 67.1792 47.1541 67.1816 47.1375C67.1839 47.121 67.1823 47.1042 67.1767 47.0885C67.1711 47.0727 67.1618 47.0586 67.1496 47.0473" fill="white"/>
<path d="M52.7687 44.9544C52.7541 44.9446 52.7372 44.9387 52.7197 44.9375C52.7021 44.9362 52.6845 44.9395 52.6687 44.9471C52.6528 44.9547 52.6392 44.9664 52.6293 44.9809C52.6193 44.9954 52.6133 45.0122 52.6118 45.0297C52.6104 45.0473 52.6136 45.0649 52.621 45.0808C52.6285 45.0967 52.64 45.1104 52.6544 45.1205C52.6688 45.1306 52.6856 45.1368 52.7031 45.1384C52.7207 45.14 52.7383 45.137 52.7543 45.1296C52.77 45.1217 52.7834 45.1098 52.7933 45.0952C52.8031 45.0805 52.809 45.0636 52.8104 45.0461C52.8119 45.0285 52.8088 45.0109 52.8015 44.9948C52.7942 44.9788 52.7829 44.9649 52.7687 44.9544Z" fill="white"/>
<path d="M55.7351 55.0777C55.7205 55.0693 55.7041 55.0646 55.6872 55.064C55.6704 55.0634 55.6537 55.0669 55.6386 55.0742C55.6234 55.0816 55.6103 55.0925 55.6004 55.1061C55.5904 55.1196 55.5839 55.1354 55.5815 55.1521C55.5795 55.1696 55.5823 55.1873 55.5894 55.2035C55.5964 55.2197 55.6076 55.2337 55.6218 55.2441C55.636 55.2546 55.6527 55.2612 55.6702 55.2632C55.6878 55.2652 55.7055 55.2625 55.7217 55.2555C55.7379 55.2485 55.752 55.2374 55.7625 55.2232C55.773 55.2091 55.7797 55.1924 55.7818 55.1749C55.7838 55.1574 55.7813 55.1396 55.7744 55.1234C55.7674 55.1072 55.7564 55.0931 55.7423 55.0825" fill="white"/>
<path d="M55.3967 57.5592C55.3821 57.5494 55.3652 57.5435 55.3477 57.5423C55.3301 57.541 55.3125 57.5443 55.2967 57.5519C55.2808 57.5595 55.2672 57.5712 55.2573 57.5857C55.2473 57.6002 55.2413 57.617 55.2399 57.6345C55.2384 57.6521 55.2416 57.6697 55.2491 57.6856C55.2565 57.7015 55.268 57.7152 55.2824 57.7253C55.2968 57.7354 55.3136 57.7416 55.3312 57.7432C55.3487 57.7448 55.3663 57.7418 55.3823 57.7344C55.3975 57.726 55.4104 57.714 55.4199 57.6994C55.4293 57.6847 55.435 57.668 55.4364 57.6507C55.4378 57.6334 55.435 57.6159 55.428 57.6C55.4211 57.584 55.4103 57.57 55.3967 57.5592Z" fill="white"/>
<g opacity="0.3">
<path d="M53.9064 42.4801C53.8824 42.5545 54.6264 42.8881 55.8984 43.2313C56.6435 43.4327 57.399 43.5929 58.1616 43.7113C60.0327 44.0023 61.932 44.0667 63.8184 43.9033C64.5868 43.8363 65.351 43.7289 66.108 43.5817C67.3992 43.3225 68.1648 43.0417 68.1456 42.9649C68.1072 42.7753 64.9488 43.5025 61.0032 43.3537C57.0576 43.2049 53.9592 42.3025 53.9064 42.4801Z" fill="white"/>
</g>
<path d="M62.9807 58.5601C62.9807 58.5601 63.0287 58.5289 63.1127 58.4593C63.1967 58.3897 63.3167 58.2793 63.4631 58.1329C63.8853 57.7183 64.2285 57.2304 64.4759 56.6929C64.6396 56.3214 64.7744 55.9379 64.8791 55.5457C65.0039 55.1305 65.1191 54.6817 65.2535 54.2089C65.5055 53.2609 65.7503 52.2145 65.9735 51.1057C66.3469 49.2071 66.6121 47.2888 66.7679 45.3601C66.8231 44.6233 66.8543 44.0257 66.8687 43.6105V43.1305C66.8729 43.0745 66.8729 43.0184 66.8687 42.9625C66.8555 43.0167 66.8483 43.0722 66.8471 43.1281C66.8471 43.2505 66.8255 43.4065 66.8111 43.6081C66.7823 44.0209 66.7367 44.6185 66.6695 45.3529C66.5279 46.8241 66.2807 48.8545 65.8391 51.0673C65.6183 52.1713 65.3783 53.2273 65.1191 54.1657C64.9967 54.6457 64.8791 55.0849 64.7567 55.5025C64.6578 55.8914 64.5303 56.2724 64.3751 56.6425C64.1405 57.1742 63.8157 57.6614 63.4151 58.0825C63.2759 58.2337 63.1607 58.3465 63.0839 58.4233C63.0464 58.4665 63.0119 58.5122 62.9807 58.5601Z" fill="white"/>
<path d="M57.3935 50.9041C57.3599 50.9041 57.1031 52.8097 56.8175 55.1713C56.5319 57.5329 56.3375 59.4504 56.3639 59.4552C56.3903 59.46 56.6567 57.5473 56.9423 55.1857C57.2279 52.8241 57.4295 50.9065 57.3935 50.9041Z" fill="white"/>
<path d="M61.0081 40.1304C60.9429 40.18 60.8848 40.2381 60.8353 40.3032C60.7321 40.4184 60.5953 40.5888 60.4033 40.8C60.0409 41.2248 59.5489 41.8176 59.0113 42.48L58.8121 42.72L58.7881 42.7488C58.7748 42.7585 58.7648 42.7718 58.7593 42.7872C58.7518 42.8044 58.7454 42.8221 58.7401 42.84V42.8808C58.7281 42.9336 58.7233 42.984 58.7161 43.0344C58.6969 43.236 58.6849 43.4304 58.6753 43.6152C58.6561 43.9824 58.6489 44.316 58.6417 44.5944C58.6345 44.8728 58.6417 45.0984 58.6417 45.2544C58.6358 45.3348 58.6415 45.4156 58.6585 45.4944C58.7032 45.1964 58.728 44.8957 58.7329 44.5944C58.7497 44.3064 58.7713 43.9776 58.7929 43.62C58.7929 43.4352 58.8193 43.2432 58.8409 43.0464C58.8409 42.9984 58.8529 42.948 58.8625 42.9024V42.8664V42.8472C58.8625 42.8472 58.8913 42.816 58.9033 42.7944L59.1025 42.5544C59.6401 41.8968 60.1225 41.2944 60.4657 40.8576C60.6385 40.6368 60.7753 40.4592 60.8689 40.332C60.9234 40.2708 60.9702 40.2031 61.0081 40.1304Z" fill="white"/>
<path d="M57.18 54.5257C57.2772 54.5581 57.3779 54.579 57.48 54.5881C57.6768 54.6217 57.96 54.6601 58.308 54.7033C59.0088 54.7921 59.988 54.8857 61.056 54.9433C62.124 55.0009 63.108 55.0009 63.8136 54.9865C64.164 54.9865 64.4496 54.9673 64.6464 54.9553C64.7496 54.9546 64.8524 54.9442 64.9536 54.9241C64.8522 54.9067 64.7492 54.9003 64.6464 54.9049H63.8112C63.108 54.9049 62.1312 54.8785 61.0608 54.8257C59.9904 54.7729 59.0184 54.6913 58.3176 54.6265L57.4872 54.5497C57.3858 54.5321 57.2829 54.524 57.18 54.5257Z" fill="white"/>
<path d="M51.6 45.2545C51.6 45.2545 51.6552 45.3049 51.7656 45.3721C51.921 45.4688 52.0812 45.5578 52.2456 45.6385C52.7904 45.9041 53.3573 46.1217 53.94 46.2889C54.5206 46.4607 55.1124 46.5923 55.7112 46.6825C55.9577 46.7316 56.2086 46.7557 56.46 46.7545C56.2196 46.6859 55.9751 46.633 55.728 46.5961C55.2744 46.5049 54.6504 46.3561 53.976 46.1713C53.3992 46.0021 52.8333 45.7977 52.2816 45.5593C51.876 45.3721 51.6216 45.2377 51.6 45.2545Z" fill="white"/>
<path d="M56.2067 50.1592C55.1083 49.0608 55.1083 47.2798 56.2067 46.1813C57.3052 45.0829 59.0862 45.0829 60.1846 46.1813C61.2831 47.2798 61.2831 49.0608 60.1846 50.1592C59.0862 51.2577 57.3052 51.2577 56.2067 50.1592Z" fill="#3E4551"/>
<path d="M57.4448 50.0804C56.3918 49.6652 55.8747 48.4749 56.2899 47.4218C56.7052 46.3688 57.8955 45.8517 58.9485 46.267C60.0016 46.6822 60.5186 47.8725 60.1034 48.9255C59.6881 49.9786 58.4979 50.4956 57.4448 50.0804Z" fill="white"/>
<path d="M57.1056 48.6121C57.1276 48.502 57.1421 48.3905 57.1488 48.2785C57.168 48.0673 57.1944 47.7649 57.2232 47.3977L57.1968 47.4361L58.2936 46.9009H58.2336L59.2512 47.5753C59.2776 47.6257 59.2176 47.5081 59.2248 47.5201V47.5945V47.6737V47.8321C59.2248 47.9377 59.2128 48.0409 59.208 48.1417C59.196 48.3457 59.1864 48.5425 59.1744 48.7321L59.208 48.6841L58.1232 49.2433H58.1688C57.8568 49.0441 57.6 48.8857 57.42 48.7753C57.3249 48.7143 57.2264 48.659 57.1248 48.6097C57.2011 48.6846 57.2856 48.7506 57.3768 48.8065C57.5472 48.9289 57.7992 49.1041 58.1184 49.3201L58.14 49.3345H58.164L59.2608 48.7993L59.2896 48.7849V48.7489C59.3016 48.5593 59.316 48.3625 59.328 48.1585C59.328 48.0577 59.34 47.9545 59.3472 47.8489V47.6905V47.6113V47.5201C59.3472 47.5321 59.292 47.4145 59.3184 47.4625L58.296 46.7953L58.2672 46.7761L58.2384 46.7929L57.1536 47.3521L57.1272 47.3641V47.3905C57.1104 47.7721 57.1008 48.0817 57.096 48.2929C57.0877 48.3993 57.0909 48.5063 57.1056 48.6121Z" fill="#6869AC"/>
<g opacity="0.2">
<path d="M68.9568 42.5929C68.9568 42.5929 60.7176 38.0929 51.996 40.6201C51.996 40.6201 55.728 44.1601 68.9568 42.5929Z" fill="#101723"/>
</g>
<path d="M55.68 97.9633C55.6656 97.9533 55.6488 97.9472 55.6313 97.9457C55.6138 97.9442 55.5962 97.9474 55.5802 97.9548C55.5643 97.9622 55.5506 97.9736 55.5404 97.988C55.5303 98.0023 55.5241 98.0191 55.5224 98.0365C55.5207 98.054 55.5236 98.0717 55.5309 98.0877C55.5381 98.1037 55.5494 98.1175 55.5636 98.1278C55.5779 98.1381 55.5945 98.1445 55.612 98.1464C55.6295 98.1483 55.6471 98.1455 55.6632 98.1385C55.6782 98.1307 55.6911 98.1195 55.7008 98.1057C55.7105 98.092 55.7168 98.0761 55.7192 98.0595C55.7215 98.0428 55.7199 98.0258 55.7143 98.0099C55.7087 97.994 55.6995 97.9797 55.6872 97.9681" fill="white"/>
<path d="M59.2583 67.1377C59.1071 72.9985 58.5095 78.8617 57.0167 84.5305C56.7623 85.5049 56.4599 86.5153 55.7615 87.2401C55.0631 87.9649 53.8415 88.2889 53.0351 87.6889C52.3415 87.1777 52.1855 86.2225 52.0895 85.3657C51.3438 79.0879 50.9296 72.7751 50.8487 66.4537C50.8487 66.4537 50.6639 61.6225 54.0719 61.6249C57.4799 61.6273 59.3495 63.5473 59.2583 67.1377Z" fill="#6869AC"/>
<g opacity="0.2">
<path d="M56.8799 62.16C56.4527 61.644 55.5935 61.68 55.0727 62.1C54.5519 62.52 54.3239 63.2065 54.2471 63.8713C54.0071 65.9737 55.0391 67.9896 55.4063 70.0729C55.7591 72.0792 55.4903 74.1385 55.5863 76.1713C55.6823 78.2041 56.1311 80.2824 57.7223 81.5497C57.7223 81.5497 59.2631 73.7137 59.0471 70.7209C58.8863 68.5297 56.8799 62.16 56.8799 62.16Z" fill="#101723"/>
</g>
<path d="M56.424 70.056C56.4085 70.1157 56.3988 70.1768 56.3952 70.2384L56.3376 70.764C56.2896 71.232 56.2224 71.8872 56.1408 72.684C55.9704 74.3136 55.7232 76.5624 55.404 79.0392C55.0848 81.516 54.756 83.7552 54.5064 85.3728C54.3816 86.172 54.2808 86.8248 54.2088 87.2928C54.1776 87.5088 54.1512 87.6816 54.132 87.8136C54.1198 87.8737 54.1134 87.9348 54.1128 87.996C54.1335 87.9385 54.1479 87.879 54.156 87.8184C54.1832 87.6888 54.2168 87.516 54.2568 87.3C54.3432 86.8488 54.4584 86.1984 54.5928 85.38C54.864 83.7648 55.2096 81.528 55.5288 79.0488C55.848 76.5696 56.0808 74.3184 56.2272 72.6864C56.3016 71.8704 56.3544 71.2104 56.3856 70.752C56.4 70.5328 56.412 70.3576 56.4216 70.2264C56.4269 70.1698 56.4277 70.1128 56.424 70.056Z" fill="white"/>
<path d="M61.4399 71.3761C59.8487 72.1537 57.5783 71.5225 56.4767 69.9145C55.3751 68.3065 55.0367 66.3145 54.7127 64.3945C54.6071 63.7489 54.5207 63.0169 54.9215 62.5009C55.3823 61.9105 56.2487 61.8817 56.9951 61.9057L64.1111 62.1457C64.1111 62.1457 66.7007 62.8873 66.7007 64.4497C66.7007 66.0121 63.6167 70.3201 61.4399 71.3761Z" fill="#3E4551"/>
<path d="M55.327 88.5601C56.0926 88.5961 56.7358 89.2105 57.0382 89.9161C57.3406 90.6217 57.3742 91.4089 57.4006 92.1745C57.5638 96.8401 57.727 101.515 57.4678 106.176C57.4126 107.186 57.3142 108.259 56.6974 109.056C56.0806 109.853 54.7558 110.191 54.0574 109.459C53.659 109.042 53.5774 108.422 53.515 107.849L51.7006 91.1641C51.6334 90.5353 51.5734 89.8561 51.895 89.3113C52.0647 89.0584 52.2896 88.8475 52.5528 88.6945C52.816 88.5415 53.1106 88.4504 53.4142 88.4281C54.0211 88.3866 54.6307 88.4393 55.2214 88.5841" fill="#6869AC"/>
<path d="M56.2679 110.508C56.2691 110.49 56.2691 110.471 56.2679 110.453L56.2895 110.287C56.3063 110.143 56.3326 109.93 56.359 109.654C56.4118 109.102 56.4719 108.3 56.5151 107.309C56.6111 105.324 56.5919 102.581 56.5007 99.5545C56.4095 96.5281 56.3207 93.7945 56.2607 91.8073C56.2625 91.0184 56.1261 90.2354 55.8574 89.4937C55.7755 89.2954 55.6742 89.1057 55.5551 88.9273L55.4542 88.7953C55.4326 88.7641 55.4182 88.7497 55.4182 88.7521C55.4248 88.77 55.4337 88.7869 55.4446 88.8025L55.5335 88.9417C55.6424 89.123 55.7355 89.3133 55.8118 89.5105C56.0612 90.251 56.183 91.0284 56.1718 91.8097C56.2246 93.8017 56.2966 96.5377 56.3758 99.5593C56.455 102.581 56.5006 105.319 56.4286 107.304C56.395 108.295 56.347 109.097 56.3086 109.649C56.2918 109.918 56.275 110.129 56.2654 110.285V110.453C56.2621 110.471 56.2629 110.49 56.2679 110.508Z" fill="white"/>
<path d="M57.0383 110.88C57.1237 110.405 57.1463 109.921 57.1055 109.44C57.0622 108.958 56.8302 108.512 56.4599 108.199C56.1474 107.999 55.7921 107.876 55.423 107.84C55.0538 107.804 54.6813 107.855 54.3359 107.99C54.0839 108.137 53.87 108.34 53.7115 108.584C53.5531 108.829 53.4545 109.107 53.4239 109.397L53.0663 111.137" fill="#3E4551"/>
<path d="M57.1798 110.798L53.0374 110.842C53.0374 110.842 49.9894 111.533 50.0542 111.778C50.119 112.022 57.3022 111.73 57.3022 111.73L57.1798 110.798Z" fill="#6869AC"/>
<path d="M58.2097 62.1265C58.1535 62.2466 58.107 62.371 58.0705 62.4985C58.0179 62.6454 57.9738 62.7953 57.9385 62.9473C57.882 63.1464 57.8355 63.3483 57.7992 63.5521C57.7474 63.7971 57.7081 64.0446 57.6817 64.2937C57.6433 64.5625 57.6312 64.8505 57.612 65.1553C57.5922 65.8149 57.6299 66.475 57.7248 67.1281C57.8269 67.7812 57.9875 68.4238 58.2048 69.0481C58.3176 69.3313 58.4161 69.6025 58.5409 69.8449C58.6009 69.9649 58.6537 70.0849 58.7137 70.1953L58.8913 70.5097C58.9935 70.6896 59.1048 70.8643 59.2249 71.0329C59.309 71.1647 59.402 71.2906 59.5033 71.4097C59.5802 71.5175 59.667 71.6179 59.7625 71.7097C59.6982 71.5941 59.6244 71.4841 59.5417 71.3809C59.448 71.2558 59.3606 71.126 59.2801 70.9921C59.1841 70.8385 59.0689 70.6681 58.9657 70.4641C58.9105 70.3633 58.8553 70.2577 58.7953 70.1497C58.7353 70.0417 58.6897 69.9097 58.6321 69.7969C58.5145 69.5569 58.4209 69.2857 58.3105 69.0073C58.0964 68.3894 57.9359 67.7542 57.8305 67.1089C57.7361 66.4629 57.6952 65.8103 57.7081 65.1577C57.7225 64.8577 57.7297 64.5721 57.7657 64.3057C57.8017 64.0393 57.828 63.7921 57.8664 63.5689C57.9048 63.3457 57.948 63.1417 57.9864 62.9641C58.0248 62.7865 58.0609 62.6353 58.0969 62.5129C58.1438 62.387 58.1815 62.2578 58.2097 62.1265Z" fill="#A2A3A8"/>
<path d="M54.96 76.0968C54.9453 76.089 54.929 76.0848 54.9124 76.0844C54.8957 76.0841 54.8792 76.0877 54.8643 76.095C54.8493 76.1022 54.8363 76.1129 54.8262 76.1262C54.8161 76.1394 54.8093 76.1549 54.8064 76.1712C54.8048 76.1886 54.8077 76.2061 54.8149 76.222C54.8221 76.2379 54.8333 76.2517 54.8474 76.2619C54.8615 76.2722 54.878 76.2786 54.8954 76.2806C54.9127 76.2826 54.9303 76.28 54.9463 76.2732C54.9624 76.2663 54.9764 76.2554 54.9869 76.2416C54.9975 76.2277 55.0043 76.2113 55.0067 76.194C55.009 76.1767 55.0068 76.1591 55.0003 76.1429C54.9938 76.1267 54.9832 76.1125 54.9696 76.1016" fill="white"/>
<path d="M54.3623 81.2305C54.3476 81.2211 54.3308 81.2157 54.3134 81.2148C54.2961 81.2139 54.2788 81.2175 54.2632 81.2252C54.2477 81.2329 54.2344 81.2445 54.2246 81.2589C54.2149 81.2733 54.209 81.29 54.2076 81.3073C54.2062 81.3246 54.2093 81.342 54.2166 81.3578C54.2239 81.3736 54.2352 81.3872 54.2493 81.3973C54.2634 81.4075 54.2799 81.4138 54.2972 81.4157C54.3144 81.4176 54.3319 81.4149 54.3479 81.4081C54.3627 81.4001 54.3753 81.3887 54.3848 81.3749C54.3943 81.361 54.4004 81.3451 54.4025 81.3284C54.4046 81.3118 54.4027 81.2948 54.397 81.2791C54.3912 81.2633 54.3818 81.2491 54.3695 81.2377" fill="white"/>
<path d="M55.5815 70.8576C55.5669 70.8478 55.55 70.8419 55.5325 70.8407C55.5149 70.8394 55.4974 70.8427 55.4815 70.8503C55.4657 70.8579 55.4521 70.8696 55.4421 70.8841C55.4321 70.8986 55.4261 70.9154 55.4247 70.9329C55.4232 70.9505 55.4264 70.9681 55.4339 70.984C55.4413 70.9999 55.4529 71.0136 55.4673 71.0237C55.4817 71.0338 55.4985 71.04 55.516 71.0416C55.5335 71.0432 55.5511 71.0402 55.5671 71.0328C55.5819 71.0249 55.5946 71.0135 55.6041 70.9996C55.6136 70.9858 55.6196 70.9698 55.6217 70.9532C55.6238 70.9365 55.6219 70.9196 55.6162 70.9038C55.6105 70.888 55.601 70.8738 55.5887 70.8624" fill="white"/>
<path d="M55.5815 93.0649C55.5668 93.0564 55.5502 93.0518 55.5332 93.0513C55.5162 93.0508 55.4994 93.0546 55.4842 93.0622C55.469 93.0698 55.4559 93.081 55.4461 93.0949C55.4363 93.1087 55.43 93.1248 55.4279 93.1417C55.4276 93.1585 55.4315 93.1751 55.4391 93.19C55.4467 93.205 55.4578 93.2179 55.4715 93.2276C55.4853 93.2373 55.5011 93.2435 55.5178 93.2457C55.5344 93.2479 55.5514 93.2459 55.5671 93.2401C55.5819 93.2321 55.5946 93.2207 55.6041 93.2068C55.6136 93.193 55.6196 93.1771 55.6217 93.1604C55.6238 93.1437 55.6219 93.1268 55.6162 93.111C55.6105 93.0953 55.601 93.0811 55.5887 93.0697" fill="white"/>
<path d="M53.3448 109.44C53.5126 109.533 53.6929 109.601 53.8801 109.642C54.3246 109.764 54.7807 109.839 55.2409 109.867C55.7009 109.896 56.1627 109.876 56.6185 109.807C56.8087 109.789 56.9954 109.744 57.1729 109.673C56.535 109.738 55.8937 109.761 55.2529 109.742C54.6111 109.682 53.9738 109.581 53.3448 109.44Z" fill="#A2A3A8"/>
<g opacity="0.2">
<path d="M57.5999 102.619C56.5031 101.818 55.7999 100.567 55.4087 99.2593C55.0175 97.9513 54.9118 96.5905 54.8062 95.2345C54.7006 93.8785 54.5903 92.5105 54.1895 91.2097C54.0744 90.9355 54.0306 90.6366 54.0623 90.3409C54.1607 89.8753 54.6359 89.6017 55.0703 89.4049C55.6079 89.1649 56.2847 88.9609 56.7503 89.3281C57.0983 89.6041 57.1751 90.0937 57.2183 90.5281C57.6359 94.6081 57.6023 98.7001 57.5687 102.79" fill="#101723"/>
</g>
<path d="M54.0455 90.7848C52.4178 90.7848 51.0983 89.4653 51.0983 87.8376C51.0983 86.2099 52.4178 84.8904 54.0455 84.8904C55.6732 84.8904 56.9927 86.2099 56.9927 87.8376C56.9927 89.4653 55.6732 90.7848 54.0455 90.7848Z" fill="#3E4551"/>
<path d="M51.2639 87.4128C51.305 87.4815 51.3569 87.5431 51.4175 87.5952C51.5735 87.7459 51.7476 87.8765 51.9359 87.984C52.5687 88.3291 53.285 88.4912 54.0047 88.452C54.7162 88.4072 55.418 88.2642 56.0903 88.0272C56.3471 87.9432 56.5535 87.8664 56.6951 87.8112C56.7707 87.788 56.8432 87.7558 56.9111 87.7152C56.6238 87.7717 56.3408 87.8479 56.0639 87.9432C55.3928 88.1483 54.7002 88.2748 53.9999 88.32C53.3014 88.3569 52.6052 88.2122 51.9791 87.9C51.7277 87.7576 51.4885 87.5947 51.2639 87.4128Z" fill="#A2A3A8"/>
<path d="M84.6455 40.2937C84.6455 40.2937 85.2239 37.9249 85.5335 37.8121C85.8431 37.6993 89.5559 38.2321 89.5559 38.2321C89.5559 38.2321 90.7559 36.5521 90.9479 36.3265C91.1399 36.1009 91.5359 36.6601 91.4063 36.9145C91.2767 37.1689 90.3911 39.6241 89.8415 39.7081C89.1961 39.746 88.5489 39.7371 87.9047 39.6817L87.4535 41.2273L84.6455 40.2937Z" fill="#6869AC"/>
<path d="M68.5967 49.4616C70.9391 50.316 72.4367 50.748 74.7815 51.6216C76.0822 52.1016 77.7383 52.6392 78.9647 52.9536C79.7831 53.1648 80.7215 53.2297 81.5135 52.8841C82.1878 52.5913 82.6823 52.0032 83.1263 51.4152C85.2071 48.6648 86.3662 45.1752 87.175 41.8152L84.3599 41.2849L79.2671 48.408L70.0103 45.2424L68.4839 49.0057C68.4515 49.0395 68.4283 49.081 68.4163 49.1263C68.4043 49.1716 68.4038 49.2191 68.4151 49.2646C68.4263 49.3101 68.4489 49.352 68.4806 49.3864C68.5123 49.4208 68.5523 49.4467 68.5967 49.4616Z" fill="#6869AC"/>
<path d="M68.5008 43.5145C69.0695 43.6886 69.5802 44.0137 69.9787 44.4551C70.3772 44.8965 70.6486 45.4377 70.7638 46.0211C70.8791 46.6046 70.834 47.2083 70.6332 47.7681C70.4325 48.3279 70.0837 48.8228 69.624 49.2001C69.24 49.5145 68.7 49.7569 68.2512 49.2769C68.112 49.1228 68.0116 48.9376 67.9584 48.7369C67.4592 46.9912 67.6535 45.1202 68.5008 43.5145Z" fill="#3E4551"/>
<path d="M69.9216 44.4145C69.9216 44.4145 69.9216 44.3929 69.888 44.3593C69.85 44.311 69.8056 44.2682 69.756 44.2321C69.7158 44.205 69.6698 44.1877 69.6216 44.1817C69.5655 44.1812 69.5099 44.1927 69.4584 44.2153C69.3975 44.2398 69.3444 44.2805 69.3048 44.3329L69.1848 44.4913C68.7439 45.0798 68.4405 45.7596 68.2968 46.4809C68.1451 47.2019 68.1657 47.9485 68.3568 48.6601C68.4186 48.8787 68.538 49.0768 68.7024 49.2337C68.761 49.2929 68.835 49.3345 68.916 49.3537C68.916 49.3537 68.8416 49.3057 68.736 49.1977C68.5934 49.0373 68.492 48.8445 68.4408 48.6361C68.2806 47.9363 68.2733 47.2102 68.4192 46.5073C68.5607 45.8023 68.8458 45.134 69.2568 44.5441C69.3384 44.4289 69.3936 44.3041 69.4968 44.2777C69.5333 44.2566 69.5747 44.2455 69.6168 44.2455C69.659 44.2455 69.7003 44.2566 69.7368 44.2777C69.8568 44.3521 69.9144 44.4241 69.9216 44.4145Z" fill="#A2A3A8"/>
<path d="M79.267 48.42C79.2415 48.4859 79.2277 48.5558 79.2262 48.6264C79.1993 48.8164 79.1904 49.0084 79.1998 49.2C79.2104 49.4857 79.2539 49.7692 79.3294 50.0448C79.5904 51.0038 80.1864 51.8374 81.0094 52.3944C81.1665 52.5046 81.3318 52.6025 81.5038 52.6872C81.5644 52.723 81.6299 52.7497 81.6982 52.7664C81.6982 52.7448 81.4414 52.6104 81.0622 52.3224C80.5674 51.9494 80.1514 51.482 79.8382 50.9472C79.6699 50.6525 79.5362 50.3392 79.4398 50.0136C79.3629 49.7464 79.3123 49.4723 79.2886 49.1952C79.2526 48.72 79.291 48.4224 79.267 48.42Z" fill="white"/>
<path d="M70.452 46.1208C70.44 46.152 72.4032 46.92 74.8368 47.8344C77.2704 48.7488 79.2528 49.4664 79.2648 49.4328C79.2768 49.3992 77.316 48.6336 74.88 47.7192C72.444 46.8048 70.464 46.08 70.452 46.1208Z" fill="white"/>
<path d="M86.2583 41.7601C86.2371 41.7944 86.221 41.8316 86.2103 41.8705L86.0903 42.1969C85.9895 42.4777 85.8503 42.8857 85.6463 43.3969C85.2623 44.3977 84.6863 45.7633 83.9543 47.2369C83.5871 47.9569 83.2151 48.6529 82.8623 49.2673C82.5095 49.8817 82.1711 50.4241 81.8735 50.8681C81.7271 51.0937 81.5903 51.2929 81.4679 51.4681C81.3455 51.6433 81.2423 51.7945 81.1511 51.9121L80.9495 52.1953C80.9063 52.2601 80.8823 52.2961 80.8871 52.2985C80.9175 52.272 80.9449 52.2422 80.9687 52.2097L81.1895 51.9433C81.2855 51.8281 81.3983 51.6817 81.5231 51.5089C81.6479 51.3361 81.7967 51.1417 81.9455 50.9185C82.2551 50.4793 82.5959 49.9345 82.9631 49.3273C83.3303 48.7201 83.6975 48.0265 84.0671 47.2945C84.6932 46.0418 85.2484 44.755 85.7303 43.4401C85.9151 42.9337 86.0495 42.5209 86.1359 42.2401C86.1743 42.1081 86.2079 42.0001 86.2343 41.9089C86.2509 41.861 86.259 41.8107 86.2583 41.7601Z" fill="white"/>
<path d="M77.4455 49.2864C77.4317 49.277 77.4203 49.2643 77.4125 49.2494C77.4047 49.2346 77.4006 49.218 77.4006 49.2012C77.4006 49.1845 77.4047 49.1679 77.4125 49.1531C77.4203 49.1382 77.4317 49.1255 77.4455 49.116C77.4609 49.1073 77.4782 49.1028 77.4959 49.1028C77.5135 49.1029 77.5308 49.1076 77.5461 49.1165C77.5613 49.1254 77.574 49.1381 77.5828 49.1534C77.5916 49.1687 77.5962 49.186 77.5962 49.2036C77.5962 49.2213 77.5916 49.2386 77.5828 49.2539C77.574 49.2692 77.5613 49.2819 77.5461 49.2908C77.5308 49.2997 77.5135 49.3044 77.4959 49.3044C77.4782 49.3045 77.4609 49.3 77.4455 49.2912" fill="white"/>
<path d="M81.36 50.4457C81.3449 50.4369 81.3322 50.4243 81.3234 50.4092C81.3146 50.394 81.3099 50.3769 81.3097 50.3593C81.3096 50.3418 81.314 50.3246 81.3225 50.3093C81.3311 50.294 81.3434 50.2812 81.3584 50.2721C81.3734 50.2631 81.3906 50.2581 81.4081 50.2577C81.4256 50.2572 81.4429 50.2614 81.4583 50.2697C81.4738 50.278 81.4868 50.2902 81.496 50.3051C81.5053 50.3199 81.5105 50.337 81.5112 50.3545C81.5112 50.3722 81.5066 50.3897 81.4979 50.4051C81.4891 50.4206 81.4765 50.4335 81.4613 50.4427C81.4461 50.4519 81.4288 50.457 81.4111 50.4575C81.3933 50.458 81.3757 50.4539 81.36 50.4457Z" fill="white"/>
<path d="M83.1479 47.6617C83.1328 47.6529 83.1203 47.6404 83.1115 47.6254C83.1027 47.6104 83.0979 47.5933 83.0977 47.5759C83.0974 47.5585 83.1017 47.5413 83.1101 47.5261C83.1184 47.5108 83.1306 47.498 83.1454 47.4888C83.1602 47.4796 83.1771 47.4744 83.1945 47.4738C83.2119 47.4731 83.2292 47.4769 83.2447 47.4849C83.2602 47.4929 83.2733 47.5048 83.2828 47.5193C83.2924 47.5339 83.298 47.5507 83.2991 47.5681C83.2988 47.5858 83.2941 47.6031 83.2853 47.6185C83.2766 47.6339 83.2641 47.6469 83.2491 47.6562C83.234 47.6655 83.2168 47.6709 83.1992 47.6719C83.1815 47.6728 83.1638 47.6693 83.1479 47.6617Z" fill="white"/>
<path d="M75.1464 48.48C75.1312 48.4713 75.1186 48.4587 75.1098 48.4435C75.101 48.4284 75.0962 48.4112 75.0961 48.3937C75.0959 48.3762 75.1003 48.3589 75.1089 48.3436C75.1174 48.3283 75.1298 48.3155 75.1448 48.3065C75.1598 48.2974 75.1769 48.2924 75.1944 48.292C75.212 48.2916 75.2293 48.2957 75.2447 48.3041C75.2601 48.3124 75.2731 48.3246 75.2824 48.3394C75.2917 48.3543 75.2969 48.3713 75.2976 48.3888C75.2969 48.4063 75.2919 48.4234 75.283 48.4385C75.2741 48.4536 75.2616 48.4662 75.2466 48.4753C75.2316 48.4843 75.2146 48.4895 75.1971 48.4903C75.1796 48.4911 75.1622 48.4876 75.1464 48.48Z" fill="white"/>
<path d="M72.5519 47.5872C72.5371 47.5794 72.5206 47.5752 72.5038 47.575C72.487 47.5748 72.4704 47.5787 72.4554 47.5862C72.4404 47.5937 72.4273 47.6047 72.4174 47.6182C72.4075 47.6317 72.4009 47.6475 72.3983 47.664C72.3987 47.6807 72.4029 47.697 72.4107 47.7117C72.4184 47.7264 72.4295 47.7392 72.4429 47.7489C72.4564 47.7587 72.472 47.7652 72.4884 47.7679C72.5048 47.7707 72.5216 47.7696 72.5375 47.7648C72.5525 47.7571 72.5653 47.7459 72.5751 47.7321C72.5848 47.7184 72.5911 47.7025 72.5935 47.6858C72.5958 47.6691 72.5941 47.6521 72.5886 47.6362C72.583 47.6204 72.5737 47.606 72.5615 47.5944" fill="white"/>
<path d="M87.2375 41.844C86.2756 41.7751 85.3198 41.6395 84.3767 41.4384C83.9999 41.3616 83.5631 41.2248 83.4455 40.8576C83.4109 40.7233 83.4151 40.5818 83.4575 40.4497C83.5 40.3176 83.579 40.2003 83.6855 40.1112C83.9072 39.941 84.1678 39.8289 84.4439 39.7848C85.2863 39.6104 86.161 39.6786 86.9663 39.9816C87.257 40.0764 87.5199 40.2412 87.7319 40.4616C87.8368 40.5732 87.9105 40.7105 87.9455 40.8597C87.9805 41.0089 87.9755 41.1646 87.9311 41.3112C87.8864 41.4636 87.7939 41.5977 87.6673 41.6936C87.5407 41.7895 87.3867 41.8422 87.2279 41.844" fill="#3E4551"/>
<path d="M83.5703 40.4928C83.5703 40.512 83.8103 40.3896 84.2255 40.2792C84.7553 40.1383 85.3097 40.1162 85.8491 40.2145C86.3885 40.3128 86.8995 40.5292 87.3455 40.848C87.6887 41.088 87.8663 41.292 87.8831 41.2752C87.8549 41.2184 87.8167 41.1672 87.7703 41.124C87.656 40.998 87.5316 40.8816 87.3983 40.776C86.9518 40.4249 86.4261 40.1884 85.8672 40.0872C85.3083 39.9859 84.7331 40.023 84.1919 40.1952C84.0264 40.2456 83.8658 40.3107 83.7119 40.3896C83.6596 40.4164 83.6118 40.4512 83.5703 40.4928Z" fill="#A2A3A8"/>
<path d="M64.08 88.32C64.8432 88.404 65.448 89.0544 65.7072 89.7744C65.9664 90.4944 65.9472 91.2864 65.9352 92.052C65.8224 96.72 65.7096 101.395 65.1768 106.034C65.0592 107.038 64.8984 108.103 64.236 108.866C63.5736 109.63 62.2296 109.884 61.5768 109.106C61.2048 108.665 61.1592 108.043 61.1304 107.467C60.8568 101.88 60.5824 96.292 60.3072 90.7032C60.276 90.072 60.2592 89.3904 60.612 88.8648C60.7951 88.6267 61.0291 88.4327 61.297 88.2969C61.5649 88.1611 61.8598 88.087 62.16 88.08C62.7684 88.0757 63.3738 88.1647 63.9552 88.344" fill="#6869AC"/>
<path d="M68.0447 67.2001C67.8959 73.0609 67.2959 78.9265 65.8055 84.5953C65.5487 85.5697 65.2463 86.5777 64.5479 87.3025C63.8495 88.0273 62.6279 88.3513 61.8215 87.7537C61.1303 87.2401 60.9719 86.2873 60.8783 85.4305C60.1319 79.1519 59.7169 72.8383 59.6351 66.5161C59.6351 66.5161 59.4527 61.6849 62.8583 61.6873C66.2639 61.6897 68.1359 63.6145 68.0447 67.2001Z" fill="#6869AC"/>
<g opacity="0.3">
<path d="M65.196 85.4401C65.28 85.452 65.5536 84.2161 65.916 82.2025C66.2784 80.1889 66.7512 77.4025 67.116 74.2969C67.3008 72.7441 67.4352 71.2584 67.5456 69.912C67.656 68.5656 67.7448 67.3249 67.6104 66.2809C67.5373 65.4476 67.2684 64.6433 66.8256 63.9337L66.5856 63.624C66.524 63.5508 66.4575 63.4818 66.3864 63.4176C66.276 63.312 66.2088 63.2665 66.1944 63.2809C66.18 63.2953 66.2112 63.3697 66.2904 63.4969C66.3264 63.5641 66.3816 63.6361 66.4344 63.7369C66.4872 63.8377 66.5448 63.9432 66.612 64.0632C66.9458 64.774 67.1343 65.5443 67.1664 66.3288C67.2384 67.3248 67.1184 68.5224 66.9672 69.864C66.816 71.2057 66.6744 72.6841 66.4872 74.2297C66.1248 77.3209 65.7288 80.1145 65.472 82.1497C65.2152 84.1849 65.1096 85.4256 65.196 85.4401Z" fill="white"/>
</g>
<path d="M63.3241 88.0081C63.3337 87.9865 63.341 87.964 63.3457 87.9409L63.3961 87.744L63.5761 86.9809C63.7249 86.3185 63.9241 85.3536 64.1449 84.1584C64.5769 81.7584 65.0281 78.4345 65.3449 74.7384C65.5081 72.8904 65.6377 71.1264 65.7505 69.5232C65.8081 68.724 65.8609 67.9609 65.9113 67.2481C65.9703 66.5858 65.9887 65.9206 65.9665 65.256C65.9454 64.7051 65.8411 64.1605 65.6569 63.6409C65.5177 63.2481 65.315 62.8808 65.0569 62.5537C64.8929 62.3477 64.7016 62.1652 64.4881 62.0113C64.412 61.957 64.3317 61.9088 64.2481 61.8672C64.5369 62.068 64.7941 62.3106 65.0113 62.5872C65.2592 62.9141 65.4528 63.2788 65.5849 63.6672C65.7581 64.1823 65.8543 64.7201 65.8705 65.2632C65.8874 65.924 65.8641 66.5853 65.8009 67.2432C65.7457 67.9632 65.6905 68.7168 65.6305 69.5184C65.5081 71.1192 65.3761 72.8784 65.2129 74.7288C64.8937 78.4224 64.4569 81.7512 64.0465 84.1464C63.8401 85.3464 63.6529 86.3065 63.5185 86.9737C63.4513 87.3001 63.3985 87.5568 63.3625 87.7392C63.3457 87.8232 63.3337 87.8881 63.3241 87.9409C63.3219 87.9632 63.3219 87.9857 63.3241 88.0081Z" fill="white"/>
<path d="M63.9863 108.828C64.0041 108.763 64.0153 108.696 64.0199 108.629C64.0391 108.485 64.0631 108.293 64.0919 108.053C64.1519 107.551 64.2311 106.826 64.3175 105.929C64.4951 104.134 64.6991 101.65 64.8479 98.9017C64.9967 96.1537 65.0639 93.6601 65.0879 91.8577C65.0879 90.9553 65.0999 90.2257 65.0879 89.7217C65.0879 89.4817 65.0879 89.2849 65.0879 89.1409C65.0946 89.0738 65.0946 89.0063 65.0879 88.9393C65.077 89.0059 65.0722 89.0734 65.0735 89.1409C65.0735 89.2849 65.0735 89.4769 65.0591 89.7217C65.0591 90.2377 65.0327 90.9625 65.0159 91.8553C64.9727 93.6577 64.8935 96.1465 64.7447 98.8945C64.5959 101.642 64.4063 104.124 64.2527 105.919C64.1735 106.81 64.1111 107.532 64.0655 108.048C64.0463 108.288 64.0295 108.482 64.0175 108.626C64.0033 108.693 63.9929 108.76 63.9863 108.828Z" fill="white"/>
<path d="M63.2447 90.8545C61.617 90.8545 60.2975 89.535 60.2975 87.9073C60.2975 86.2796 61.617 84.9601 63.2447 84.9601C64.8724 84.9601 66.1919 86.2796 66.1919 87.9073C66.1919 89.535 64.8724 90.8545 63.2447 90.8545Z" fill="#3E4551"/>
<path d="M64.9631 111.451C64.9631 110.971 64.9631 109.639 64.8239 109.178C64.7079 108.709 64.4135 108.302 64.0031 108.046C63.6663 107.879 63.29 107.81 62.9159 107.844C62.5461 107.849 62.1848 107.956 61.8719 108.154C61.6435 108.334 61.4612 108.567 61.3402 108.832C61.2192 109.097 61.1629 109.387 61.1759 109.678L61.0775 111.451" fill="#3E4551"/>
<path d="M64.8983 110.88L60.7535 110.842C60.7535 110.842 57.6935 111.47 57.7535 111.718C57.8135 111.965 65.0015 111.811 65.0015 111.811L64.8983 110.88Z" fill="#6869AC"/>
<path d="M64.7832 72.0841C64.7686 72.0762 64.7522 72.072 64.7356 72.0717C64.719 72.0714 64.7025 72.075 64.6875 72.0822C64.6725 72.0895 64.6595 72.1002 64.6494 72.1134C64.6394 72.1267 64.6326 72.1421 64.6296 72.1585C64.628 72.1758 64.631 72.1933 64.6382 72.2092C64.6454 72.2251 64.6566 72.2389 64.6707 72.2492C64.6848 72.2594 64.7013 72.2659 64.7186 72.2679C64.736 72.2698 64.7535 72.2673 64.7696 72.2604C64.7856 72.2536 64.7996 72.2427 64.8102 72.2288C64.8208 72.2149 64.8275 72.1985 64.8299 72.1813C64.8322 72.164 64.8301 72.1464 64.8236 72.1302C64.8171 72.114 64.8065 72.0997 64.7928 72.0889" fill="white"/>
<path d="M65.0832 67.656C65.0686 67.6462 65.0517 67.6403 65.0342 67.6391C65.0167 67.6378 64.9991 67.6411 64.9832 67.6487C64.9674 67.6563 64.9538 67.668 64.9438 67.6825C64.9338 67.697 64.9278 67.7138 64.9264 67.7313C64.9249 67.7489 64.9281 67.7665 64.9356 67.7824C64.9431 67.7983 64.9546 67.812 64.969 67.8221C64.9834 67.8322 65.0002 67.8384 65.0177 67.84C65.0352 67.8416 65.0528 67.8386 65.0688 67.8312C65.084 67.8228 65.0969 67.8108 65.1064 67.7962C65.1158 67.7815 65.1215 67.7648 65.1229 67.7475C65.1244 67.7302 65.1215 67.7127 65.1146 67.6968C65.1076 67.6808 65.0969 67.6668 65.0832 67.656Z" fill="white"/>
<path d="M64.4135 77.52C64.3986 77.5122 64.3821 77.508 64.3653 77.5078C64.3486 77.5076 64.332 77.5115 64.3169 77.519C64.3019 77.5265 64.2889 77.5374 64.279 77.551C64.2691 77.5645 64.2625 77.5802 64.2599 77.5968C64.2603 77.6135 64.2645 77.6298 64.2723 77.6445C64.28 77.6592 64.291 77.672 64.3045 77.6817C64.318 77.6915 64.3335 77.698 64.3499 77.7007C64.3663 77.7035 64.3832 77.7024 64.3991 77.6976C64.414 77.6899 64.4269 77.6787 64.4366 77.6649C64.4464 77.6512 64.4527 77.6353 64.455 77.6186C64.4574 77.6019 64.4557 77.5849 64.4501 77.569C64.4446 77.5532 64.4353 77.5388 64.4231 77.5272" fill="white"/>
<path d="M63.6647 83.6304C63.6499 83.6226 63.6334 83.6184 63.6166 83.6182C63.5998 83.618 63.5832 83.6219 63.5682 83.6294C63.5531 83.6369 63.5401 83.6479 63.5302 83.6614C63.5203 83.675 63.5137 83.6907 63.5111 83.7072C63.5115 83.7239 63.5157 83.7402 63.5235 83.7549C63.5312 83.7696 63.5423 83.7824 63.5557 83.7921C63.5692 83.8019 63.5847 83.8084 63.6011 83.8112C63.6176 83.8139 63.6344 83.8129 63.6503 83.808C63.6653 83.8003 63.6781 83.7891 63.6879 83.7753C63.6976 83.7616 63.7039 83.7457 63.7062 83.729C63.7086 83.7124 63.7069 83.6954 63.7014 83.6795C63.6958 83.6636 63.6865 83.6492 63.6743 83.6376" fill="white"/>
<path d="M64.5118 92.9568C64.4972 92.9475 64.4803 92.9421 64.463 92.9412C64.4456 92.9403 64.4283 92.9438 64.4128 92.9516C64.3972 92.9593 64.3839 92.9709 64.3742 92.9853C64.3644 92.9997 64.3586 93.0164 64.3571 93.0337C64.3557 93.051 64.3588 93.0684 64.3661 93.0842C64.3734 93.0999 64.3847 93.1136 64.3988 93.1237C64.4129 93.1338 64.4294 93.1402 64.4467 93.142C64.464 93.1439 64.4815 93.1413 64.4974 93.1344C64.5131 93.1262 64.5265 93.114 64.5363 93.0992C64.5461 93.0844 64.5519 93.0673 64.5534 93.0496C64.5548 93.0319 64.5517 93.0141 64.5445 92.9979C64.5372 92.9817 64.526 92.9676 64.5118 92.9568Z" fill="white"/>
<path d="M64.0438 97.7737C64.0293 97.7638 64.0124 97.758 63.9948 97.7567C63.9773 97.7554 63.9597 97.7587 63.9438 97.7663C63.928 97.774 63.9144 97.7856 63.9044 97.8001C63.8944 97.8146 63.8884 97.8314 63.887 97.849C63.8856 97.8665 63.8887 97.8841 63.8962 97.9C63.9037 97.9159 63.9152 97.9296 63.9296 97.9397C63.944 97.9498 63.9608 97.956 63.9783 97.9576C63.9958 97.9592 64.0134 97.9562 64.0294 97.9489C64.0452 97.9409 64.0586 97.929 64.0684 97.9144C64.0782 97.8997 64.0841 97.8828 64.0856 97.8653C64.087 97.8477 64.084 97.8301 64.0766 97.814C64.0693 97.798 64.058 97.7841 64.0438 97.7737Z" fill="white"/>
<path d="M63.9864 103.171C63.9718 103.162 63.955 103.157 63.9376 103.156C63.9202 103.155 63.9029 103.158 63.8874 103.166C63.8718 103.174 63.8585 103.185 63.8488 103.2C63.839 103.214 63.8332 103.231 63.8318 103.248C63.8304 103.265 63.8335 103.283 63.8408 103.299C63.8481 103.314 63.8593 103.328 63.8734 103.338C63.8875 103.348 63.904 103.355 63.9213 103.356C63.9386 103.358 63.9561 103.356 63.972 103.349C63.9877 103.341 64.0011 103.328 64.0109 103.314C64.0207 103.299 64.0265 103.282 64.028 103.264C64.0294 103.246 64.0264 103.229 64.0191 103.212C64.0118 103.196 64.0006 103.182 63.9864 103.171Z" fill="white"/>
<path d="M60.3553 87.3216C60.3553 87.3216 60.4081 87.3936 60.5257 87.4992C60.6942 87.6459 60.8757 87.7768 61.0681 87.8904C61.7067 88.2749 62.4344 88.4866 63.1796 88.5047C63.9248 88.5228 64.6619 88.3467 65.3185 87.9936C65.5158 87.8875 65.7037 87.7646 65.8801 87.6264C65.9485 87.5803 66.0093 87.5236 66.0601 87.4584C66.0457 87.4392 65.7793 87.6672 65.2777 87.9144C64.6278 88.2374 63.909 88.3972 63.1835 88.38C62.458 88.3629 61.7476 88.1693 61.1137 87.816C60.6241 87.5448 60.3697 87.3048 60.3553 87.3216Z" fill="#A2A3A8"/>
<path d="M61.1999 109.603C61.3624 109.696 61.538 109.763 61.7207 109.802C62.1545 109.923 62.6005 109.995 63.0503 110.016C63.5009 110.037 63.9525 110.008 64.3967 109.93C64.5822 109.907 64.7633 109.856 64.9343 109.781C64.3122 109.863 63.685 109.9 63.0575 109.891C62.4322 109.84 61.8114 109.744 61.1999 109.603Z" fill="#A2A3A8"/>
<path d="M58.1279 31.4064C58.0656 31.5786 58.0656 31.7671 58.1279 31.9392C58.1818 32.1309 58.2805 32.3069 58.4159 32.4528C58.5338 32.5796 58.677 32.6802 58.8363 32.748C58.9955 32.8159 59.1673 32.8496 59.3403 32.8469C59.5134 32.8442 59.684 32.8051 59.8411 32.7323C59.9981 32.6594 60.1381 32.5544 60.2519 32.424C60.385 32.2966 60.4699 32.127 60.4919 31.944C60.4059 32.0934 60.3046 32.2333 60.1895 32.3616C60.0606 32.4918 59.9039 32.591 59.7311 32.652C59.5204 32.7252 59.2931 32.7368 59.0759 32.6856C58.8586 32.6378 58.6596 32.5287 58.5023 32.3712C58.3745 32.24 58.2763 32.0829 58.2143 31.9104C58.1681 31.7459 58.1392 31.577 58.1279 31.4064Z" fill="white"/>
<path d="M89.6112 98.3256C89.2593 98.3838 88.9229 98.5127 88.6222 98.7045C88.3215 98.8963 88.0627 99.1471 87.8616 99.4416C87.4622 100.035 87.2037 100.711 87.1056 101.419C86.8776 102.775 87.2448 104.318 87.7488 105.598C89.1336 104.95 89.8704 103.337 90.1944 102.494C90.7032 101.165 90.8184 98.4504 89.6112 98.3256Z" fill="#A2A3A8"/>
<path d="M85.709 107.52C85.9176 107.18 86.0324 106.792 86.0416 106.393C86.0509 105.995 85.9544 105.601 85.7618 105.252C85.5643 104.906 85.2997 104.603 84.9837 104.36C84.6676 104.117 84.3064 103.94 83.921 103.838C83.7488 103.773 83.5646 103.747 83.381 103.76C83.1974 103.773 83.0189 103.826 82.8578 103.915C82.7227 104.022 82.6189 104.163 82.5573 104.324C82.4956 104.485 82.4784 104.66 82.5074 104.83C82.5675 105.17 82.7175 105.488 82.9418 105.751C83.6618 106.682 84.533 107.45 85.709 107.52Z" fill="#A2A3A8"/>
<path d="M86.0592 111.809C86.0869 111.716 86.1022 111.62 86.1048 111.523C86.124 111.338 86.148 111.072 86.1648 110.738C86.2295 109.871 86.1771 108.998 86.0088 108.144C85.8316 107.282 85.4235 106.484 84.828 105.835C84.6467 105.641 84.441 105.472 84.216 105.331C84.1374 105.274 84.0498 105.23 83.9568 105.202C84.2389 105.416 84.5038 105.652 84.7488 105.907C85.3021 106.56 85.6833 107.34 85.8576 108.178C86.0209 109.02 86.0877 109.878 86.0568 110.736C86.0354 111.093 86.0362 111.452 86.0592 111.809Z" fill="#3E4551"/>
<path d="M89.28 100.385C89.2075 100.527 89.1488 100.676 89.1048 100.829C89.0016 101.117 88.8648 101.537 88.6896 102.058C88.3488 103.102 87.9024 104.549 87.4488 106.159C86.9952 107.77 86.6184 109.241 86.3664 110.306C86.2392 110.839 86.1408 111.266 86.0784 111.574C86.0366 111.731 86.0084 111.891 85.9944 112.054C86.055 111.906 86.1024 111.754 86.136 111.598L86.472 110.342C86.7528 109.284 87.144 107.82 87.5952 106.212C88.0464 104.604 88.4784 103.15 88.7952 102.101C88.9464 101.594 89.0688 101.174 89.1648 100.855C89.2152 100.702 89.2537 100.544 89.28 100.385Z" fill="#3E4551"/>
<path d="M87.5521 108.799C87.898 108.033 88.4213 107.361 89.0785 106.837C89.7358 106.313 90.5083 105.953 91.3321 105.787C91.7521 105.708 92.2681 105.72 92.5009 106.078C92.7337 106.435 92.5345 106.915 92.2849 107.261C91.7468 107.973 91.01 108.51 90.1675 108.804C89.3249 109.098 88.4141 109.137 87.5497 108.914" fill="#A2A3A8"/>
<path d="M90.8737 106.994C90.7808 106.989 90.6876 106.999 90.5977 107.023C90.4898 107.037 90.3831 107.06 90.2785 107.09C90.1388 107.124 90.001 107.165 89.8657 107.213C89.5113 107.338 89.1704 107.499 88.8481 107.693C88.455 107.932 88.0889 108.213 87.7561 108.53C87.4277 108.853 87.1355 109.21 86.8849 109.596C86.6815 109.911 86.511 110.247 86.3761 110.597C86.3237 110.73 86.2781 110.867 86.2393 111.005C86.2062 111.108 86.1806 111.214 86.1625 111.322C86.1377 111.411 86.1248 111.503 86.1241 111.595C86.1529 111.595 86.2297 111.216 86.4769 110.635C86.6242 110.301 86.8001 109.98 87.0025 109.675C87.2545 109.304 87.5423 108.958 87.8617 108.643C88.1867 108.333 88.5421 108.057 88.9225 107.818C89.2338 107.623 89.5624 107.457 89.9041 107.323C90.4801 107.086 90.8785 107.023 90.8737 106.994Z" fill="#3E4551"/>
<path d="M18.3288 16.5792C19.152 13.704 22.2768 11.04 25.2672 11.04C27.7704 10.3008 31.1448 11.6784 32.484 13.1616C34.2432 15.1104 35.364 17.808 34.644 20.3328C33.924 22.8576 31.9056 24.9432 29.4528 25.8816C26.6592 26.952 23.2992 26.5128 20.9736 24.6312C18.648 22.7496 17.5032 19.4544 18.3288 16.5792Z" fill="#6869AC"/>
<path opacity="0.8" d="M18.3288 16.5792C19.152 13.704 22.2768 11.04 25.2672 11.04C27.7704 10.3008 31.1448 11.6784 32.484 13.1616C34.2432 15.1104 35.364 17.808 34.644 20.3328C33.924 22.8576 31.9056 24.9432 29.4528 25.8816C26.6592 26.952 23.2992 26.5128 20.9736 24.6312C18.648 22.7496 17.5032 19.4544 18.3288 16.5792Z" fill="white"/>
<path d="M22.6272 20.8537C22.6302 20.8266 22.6302 20.7992 22.6272 20.7721C22.6272 20.7121 22.6272 20.6353 22.6272 20.5321C22.6272 20.3209 22.6272 20.0257 22.6392 19.6489C22.6392 18.8761 22.6536 17.7769 22.6632 16.4233L22.6392 16.4641L26.4792 14.2633H26.4192L30.2472 16.4761C30.276 16.5265 30.2112 16.4113 30.2184 16.4233V18.7201C30.2184 19.4593 30.2184 20.1769 30.2184 20.8657L30.2472 20.8153L26.424 23.0377H26.4696L23.6664 21.4441L22.8936 21.0121L22.6896 20.9017L22.6152 20.8657C22.6341 20.8826 22.655 20.8972 22.6776 20.9089L22.872 21.0265L23.6256 21.4753L26.424 23.1169L26.4456 23.1313L26.4696 23.1169L30.3096 20.9161L30.3384 20.8993V20.8657C30.3384 20.1769 30.3384 19.4593 30.3384 18.7201C30.3384 18.3505 30.3384 17.9761 30.3384 17.5945V16.4353C30.3384 16.4473 30.2784 16.3321 30.3048 16.3801L26.4648 14.1721L26.4336 14.1553L26.4048 14.1721L22.5816 16.3945L22.5576 16.4089V16.4353C22.5576 17.7961 22.5744 18.9025 22.5792 19.6801C22.5792 20.0545 22.5792 20.3473 22.5912 20.5585C22.5912 20.6497 22.5912 20.7265 22.5912 20.7841C22.5912 20.8417 22.6272 20.8561 22.6272 20.8537Z" fill="#6869AC"/>
<path d="M22.6272 16.4304C22.7184 16.5031 22.8156 16.5682 22.9176 16.6248L23.7288 17.1048C24.4152 17.5152 25.3704 18.0648 26.4264 18.684H26.496H26.508L26.532 18.6696L26.5824 18.6408L26.6808 18.5856L26.88 18.48L27.2616 18.24L27.9816 17.8224L29.1816 17.1024L29.9928 16.6224C30.0953 16.5665 30.1925 16.5015 30.2832 16.428C30.1738 16.4692 30.0685 16.5206 29.9688 16.5816L29.1384 17.0376L27.9144 17.7288L27.1944 18.1416L26.8152 18.36L26.6208 18.4728L26.5224 18.528L26.472 18.5568L26.448 18.5712H26.436H26.4912C25.44 17.976 24.48 17.4312 23.76 17.04L22.9296 16.584C22.8337 16.5237 22.7325 16.4722 22.6272 16.4304Z" fill="#6869AC"/>
<path d="M26.4528 23.0112C26.5146 22.2769 26.5355 21.5398 26.5152 20.8032C26.5355 20.0666 26.5146 19.3295 26.4528 18.5952C26.3896 19.3294 26.3688 20.0666 26.3904 20.8032C26.3688 21.5398 26.3896 22.277 26.4528 23.0112Z" fill="#6869AC"/>
<path fill-rule="evenodd" clip-rule="evenodd" d="M80.8513 57.6864C80.6946 57.3806 80.4977 57.0973 80.2657 56.844L80.5921 55.9512L79.2697 55.0992L78.5905 55.7664C78.2634 55.66 77.9236 55.5978 77.5801 55.5816L77.1793 54.72L75.6433 55.0536V56.0136C75.3371 56.1695 75.0537 56.3665 74.8009 56.5992L73.9057 56.2728L73.0561 57.5952L73.7209 58.2744C73.6153 58.6007 73.554 58.9397 73.5385 59.2824L72.6769 59.6856L73.0105 61.2216H73.9705C74.1264 61.5272 74.3225 61.8105 74.5537 62.064L74.2297 62.9568L75.5521 63.8088L76.2313 63.144C76.5578 63.2487 76.8967 63.31 77.2393 63.3264L77.6401 64.188L79.1785 63.8544V62.8944C79.4837 62.7378 79.7669 62.5417 80.0209 62.3112L80.9041 62.64L81.7561 61.3176L81.0889 60.6384C81.1955 60.3122 81.2576 59.9731 81.2737 59.6304L82.1353 59.2296L81.8017 57.6912H80.8417L80.8513 57.6864ZM79.0345 59.028C79.1029 59.3524 79.0738 59.6899 78.9508 59.9978C78.8279 60.3057 78.6165 60.5704 78.3434 60.7585C78.0703 60.9465 77.7477 61.0495 77.4161 61.0546C77.0846 61.0596 76.759 60.9664 76.4803 60.7867C76.2016 60.6071 75.9823 60.3489 75.8501 60.0449C75.7178 59.7408 75.6785 59.4044 75.7371 59.078C75.7956 58.7517 75.9495 58.4499 76.1792 58.2108C76.4089 57.9717 76.7043 57.8059 77.0281 57.7344C77.2456 57.6866 77.4705 57.6826 77.6897 57.7226C77.9088 57.7625 78.1178 57.8457 78.3046 57.9672C78.4913 58.0887 78.6519 58.2461 78.7773 58.4303C78.9026 58.6144 78.99 58.8217 79.0345 59.04V59.028Z" fill="#6869AC"/>
<path opacity="0.5" fill-rule="evenodd" clip-rule="evenodd" d="M80.8513 57.6864C80.6946 57.3806 80.4977 57.0973 80.2657 56.844L80.5921 55.9512L79.2697 55.0992L78.5905 55.7664C78.2634 55.66 77.9236 55.5978 77.5801 55.5816L77.1793 54.72L75.6433 55.0536V56.0136C75.3371 56.1695 75.0537 56.3665 74.8009 56.5992L73.9057 56.2728L73.0561 57.5952L73.7209 58.2744C73.6153 58.6007 73.554 58.9397 73.5385 59.2824L72.6769 59.6856L73.0105 61.2216H73.9705C74.1264 61.5272 74.3225 61.8105 74.5537 62.064L74.2297 62.9568L75.5521 63.8088L76.2313 63.144C76.5578 63.2487 76.8967 63.31 77.2393 63.3264L77.6401 64.188L79.1785 63.8544V62.8944C79.4837 62.7378 79.7669 62.5417 80.0209 62.3112L80.9041 62.64L81.7561 61.3176L81.0889 60.6384C81.1955 60.3122 81.2576 59.9731 81.2737 59.6304L82.1353 59.2296L81.8017 57.6912H80.8417L80.8513 57.6864ZM79.0345 59.028C79.1029 59.3524 79.0738 59.6899 78.9508 59.9978C78.8279 60.3057 78.6165 60.5704 78.3434 60.7585C78.0703 60.9465 77.7477 61.0495 77.4161 61.0546C77.0846 61.0596 76.759 60.9664 76.4803 60.7867C76.2016 60.6071 75.9823 60.3489 75.8501 60.0449C75.7178 59.7408 75.6785 59.4044 75.7371 59.078C75.7956 58.7517 75.9495 58.4499 76.1792 58.2108C76.4089 57.9717 76.7043 57.8059 77.0281 57.7344C77.2456 57.6866 77.4705 57.6826 77.6897 57.7226C77.9088 57.7625 78.1178 57.8457 78.3046 57.9672C78.4913 58.0887 78.6519 58.2461 78.7773 58.4303C78.9026 58.6144 78.99 58.8217 79.0345 59.04V59.028Z" fill="white"/>
<path d="M89.2296 60.204C89.2296 60.204 89.2296 60.1776 89.2296 60.1272C89.2167 60.0523 89.1932 59.9795 89.16 59.9112C89.0447 59.6507 88.8405 59.4397 88.584 59.316C88.3925 59.2227 88.1806 59.1793 87.9679 59.1898C87.7552 59.2003 87.5485 59.2643 87.3672 59.376C87.1423 59.5133 86.9657 59.7171 86.8616 59.9592C86.7576 60.2012 86.7313 60.4696 86.7864 60.7273C86.8414 60.985 86.9751 61.2192 87.169 61.3976C87.3629 61.576 87.6074 61.6897 87.8688 61.7232C88.0793 61.7514 88.2936 61.7259 88.4916 61.6491C88.6897 61.5724 88.8651 61.4467 89.0016 61.284C89.1829 61.0646 89.2814 60.7886 89.28 60.504C89.2807 60.4289 89.2727 60.354 89.256 60.2808C89.244 60.2304 89.2344 60.204 89.2296 60.204C89.2248 60.204 89.244 60.3144 89.2296 60.504C89.21 60.771 89.1028 61.0241 88.9248 61.224C88.7816 61.3865 88.5961 61.5061 88.389 61.5695C88.1819 61.633 87.9612 61.6377 87.7516 61.5832C87.5419 61.5288 87.3515 61.4172 87.2014 61.261C87.0514 61.1048 86.9476 60.9101 86.9016 60.6984C86.8575 60.4863 86.8731 60.2662 86.9466 60.0624C87.0201 59.8587 87.1487 59.6793 87.3181 59.5443C87.4875 59.4092 87.691 59.3238 87.906 59.2975C88.121 59.2712 88.339 59.305 88.536 59.3952C88.7808 59.5047 88.982 59.6932 89.1072 59.9304C89.1984 60.1008 89.2176 60.2088 89.2296 60.204Z" fill="#3E4551"/>
<path d="M90.5472 59.2392C90.6039 59.2447 90.661 59.2447 90.7176 59.2392L91.2336 59.256L91.2144 59.2416C91.2744 59.5296 91.3488 59.904 91.44 60.3552L91.4592 60.3216L90.8328 60.6048H90.8136V60.6264C90.8007 60.8714 90.7547 61.1136 90.6768 61.3464V61.3704L90.6936 61.3896L91.1736 61.884V61.8288C90.9792 62.1288 90.7704 62.4456 90.552 62.7888L90.6096 62.7696L89.9664 62.5296H89.9352L89.9136 62.5512C89.7316 62.7137 89.5291 62.8516 89.3112 62.9616L89.2824 62.976V63.0096C89.2824 63.2208 89.2824 63.456 89.2824 63.696L89.3256 63.6432L88.212 63.8832L88.2768 63.9168L87.9912 63.2928L87.9744 63.2592H87.9384C87.6935 63.2484 87.4512 63.204 87.2184 63.1272L87.1848 63.1152L87.1584 63.1416C87.0024 63.2904 86.8344 63.456 86.664 63.6216H86.7408L85.7808 63.0024L85.8072 63.0768L86.0472 62.4312L86.0592 62.3952L86.0352 62.3664C85.8718 62.1871 85.733 61.987 85.6224 61.7712L85.5672 61.7352H85.2H84.8568L84.9168 61.7832C84.8376 61.4088 84.7584 61.0368 84.6768 60.672L84.6432 60.7392L85.2672 60.4512L85.3008 60.4368V60.3984C85.3123 60.1535 85.3567 59.9113 85.4328 59.6784L85.4448 59.6424L85.4184 59.616L84.9384 59.136V59.208C85.1496 58.8816 85.356 58.5648 85.5552 58.248L85.488 58.272L86.1336 58.512H86.1648L86.1912 58.488C86.3714 58.3247 86.5724 58.1859 86.7888 58.0752L86.8176 58.0608V58.0272C86.8176 57.7872 86.8176 57.564 86.8176 57.3408L86.7768 57.3912L87.888 57.1512L87.8352 57.1248L88.1256 57.7488L88.1376 57.7728H88.164C88.4087 57.7843 88.6507 57.8279 88.884 57.9024H88.908L88.9248 57.8856L89.4048 57.4056H89.3592L90.3192 58.0176V57.984L90.0792 58.632V58.644C90.2048 58.7794 90.3173 58.9265 90.4152 59.0832C90.4453 59.1369 90.4781 59.1889 90.5136 59.2392L90.4968 59.196C90.4968 59.1696 90.4632 59.1288 90.4344 59.0736C90.343 58.9091 90.2336 58.7553 90.108 58.6152V58.6368C90.1752 58.4592 90.2544 58.248 90.348 57.9936V57.972L90.3288 57.96L89.3688 57.3336L89.3424 57.3168L89.3208 57.3384L88.8264 57.8184H88.8672C88.6283 57.7382 88.3797 57.6905 88.128 57.6768L88.1664 57.7032L87.8808 57.0768L87.864 57.0432H87.828L86.7144 57.2832H86.6736V57.324C86.6736 57.5472 86.6736 57.7752 86.6616 58.0128L86.6904 57.9648C86.4642 58.0785 86.2543 58.2222 86.0664 58.392H86.124L85.4808 58.152L85.4376 58.1352L85.4112 58.1736C85.2096 58.4832 85.0032 58.8024 84.7896 59.1336L84.7656 59.1744L84.7968 59.208L85.2768 59.7024L85.2624 59.64C85.1843 59.8818 85.1375 60.1326 85.1232 60.3864L85.1592 60.3336L84.5352 60.6216L84.4896 60.6408V60.6888C84.5664 61.056 84.6456 61.4256 84.7296 61.8024V61.8504H84.7776H85.1208H85.4664L85.4112 61.8168C85.5263 62.0428 85.6708 62.2526 85.8408 62.4408V62.3784L85.6008 63.024L85.584 63.0696L85.6248 63.0984L86.5848 63.7152L86.6256 63.7416L86.6616 63.708L87.1416 63.228L87.0792 63.2424C87.321 63.3202 87.5719 63.3661 87.8256 63.3792L87.7752 63.3432C87.8736 63.5592 87.9744 63.7728 88.0632 63.9672L88.0824 64.0104H88.128L89.2416 63.7704H89.2848V63.7272C89.2848 63.4872 89.2848 63.2472 89.2848 63.0384L89.256 63.0864C89.481 62.9708 89.69 62.8264 89.8776 62.6568H89.8248L90.4704 62.8968H90.5064L90.528 62.8656L91.1448 61.9056L91.164 61.8744L91.1376 61.8504L90.6576 61.3704V61.4112C90.7343 61.1716 90.7795 60.9231 90.792 60.672L90.7704 60.7032L91.392 60.4104H91.416V60.3864C91.3152 59.9376 91.2312 59.5632 91.176 59.2752V59.2608H90.72H90.588L90.5472 59.2392Z" fill="#3E4551"/>
<path d="M89.2297 60.204C89.2207 60.1543 89.2078 60.1053 89.1913 60.0576C89.1443 59.9175 89.0719 59.7874 88.9777 59.6736C88.8465 59.5194 88.6794 59.3998 88.4911 59.3255C88.3028 59.2511 88.0991 59.2242 87.898 59.2472C87.6968 59.2702 87.5044 59.3423 87.3378 59.4572C87.1711 59.5722 87.0353 59.7263 86.9423 59.9062C86.8493 60.086 86.802 60.2859 86.8045 60.4884C86.8071 60.6908 86.8594 60.8895 86.9569 61.0669C87.0544 61.2444 87.1941 61.3951 87.3636 61.5057C87.5331 61.6164 87.7272 61.6837 87.9289 61.7016C88.1788 61.7231 88.4295 61.6696 88.6489 61.548C88.8772 61.4166 89.0604 61.2191 89.1745 60.9816C89.2304 60.8597 89.2684 60.7304 89.2873 60.5976C89.2909 60.5304 89.2909 60.4631 89.2873 60.396C89.2873 60.3624 89.2873 60.3288 89.2873 60.2952V60.2448V60.2112C89.2873 60.2112 89.2873 60.252 89.2369 60.2568L89.1697 60.2184C89.1855 60.2674 89.1951 60.3182 89.1985 60.3696C89.2198 60.615 89.163 60.8608 89.0363 61.072C88.9096 61.2832 88.7194 61.4489 88.4929 61.5456C88.2909 61.629 88.07 61.6557 87.854 61.6228C87.6379 61.5899 87.435 61.4986 87.267 61.3588C87.0991 61.219 86.9725 61.036 86.9009 60.8295C86.8293 60.6231 86.8155 60.401 86.8609 60.1872C86.9006 60.0091 86.9799 59.8421 87.0929 59.6988C87.2059 59.5555 87.3497 59.4394 87.5137 59.3592C87.7544 59.2455 88.0258 59.2142 88.2861 59.2702C88.5464 59.3261 88.781 59.4662 88.9537 59.6688C89.0817 59.8209 89.1721 60.0009 89.2177 60.1944C89.2233 60.1422 89.2159 60.0894 89.1961 60.0408C89.156 59.894 89.0866 59.7568 88.9921 59.6376C88.8415 59.4473 88.6389 59.3047 88.4089 59.2272C88.0991 59.1248 87.7621 59.1437 87.4657 59.28C87.2497 59.3803 87.0654 59.5378 86.9327 59.7355C86.8 59.9332 86.724 60.1635 86.7129 60.4013C86.7018 60.6391 86.7561 60.8755 86.8699 61.0846C86.9836 61.2938 87.1525 61.4678 87.3582 61.5877C87.5639 61.7076 87.7985 61.7689 88.0366 61.7649C88.2746 61.7609 88.507 61.6918 88.7086 61.565C88.9101 61.4382 89.0731 61.2587 89.1797 61.0458C89.2864 60.833 89.3327 60.5949 89.3137 60.3576C89.3084 60.2949 89.2964 60.2329 89.2777 60.1728L89.2609 60.1248H89.2081C89.1958 60.1282 89.1845 60.1345 89.1753 60.1433C89.1661 60.1521 89.1592 60.1631 89.1553 60.1752V60.24V60.288C89.1553 60.3192 89.1553 60.348 89.1553 60.3792C89.1589 60.4407 89.1589 60.5025 89.1553 60.564C89.132 60.759 89.0586 60.9446 88.9423 61.1028C88.826 61.261 88.6708 61.3864 88.4916 61.4668C88.3125 61.5472 88.1156 61.5799 87.9201 61.5617C87.7246 61.5434 87.5372 61.4749 87.376 61.3628C87.2148 61.2507 87.0854 61.0987 87.0004 60.9217C86.9153 60.7448 86.8775 60.5488 86.8907 60.3529C86.9038 60.157 86.9674 59.9678 87.0753 59.8038C87.1833 59.6397 87.3318 59.5064 87.5065 59.4168C87.7711 59.281 88.0774 59.251 88.3633 59.3328C88.5802 59.396 88.7749 59.5191 88.9249 59.688C89.0514 59.844 89.1541 60.0179 89.2297 60.204Z" fill="#3E4551"/>
<path d="M90.5472 59.2392H91.2432H91.2312C91.2912 59.5272 91.3728 59.9088 91.4712 60.3744L91.4832 60.348L90.8448 60.6432L90.8784 60.6816V60.6624L90.8304 60.648C90.8163 60.8929 90.7703 61.1349 90.6936 61.368H90.7512V61.344L90.7008 61.3728L91.2 61.8912V61.8504C90.9984 62.16 90.7848 62.4912 90.5568 62.8392L90.6 62.8248L89.9352 62.5848V62.6592H89.964L89.9304 62.5944C89.7476 62.7601 89.5434 62.9005 89.3232 63.012L89.376 63.0696L89.3928 63.0432L89.316 63.0216C89.316 63.2376 89.316 63.4824 89.316 63.7416L89.3496 63.6984L88.188 63.9384L88.2384 63.9648C88.1472 63.768 88.044 63.5424 87.9384 63.3168L87.8712 63.3744L87.9 63.3936L87.9264 63.3072C87.6815 63.2949 87.4393 63.2496 87.2064 63.1728V63.2664H87.2424L87.1968 63.1824L86.6832 63.6816H86.7456L85.7472 63.0312L85.7664 63.0912C85.8432 62.8872 85.9272 62.6544 86.0064 62.4216H85.9056V62.4576L85.9968 62.412C85.8317 62.2279 85.6913 62.0229 85.5792 61.8024L85.5024 61.8744L85.5336 61.8936L85.5624 61.7928H84.8424L84.8952 61.836L84.6552 60.6696L84.624 60.732L85.2744 60.4344L85.2024 60.3504L85.1832 60.3792L85.2864 60.4128C85.3002 60.1678 85.3462 59.9257 85.4232 59.6928H85.3104V59.7264L85.4064 59.6736L84.9096 59.1624V59.2344L85.56 58.236L85.488 58.26L86.1576 58.5V58.3848H86.1264L86.1768 58.488C86.3598 58.3242 86.5631 58.1847 86.7816 58.0728L86.7048 57.9864L86.688 58.0128L86.7984 58.0464C86.7984 57.8256 86.7984 57.5808 86.8104 57.3264L86.7624 57.3864L87.9192 57.1464L87.8496 57.1128L88.1448 57.756L88.236 57.6792L88.2144 57.6648L88.176 57.7776C88.4209 57.7906 88.663 57.8358 88.896 57.912V57.7944H88.872L88.9296 57.9L89.436 57.42H89.3592L90.336 58.0584L90.3096 57.984L90.0696 58.6392H90.1896L90.0816 58.692C90.2226 58.8492 90.3436 59.0233 90.4416 59.2104L90.4656 59.2536H90.4776C90.4584 59.2536 90.5496 59.2032 90.564 59.232L90.5112 59.1408C90.4752 59.0784 90.4368 59.016 90.396 58.9584C90.3153 58.8395 90.2263 58.7264 90.1296 58.62V58.6848C90.2088 58.464 90.288 58.248 90.3696 58.032H90.252V58.0512L90.3432 57.9792L89.3832 57.3624L89.3568 57.4776H89.3832L89.3328 57.372C89.1648 57.5352 88.9992 57.7008 88.8312 57.852L88.8936 57.8376C88.6451 57.7565 88.3868 57.7097 88.1256 57.6984L88.1808 57.7344L87.8832 57.0984L87.7992 57.1776L87.8304 57.1944L87.8448 57.0792L86.7336 57.3192L86.7912 57.4152L86.8152 57.3888L86.7072 57.348C86.7072 57.5864 86.7072 57.8216 86.7072 58.0536L86.7408 58.0008C86.505 58.1195 86.2869 58.2706 86.0928 58.4496L86.1552 58.4376L85.4904 58.1976V58.308L85.5288 58.296L85.4616 58.2072L84.8424 59.1672L84.9504 59.1936V59.1528L84.852 59.1984L85.3464 59.7048L85.332 59.6472C85.2498 59.8979 85.2022 60.1587 85.1904 60.4224L85.224 60.3744L84.5808 60.672L84.6552 60.7488L84.6744 60.7104L84.5688 60.696C84.6504 61.0752 84.7296 61.4448 84.8088 61.8072L84.8952 61.7544L84.8616 61.7256L84.828 61.824H85.536L85.488 61.7952C85.6064 62.0312 85.7575 62.2494 85.9368 62.4432L85.9248 62.3904C85.8408 62.6304 85.7616 62.8416 85.6848 63.0552H85.7808L85.7688 63.0144L85.692 63.0744L86.652 63.6912L86.6736 63.6H86.6304L86.6712 63.684L87.1776 63.1896L87.1272 63.2016C87.3768 63.2854 87.637 63.3331 87.9 63.3432L87.8616 63.3168L88.1568 63.9576L88.2192 63.9L88.1832 63.8808V63.9648L89.2968 63.7248L89.2536 63.6552L89.2296 63.6864L89.3064 63.7128C89.3064 63.4536 89.3064 63.2328 89.3064 63.0072L89.2848 63.0432C89.5184 62.9272 89.7342 62.7785 89.9256 62.6016H89.8872L90.5496 62.8416V62.7744H90.5184L90.5592 62.8296L91.176 61.8696L91.1184 61.8552V61.884L91.1736 61.86L90.6936 61.3584V61.3872C90.7741 61.1426 90.8209 60.8883 90.8328 60.6312L90.816 60.6528L91.452 60.3576L91.4232 60.3288V60.348H91.464C91.3608 59.868 91.284 59.5104 91.224 59.2368L91.2 59.2512V59.2272H90.5112C90.5673 59.2384 90.6245 59.2433 90.6816 59.2416L91.1976 59.2608H91.2384L91.2072 59.2344L91.176 59.208V59.2464C91.2312 59.5224 91.3032 59.8776 91.3992 60.3624V60.4248L91.428 60.3672V60.348L91.4568 60.2928L91.3992 60.3192L90.7632 60.6048H90.7488V60.6216C90.7358 60.8733 90.6881 61.122 90.6072 61.3608V61.3776V61.392L91.0872 61.896L91.1496 61.9632V61.872V61.8408V61.7496L91.0992 61.8264L90.4752 62.7864L90.4176 62.8728L90.516 62.8416L90.5496 62.8296L90.648 62.7984L90.5496 62.7624L89.8896 62.5224H89.868L89.8512 62.5392C89.6635 62.7103 89.4527 62.8541 89.2248 62.9664L89.2008 62.9784V63.0024C89.2008 63.2232 89.2008 63.4488 89.1888 63.708V63.828L89.268 63.7344L89.292 63.7056L89.3688 63.612L89.2512 63.636L88.1376 63.876L88.0104 63.9024L88.1256 63.9624L88.1616 63.9792L88.2768 64.0368L88.224 63.9192C88.1304 63.7152 88.0344 63.5088 87.9288 63.276L87.9168 63.252H87.888C87.634 63.2405 87.3828 63.1936 87.1416 63.1128H87.1128L87.0936 63.132L86.5848 63.6264L86.4816 63.7248L86.6232 63.7104H86.6664L86.808 63.6984L86.688 63.6192L85.728 63L85.6056 62.9184L85.6512 63.0576L85.6656 63.1008L85.7112 63.24L85.7616 63.1008L86.0016 62.436V62.4072L85.98 62.3832C85.8083 62.1954 85.6637 61.9846 85.5504 61.7568L85.536 61.728H85.5024H84.7944H84.6384L84.7584 61.8288L84.792 61.8552L84.9144 61.956L84.8808 61.8024C84.804 61.44 84.7272 61.0704 84.6408 60.6888L84.6072 60.5328L84.5352 60.6768L84.516 60.7152L84.444 60.8592L84.5904 60.7896L85.2336 60.4944L85.2648 60.48V60.444C85.2752 60.1908 85.3212 59.9403 85.4016 59.7V59.6664L85.3776 59.6424L84.8832 59.1336L84.7656 59.0136L84.7824 59.1816V59.2224L84.7968 59.388L84.888 59.2488L85.5072 58.2888L85.6008 58.1472L85.44 58.2L85.4016 58.212L85.2384 58.2672L85.3992 58.3248L86.0616 58.5648L86.0976 58.5768L86.124 58.5528C86.3099 58.381 86.5192 58.2363 86.7456 58.1232L86.7768 58.1064V58.0704C86.7768 57.8304 86.7768 57.6024 86.7768 57.3648V57.192L86.6664 57.3264L86.6424 57.3528L86.532 57.4872L86.7024 57.4512L87.816 57.2112L87.9864 57.1728L87.8304 57.096L87.7992 57.0816L87.6432 57.0024L87.7176 57.1608C87.8136 57.372 87.9144 57.5856 88.0128 57.7992L88.0272 57.8328H88.0656C88.3161 57.8432 88.564 57.8876 88.8024 57.9648H88.836L88.8648 57.9384L89.364 57.4584L89.4912 57.3336L89.316 57.3504H89.2896L89.112 57.3696L89.2608 57.4656L90.2208 58.08L90.3696 58.176L90.3144 58.008V57.9912L90.2592 57.8184L90.1968 57.9888C90.12 58.2048 90.0408 58.4208 89.9568 58.6416V58.6776L89.9808 58.7064C90.0749 58.8065 90.1608 58.9141 90.2376 59.028C90.276 59.0856 90.3144 59.1432 90.348 59.2056L90.4032 59.2968V59.3088C90.4176 59.34 90.5088 59.292 90.492 59.2896V59.2536C90.4893 59.2329 90.4837 59.2127 90.4752 59.1936L90.4488 59.1456C90.3472 58.9485 90.2205 58.7654 90.072 58.6008L89.9208 58.4304L89.964 58.656L90.0048 58.8744L90.084 58.668L90.324 58.0128L90.3408 57.9648L90.3 57.9384L89.3232 57.2976L89.2824 57.2712L89.2464 57.3048C89.0736 57.4752 88.8984 57.6432 88.74 57.7968L88.5792 57.9504L88.7976 57.9H88.8216L89.0352 57.8496L88.8264 57.78C88.5832 57.701 88.3306 57.6542 88.0752 57.6408H87.852L88.0368 57.7656L88.0584 57.78L88.2408 57.9024L88.1496 57.7032C88.0464 57.48 87.9456 57.2592 87.8544 57.0576L87.8328 57.0144H87.7848L86.628 57.2544H86.58V57.3024C86.58 57.5424 86.58 57.7824 86.58 58.0224V58.2408L86.6928 58.056L86.7096 58.0296L86.8248 57.8472L86.6328 57.9432C86.4038 58.0589 86.1915 58.205 86.0016 58.3776L85.8408 58.5216L86.052 58.4808H86.0832L86.2944 58.44L86.0928 58.3656L85.4232 58.1256L85.38 58.1088L85.3536 58.1472L84.7056 59.1456L84.6792 59.1864L84.7128 59.22L85.212 59.7312L85.356 59.88L85.3104 59.676V59.6424L85.2648 59.4432L85.2 59.6376C85.1207 59.8816 85.0739 60.135 85.0608 60.3912V60.5952L85.1736 60.4272L85.1952 60.396L85.308 60.228L85.1232 60.312L84.4752 60.612L84.4344 60.6312V60.6768C84.5232 61.0824 84.6072 61.4832 84.6864 61.8432V61.8864H84.732H85.452H85.644L85.4808 61.7856L85.4496 61.7664L85.2864 61.6656L85.3728 61.8384C85.4897 62.0653 85.6357 62.2759 85.8072 62.4648L85.9344 62.604L85.8984 62.4192V62.3856L85.8624 62.1984L85.7976 62.376L85.5576 63.048L85.5432 63.0864L85.5768 63.1104L86.58 63.756L86.6136 63.7776L86.64 63.7512L87.1512 63.2496L87.36 63.12L87.192 63.1584H87.156L86.988 63.1968L87.1536 63.2496C87.3967 63.3291 87.6494 63.3751 87.9048 63.3864H88.0704L87.9312 63.2928L87.9048 63.2736L87.7632 63.18L87.8352 63.3312L88.1352 63.9792L88.152 64.0104H88.1856L89.3496 63.7584H89.3808V63.7248C89.3808 63.4848 89.3808 63.2304 89.3808 63.0048V62.8608L89.304 62.9832L89.2872 63.0096L89.2104 63.1344L89.34 63.0672C89.5669 62.9515 89.7768 62.8054 89.964 62.6328L90.0648 62.5416L89.9304 62.568H89.9016L89.7648 62.5944L89.8944 62.6424L90.5616 62.8824H90.5904L90.6048 62.8584L91.2432 61.8648V61.8432L91.2264 61.824L90.7296 61.32L90.6552 61.2456L90.6792 61.3488V61.3704L90.7032 61.476L90.7368 61.3728C90.8139 61.1326 90.8583 60.8832 90.8688 60.6312V60.5376L90.8184 60.6144V60.6336L90.7656 60.7104L90.8496 60.672L91.4856 60.3696H91.5024V60.3528L91.2456 59.22H90.7248H90.5928L90.5472 59.2392Z" fill="#3E4551"/>
<path d="M77.0376 31.0344V33.1752H111.905V9.83044H109.579" fill="#6869AC"/>
<path opacity="0.8" d="M77.0376 31.0344V33.1752H111.905V9.83044H109.579" fill="white"/>
<path d="M74.604 7.57446H109.471V30.9217H74.604V7.57446Z" fill="white"/>
<path d="M74.6039 30.9192C74.6039 30.9192 74.6039 30.7728 74.6039 30.4944C74.6039 30.216 74.6039 29.8008 74.6039 29.2632C74.6039 28.1832 74.6039 26.5968 74.6039 24.5688C74.6039 20.5104 74.6183 14.6808 74.6303 7.57443L74.5799 7.62243L109.445 7.63683L109.382 7.57443C109.382 15.8904 109.382 23.7984 109.382 30.9192L109.44 30.8616L84.3215 30.8904L77.1431 30.9048H75.2351H74.7431H74.5727H74.7359H75.2159H77.1143L84.2783 30.9192L109.435 30.948H109.493V30.8904C109.493 23.7696 109.493 15.8616 109.493 7.54564V7.48083H109.428L74.5631 7.49523H74.5127V7.54564C74.5247 14.6664 74.5343 20.5056 74.5391 24.5688C74.5391 26.5944 74.5391 28.1688 74.5511 29.2536C74.5511 29.7888 74.5511 30.1992 74.5511 30.4776C74.5511 30.756 74.6039 30.9192 74.6039 30.9192Z" fill="#6869AC"/>
<path d="M109.471 9.65762C109.471 9.62162 101.671 9.59521 92.0544 9.59521C82.4376 9.59521 74.6328 9.62162 74.6328 9.65762C74.6328 9.69362 82.4304 9.72001 92.0544 9.72001C101.678 9.72001 109.471 9.69122 109.471 9.65762Z" fill="#6869AC"/>
<path d="M108.096 8.60649C108.096 8.66203 108.112 8.71632 108.143 8.7625C108.174 8.80868 108.218 8.84467 108.269 8.86592C108.321 8.88717 108.377 8.89273 108.431 8.8819C108.486 8.87106 108.536 8.84432 108.575 8.80505C108.614 8.76578 108.641 8.71575 108.652 8.66128C108.663 8.60681 108.657 8.55035 108.636 8.49904C108.615 8.44773 108.579 8.40387 108.533 8.37302C108.486 8.34216 108.432 8.32569 108.377 8.32569C108.34 8.32537 108.303 8.33242 108.269 8.34642C108.235 8.36042 108.204 8.38109 108.177 8.40723C108.151 8.43336 108.131 8.46445 108.117 8.49866C108.103 8.53287 108.096 8.56953 108.096 8.60649Z" fill="#6869AC"/>
<path d="M107.138 8.60649C107.138 8.66203 107.155 8.71632 107.186 8.7625C107.217 8.80868 107.26 8.84467 107.312 8.86592C107.363 8.88717 107.419 8.89273 107.474 8.8819C107.528 8.87106 107.578 8.84432 107.618 8.80505C107.657 8.76578 107.684 8.71575 107.695 8.66128C107.705 8.60681 107.7 8.55035 107.679 8.49904C107.657 8.44773 107.621 8.40387 107.575 8.37302C107.529 8.34216 107.475 8.32569 107.419 8.32569C107.382 8.32537 107.346 8.33242 107.311 8.34642C107.277 8.36042 107.246 8.38109 107.22 8.40723C107.194 8.43336 107.173 8.46445 107.159 8.49866C107.145 8.53287 107.138 8.56953 107.138 8.60649Z" fill="#6869AC"/>
<path d="M106.195 8.60649C106.195 8.66213 106.212 8.71652 106.243 8.76274C106.274 8.80897 106.318 8.84496 106.369 8.86614C106.421 8.88732 106.477 8.89274 106.532 8.88171C106.586 8.87068 106.636 8.8437 106.675 8.80419C106.715 8.76467 106.741 8.71442 106.752 8.65979C106.762 8.60516 106.756 8.54863 106.735 8.49736C106.713 8.4461 106.677 8.40241 106.63 8.37185C106.584 8.34128 106.529 8.32522 106.474 8.32569C106.437 8.32569 106.4 8.33297 106.367 8.34711C106.333 8.36125 106.302 8.38198 106.276 8.40808C106.25 8.43419 106.23 8.46516 106.216 8.49922C106.202 8.53327 106.195 8.56973 106.195 8.60649Z" fill="#6869AC"/>
<g opacity="0.6">
<path d="M108.096 8.60649C108.096 8.66203 108.112 8.71632 108.143 8.7625C108.174 8.80868 108.218 8.84467 108.269 8.86592C108.321 8.88717 108.377 8.89273 108.431 8.8819C108.486 8.87106 108.536 8.84432 108.575 8.80505C108.614 8.76578 108.641 8.71575 108.652 8.66128C108.663 8.60681 108.657 8.55035 108.636 8.49904C108.615 8.44773 108.579 8.40387 108.533 8.37302C108.486 8.34216 108.432 8.32569 108.377 8.32569C108.34 8.32537 108.303 8.33242 108.269 8.34642C108.235 8.36042 108.204 8.38109 108.177 8.40723C108.151 8.43336 108.131 8.46445 108.117 8.49866C108.103 8.53287 108.096 8.56953 108.096 8.60649Z" fill="white"/>
<path d="M107.138 8.60649C107.138 8.66203 107.155 8.71632 107.186 8.7625C107.217 8.80868 107.26 8.84467 107.312 8.86592C107.363 8.88717 107.419 8.89273 107.474 8.8819C107.528 8.87106 107.578 8.84432 107.618 8.80505C107.657 8.76578 107.684 8.71575 107.695 8.66128C107.705 8.60681 107.7 8.55035 107.679 8.49904C107.657 8.44773 107.621 8.40387 107.575 8.37302C107.529 8.34216 107.475 8.32569 107.419 8.32569C107.382 8.32537 107.346 8.33242 107.311 8.34642C107.277 8.36042 107.246 8.38109 107.22 8.40723C107.194 8.43336 107.173 8.46445 107.159 8.49866C107.145 8.53287 107.138 8.56953 107.138 8.60649Z" fill="white"/>
<path d="M106.195 8.60649C106.195 8.66213 106.212 8.71652 106.242 8.76274C106.273 8.80897 106.317 8.84496 106.369 8.86614C106.42 8.88732 106.477 8.89274 106.531 8.88171C106.586 8.87068 106.636 8.8437 106.675 8.80419C106.714 8.76467 106.741 8.71442 106.751 8.65979C106.762 8.60516 106.756 8.54863 106.735 8.49736C106.713 8.4461 106.677 8.40241 106.63 8.37185C106.584 8.34128 106.529 8.32522 106.473 8.32569C106.437 8.32569 106.4 8.33297 106.366 8.34711C106.332 8.36125 106.302 8.38198 106.276 8.40808C106.25 8.43419 106.229 8.46516 106.215 8.49922C106.202 8.53327 106.195 8.56973 106.195 8.60649Z" fill="white"/>
</g>
<g opacity="0.3">
<path d="M97.1736 12.0912H106.474V21.3912H97.1736V12.0912Z" fill="#6869AC"/>
</g>
<path d="M79.3848 14.7193C79.3848 14.7553 83.0136 14.7817 87.4872 14.7817C91.9608 14.7817 95.5896 14.7553 95.5896 14.7193C95.5896 14.6833 91.9632 14.6569 87.4872 14.6569C83.0112 14.6569 79.3848 14.6857 79.3848 14.7193Z" fill="#6869AC"/>
<path d="M79.3848 16.4496C79.3848 16.4832 83.0136 16.512 87.4872 16.512C91.9608 16.512 95.5896 16.4832 95.5896 16.4496C95.5896 16.416 91.9632 16.3872 87.4872 16.3872C83.0112 16.3872 79.3848 16.4136 79.3848 16.4496Z" fill="#6869AC"/>
<path d="M79.3848 18.1776C79.3848 18.2112 83.0136 18.24 87.4872 18.24C91.9608 18.24 95.5896 18.2112 95.5896 18.1776C95.5896 18.144 91.9632 18.1152 87.4872 18.1152C83.0112 18.1152 79.3848 18.1416 79.3848 18.1776Z" fill="#6869AC"/>
<path d="M86.0136 19.9056C86.1374 19.9253 86.2627 19.9333 86.388 19.9296L87.4152 19.9488C88.2816 19.9488 89.4792 19.968 90.8016 19.968C92.124 19.968 93.3192 19.968 94.1856 19.9488L95.2128 19.92C95.3389 19.9236 95.465 19.9155 95.5896 19.896C95.465 19.8765 95.3389 19.8685 95.2128 19.872L94.1856 19.8528C93.3192 19.8408 92.124 19.8336 90.8016 19.8336C89.4792 19.8336 88.2816 19.8336 87.4152 19.8528L86.388 19.872C86.2624 19.8715 86.1371 19.8828 86.0136 19.9056Z" fill="#6869AC"/>
<path d="M101.522 24.5281H105.893V28.8985H101.522V24.5281Z" fill="#6869AC"/>
<path opacity="0.6" d="M101.522 24.5281H105.893V28.8985H101.522V24.5281Z" fill="white"/>
<path d="M93.5952 24.5281H97.9656V28.8985H93.5952V24.5281Z" fill="#6869AC"/>
<path opacity="0.6" d="M93.5952 24.5281H97.9656V28.8985H93.5952V24.5281Z" fill="white"/>
<path d="M85.6679 24.5281H90.0383V28.8985H85.6679V24.5281Z" fill="#6869AC"/>
<path opacity="0.6" d="M85.6679 24.5281H90.0383V28.8985H85.6679V24.5281Z" fill="white"/>
<path d="M77.7407 24.5281H82.1111V28.8985H77.7407V24.5281Z" fill="#6869AC"/>
<path opacity="0.6" d="M77.7407 24.5281H82.1111V28.8985H77.7407V24.5281Z" fill="white"/>
<path d="M7.32008 55.2552H46.7881V71.2873H7.32008V55.2552Z" fill="white"/>
<path d="M7.31754 71.28C7.31754 71.28 7.31754 71.1816 7.31754 70.9944C7.31754 70.8072 7.31754 70.5264 7.31754 70.1616C7.31754 69.4296 7.31754 68.3568 7.32954 66.972C7.32954 64.2048 7.34394 60.2016 7.35355 55.248L7.30795 55.2936L46.7735 55.3104L46.7087 55.248C46.7087 60.864 46.7087 66.288 46.7087 71.28L46.7687 71.22L18.4799 71.256L10.2695 71.2728H8.07355H7.50474H7.30795H7.49754H8.05914H10.2431L18.4391 71.2896L46.7783 71.3184H46.8359V71.28C46.8359 66.2808 46.8359 60.864 46.8359 55.248V55.2H46.7687L7.30314 55.2192H7.25994V55.2624C7.25994 60.228 7.27914 64.2384 7.28394 67.0224C7.28394 68.4024 7.28394 69.4728 7.28394 70.2024C7.28394 70.5624 7.28394 70.8384 7.28394 71.0256C7.28394 71.2128 7.31754 71.28 7.31754 71.28Z" fill="#6869AC"/>
<path d="M46.7471 57.4176C46.7471 57.384 37.9247 57.3552 27.0455 57.3552C16.1663 57.3552 7.34147 57.384 7.34147 57.4176C7.34147 57.4512 16.1615 57.48 27.0455 57.48C37.9295 57.48 46.7471 57.4536 46.7471 57.4176Z" fill="#6869AC"/>
<path d="M45.096 56.4505C45.096 56.5069 45.1128 56.5622 45.1442 56.6091C45.1756 56.6561 45.2202 56.6927 45.2723 56.7143C45.3245 56.7359 45.3819 56.7416 45.4373 56.7306C45.4928 56.7195 45.5436 56.6923 45.5836 56.6524C45.6235 56.6125 45.6507 56.5616 45.6617 56.5062C45.6728 56.4508 45.6671 56.3933 45.6455 56.3412C45.6239 56.289 45.5873 56.2444 45.5403 56.213C45.4933 56.1816 45.4381 56.1649 45.3816 56.1649C45.3059 56.1649 45.2332 56.1949 45.1797 56.2485C45.1261 56.3021 45.096 56.3747 45.096 56.4505Z" fill="#6869AC"/>
<path d="M44.1144 56.4504C44.1153 56.5067 44.1329 56.5614 44.1648 56.6078C44.1968 56.6541 44.2417 56.69 44.294 56.7108C44.3462 56.7317 44.4035 56.7367 44.4586 56.7251C44.5137 56.7136 44.5641 56.686 44.6036 56.6459C44.643 56.6058 44.6698 56.5549 44.6804 56.4996C44.691 56.4443 44.6851 56.3872 44.6634 56.3353C44.6416 56.2834 44.605 56.239 44.5581 56.2079C44.5113 56.1767 44.4563 56.16 44.4 56.16C44.3621 56.16 44.3245 56.1676 44.2896 56.1822C44.2546 56.1969 44.2229 56.2183 44.1963 56.2454C44.1697 56.2724 44.1488 56.3045 44.1347 56.3397C44.1207 56.3749 44.1137 56.4125 44.1144 56.4504Z" fill="#6869AC"/>
<path d="M43.1471 56.4504C43.1481 56.5064 43.1654 56.5608 43.1971 56.607C43.2287 56.6531 43.2732 56.689 43.3251 56.7101C43.3769 56.7312 43.4338 56.7365 43.4887 56.7256C43.5436 56.7146 43.594 56.6877 43.6338 56.6483C43.6735 56.6089 43.7008 56.5587 43.7122 56.5039C43.7237 56.4491 43.7188 56.3921 43.6981 56.3401C43.6775 56.2881 43.642 56.2433 43.5961 56.2113C43.5502 56.1793 43.4959 56.1614 43.4399 56.16C43.4014 56.159 43.3631 56.1659 43.3273 56.1801C43.2915 56.1943 43.2589 56.2156 43.2315 56.2427C43.2042 56.2699 43.1826 56.3022 43.1681 56.3379C43.1536 56.3736 43.1464 56.4119 43.1471 56.4504Z" fill="#6869AC"/>
<g opacity="0.6">
<path d="M45.096 56.4504C45.096 56.5069 45.1128 56.5621 45.1442 56.6091C45.1756 56.656 45.2202 56.6926 45.2723 56.7143C45.3245 56.7359 45.3819 56.7415 45.4373 56.7305C45.4928 56.7195 45.5436 56.6923 45.5836 56.6523C45.6235 56.6124 45.6507 56.5615 45.6617 56.5061C45.6728 56.4507 45.6671 56.3933 45.6455 56.3411C45.6239 56.2889 45.5873 56.2443 45.5403 56.2129C45.4933 56.1815 45.4381 56.1648 45.3816 56.1648C45.3059 56.1648 45.2332 56.1949 45.1797 56.2484C45.1261 56.302 45.096 56.3746 45.096 56.4504Z" fill="white"/>
<path d="M44.1144 56.4504C44.1153 56.5067 44.1329 56.5614 44.1648 56.6078C44.1968 56.6541 44.2417 56.69 44.294 56.7108C44.3462 56.7317 44.4035 56.7367 44.4586 56.7251C44.5137 56.7136 44.5641 56.686 44.6036 56.6459C44.643 56.6058 44.6698 56.5549 44.6804 56.4996C44.691 56.4443 44.6851 56.3872 44.6634 56.3353C44.6416 56.2834 44.605 56.239 44.5581 56.2079C44.5113 56.1767 44.4563 56.16 44.4 56.16C44.3621 56.16 44.3245 56.1676 44.2896 56.1822C44.2546 56.1969 44.2229 56.2183 44.1963 56.2454C44.1697 56.2724 44.1488 56.3045 44.1347 56.3397C44.1207 56.3749 44.1137 56.4125 44.1144 56.4504Z" fill="white"/>
<path d="M43.1473 56.4504C43.1483 56.5064 43.1657 56.5608 43.1973 56.607C43.229 56.6531 43.2735 56.689 43.3253 56.7101C43.3772 56.7312 43.4341 56.7365 43.489 56.7256C43.5438 56.7146 43.5943 56.6877 43.634 56.6483C43.6738 56.6089 43.701 56.5587 43.7125 56.5039C43.7239 56.4491 43.719 56.3921 43.6984 56.3401C43.6777 56.2881 43.6422 56.2433 43.5963 56.2113C43.5504 56.1793 43.4961 56.1614 43.4402 56.16C43.4016 56.159 43.3633 56.1659 43.3275 56.1801C43.2917 56.1943 43.2591 56.2156 43.2318 56.2427C43.2044 56.2699 43.1829 56.3022 43.1683 56.3379C43.1538 56.3736 43.1467 56.4119 43.1473 56.4504Z" fill="white"/>
</g>
<path d="M33.9001 60.024H43.4329V69.5568H33.9001V60.024Z" fill="#6869AC"/>
<path opacity="0.6" d="M33.9001 60.024H43.4329V69.5568H33.9001V60.024Z" fill="white"/>
<path d="M10.0487 62.5777C10.0487 62.6137 14.9543 62.6401 21.0047 62.6401C27.0551 62.6401 31.9607 62.6137 31.9607 62.5777C31.9607 62.5417 27.0575 62.5153 21.0047 62.5153C14.9519 62.5153 10.0487 62.5441 10.0487 62.5777Z" fill="#6869AC"/>
<path d="M10.0487 64.5216C10.0487 64.5552 14.9543 64.584 21.0047 64.584C27.0551 64.584 31.9607 64.5552 31.9607 64.5216C31.9607 64.488 27.0575 64.4592 21.0047 64.4592C14.9519 64.4592 10.0487 64.4856 10.0487 64.5216Z" fill="#6869AC"/>
<path d="M17.8559 66.4632C17.9033 66.4723 17.9516 66.4763 17.9999 66.4752H18.4103L19.9223 66.4944L24.9095 66.5136L29.8967 66.4944L31.4087 66.4752H31.8191C31.8666 66.4764 31.9141 66.4724 31.9607 66.4632C31.9143 66.4525 31.8666 66.4484 31.8191 66.4512L31.4087 66.4392L29.8967 66.4176L24.9095 66.4008L19.9223 66.4176L18.4103 66.4392L17.9999 66.4512C17.9516 66.4486 17.9031 66.4526 17.8559 66.4632Z" fill="#6869AC"/>
</svg>
