<svg preserveAspectRatio="none" width="100%" height="100%" overflow="visible" style="display: block;" viewBox="0 0 45 61" fill="none" xmlns="http://www.w3.org/2000/svg">
<g id="freepik--folder-2--inject-32">
<path id="Vector" d="M2.13623e-06 20.1803V60.5408L41.3097 36.6917L41.3071 0L10.5921 17.7343L9.53081 14.6756L2.13623e-06 20.1803Z" fill="var(--fill-0, #6869AC)"/>
<path id="Vector_2" opacity="0.7" d="M2.13623e-06 20.1803V60.5408L41.3097 36.6917L41.3071 0L10.5921 17.7343L9.53081 14.6756L2.13623e-06 20.1803Z" fill="var(--fill-0, #101723)"/>
<path id="Vector_3" d="M2.13623e-06 60.5408L2.11738 23.8492L43.4271 0L41.3097 36.6917L2.13623e-06 60.5408Z" fill="var(--fill-0, #9A99C9)"/>
<path id="Vector_4" d="M0 60.5408L3.17607 24.4619L44.4858 0.610137L41.3097 36.6916L0 60.5408Z" fill="var(--fill-0, #6869AC)"/>
<path id="Vector_5" opacity="0.7" d="M0 60.5408L3.17607 24.4619L44.4858 0.610137L41.3097 36.6916L0 60.5408Z" fill="var(--fill-0, #101723)"/>
</g>
</svg>
