<svg preserveAspectRatio="none" width="100%" height="100%" overflow="visible" style="display: block;" viewBox="0 0 57 90" fill="none" xmlns="http://www.w3.org/2000/svg">
<g id="freepik--Documents--inject-32">
<path id="Vector" d="M27.5311 89.66C20.1151 85.3783 13.2362 80.7237 10.0967 75.2634L19.6405 69.7535L27.5311 89.66Z" fill="var(--fill-0, #9A99C9)"/>
<path id="Vector_2" d="M0 40.7361V81.0966L41.3097 57.2474V20.5558L10.5921 38.2901L9.53341 35.2314L0 40.7361Z" fill="var(--fill-0, #6869AC)"/>
<path id="Vector_3" opacity="0.2" d="M0 40.7361V81.0966L41.3097 57.2474V20.5558L10.5921 38.2901L9.53341 35.2314L0 40.7361Z" fill="var(--fill-0, #101723)"/>
<path id="Vector_4" d="M11.9011 52.6685C11.7968 52.6685 11.7812 52.5486 11.7812 52.4782V18.0578C11.7895 17.9242 11.8287 17.7945 11.8957 17.6786C11.9627 17.5628 12.0555 17.4641 12.1671 17.3902L41.9825 0.179997C42.0233 0.15453 42.07 0.140148 42.1181 0.138275C42.2224 0.138275 42.238 0.258225 42.238 0.328631V34.7491C42.2298 34.883 42.1907 35.0132 42.1238 35.1295C42.0568 35.2457 41.9638 35.3449 41.8521 35.4192L12.0367 52.6294C11.9955 52.6536 11.9489 52.6671 11.9011 52.6685Z" fill="var(--fill-0, white)"/>
<path id="Vector_5" d="M42.1024 0.258194C42.1045 0.277259 42.1045 0.296498 42.1024 0.315562V34.736C42.0938 34.847 42.0606 34.9547 42.0051 35.0512C41.9496 35.1478 41.8733 35.2307 41.7817 35.294L11.9663 52.5042L11.9141 52.5277C11.9107 52.5087 11.9107 52.4893 11.9141 52.4703V18.0499C11.9231 17.9393 11.9565 17.8322 12.012 17.7361C12.0675 17.64 12.1436 17.5575 12.2349 17.4945L42.0503 0.28427C42.0667 0.272767 42.0854 0.264779 42.105 0.260802M42.1207 4.16577e-05C42.0497 0.00215569 41.9804 0.0228343 41.9199 0.0600175L12.1045 17.2702C11.9734 17.3563 11.8644 17.4719 11.786 17.6078C11.7077 17.7436 11.6623 17.8959 11.6534 18.0525V52.4729C11.6534 52.6763 11.7551 52.7937 11.9141 52.7937C11.9852 52.7918 12.0545 52.7711 12.1149 52.7337L41.9303 35.5235C42.062 35.438 42.1715 35.3225 42.2499 35.1866C42.3283 35.0506 42.3734 34.898 42.3814 34.7412V0.320778C42.3814 0.117385 42.2797 -0.00256595 42.1207 4.16577e-05Z" fill="var(--fill-0, #6869AC)"/>
<path id="Vector_6" opacity="0.7" d="M42.1024 0.258194C42.1045 0.277259 42.1045 0.296498 42.1024 0.315562V34.736C42.0938 34.847 42.0606 34.9547 42.0051 35.0512C41.9496 35.1478 41.8733 35.2307 41.7817 35.294L11.9663 52.5042L11.9141 52.5277C11.9107 52.5087 11.9107 52.4893 11.9141 52.4703V18.0499C11.9231 17.9393 11.9565 17.8322 12.012 17.7361C12.0675 17.64 12.1436 17.5575 12.2349 17.4945L42.0503 0.28427C42.0667 0.272767 42.0854 0.264779 42.105 0.260802M42.1207 4.16577e-05C42.0497 0.00215569 41.9804 0.0228343 41.9199 0.0600175L12.1045 17.2702C11.9734 17.3563 11.8644 17.4719 11.786 17.6078C11.7077 17.7436 11.6623 17.8959 11.6534 18.0525V52.4729C11.6534 52.6763 11.7551 52.7937 11.9141 52.7937C11.9852 52.7918 12.0545 52.7711 12.1149 52.7337L41.9303 35.5235C42.062 35.438 42.1715 35.3225 42.2499 35.1866C42.3283 35.0506 42.3734 34.898 42.3814 34.7412V0.320778C42.3814 0.117385 42.2797 -0.00256595 42.1207 4.16577e-05Z" fill="var(--fill-0, white)"/>
<path id="Vector_7" d="M14.8295 19.3642L25.4216 13.2494V25.4791L14.8295 31.5939V19.3642Z" fill="var(--fill-0, #6869AC)"/>
<path id="Vector_8" opacity="0.8" d="M14.8295 19.3642L25.4216 13.2494V25.4791L14.8295 31.5939V19.3642Z" fill="var(--fill-0, white)"/>
<path id="Vector_9" d="M23.8335 16.2976V19.9743L23.4998 20.1594V19.0355C23.4998 18.4149 22.9965 18.2037 22.3707 18.5636L17.883 21.1581C17.2598 21.518 16.7539 22.3133 16.7539 22.9339V24.0578L16.4227 24.256V20.5871L23.8335 16.2976Z" fill="var(--fill-0, white)"/>
<path id="Vector_10" d="M21.7944 25.6589C21.252 25.9718 20.8113 25.6432 20.8113 24.9209V19.0355L19.4475 19.7761V25.7084C19.4475 26.4281 19.0069 27.273 18.4645 27.5781L17.4788 28.1465V28.5377L22.7749 25.4789V25.0904L21.7944 25.6589Z" fill="var(--fill-0, white)"/>
<path id="Vector_11" d="M27.5311 12.6469C27.5311 12.9859 27.8362 13.0824 28.2091 12.8686L38.5144 6.91018C38.6972 6.80654 38.8536 6.66197 38.9712 6.48779C39.0888 6.31362 39.1645 6.11457 39.1923 5.90625C39.1923 5.56987 38.8872 5.47078 38.5144 5.68721L28.2169 11.6326C28.0311 11.736 27.8721 11.8817 27.753 12.0579C27.6339 12.2341 27.5579 12.4359 27.5311 12.6469Z" fill="var(--fill-0, #3E4551)"/>
<path id="Vector_12" d="M27.5311 16.2975C27.5311 16.6365 27.8362 16.7356 28.2091 16.5192L38.5065 10.5738C38.6894 10.4702 38.8457 10.3256 38.9634 10.1514C39.081 9.97726 39.1567 9.77821 39.1845 9.56989C39.1845 9.23351 38.8794 9.13442 38.5065 9.35085L28.2091 15.2962C28.0266 15.3996 27.8704 15.5437 27.7528 15.7174C27.6352 15.8911 27.5593 16.0897 27.5311 16.2975Z" fill="var(--fill-0, #3E4551)"/>
<path id="Vector_13" d="M27.5311 19.9743C27.5311 20.3133 27.8362 20.4124 28.2091 20.1959L38.5065 14.2506C38.6891 14.1472 38.8452 14.003 38.9628 13.8293C39.0804 13.6556 39.1563 13.4571 39.1845 13.2493C39.1845 12.9103 38.8794 12.8112 38.5065 13.0276L28.2091 18.973C28.0266 19.0763 27.8704 19.2205 27.7528 19.3942C27.6352 19.5679 27.5593 19.7664 27.5311 19.9743Z" fill="var(--fill-0, #3E4551)"/>
<path id="Vector_14" d="M27.5311 23.6433C27.5311 23.9823 27.8362 24.0813 28.2091 23.8649L38.5065 17.9196C38.6891 17.8162 38.8452 17.672 38.9628 17.4983C39.0804 17.3246 39.1563 17.1261 39.1845 16.9182C39.1845 16.5793 38.8794 16.4802 38.5065 16.6966L28.2091 22.6419C28.0266 22.7453 27.8704 22.8895 27.7528 23.0632C27.6352 23.2369 27.5593 23.4354 27.5311 23.6433Z" fill="var(--fill-0, #3E4551)"/>
<path id="Vector_15" d="M14.8295 34.6526C14.8295 34.9916 15.132 35.0907 15.5075 34.8742L38.5144 21.5754C38.6972 21.4724 38.8535 21.3283 38.9712 21.1545C39.0888 20.9808 39.1646 20.7821 39.1924 20.5741C39.1924 20.2351 38.8873 20.1386 38.5144 20.3525L15.5075 33.6513C15.3246 33.7542 15.1681 33.8982 15.0504 34.072C14.9328 34.2458 14.8571 34.4445 14.8295 34.6526Z" fill="var(--fill-0, #3E4551)"/>
<path id="Vector_16" d="M14.8295 38.3215C14.8295 38.6604 15.132 38.7595 15.5075 38.5431L38.5144 25.2599C38.6972 25.1563 38.8536 25.0117 38.9712 24.8376C39.0889 24.6634 39.1646 24.4643 39.1924 24.256C39.1924 23.9196 38.8873 23.8205 38.5144 24.037L15.5075 37.3201C15.3246 37.423 15.1681 37.5671 15.0504 37.7409C14.9328 37.9146 14.8571 38.1134 14.8295 38.3215Z" fill="var(--fill-0, #3E4551)"/>
<path id="Vector_17" d="M14.8295 41.993C14.8295 42.3294 15.132 42.4285 15.5075 42.2121L38.5144 28.9289C38.6972 28.8253 38.8536 28.6807 38.9712 28.5066C39.0889 28.3324 39.1646 28.1333 39.1924 27.925C39.1924 27.5886 38.8873 27.4895 38.5144 27.706L15.5075 40.9891C15.3242 41.0923 15.1676 41.2367 15.0499 41.411C14.9322 41.5853 14.8567 41.7845 14.8295 41.993Z" fill="var(--fill-0, #3E4551)"/>
<path id="Vector_18" d="M0 81.0967L7.41343 48.6867L48.7232 24.8349L41.3097 57.2475L0 81.0967Z" fill="var(--fill-0, #6869AC)"/>
<path id="Vector_19" d="M10.1071 51.2238V75.2634L19.6405 69.7587V45.7218L10.1071 51.2238Z" fill="var(--fill-0, #6869AC)"/>
<path id="Vector_20" opacity="0.2" d="M10.1071 51.2238V75.2634L19.6405 69.7587V45.7218L10.1071 51.2238Z" fill="var(--fill-0, #101723)"/>
<path id="Vector_21" d="M27.5494 89.5035C26.7384 88.8986 18.9208 82.9245 14.9468 74.3794C10.7173 65.2945 10.7225 54.6972 10.7225 50.7102V50.585L39.062 34.2249C39.062 38.2484 39.062 48.8614 43.3098 57.9776C47.1925 66.3219 54.7102 72.2203 55.9019 73.1225L27.5494 89.5035Z" fill="var(--fill-0, white)"/>
<path id="Vector_22" d="M38.9316 34.4596C38.9316 38.6527 39.0124 49.0622 43.1924 58.0428C46.9448 66.1004 54.0792 71.8945 55.6672 73.1174L27.5572 89.3472C26.4594 88.5206 18.9364 82.6456 15.0667 74.3352C10.8424 65.2764 10.8424 54.6999 10.8424 50.7181V50.6685L38.9211 34.457M39.1819 34.0059L10.5817 50.5199C10.5817 54.2722 10.5034 65.1747 14.819 74.4447C19.0668 83.5426 27.5311 89.6601 27.5311 89.6601L56.1392 73.1435C56.1392 73.1435 47.6645 67.0261 43.4297 57.9281C39.1115 48.6581 39.1923 37.7557 39.1923 34.0033L39.1819 34.0059Z" fill="var(--fill-0, #6869AC)"/>
<path id="Vector_23" opacity="0.7" d="M38.9316 34.4596C38.9316 38.6527 39.0124 49.0622 43.1924 58.0428C46.9448 66.1004 54.0792 71.8945 55.6672 73.1174L27.5572 89.3472C26.4594 88.5206 18.9364 82.6456 15.0667 74.3352C10.8424 65.2764 10.8424 54.6999 10.8424 50.7181V50.6685L38.9211 34.457M39.1819 34.0059L10.5817 50.5199C10.5817 54.2722 10.5034 65.1747 14.819 74.4447C19.0668 83.5426 27.5311 89.6601 27.5311 89.6601L56.1392 73.1435C56.1392 73.1435 47.6645 67.0261 43.4297 57.9281C39.1115 48.6581 39.1923 37.7557 39.1923 34.0033L39.1819 34.0059Z" fill="var(--fill-0, white)"/>
<path id="Vector_24" d="M35.9563 39.5445L26.9131 44.7597C26.7321 44.8594 26.5778 45.0012 26.4634 45.1733C26.349 45.3454 26.2778 45.5425 26.256 45.748C26.269 46.0792 26.5845 46.1731 26.9574 45.9566L36.0032 40.7414C36.1821 40.6427 36.3348 40.5027 36.4486 40.3331C36.5625 40.1634 36.6342 39.9691 36.6577 39.7662C36.6421 39.422 36.3318 39.3281 35.9563 39.5445Z" fill="var(--fill-0, #3E4551)"/>
<path id="Vector_25" d="M36.1493 43.1037L27.1061 48.3189C26.9272 48.4151 26.7756 48.555 26.6653 48.7255C26.5549 48.896 26.4895 49.0916 26.4751 49.2942C26.5037 49.6149 26.8323 49.701 27.2052 49.4845L36.251 44.2693C36.429 44.1735 36.5796 44.034 36.6886 43.8638C36.7977 43.6936 36.8615 43.4984 36.8742 43.2967C36.8481 42.9733 36.5248 42.8951 36.1493 43.1037Z" fill="var(--fill-0, #3E4551)"/>
<path id="Vector_26" d="M36.5117 46.564L27.4659 51.7792C27.0931 51.9957 26.8219 52.4259 26.8662 52.7362C26.9105 53.0465 27.2521 53.1274 27.6276 52.9109L36.6734 47.6957C37.0463 47.4793 37.3123 47.0516 37.2653 46.7413C37.2184 46.431 36.8846 46.3476 36.5117 46.564Z" fill="var(--fill-0, #3E4551)"/>
<path id="Vector_27" d="M37.0541 49.9202L28.0083 55.1354C27.6354 55.3519 27.3773 55.7743 27.4399 56.0768C27.5024 56.3792 27.8571 56.4471 28.2221 56.2306L37.2653 51.0154C37.6408 50.799 37.8911 50.3791 37.8286 50.0767C37.766 49.7742 37.44 49.7038 37.0541 49.9202Z" fill="var(--fill-0, #3E4551)"/>
<path id="Vector_28" d="M37.7895 53.164L28.7437 58.3792C28.3708 58.5956 28.1283 59.0076 28.2221 59.2971C28.316 59.5865 28.6733 59.6517 29.0461 59.4353L38.0919 54.2201C38.4674 54.0036 38.7021 53.5943 38.6135 53.3022C38.5248 53.0101 38.1623 52.9476 37.7895 53.164Z" fill="var(--fill-0, #3E4551)"/>
<path id="Vector_29" d="M38.7438 56.2905L16.6991 69.0182C16.3262 69.2346 16.0994 69.6362 16.2011 69.9152C16.3027 70.1942 16.6913 70.2464 17.0642 70.03L39.1089 57.3022C39.4844 57.0858 39.7008 56.6868 39.5991 56.4052C39.4974 56.1236 39.1037 56.074 38.7438 56.2905Z" fill="var(--fill-0, #3E4551)"/>
<path id="Vector_30" d="M39.9042 59.2761L17.8621 72.0038C17.4866 72.2202 17.2806 72.6114 17.4058 72.8773C17.5309 73.1433 17.9273 73.185 18.308 72.9686L40.3527 60.2409C40.7282 60.0244 40.929 59.6333 40.8038 59.3673C40.6787 59.1014 40.2797 59.0622 39.9042 59.2761Z" fill="var(--fill-0, #3E4551)"/>
<path id="Vector_31" d="M41.3515 62.1211L19.3068 74.8488C18.9313 75.0653 18.7461 75.446 18.8948 75.6989C19.0434 75.9519 19.4684 75.9779 19.8439 75.7615L41.873 63.0338C42.2459 62.82 42.4258 62.4418 42.2772 62.1889C42.1285 61.936 41.7165 61.9047 41.3515 62.1211Z" fill="var(--fill-0, #3E4551)"/>
<path id="Vector_32" d="M43.0386 64.812L20.9965 77.5372C20.621 77.7536 20.4541 78.1265 20.6236 78.3638C20.7931 78.6011 21.239 78.6245 21.6145 78.4055L43.6566 65.6778C44.0321 65.4613 44.1937 65.0937 44.0243 64.8538C43.8548 64.6139 43.4141 64.5956 43.0386 64.812Z" fill="var(--fill-0, #3E4551)"/>
<path id="Vector_33" d="M44.963 67.3701L22.9183 80.0952C22.5454 80.3117 22.3968 80.6741 22.5845 80.901C22.7723 81.1279 23.2338 81.1383 23.6093 80.9218L45.654 68.1889C46.0269 67.9725 46.1755 67.6152 45.9826 67.3884C45.7896 67.1615 45.3385 67.1459 44.963 67.3701Z" fill="var(--fill-0, #3E4551)"/>
<path id="Vector_34" d="M47.0882 69.8057L25.0513 82.5308C24.6758 82.7472 24.5298 83.1019 24.7488 83.3131C24.9678 83.5243 25.432 83.5295 25.8049 83.3131L47.8496 70.5853C48.2251 70.3689 48.3555 70.0195 48.1469 69.8031C47.9383 69.5866 47.4689 69.5918 47.0882 69.8057Z" fill="var(--fill-0, #3E4551)"/>
<path id="Vector_35" d="M49.435 72.1343L27.3903 84.8594C27.0174 85.0758 26.8949 85.4226 27.1295 85.6286C27.3642 85.8346 27.844 85.8268 28.2195 85.6104L50.246 72.8826C50.6189 72.6662 50.7362 72.3272 50.5067 72.1186C50.2773 71.91 49.8001 71.9178 49.435 72.1343Z" fill="var(--fill-0, #3E4551)"/>
<path id="Vector_36" d="M23.6354 46.6607L13.2362 52.6582C13.351 56.4261 13.7812 61.8604 15.3562 67.3338L25.758 61.3363C24.1804 55.8629 23.7501 50.426 23.6354 46.6607Z" fill="var(--fill-0, #6869AC)"/>
<path id="Vector_37" opacity="0.8" d="M23.6354 46.6607L13.2362 52.6582C13.351 56.4261 13.7812 61.8604 15.3562 67.3338L25.758 61.3363C24.1804 55.8629 23.7501 50.426 23.6354 46.6607Z" fill="var(--fill-0, white)"/>
<path id="Vector_38" d="M17.4762 51.8289C17.4902 51.5856 17.4524 51.3422 17.3652 51.1147C17.2779 50.8873 17.1434 50.6809 16.9703 50.5094L13.2362 52.6633C13.2675 53.6594 13.3197 54.7729 13.4109 55.9724C13.8967 56.0282 14.388 55.9374 14.8216 55.7116C16.2897 55.0388 17.4762 53.2943 17.4762 51.8289Z" fill="var(--fill-0, #6869AC)"/>
<path id="Vector_39" opacity="0.6" d="M17.4762 51.8289C17.4902 51.5856 17.4524 51.3422 17.3652 51.1147C17.2779 50.8873 17.1434 50.6809 16.9703 50.5094L13.2362 52.6633C13.2675 53.6594 13.3197 54.7729 13.4109 55.9724C13.8967 56.0282 14.388 55.9374 14.8216 55.7116C16.2897 55.0388 17.4762 53.2943 17.4762 51.8289Z" fill="var(--fill-0, white)"/>
<path id="Vector_40" d="M24.874 57.7377C24.1804 56.8642 22.7696 54.1653 22.1673 52.9893C22.1436 52.9428 22.1065 52.9045 22.0609 52.8793C22.0152 52.8541 21.963 52.8432 21.9111 52.8479C21.8591 52.8527 21.8098 52.873 21.7695 52.9061C21.7292 52.9392 21.6997 52.9836 21.6849 53.0336C21.0332 55.2611 20.6549 57.5597 20.5584 59.8786C19.6899 59.1891 18.9433 58.3588 18.3498 57.4222C18.3244 57.3859 18.2893 57.3576 18.2484 57.3407C18.2076 57.3237 18.1627 57.3187 18.1191 57.3264C18.0756 57.3341 18.0351 57.354 18.0025 57.384C17.9699 57.4139 17.9465 57.4525 17.9351 57.4952C16.7982 61.8734 17.3693 66.1812 17.3693 66.1812L25.758 61.3362C25.4086 60.1263 25.1191 58.9216 24.874 57.7377Z" fill="var(--fill-0, #6869AC)"/>
<path id="Vector_41" opacity="0.6" d="M24.874 57.7377C24.1804 56.8642 22.7696 54.1653 22.1673 52.9893C22.1436 52.9428 22.1065 52.9045 22.0609 52.8793C22.0152 52.8541 21.963 52.8432 21.9111 52.8479C21.8591 52.8527 21.8098 52.873 21.7695 52.9061C21.7292 52.9392 21.6997 52.9836 21.6849 53.0336C21.0332 55.2611 20.6549 57.5597 20.5584 59.8786C19.6899 59.1891 18.9433 58.3588 18.3498 57.4222C18.3244 57.3859 18.2893 57.3576 18.2484 57.3407C18.2076 57.3237 18.1627 57.3187 18.1191 57.3264C18.0756 57.3341 18.0351 57.354 18.0025 57.384C17.9699 57.4139 17.9465 57.4525 17.9351 57.4952C16.7982 61.8734 17.3693 66.1812 17.3693 66.1812L25.758 61.3362C25.4086 60.1263 25.1191 58.9216 24.874 57.7377Z" fill="var(--fill-0, white)"/>
</g>
</svg>
