<svg preserveAspectRatio="none" width="100%" height="100%" overflow="visible" style="display: block;" viewBox="0 0 17 16" fill="none" xmlns="http://www.w3.org/2000/svg">
<g id="freepik--Cube--inject-9">
<path id="Vector" d="M16.5364 5.74511C15.7132 2.86991 12.5884 0.205913 9.598 0.205913C7.0948 -0.533287 3.7204 0.844313 2.3812 2.32751C0.621998 4.27631 -0.498802 6.97391 0.221198 9.49871C0.941198 12.0235 2.9596 14.1091 5.4124 15.0475C8.206 16.1179 11.566 15.6787 13.8916 13.7971C16.2172 11.9155 17.362 8.62031 16.5364 5.74511Z" fill="var(--fill-0, #6869AC)"/>
<path id="Vector_2" opacity="0.8" d="M16.5364 5.74511C15.7132 2.86991 12.5884 0.205913 9.598 0.205913C7.0948 -0.533287 3.7204 0.844313 2.3812 2.32751C0.621998 4.27631 -0.498802 6.97391 0.221198 9.49871C0.941198 12.0235 2.9596 14.1091 5.4124 15.0475C8.206 16.1179 11.566 15.6787 13.8916 13.7971C16.2172 11.9155 17.362 8.62031 16.5364 5.74511Z" fill="var(--fill-0, white)"/>
<path id="Vector_3" d="M12.238 10.0195C12.235 9.9924 12.235 9.96503 12.238 9.93791C12.238 9.87791 12.238 9.80111 12.238 9.69791C12.238 9.48671 12.238 9.19151 12.226 8.81471C12.226 8.04191 12.2116 6.94271 12.202 5.58911L12.226 5.62991L8.386 3.42911H8.446L4.618 5.64191C4.5892 5.69231 4.654 5.57711 4.6468 5.58911V7.88591C4.6468 8.62511 4.6468 9.34271 4.6468 10.0315L4.618 9.98111L8.44119 12.2035H8.39559L11.1988 10.6099L11.9716 10.1779L12.1756 10.0675L12.25 10.0315C12.2311 10.0485 12.2101 10.063 12.1876 10.0747L11.9932 10.1923L11.2396 10.6411L8.44119 12.2827L8.4196 12.2971L8.39559 12.2827L4.55559 10.0819L4.5268 10.0651V10.0315C4.5268 9.34271 4.5268 8.62511 4.5268 7.88591C4.5268 7.51631 4.5268 7.14191 4.5268 6.76031V5.60111C4.5268 5.61311 4.5868 5.49791 4.5604 5.54591L8.4004 3.33791L8.43159 3.32111L8.4604 3.33791L12.2836 5.56031L12.3076 5.57471V5.60111C12.3076 6.96191 12.2908 8.06831 12.286 8.84591C12.286 9.22031 12.286 9.51311 12.274 9.72431C12.274 9.81551 12.274 9.89231 12.274 9.94991C12.274 10.0075 12.238 10.0219 12.238 10.0195Z" fill="var(--fill-0, #6869AC)"/>
<path id="Vector_4" d="M12.238 5.59631C12.1468 5.66907 12.0496 5.73409 11.9476 5.79071L11.1364 6.27071C10.45 6.68111 9.4948 7.23071 8.4388 7.84991H8.3692H8.35719L8.3332 7.83551L8.28279 7.80671L8.18439 7.75151L7.9852 7.64591L7.6036 7.40591L6.8836 6.98831L5.6836 6.26831L4.8724 5.78831C4.76989 5.73248 4.67269 5.66741 4.582 5.59391C4.6914 5.63509 4.79667 5.68652 4.8964 5.74751L5.7268 6.20351L6.9508 6.89471L7.6708 7.30751L8.04999 7.52591L8.24439 7.63871L8.34279 7.69391L8.3932 7.72271L8.41719 7.73711H8.4292H8.37399C9.42519 7.14191 10.3852 6.59711 11.1052 6.20591L11.9356 5.74991C12.0315 5.68959 12.1327 5.63817 12.238 5.59631Z" fill="var(--fill-0, #6869AC)"/>
<path id="Vector_5" d="M8.4124 12.1771C8.35061 11.4428 8.32977 10.7057 8.35 9.96911C8.32977 9.23253 8.35061 8.49538 8.4124 7.76111C8.47563 8.4953 8.49647 9.23253 8.4748 9.96911C8.49647 10.7057 8.47563 11.4429 8.4124 12.1771Z" fill="var(--fill-0, #6869AC)"/>
</g>
</svg>
