<svg preserveAspectRatio="none" width="100%" height="100%" overflow="visible" style="display: block;" viewBox="0 0 105 64" fill="none" xmlns="http://www.w3.org/2000/svg">
<g id="freepik--Screens--inject-9">
<path id="Vector" d="M34.8672 23.5536V25.6944H3.05176e-07V2.3496H2.3256" fill="var(--fill-0, #6869AC)"/>
<path id="Vector_2" opacity="0.8" d="M34.8672 23.5536V25.6944H3.05176e-07V2.3496H2.3256" fill="var(--fill-0, white)"/>
<path id="Vector_3" d="M37.3008 0.0936002H2.4336V23.4408H37.3008V0.0936002Z" fill="var(--fill-0, white)"/>
<path id="Vector_4" d="M37.3008 23.4384C37.3008 23.4384 37.3008 23.292 37.3008 23.0136C37.3008 22.7352 37.3008 22.32 37.3008 21.7824C37.3008 20.7024 37.3008 19.116 37.3008 17.088C37.3008 13.0296 37.2864 7.2 37.2744 0.0936002L37.3248 0.1416L2.46 0.156L2.5224 0.0936002C2.5224 8.4096 2.5224 16.3176 2.5224 23.4384L2.4648 23.3808L27.5832 23.4096L34.7616 23.424H36.6696H37.1616H37.332H37.1688H36.6888H34.7904L27.6264 23.4384L2.4696 23.4672H2.412V23.4096C2.412 16.2888 2.412 8.3808 2.412 0.0648005V3.43323e-07H2.4768L37.3416 0.0144002H37.392V0.0648005C37.38 7.1856 37.3704 13.0248 37.3656 17.088C37.3656 19.1136 37.3656 20.688 37.3536 21.7728C37.3536 22.308 37.3536 22.7184 37.3536 22.9968C37.3536 23.2752 37.3008 23.4384 37.3008 23.4384Z" fill="var(--fill-0, #6869AC)"/>
<path id="Vector_5" d="M2.4336 2.1768C2.4336 2.1408 10.2336 2.1144 19.8504 2.1144C29.4672 2.1144 37.272 2.1408 37.272 2.1768C37.272 2.2128 29.4744 2.2392 19.8504 2.2392C10.2264 2.2392 2.4336 2.2104 2.4336 2.1768Z" fill="var(--fill-0, #6869AC)"/>
<path id="Vector_6" d="M3.8088 1.1256C3.8088 1.18114 3.79233 1.23543 3.76148 1.2816C3.73062 1.32778 3.68677 1.36377 3.63546 1.38503C3.58415 1.40628 3.52769 1.41184 3.47322 1.40101C3.41875 1.39017 3.36871 1.36343 3.32944 1.32416C3.29017 1.28489 3.26343 1.23485 3.2526 1.18038C3.24176 1.12591 3.24732 1.06945 3.26857 1.01814C3.28983 0.966834 3.32582 0.922979 3.372 0.892124C3.41817 0.861269 3.47246 0.8448 3.528 0.8448C3.56496 0.84448 3.60162 0.851525 3.63584 0.865523C3.67005 0.879521 3.70113 0.900193 3.72727 0.926332C3.75341 0.95247 3.77408 0.983553 3.78808 1.01777C3.80208 1.05198 3.80912 1.08864 3.8088 1.1256Z" fill="var(--fill-0, #6869AC)"/>
<path id="Vector_7" d="M4.7664 1.1256C4.7664 1.18114 4.74993 1.23543 4.71908 1.2816C4.68822 1.32778 4.64437 1.36377 4.59306 1.38503C4.54175 1.40628 4.48529 1.41184 4.43082 1.40101C4.37635 1.39017 4.32632 1.36343 4.28705 1.32416C4.24777 1.28489 4.22103 1.23485 4.2102 1.18038C4.19936 1.12591 4.20492 1.06945 4.22618 1.01814C4.24743 0.966834 4.28342 0.922979 4.3296 0.892124C4.37577 0.861269 4.43006 0.8448 4.4856 0.8448C4.52256 0.84448 4.55922 0.851525 4.59344 0.865523C4.62765 0.879521 4.65873 0.900193 4.68487 0.926332C4.71101 0.95247 4.73168 0.983553 4.74568 1.01777C4.75968 1.05198 4.76672 1.08864 4.7664 1.1256Z" fill="var(--fill-0, #6869AC)"/>
<path id="Vector_8" d="M5.7096 1.1256C5.7096 1.18124 5.69307 1.23562 5.66211 1.28185C5.63114 1.32808 5.58715 1.36407 5.5357 1.38525C5.48425 1.40643 5.42766 1.41185 5.37313 1.40082C5.3186 1.38979 5.26857 1.3628 5.22939 1.32329C5.19022 1.28378 5.16367 1.23352 5.15311 1.1789C5.14254 1.12427 5.14845 1.06774 5.17007 1.01647C5.19169 0.965204 5.22806 0.921517 5.27455 0.890953C5.32104 0.860389 5.37556 0.844325 5.4312 0.8448C5.46796 0.844799 5.50436 0.852079 5.5383 0.86622C5.57223 0.880361 5.60303 0.901082 5.62891 0.927188C5.6548 0.953295 5.67525 0.98427 5.6891 1.01832C5.70295 1.05238 5.70992 1.08884 5.7096 1.1256Z" fill="var(--fill-0, #6869AC)"/>
<g id="Group" opacity="0.6">
<path id="Vector_9" d="M3.8088 1.1256C3.8088 1.18114 3.79233 1.23543 3.76148 1.2816C3.73062 1.32778 3.68677 1.36377 3.63546 1.38503C3.58415 1.40628 3.52769 1.41184 3.47322 1.40101C3.41875 1.39017 3.36871 1.36343 3.32944 1.32416C3.29017 1.28489 3.26343 1.23485 3.2526 1.18038C3.24176 1.12591 3.24732 1.06945 3.26857 1.01814C3.28983 0.966834 3.32582 0.922979 3.372 0.892124C3.41817 0.861269 3.47246 0.8448 3.528 0.8448C3.56496 0.84448 3.60162 0.851525 3.63584 0.865523C3.67005 0.879521 3.70113 0.900193 3.72727 0.926332C3.75341 0.95247 3.77408 0.983553 3.78808 1.01777C3.80208 1.05198 3.80912 1.08864 3.8088 1.1256Z" fill="var(--fill-0, white)"/>
<path id="Vector_10" d="M4.7664 1.1256C4.7664 1.18114 4.74993 1.23543 4.71908 1.2816C4.68822 1.32778 4.64437 1.36377 4.59306 1.38503C4.54175 1.40628 4.48529 1.41184 4.43082 1.40101C4.37635 1.39017 4.32632 1.36343 4.28705 1.32416C4.24777 1.28489 4.22103 1.23485 4.2102 1.18038C4.19936 1.12591 4.20492 1.06945 4.22618 1.01814C4.24743 0.966834 4.28342 0.922979 4.3296 0.892124C4.37577 0.861269 4.43006 0.8448 4.4856 0.8448C4.52256 0.84448 4.55922 0.851525 4.59344 0.865523C4.62765 0.879521 4.65873 0.900193 4.68487 0.926332C4.71101 0.95247 4.73168 0.983553 4.74568 1.01777C4.75968 1.05198 4.76672 1.08864 4.7664 1.1256Z" fill="var(--fill-0, white)"/>
<path id="Vector_11" d="M5.7096 1.1256C5.7096 1.18124 5.69307 1.23562 5.66211 1.28185C5.63114 1.32808 5.58715 1.36407 5.5357 1.38525C5.48425 1.40643 5.42767 1.41185 5.37313 1.40082C5.3186 1.38979 5.26857 1.3628 5.2294 1.32329C5.19022 1.28378 5.16367 1.23352 5.15311 1.1789C5.14254 1.12427 5.14845 1.06774 5.17007 1.01647C5.19169 0.965204 5.22806 0.921517 5.27455 0.890953C5.32104 0.860389 5.37556 0.844325 5.4312 0.8448C5.46796 0.844799 5.50436 0.852079 5.5383 0.86622C5.57223 0.880361 5.60303 0.901082 5.62891 0.927188C5.6548 0.953295 5.67525 0.98427 5.6891 1.01832C5.70295 1.05238 5.70992 1.08884 5.7096 1.1256Z" fill="var(--fill-0, white)"/>
</g>
<g id="Group_2" opacity="0.3">
<path id="Vector_12" d="M14.7312 4.6104H5.4312V13.9104H14.7312V4.6104Z" fill="var(--fill-0, #6869AC)"/>
</g>
<path id="Vector_13" d="M32.52 7.2384C32.52 7.2744 28.8912 7.3008 24.4176 7.3008C19.944 7.3008 16.3152 7.2744 16.3152 7.2384C16.3152 7.2024 19.9416 7.176 24.4176 7.176C28.8936 7.176 32.52 7.2048 32.52 7.2384Z" fill="var(--fill-0, #6869AC)"/>
<path id="Vector_14" d="M32.52 8.9688C32.52 9.0024 28.8912 9.0312 24.4176 9.0312C19.944 9.0312 16.3152 9.0024 16.3152 8.9688C16.3152 8.9352 19.9416 8.9064 24.4176 8.9064C28.8936 8.9064 32.52 8.9328 32.52 8.9688Z" fill="var(--fill-0, #6869AC)"/>
<path id="Vector_15" d="M32.52 10.6968C32.52 10.7304 28.8912 10.7592 24.4176 10.7592C19.944 10.7592 16.3152 10.7304 16.3152 10.6968C16.3152 10.6632 19.9416 10.6344 24.4176 10.6344C28.8936 10.6344 32.52 10.6608 32.52 10.6968Z" fill="var(--fill-0, #6869AC)"/>
<path id="Vector_16" d="M25.8912 12.4248C25.7674 12.4444 25.6421 12.4525 25.5168 12.4488L24.4896 12.468C23.6232 12.468 22.4256 12.4872 21.1032 12.4872C19.7808 12.4872 18.5856 12.4872 17.7192 12.468L16.692 12.4392C16.5659 12.4428 16.4398 12.4347 16.3152 12.4152C16.4398 12.3957 16.5659 12.3876 16.692 12.3912L17.7192 12.372C18.5856 12.36 19.7808 12.3528 21.1032 12.3528C22.4256 12.3528 23.6232 12.3528 24.4896 12.372L25.5168 12.3912C25.6424 12.3907 25.7677 12.402 25.8912 12.4248Z" fill="var(--fill-0, #6869AC)"/>
<path id="Vector_17" d="M10.3824 17.0472H6.012V21.4176H10.3824V17.0472Z" fill="var(--fill-0, #6869AC)"/>
<path id="Vector_18" opacity="0.6" d="M10.3824 17.0472H6.012V21.4176H10.3824V17.0472Z" fill="var(--fill-0, white)"/>
<path id="Vector_19" d="M18.3096 17.0472H13.9392V21.4176H18.3096V17.0472Z" fill="var(--fill-0, #6869AC)"/>
<path id="Vector_20" opacity="0.6" d="M18.3096 17.0472H13.9392V21.4176H18.3096V17.0472Z" fill="var(--fill-0, white)"/>
<path id="Vector_21" d="M26.2368 17.0472H21.8664V21.4176H26.2368V17.0472Z" fill="var(--fill-0, #6869AC)"/>
<path id="Vector_22" opacity="0.6" d="M26.2368 17.0472H21.8664V21.4176H26.2368V17.0472Z" fill="var(--fill-0, white)"/>
<path id="Vector_23" d="M34.164 17.0472H29.7936V21.4176H34.164V17.0472Z" fill="var(--fill-0, #6869AC)"/>
<path id="Vector_24" opacity="0.6" d="M34.164 17.0472H29.7936V21.4176H34.164V17.0472Z" fill="var(--fill-0, white)"/>
<path id="Vector_25" d="M104.585 47.7744H65.1168V63.8064H104.585V47.7744Z" fill="var(--fill-0, white)"/>
<path id="Vector_26" d="M104.587 63.7992C104.587 63.7992 104.587 63.7008 104.587 63.5136C104.587 63.3264 104.587 63.0456 104.587 62.6808C104.587 61.9488 104.587 60.876 104.575 59.4912C104.575 56.724 104.561 52.7208 104.551 47.7672L104.597 47.8128L65.1312 47.8296L65.196 47.7672C65.196 53.3832 65.196 58.8072 65.196 63.7992L65.136 63.7392L93.4248 63.7752L101.635 63.792H103.831H104.4H104.597H104.407H103.846H101.662L93.4656 63.8088L65.1264 63.8376H65.0688V63.7992C65.0688 58.8 65.0688 53.3832 65.0688 47.7672V47.7192H65.136L104.602 47.7384H104.645V47.7816C104.645 52.7472 104.626 56.7576 104.621 59.5416C104.621 60.9216 104.621 61.992 104.621 62.7216C104.621 63.0816 104.621 63.3576 104.621 63.5448C104.621 63.732 104.587 63.7992 104.587 63.7992Z" fill="var(--fill-0, #6869AC)"/>
<path id="Vector_27" d="M65.1576 49.9368C65.1576 49.9032 73.98 49.8744 84.8592 49.8744C95.7384 49.8744 104.563 49.9032 104.563 49.9368C104.563 49.9704 95.7432 49.9992 84.8592 49.9992C73.9752 49.9992 65.1576 49.9728 65.1576 49.9368Z" fill="var(--fill-0, #6869AC)"/>
<path id="Vector_28" d="M66.8088 48.9696C66.8088 49.0261 66.792 49.0813 66.7607 49.1283C66.7293 49.1752 66.6847 49.2118 66.6325 49.2335C66.5803 49.2551 66.5229 49.2607 66.4675 49.2497C66.4121 49.2387 66.3612 49.2115 66.3212 49.1715C66.2813 49.1316 66.2541 49.0807 66.2431 49.0253C66.2321 48.9699 66.2377 48.9125 66.2593 48.8603C66.281 48.8081 66.3176 48.7635 66.3645 48.7321C66.4115 48.7008 66.4667 48.684 66.5232 48.684C66.5989 48.684 66.6716 48.7141 66.7251 48.7677C66.7787 48.8212 66.8088 48.8939 66.8088 48.9696Z" fill="var(--fill-0, #6869AC)"/>
<path id="Vector_29" d="M67.7904 48.9696C67.7894 49.0259 67.7719 49.0806 67.7399 49.1269C67.708 49.1733 67.6631 49.2091 67.6108 49.23C67.5585 49.2509 67.5013 49.2559 67.4462 49.2443C67.3911 49.2328 67.3407 49.2052 67.3012 49.1651C67.2617 49.1249 67.235 49.074 67.2244 49.0188C67.2137 48.9635 67.2197 48.9063 67.2414 48.8544C67.2632 48.8025 67.2998 48.7582 67.3466 48.727C67.3935 48.6958 67.4485 48.6792 67.5048 48.6792C67.5427 48.6792 67.5802 48.6867 67.6152 48.7014C67.6502 48.716 67.6819 48.7375 67.7085 48.7645C67.735 48.7916 67.756 48.8236 67.77 48.8588C67.7841 48.894 67.791 48.9317 67.7904 48.9696Z" fill="var(--fill-0, #6869AC)"/>
<path id="Vector_30" d="M68.7576 48.9696C68.7566 49.0256 68.7393 49.08 68.7076 49.1262C68.676 49.1723 68.6315 49.2082 68.5796 49.2293C68.5278 49.2504 68.4709 49.2557 68.416 49.2448C68.3611 49.2338 68.3107 49.2069 68.2709 49.1675C68.2312 49.1281 68.2039 49.0779 68.1925 49.0231C68.181 48.9683 68.1859 48.9113 68.2066 48.8593C68.2272 48.8073 68.2627 48.7625 68.3086 48.7305C68.3545 48.6984 68.4088 48.6806 68.4648 48.6792C68.5033 48.6782 68.5416 48.685 68.5774 48.6993C68.6132 48.7135 68.6458 48.7348 68.6732 48.7619C68.7005 48.7891 68.7221 48.8214 68.7366 48.8571C68.7511 48.8928 68.7583 48.9311 68.7576 48.9696Z" fill="var(--fill-0, #6869AC)"/>
<g id="Group_3" opacity="0.6">
<path id="Vector_31" d="M66.8088 48.9696C66.8088 49.0261 66.792 49.0813 66.7607 49.1283C66.7293 49.1752 66.6847 49.2118 66.6325 49.2335C66.5803 49.2551 66.5229 49.2607 66.4675 49.2497C66.4121 49.2387 66.3612 49.2115 66.3212 49.1715C66.2813 49.1316 66.2541 49.0807 66.2431 49.0253C66.2321 48.9699 66.2377 48.9125 66.2593 48.8603C66.281 48.8081 66.3176 48.7635 66.3645 48.7321C66.4115 48.7008 66.4667 48.684 66.5232 48.684C66.5989 48.684 66.6716 48.7141 66.7251 48.7677C66.7787 48.8212 66.8088 48.8939 66.8088 48.9696Z" fill="var(--fill-0, white)"/>
<path id="Vector_32" d="M67.7904 48.9696C67.7894 49.0259 67.7719 49.0806 67.7399 49.1269C67.708 49.1733 67.6631 49.2091 67.6108 49.23C67.5585 49.2509 67.5013 49.2559 67.4462 49.2443C67.3911 49.2328 67.3407 49.2052 67.3012 49.1651C67.2617 49.1249 67.235 49.074 67.2244 49.0188C67.2137 48.9635 67.2197 48.9063 67.2414 48.8544C67.2632 48.8025 67.2998 48.7582 67.3466 48.727C67.3935 48.6958 67.4485 48.6792 67.5048 48.6792C67.5427 48.6792 67.5802 48.6867 67.6152 48.7014C67.6502 48.716 67.6819 48.7375 67.7085 48.7645C67.735 48.7916 67.756 48.8236 67.77 48.8588C67.7841 48.894 67.791 48.9317 67.7904 48.9696Z" fill="var(--fill-0, white)"/>
<path id="Vector_33" d="M68.7576 48.9696C68.7566 49.0256 68.7393 49.08 68.7076 49.1262C68.676 49.1723 68.6315 49.2082 68.5796 49.2293C68.5278 49.2504 68.4709 49.2557 68.416 49.2448C68.3611 49.2338 68.3107 49.2069 68.2709 49.1675C68.2312 49.1281 68.2039 49.0779 68.1925 49.0231C68.181 48.9683 68.1859 48.9113 68.2066 48.8593C68.2272 48.8073 68.2627 48.7625 68.3086 48.7305C68.3545 48.6984 68.4088 48.6806 68.4648 48.6792C68.5033 48.6782 68.5416 48.685 68.5774 48.6993C68.6132 48.7135 68.6458 48.7348 68.6732 48.7619C68.7005 48.7891 68.7221 48.8214 68.7366 48.8571C68.7511 48.8928 68.7583 48.9311 68.7576 48.9696Z" fill="var(--fill-0, white)"/>
</g>
<path id="Vector_34" d="M78.0048 52.5432H68.472V62.076H78.0048V52.5432Z" fill="var(--fill-0, #6869AC)"/>
<path id="Vector_35" opacity="0.6" d="M78.0048 52.5432H68.472V62.076H78.0048V52.5432Z" fill="var(--fill-0, white)"/>
<path id="Vector_36" d="M101.856 55.0968C101.856 55.1328 96.9504 55.1592 90.9 55.1592C84.8496 55.1592 79.944 55.1328 79.944 55.0968C79.944 55.0608 84.8472 55.0344 90.9 55.0344C96.9528 55.0344 101.856 55.0632 101.856 55.0968Z" fill="var(--fill-0, #6869AC)"/>
<path id="Vector_37" d="M101.856 57.0408C101.856 57.0744 96.9504 57.1032 90.9 57.1032C84.8496 57.1032 79.944 57.0744 79.944 57.0408C79.944 57.0072 84.8472 56.9784 90.9 56.9784C96.9528 56.9784 101.856 57.0048 101.856 57.0408Z" fill="var(--fill-0, #6869AC)"/>
<path id="Vector_38" d="M94.0488 58.9824C94.0014 58.9914 93.9531 58.9955 93.9048 58.9944H93.4944L91.9824 59.0136L86.9952 59.0328L82.008 59.0136L80.496 58.9944H80.0856C80.0381 58.9956 79.9906 58.9916 79.944 58.9824C79.9904 58.9717 80.0381 58.9676 80.0856 58.9704L80.496 58.9584L82.008 58.9368L86.9952 58.92L91.9824 58.9368L93.4944 58.9584L93.9048 58.9704C93.9531 58.9678 94.0016 58.9718 94.0488 58.9824Z" fill="var(--fill-0, #6869AC)"/>
</g>
</svg>
