<svg preserveAspectRatio="none" width="100%" height="100%" overflow="visible" style="display: block;" viewBox="0 0 11 14" fill="none" xmlns="http://www.w3.org/2000/svg">
<g id="freepik--Plant--inject-9">
<path id="Vector" d="M2.99293 9.15527e-07C3.34483 0.0581852 3.68128 0.187074 3.98199 0.378883C4.28269 0.570691 4.54141 0.821439 4.74253 1.116C5.14191 1.70899 5.40049 2.38541 5.49853 3.0936C5.72653 4.4496 5.35933 5.9928 4.85533 7.272C3.47053 6.624 2.73373 5.0112 2.40973 4.1688C1.90093 2.8392 1.78573 0.124801 2.99293 9.15527e-07Z" fill="var(--fill-0, #A2A3A8)"/>
<path id="Vector_2" d="M6.89533 9.1944C6.68678 8.8548 6.57201 8.46595 6.56274 8.06753C6.55346 7.6691 6.65001 7.27535 6.84253 6.9264C7.0401 6.58033 7.30463 6.27709 7.62069 6.03438C7.93675 5.79167 8.29799 5.61436 8.68333 5.51281C8.85552 5.44777 9.0398 5.42096 9.22338 5.43422C9.40697 5.44748 9.58547 5.5005 9.74653 5.58961C9.88162 5.69655 9.98544 5.83788 10.0471 5.99877C10.1087 6.15965 10.126 6.33417 10.0969 6.50401C10.0369 6.84443 9.88689 7.16262 9.66253 7.42561C8.94253 8.35681 8.07133 9.1248 6.89533 9.1944Z" fill="var(--fill-0, #A2A3A8)"/>
<path id="Vector_3" d="M6.54493 13.4832C6.51725 13.3904 6.50192 13.2944 6.49933 13.1976C6.48013 13.0128 6.45613 12.7464 6.43933 12.4128C6.37461 11.5449 6.42708 10.6723 6.59534 9.8184C6.77256 8.95606 7.18069 8.15805 7.77614 7.5096C7.95747 7.31583 8.16319 7.14642 8.38814 7.0056C8.46674 6.94831 8.55434 6.90451 8.64733 6.876C8.3652 7.09002 8.10038 7.32595 7.85534 7.5816C7.30201 8.23398 6.92082 9.01451 6.74653 9.852C6.58324 10.6945 6.51641 11.5528 6.54733 12.4104C6.56876 12.7677 6.56796 13.126 6.54493 13.4832Z" fill="var(--fill-0, #3E4551)"/>
<path id="Vector_4" d="M3.32413 2.0592C3.39668 2.20122 3.45535 2.34991 3.49933 2.5032C3.60253 2.7912 3.73933 3.2112 3.91453 3.732C4.25533 4.776 4.70173 6.2232 5.15533 7.8336C5.60893 9.444 5.98573 10.9152 6.23773 11.9808C6.36493 12.5136 6.46333 12.9408 6.52573 13.248C6.56761 13.4053 6.59572 13.5659 6.60973 13.728C6.54914 13.5805 6.50175 13.4279 6.46813 13.272L6.13213 12.0168C5.85133 10.9584 5.46013 9.4944 5.00893 7.8864C4.55773 6.2784 4.12573 4.824 3.80893 3.7752C3.65773 3.2688 3.53533 2.8488 3.43933 2.5296C3.38897 2.37598 3.35046 2.21871 3.32413 2.0592Z" fill="var(--fill-0, #3E4551)"/>
<path id="Vector_5" d="M5.05213 10.4736C4.7062 9.70767 4.18299 9.03506 3.52571 8.51132C2.86843 7.98759 2.09596 7.62777 1.27213 7.4616C0.852132 7.3824 0.336133 7.3944 0.103333 7.752C-0.129467 8.1096 0.0697333 8.5896 0.319333 8.9352C0.857496 9.64717 1.59422 10.184 2.4368 10.4783C3.27937 10.7725 4.19016 10.811 5.05453 10.5888" fill="var(--fill-0, #A2A3A8)"/>
<path id="Vector_6" d="M1.73053 8.6688C1.82348 8.6638 1.91663 8.67352 2.00653 8.6976C2.1145 8.7118 2.22121 8.73427 2.32573 8.7648C2.46544 8.79812 2.60324 8.83898 2.73853 8.8872C3.09296 9.01269 3.43388 9.1735 3.75613 9.3672C4.14927 9.60621 4.51541 9.88704 4.84814 10.2048C5.17661 10.5271 5.46875 10.8844 5.71933 11.2704C5.92278 11.5857 6.09328 11.921 6.22814 12.2712C6.28054 12.4048 6.32619 12.541 6.36493 12.6792C6.39804 12.7828 6.42371 12.8887 6.44174 12.996C6.46654 13.0851 6.47945 13.1771 6.48013 13.2696C6.45133 13.2696 6.37453 12.8904 6.12733 12.3096C5.98003 11.9751 5.80418 11.6539 5.60174 11.3496C5.34973 10.9784 5.06195 10.6327 4.74253 10.3176C4.41752 10.0075 4.06213 9.73092 3.68174 9.492C3.37044 9.29735 3.04185 9.13185 2.70013 8.9976C2.12413 8.76 1.72573 8.6976 1.73053 8.6688Z" fill="var(--fill-0, #3E4551)"/>
</g>
</svg>
