<svg preserveAspectRatio="none" width="100%" height="100%" overflow="visible" style="display: block;" viewBox="0 0 120 120" fill="none" xmlns="http://www.w3.org/2000/svg">
<g id="File bundle-pana 1">
<g id="freepik--Floor--inject-2">
<path id="Vector" d="M111.672 112.632C111.672 112.668 88.3464 112.694 59.592 112.694C30.8376 112.694 7.4952 112.668 7.4952 112.632C7.4952 112.596 30.816 112.57 59.592 112.57C88.368 112.57 111.672 112.598 111.672 112.632Z" fill="var(--fill-0, #3E4551)"/>
</g>
<g id="freepik--Character--inject-2">
<path id="Vector_2" d="M55.0344 39.0792C55.0344 39.0792 57.504 36.8544 57.8592 36.7176C58.2144 36.5808 61.0848 36.4128 61.284 36.5496C61.4832 36.6864 64.4544 38.1648 63.9816 38.4288C63.5088 38.6928 61.44 37.6296 61.44 37.6296L61.1016 37.6872C61.1016 37.6872 62.8968 38.556 63.2256 38.9064C63.5544 39.2568 63.2664 39.6264 62.9328 39.4968C62.5992 39.3672 61.0536 38.5368 60.936 38.5848C60.8184 38.6328 62.5872 39.564 62.7528 39.744C62.976 39.984 62.8584 40.4808 62.5128 40.3536C62.3136 40.2768 60.6792 39.2856 60.6792 39.2856C60.6792 39.2856 61.92 40.2456 62.0136 40.4136C62.1648 40.6776 61.9032 40.9344 61.62 40.7736C61.4256 40.6656 60.5736 39.8928 60.312 39.7464C60.312 39.7464 60.0288 39.7464 59.6328 40.1952C59.4432 40.4136 58.4328 41.6352 57.6192 41.0976L56.7216 41.7984L55.0344 39.0792Z" fill="var(--fill-0, #FFBE9D)"/>
<path id="Vector_3" d="M63.9744 38.4336C63.7693 38.472 63.5583 38.4671 63.3552 38.4192C63.1327 38.3844 62.9141 38.3281 62.7024 38.2512C62.4624 38.1528 62.2224 38.0376 61.9584 37.9176L61.3992 37.656H61.4352C60.9437 37.7029 60.4491 37.7077 59.9568 37.6704C60.4419 37.5758 60.934 37.522 61.428 37.5096H61.44H61.4592L62.0136 37.7616L62.748 38.1048C62.9509 38.185 63.1595 38.25 63.372 38.2992C63.7416 38.4 63.9744 38.4 63.9744 38.4336Z" fill="var(--fill-0, #EB996E)"/>
<path id="Vector_4" d="M66.48 48L58.716 46.08C58.5883 46.0485 58.4681 45.9922 58.3622 45.9143C58.2563 45.8363 58.1668 45.7382 58.0989 45.6257C58.0309 45.5131 57.9857 45.3883 57.966 45.2583C57.9463 45.1283 57.9524 44.9956 57.984 44.868L60.624 34.1208C60.6903 33.8678 60.853 33.6508 61.0772 33.5162C61.3015 33.3816 61.5696 33.3402 61.824 33.4008L66.7488 34.6008L69.5928 39.4704L67.6728 47.2584C67.6112 47.5139 67.4515 47.7348 67.2283 47.8736C67.0052 48.0123 66.7364 48.0577 66.48 48Z" fill="var(--fill-0, #6869AC)"/>
<path id="Vector_5" d="M66.7752 34.608L66.0312 37.6344C66.0016 37.7536 65.996 37.8774 66.0147 37.9988C66.0334 38.1202 66.076 38.2366 66.1401 38.3413C66.2042 38.4461 66.2884 38.537 66.388 38.6089C66.4876 38.6808 66.6004 38.7321 66.72 38.76L69.6288 39.48L66.7752 34.608Z" fill="var(--fill-0, #6869AC)"/>
<path id="Vector_6" d="M65.4096 37.3488C65.4096 37.3896 64.5888 37.2216 63.5952 36.9768C62.9899 36.8532 62.3953 36.6823 61.8168 36.4656C62.4303 36.5423 63.037 36.6667 63.6312 36.8376C64.2361 36.9625 64.8307 37.1334 65.4096 37.3488Z" fill="var(--fill-0, #FAFAFA)"/>
<path id="Vector_7" d="M67.308 39.6312C67.308 39.6696 65.9664 39.3768 64.3344 38.9736C62.7024 38.5704 61.3872 38.2152 61.3968 38.1744C61.4064 38.1336 62.736 38.4312 64.3704 38.832C66.0048 39.2328 67.3176 39.6 67.308 39.6312Z" fill="var(--fill-0, #FAFAFA)"/>
<path id="Vector_8" d="M67.488 41.1912C67.488 41.2296 66.0288 40.9056 64.2504 40.4712C62.472 40.0368 61.0344 39.648 61.044 39.6072C61.0536 39.5664 62.5032 39.8928 64.284 40.3272C66.0648 40.7616 67.4976 41.1528 67.488 41.1912Z" fill="var(--fill-0, #FAFAFA)"/>
<path id="Vector_9" d="M67.1568 42.5376C67.1568 42.576 65.6976 42.252 63.9168 41.8176C62.136 41.3832 60.7032 40.992 60.7128 40.9536C60.7224 40.9152 62.172 41.2392 63.9528 41.6736C65.7336 42.108 67.1664 42.4992 67.1568 42.5376Z" fill="var(--fill-0, #FAFAFA)"/>
<path id="Vector_10" d="M66.8256 43.8864C66.8256 43.9248 65.3664 43.6008 63.5856 43.1664C61.8048 42.732 60.372 42.3408 60.3816 42.3024C60.3912 42.264 61.8408 42.588 63.6216 43.0224C65.4024 43.4568 66.8352 43.8456 66.8256 43.8864Z" fill="var(--fill-0, #FAFAFA)"/>
<path id="Vector_11" d="M66.4944 45.2328C66.4944 45.2712 65.0328 44.9472 63.2544 44.5128C61.476 44.0784 60.0384 43.6872 60.048 43.6488C60.0576 43.6104 61.5096 43.932 63.288 44.3688C65.0664 44.8056 66.504 45.1944 66.4944 45.2328Z" fill="var(--fill-0, #FAFAFA)"/>
<path id="Vector_12" d="M56.8632 39.2304C56.9458 39.3369 57.0594 39.4152 57.1884 39.4543C57.3174 39.4934 57.4553 39.4915 57.5832 39.4488C57.8472 39.3816 58.08 39.228 58.3392 39.1416C59.1096 38.8848 59.9952 39.2688 60.7536 38.976C60.8592 38.9352 60.9768 38.8512 60.96 38.736C60.9432 38.6208 60.8256 38.5848 60.72 38.5584L58.1232 37.8384" fill="var(--fill-0, #FFBE9D)"/>
<path id="Vector_13" d="M58.1328 37.8432C58.2305 37.8482 58.3272 37.8651 58.4208 37.8936C58.6056 37.9344 58.8696 37.9968 59.1936 38.0808L60.3336 38.3784L60.6624 38.4648C60.8018 38.4803 60.9294 38.5502 61.0176 38.6592C61.0364 38.6977 61.0436 38.7409 61.0385 38.7834C61.0334 38.826 61.0161 38.8662 60.9888 38.8992C60.9395 38.955 60.8779 38.9985 60.8088 39.0264C60.6851 39.075 60.5563 39.1096 60.4248 39.1296C59.8944 39.204 59.4072 39.1008 58.9728 39.108C58.769 39.1045 58.5659 39.132 58.3704 39.1896C58.1904 39.2472 58.0272 39.3312 57.8688 39.396C57.7459 39.4599 57.6106 39.4964 57.4722 39.503C57.3338 39.5096 57.1957 39.4862 57.0672 39.4344C56.8872 39.3384 56.856 39.2184 56.8632 39.2184C56.9286 39.2856 57.0059 39.3401 57.0912 39.3792C57.2127 39.4175 57.3408 39.4299 57.4673 39.4154C57.5939 39.4009 57.7159 39.36 57.8256 39.2952C57.9768 39.228 58.1376 39.1368 58.332 39.0672C58.5383 39.0009 58.7537 38.9669 58.9704 38.9664C59.424 38.952 59.9112 39.048 60.4104 38.9664C60.5294 38.9499 60.6461 38.9201 60.7584 38.8776C60.8616 38.8344 60.9312 38.7552 60.8952 38.7072C60.8592 38.6592 60.7464 38.616 60.6336 38.5848L60.3072 38.4936L59.1744 38.1624C58.8528 38.0688 58.5936 37.9872 58.416 37.9224C58.3182 37.9101 58.2228 37.8834 58.1328 37.8432Z" fill="var(--fill-0, #EB996E)"/>
<path id="Vector_14" d="M17.0736 104.05L15.5424 110.124L12.96 114.578C12.9156 114.654 12.8873 114.739 12.8769 114.826C12.8664 114.914 12.874 115.002 12.8992 115.087C12.9244 115.171 12.9667 115.249 13.0234 115.317C13.08 115.384 13.15 115.439 13.2288 115.478C13.3198 115.525 13.4205 115.55 13.5228 115.55C13.6251 115.55 13.7258 115.525 13.8168 115.478C14.9832 114.85 19.2576 112.514 19.3368 112.063C19.4376 111.542 21.3768 105.763 21.3768 105.763L17.0736 104.05Z" fill="var(--fill-0, #6869AC)"/>
<g id="Group" opacity="0.6">
<path id="Vector_15" d="M13.2168 115.478L19.4568 111.638L19.3848 111.895C19.3248 112.116 19.1878 112.309 18.9984 112.438C18.48 112.8 17.0568 113.71 13.824 115.474C13.7305 115.523 13.6262 115.549 13.5204 115.549C13.4146 115.549 13.3103 115.523 13.2168 115.474V115.478Z" fill="var(--fill-0, white)"/>
</g>
<g id="Group_2" opacity="0.6">
<path id="Vector_16" d="M18.7464 109.356C18.6566 109.39 18.5824 109.455 18.5381 109.54C18.4938 109.625 18.4825 109.724 18.5064 109.817C18.5367 109.907 18.6007 109.983 18.6852 110.028C18.7696 110.072 18.868 110.083 18.96 110.057C19.051 110.019 19.1253 109.95 19.1693 109.861C19.2134 109.773 19.2243 109.672 19.2 109.577C19.158 109.486 19.0823 109.414 18.9888 109.377C18.8953 109.341 18.7912 109.342 18.6984 109.38" fill="var(--fill-0, white)"/>
</g>
<path id="Vector_17" d="M15.3264 113.222C15.2345 112.993 15.0992 112.784 14.928 112.606C14.7299 112.457 14.5062 112.347 14.268 112.279C14.268 112.265 14.3568 112.238 14.508 112.258C14.6998 112.285 14.8792 112.369 15.024 112.498C15.1689 112.625 15.2739 112.792 15.3264 112.978C15.36 113.129 15.3432 113.22 15.3264 113.222Z" fill="var(--fill-0, #3E4551)"/>
<path id="Vector_18" d="M14.6736 113.911C14.6376 113.928 14.4984 113.671 14.2104 113.503C14.0256 113.412 13.8357 113.332 13.6416 113.263C13.7507 113.232 13.8656 113.227 13.977 113.249C14.0883 113.27 14.193 113.318 14.2824 113.388C14.6088 113.59 14.7096 113.904 14.6736 113.911Z" fill="var(--fill-0, #3E4551)"/>
<path id="Vector_19" d="M16.4136 112.406C16.2064 112.165 15.9818 111.938 15.7416 111.73C15.4742 111.557 15.1943 111.404 14.904 111.274C15.2419 111.275 15.5681 111.398 15.8232 111.619C16.1075 111.803 16.3168 112.082 16.4136 112.406Z" fill="var(--fill-0, #3E4551)"/>
<path id="Vector_20" d="M17.04 110.599C17.0136 110.63 16.7184 110.4 16.2888 110.263C15.8592 110.126 15.4872 110.136 15.4848 110.095C15.763 110.009 16.0627 110.022 16.332 110.134C16.6155 110.201 16.8662 110.365 17.04 110.599Z" fill="var(--fill-0, #3E4551)"/>
<path id="Vector_21" d="M17.52 108.828C17.2806 108.669 17.0206 108.544 16.7472 108.456C16.4647 108.41 16.1771 108.404 15.8928 108.437C15.8928 108.422 15.972 108.365 16.1328 108.322C16.3456 108.272 16.5669 108.273 16.7793 108.324C16.9917 108.375 17.1894 108.474 17.3568 108.614C17.4888 108.72 17.5392 108.816 17.52 108.828Z" fill="var(--fill-0, #3E4551)"/>
<path id="Vector_22" d="M16.86 108.122C16.86 108.122 16.86 108.036 16.9152 107.882C16.9922 107.679 17.1098 107.492 17.2608 107.335C17.3621 107.214 17.5004 107.13 17.6544 107.095C17.707 107.086 17.7611 107.095 17.8089 107.118C17.8567 107.142 17.8958 107.18 17.9208 107.227C17.9627 107.321 17.9696 107.427 17.94 107.525C17.8707 107.724 17.734 107.893 17.5534 108.002C17.3728 108.111 17.1598 108.154 16.9512 108.122C16.7459 108.088 16.5555 107.993 16.4042 107.849C16.253 107.706 16.1476 107.521 16.1016 107.318C16.0897 107.267 16.0893 107.214 16.1005 107.162C16.1117 107.111 16.1342 107.062 16.1664 107.021C16.2011 106.98 16.2486 106.951 16.3012 106.941C16.3539 106.93 16.4087 106.937 16.4568 106.961C16.597 107.036 16.7153 107.146 16.8 107.28C16.9268 107.457 17.0218 107.654 17.0808 107.863C17.1095 107.94 17.1218 108.022 17.1168 108.103C17.0217 107.833 16.8884 107.577 16.7208 107.345C16.6443 107.231 16.5403 107.139 16.4184 107.076C16.3923 107.063 16.3625 107.059 16.3339 107.065C16.3052 107.07 16.2792 107.085 16.26 107.107C16.241 107.136 16.2284 107.168 16.223 107.202C16.2176 107.236 16.2196 107.271 16.2288 107.304C16.2734 107.478 16.3673 107.636 16.4992 107.759C16.6311 107.881 16.7955 107.964 16.9728 107.995C17.1494 108.021 17.3294 107.985 17.4834 107.895C17.6373 107.805 17.756 107.665 17.82 107.498C17.8454 107.431 17.8454 107.357 17.82 107.29C17.8068 107.264 17.7858 107.243 17.7599 107.229C17.7341 107.216 17.7048 107.211 17.676 107.215C17.5447 107.248 17.4265 107.32 17.3376 107.422C17.1386 107.625 16.9769 107.863 16.86 108.122Z" fill="var(--fill-0, #3E4551)"/>
<path id="Vector_23" d="M37.56 104.849L37.2216 109.951C37.2216 109.951 42.3 111.631 42.3312 112.591L32.4072 112.663L32.6064 104.69L37.56 104.849Z" fill="var(--fill-0, #6869AC)"/>
<g id="Group_3" opacity="0.6">
<path id="Vector_24" d="M34.1688 109.44C34.0721 109.466 33.9883 109.526 33.9338 109.61C33.8792 109.694 33.8578 109.795 33.8736 109.894C33.8966 109.991 33.9559 110.076 34.0393 110.13C34.1228 110.185 34.224 110.206 34.3224 110.189C34.4234 110.16 34.5104 110.096 34.567 110.007C34.6236 109.919 34.6459 109.813 34.6296 109.709C34.5956 109.61 34.5246 109.528 34.4316 109.48C34.3386 109.432 34.2307 109.422 34.1304 109.452" fill="var(--fill-0, white)"/>
</g>
<g id="Group_4" opacity="0.6">
<path id="Vector_25" d="M32.4 112.658L32.4192 111.854L42.0048 112.121C42.1064 112.172 42.1935 112.249 42.2581 112.343C42.3227 112.436 42.3627 112.545 42.3744 112.658H32.4Z" fill="var(--fill-0, white)"/>
</g>
<path id="Vector_26" d="M37.3848 109.906C37.3848 109.956 37.1448 109.97 36.9048 110.119C36.6648 110.268 36.528 110.467 36.4848 110.446C36.4416 110.424 36.5208 110.148 36.8184 109.966C37.116 109.783 37.3968 109.862 37.3848 109.906Z" fill="var(--fill-0, #3E4551)"/>
<path id="Vector_27" d="M38.412 110.369C38.412 110.414 38.208 110.491 38.0376 110.69C37.8672 110.89 37.8144 111.106 37.764 111.103C37.7136 111.101 37.6944 110.825 37.9104 110.58C38.1264 110.335 38.412 110.323 38.412 110.369Z" fill="var(--fill-0, #3E4551)"/>
<path id="Vector_28" d="M38.964 111.631C38.9208 111.631 38.8608 111.391 38.9928 111.134C39.1248 110.878 39.3552 110.774 39.3744 110.815C39.3936 110.856 39.2496 110.995 39.1344 111.211C39.0192 111.427 39.012 111.629 38.964 111.631Z" fill="var(--fill-0, #3E4551)"/>
<path id="Vector_29" d="M37.332 108.734C37.3104 108.778 37.092 108.706 36.816 108.715C36.54 108.725 36.336 108.806 36.3024 108.763C36.2688 108.72 36.4872 108.554 36.8112 108.547C37.1352 108.54 37.356 108.698 37.332 108.734Z" fill="var(--fill-0, #3E4551)"/>
<g id="Group_5" opacity="0.3">
<path id="Vector_30" d="M37.4928 105.859L37.4328 106.769L32.5584 106.577L32.5776 105.756L37.4928 105.859Z" fill="var(--fill-0, #101723)"/>
</g>
<path id="Vector_31" d="M37.3824 107.705C37.218 107.742 37.0466 107.736 36.8856 107.686C36.7065 107.651 36.5329 107.592 36.3696 107.51C36.272 107.465 36.1781 107.412 36.0888 107.352C36.0337 107.319 35.9842 107.278 35.9424 107.23C35.9113 107.195 35.8929 107.15 35.8903 107.104C35.8877 107.057 35.901 107.011 35.928 106.973C35.9529 106.939 35.9856 106.912 36.0232 106.894C36.0607 106.875 36.1022 106.866 36.144 106.867C36.2068 106.869 36.269 106.879 36.3288 106.898C36.4344 106.928 36.5372 106.966 36.636 107.014C36.8001 107.096 36.9513 107.202 37.0848 107.328C37.308 107.549 37.38 107.731 37.3632 107.741C37.3464 107.75 37.2336 107.602 37.0056 107.419C36.8719 107.313 36.7251 107.224 36.5688 107.155C36.4782 107.115 36.3843 107.083 36.288 107.059C36.1824 107.028 36.0936 107.023 36.0648 107.071C36.036 107.119 36.0528 107.095 36.0648 107.126C36.0963 107.161 36.1327 107.191 36.1728 107.215C36.2555 107.273 36.3412 107.326 36.4296 107.374C36.583 107.454 36.7437 107.52 36.9096 107.57C37.0701 107.604 37.228 107.649 37.3824 107.705Z" fill="var(--fill-0, #3E4551)"/>
<path id="Vector_32" d="M37.3152 107.772C37.227 107.628 37.1866 107.46 37.2 107.292C37.1958 107.108 37.2242 106.926 37.284 106.752C37.3187 106.649 37.3637 106.549 37.4184 106.454C37.448 106.39 37.4934 106.334 37.5505 106.292C37.6076 106.25 37.6745 106.223 37.7448 106.214C37.7883 106.218 37.8301 106.233 37.8656 106.258C37.9011 106.284 37.9291 106.318 37.9464 106.358C37.9704 106.418 37.9857 106.48 37.992 106.543C38.009 106.654 38.009 106.766 37.992 106.877C37.959 107.062 37.8807 107.236 37.764 107.383C37.5624 107.635 37.3584 107.688 37.356 107.671C37.3536 107.654 37.512 107.558 37.668 107.316C37.758 107.176 37.8162 107.018 37.8384 106.853C37.8516 106.757 37.8516 106.66 37.8384 106.565C37.8264 106.459 37.7904 106.373 37.7496 106.382C37.7088 106.392 37.6128 106.457 37.5696 106.541C37.5186 106.623 37.4753 106.71 37.44 106.8C37.3797 106.958 37.3417 107.124 37.3272 107.292C37.296 107.582 37.3416 107.76 37.3152 107.772Z" fill="var(--fill-0, #3E4551)"/>
<path id="Vector_33" d="M37.56 60.5184L22.44 60.4032L15.1344 108.391L21.408 109.188L29.4504 69.7296L31.8576 109.327L31.8648 109.445L38.6496 109.327L37.56 60.5184Z" fill="var(--fill-0, #3E4551)"/>
<path id="Vector_34" d="M29.9568 68.6976C29.9526 68.5016 29.9654 68.3057 29.9952 68.112C30.0312 67.752 30.0696 67.2552 30.0864 66.7056C30.1032 66.156 30.0864 65.6568 30.0864 65.2944C30.0701 65.0987 30.0701 64.902 30.0864 64.7064C30.1415 64.8962 30.1729 65.0921 30.18 65.2896C30.2219 65.7612 30.2355 66.2348 30.2208 66.708C30.2078 67.1814 30.1653 67.6535 30.0936 68.1216C30.0719 68.3185 30.026 68.512 29.9568 68.6976Z" fill="var(--fill-0, #4E5159)"/>
<path id="Vector_35" d="M31.2 64.8456C31.2 64.8456 31.2264 64.8168 31.2888 64.812C31.3789 64.8066 31.4681 64.8329 31.5408 64.8864C31.5967 64.9255 31.6427 64.9771 31.6752 65.0371C31.7077 65.0971 31.7258 65.1638 31.728 65.232C31.721 65.3174 31.6893 65.3989 31.6366 65.4664C31.5839 65.5339 31.5126 65.5846 31.4315 65.6122C31.3504 65.6397 31.263 65.6429 31.1801 65.6214C31.0971 65.5999 31.0223 65.5547 30.9648 65.4912C30.9244 65.4355 30.8978 65.3709 30.8874 65.3029C30.8769 65.2348 30.8829 65.1653 30.9048 65.1C30.9292 65.0135 30.9837 64.9386 31.0584 64.8888C31.1112 64.8576 31.1472 64.8576 31.1496 64.8624C31.152 64.8672 31.0272 64.9344 30.9888 65.124C30.9779 65.175 30.978 65.2277 30.9892 65.2786C31.0004 65.3295 31.0223 65.3775 31.0536 65.4192C31.0958 65.4645 31.1508 65.4959 31.2112 65.5092C31.2716 65.5225 31.3347 65.517 31.392 65.4936C31.4514 65.4776 31.5045 65.4436 31.544 65.3964C31.5835 65.3492 31.6075 65.291 31.6128 65.2296C31.6125 65.1775 31.601 65.1262 31.579 65.0789C31.5571 65.0317 31.5252 64.9898 31.4856 64.956C31.4029 64.8927 31.3038 64.8543 31.2 64.8456Z" fill="var(--fill-0, #4E5159)"/>
<path id="Vector_36" d="M27.3312 63.8784C27.3312 63.8784 27.2856 63.9312 27.192 64.0056C27.0574 64.1102 26.9127 64.201 26.76 64.2768C26.5306 64.3921 26.2892 64.4814 26.04 64.5432C25.7391 64.6175 25.4307 64.657 25.1208 64.6608C24.81 64.6583 24.5006 64.6188 24.1992 64.5432C23.9499 64.4819 23.7084 64.3926 23.4792 64.2768C23.3271 64.2014 23.1831 64.1105 23.0496 64.0056C22.9536 63.9312 22.9056 63.888 22.9104 63.8808C22.9152 63.8736 23.1336 64.0224 23.5176 64.1976C23.7425 64.2989 23.9763 64.3792 24.216 64.4376C24.51 64.5032 24.81 64.5378 25.1112 64.5408C25.4114 64.5353 25.7104 64.5007 26.004 64.4376C26.2437 64.3793 26.4775 64.2989 26.7024 64.1976C27.1056 64.0224 27.3168 63.8592 27.3312 63.8784Z" fill="var(--fill-0, #4E5159)"/>
<path id="Vector_37" d="M36.6888 64.896C36.5586 64.9527 36.4181 64.9821 36.276 64.9824C35.5845 65.0318 34.8977 64.8355 34.3368 64.428C34.1256 64.272 34.0224 64.1472 34.032 64.1352C34.4212 64.3997 34.8453 64.6089 35.292 64.7568C35.7493 64.8655 36.2191 64.9123 36.6888 64.896Z" fill="var(--fill-0, #4E5159)"/>
<path id="Vector_38" d="M17.52 108.828C17.5385 108.795 17.553 108.761 17.5632 108.725C17.5872 108.656 17.616 108.55 17.6496 108.408C17.7168 108.127 17.8056 107.71 17.916 107.17C18.132 106.092 18.4248 104.53 18.7776 102.593C19.4808 98.7216 20.4216 93.3696 21.456 87.4584C22.4904 81.5472 23.4384 76.1976 24.12 72.3168C24.4704 70.3968 24.7536 68.8224 24.9504 67.7328C25.0512 67.1976 25.128 66.7728 25.1904 66.4872C25.2168 66.3504 25.2384 66.2472 25.2552 66.1656C25.272 66.084 25.2816 66.0552 25.2816 66.0552C25.2816 66.0552 25.2816 66.0936 25.2672 66.168C25.2528 66.2424 25.2384 66.3552 25.2144 66.492C25.1664 66.7848 25.0944 67.212 25.0056 67.7424C24.8184 68.832 24.5472 70.3992 24.216 72.3336C23.5416 76.2144 22.6128 81.5664 21.576 87.48C20.5392 93.3936 19.5864 98.7432 18.8592 102.6C18.4968 104.52 18.1896 106.094 17.9568 107.16C17.724 108.226 17.5728 108.847 17.52 108.828Z" fill="var(--fill-0, #4E5159)"/>
<path id="Vector_39" d="M36.7968 108.286C36.7946 108.249 36.7946 108.212 36.7968 108.175C36.7968 108.096 36.7968 107.99 36.7968 107.851C36.7968 107.558 36.7968 107.131 36.7848 106.603C36.7728 106.075 36.7848 105.403 36.7656 104.626C36.7464 103.848 36.7464 102.979 36.72 102.01C36.6816 100.07 36.6072 97.764 36.4968 95.2032C36.3864 92.6424 36.216 89.8272 35.9976 86.8776C35.7792 83.928 35.5176 81.1176 35.2488 78.5712C34.98 76.0248 34.7064 73.728 34.4544 71.8056C34.3344 70.8456 34.2144 69.9744 34.1064 69.2112C33.9984 68.448 33.912 67.7904 33.8328 67.2552C33.7536 66.72 33.6984 66.2952 33.6576 66.0192C33.6408 65.8824 33.6264 65.7792 33.6168 65.6976C33.6072 65.616 33.6048 65.5872 33.6048 65.5872C33.6048 65.5872 33.6048 65.6232 33.6288 65.6952C33.6528 65.7672 33.66 65.8776 33.684 66.0144C33.7296 66.3024 33.7968 66.7176 33.8808 67.248C33.9648 67.7784 34.068 68.448 34.176 69.2016C34.284 69.9552 34.416 70.8312 34.5408 71.7936C34.8048 73.7136 35.0856 76.008 35.364 78.5568C35.6424 81.1056 35.8992 83.916 36.1224 86.868C36.3456 89.82 36.4992 92.628 36.6024 95.1984C36.7056 97.7688 36.7728 100.068 36.7992 102.007C36.8184 102.967 36.8184 103.855 36.8256 104.626C36.8328 105.396 36.8256 106.066 36.8256 106.603C36.8256 107.141 36.8256 107.563 36.8256 107.851C36.8256 107.99 36.8256 108.091 36.8256 108.175C36.8256 108.259 36.7968 108.286 36.7968 108.286Z" fill="var(--fill-0, #4E5159)"/>
<path id="Vector_40" d="M37.9464 54.2856C37.9464 54.228 37.9464 54.1632 37.9464 54.0936V54.2856Z" fill="var(--fill-0, #6869AC)"/>
<path id="Vector_41" d="M37.0728 35.112C36.888 34.956 33.7608 34.5576 33.7608 34.5576C32.1192 34.5096 29.64 34.1832 27.8688 34.3728C25.9687 35.0443 24.106 35.8174 22.2888 36.6888C21.269 37.3838 20.5664 38.4549 20.3352 39.6672L23.04 54.8376L21.9 61.68C21.7224 63.2352 27.5064 63.9312 30.96 64.2072C32.5491 64.3339 34.1437 64.0418 35.5848 63.36L38.0208 62.2056C38.0258 62.2063 38.0309 62.2059 38.0357 62.2044C38.0406 62.2029 38.045 62.2003 38.0487 62.1969C38.0524 62.1934 38.0552 62.1892 38.0571 62.1844C38.0589 62.1797 38.0596 62.1746 38.0592 62.1696L37.9464 54.2832L39.3744 39.192C39.5664 37.8528 38.112 35.9856 37.0728 35.112Z" fill="var(--fill-0, #6869AC)"/>
<path id="Vector_42" d="M33.9624 34.9728C33.9624 34.9728 37.1808 34.7976 38.796 35.5896C40.4112 36.3816 47.5344 41.28 47.5344 41.28L54.8352 38.5752L57.4176 42.0768L51.0936 46.6848C50.3477 47.1888 49.4869 47.4969 48.5906 47.5808C47.6943 47.6646 46.7913 47.5216 45.9648 47.1648L37.7736 43.92L33.9624 34.9728Z" fill="var(--fill-0, #6869AC)"/>
<path id="Vector_43" d="M39.0936 41.2416C39.1368 41.2416 38.9352 43.6416 38.6424 46.5888C38.3496 49.536 38.0808 51.9216 38.0376 51.9168C37.9944 51.912 38.196 49.5168 38.4888 46.572C38.7816 43.6272 39.0528 41.2392 39.0936 41.2416Z" fill="var(--fill-0, #3E4551)"/>
<g id="Group_6" opacity="0.3">
<path id="Vector_44" d="M22.4832 58.4184L22.2432 59.6616C23.9928 59.8776 25.6032 60.024 27.3624 60.24L34.5432 61.1232C35.1048 61.1928 35.7072 61.2552 36.2232 60.9984C36.996 60.6024 37.2456 59.6232 37.2888 58.7568C37.332 57.8904 37.272 56.964 37.7184 56.2224C32.5176 56.82 27.6264 57.5184 22.4832 58.4184Z" fill="var(--fill-0, #101723)"/>
</g>
<g id="Group_7" opacity="0.3">
<path id="Vector_45" d="M25.3632 52.4544C26.0527 49.59 26.9782 46.7876 28.1304 44.076C27.8325 47.0345 27.3029 49.9651 26.5464 52.8408" fill="var(--fill-0, #101723)"/>
</g>
<path id="Vector_46" d="M25.1808 40.6968C24.936 40.1579 24.6026 39.6638 24.1944 39.2352C23.7593 38.8352 23.2604 38.5107 22.7184 38.2752C22.8955 38.2935 23.0674 38.3457 23.2248 38.4288C23.6183 38.6027 23.9769 38.8466 24.2832 39.1488C24.5891 39.451 24.8386 39.8053 25.02 40.1952C25.104 40.3511 25.1585 40.5211 25.1808 40.6968Z" fill="var(--fill-0, #3E4551)"/>
<path id="Vector_47" d="M39.12 38.6784C39.0138 38.2666 38.9479 37.8454 38.9232 37.4208C38.8566 36.9995 38.8317 36.5726 38.8488 36.1464C38.9546 36.5591 39.0205 36.9811 39.0456 37.4064C39.1121 37.8269 39.137 38.253 39.12 38.6784Z" fill="var(--fill-0, #3E4551)"/>
<path id="Vector_48" d="M47.9568 44.724C47.8532 44.5822 47.7722 44.4251 47.7168 44.2584C47.5598 43.8636 47.4565 43.4495 47.4096 43.0272C47.3632 42.6044 47.3754 42.1771 47.4456 41.7576C47.4627 41.5821 47.5098 41.4108 47.5848 41.2512C47.5082 41.8352 47.4913 42.4254 47.5344 43.0128C47.6188 43.5957 47.7603 44.1688 47.9568 44.724Z" fill="var(--fill-0, #3E4551)"/>
<g id="Group_8" opacity="0.3">
<path id="Vector_49" d="M47.52 41.3304C47.2176 41.5944 47.1528 42.0312 47.1288 42.432C47.0948 43.029 47.1101 43.6279 47.1744 44.2224C47.1927 44.5503 47.2794 44.8707 47.4288 45.1632C47.4541 45.2191 47.4905 45.2693 47.5359 45.3106C47.5813 45.3518 47.6347 45.3834 47.6928 45.4032C47.9016 45.4512 48.0888 45.2256 48.0936 45.012C48.077 44.7984 48.0078 44.5923 47.892 44.412C47.4445 43.5178 47.3134 42.4983 47.52 41.52" fill="var(--fill-0, #101723)"/>
</g>
<path id="Vector_50" d="M37.2792 35.4192C37.2776 35.4754 37.2728 35.5315 37.2648 35.5872C37.2528 35.6976 37.2384 35.8608 37.2048 36.0672C37.1124 36.6654 36.9817 37.257 36.8136 37.8384C36.2455 39.8215 35.2777 41.6673 33.9696 43.2624L33.9408 43.2984L33.9 43.2792C33.3024 43.0176 32.6856 42.7392 32.0688 42.4296C29.8215 41.3093 27.6966 39.9589 25.728 38.4C24.972 37.8024 24.3912 37.284 23.9904 36.924L23.5392 36.4992L23.424 36.3864C23.4105 36.3733 23.3985 36.3588 23.388 36.3432C23.4045 36.3526 23.4198 36.3638 23.4336 36.3768L23.556 36.48C23.6712 36.5808 23.8272 36.72 24.0216 36.888C24.432 37.236 25.0224 37.7424 25.7808 38.328C27.7597 39.8604 29.8843 41.1948 32.124 42.312C32.7384 42.6216 33.3552 42.9 33.948 43.1616L33.876 43.1784C35.1756 41.5967 36.148 39.7726 36.7368 37.812C36.9102 37.2354 37.052 36.6497 37.1616 36.0576C37.2024 35.8488 37.2216 35.6856 37.2432 35.5776C37.2496 35.5237 37.2617 35.4706 37.2792 35.4192Z" fill="var(--fill-0, #FAFAFA)"/>
<path id="Vector_51" d="M36.1488 35.2944C36.1432 35.3398 36.1344 35.3847 36.1224 35.4288C36.0984 35.5152 36.0696 35.6448 36.0216 35.808C35.9304 36.1368 35.7816 36.612 35.5752 37.1952C35.0184 38.7447 34.3001 40.2313 33.432 41.6304L33.3984 41.6856L33.3456 41.6496L32.2008 40.8648L27.372 37.5288L25.92 36.5064L25.5288 36.2232C25.4808 36.1933 25.4365 36.1579 25.3968 36.1176C25.448 36.1422 25.4969 36.1711 25.5432 36.204L25.9488 36.468L27.4248 37.4568L32.2728 40.7616L33.4176 41.5488L33.3288 41.5656C34.1951 40.1735 34.9233 38.7001 35.5032 37.1664C35.7192 36.5904 35.8776 36.12 35.9832 35.796L36.1032 35.424C36.113 35.3791 36.1283 35.3356 36.1488 35.2944Z" fill="var(--fill-0, #FAFAFA)"/>
<path id="Vector_52" d="M53.8656 44.4792C53.7967 44.4617 53.7316 44.4316 53.6736 44.3904C53.5086 44.2933 53.3549 44.1782 53.2152 44.0472C52.7581 43.6059 52.4098 43.0645 52.1976 42.4656C51.991 41.8723 51.854 41.257 51.7896 40.632C51.7471 40.3759 51.7287 40.1164 51.7344 39.8568C51.8018 40.1063 51.85 40.3607 51.8784 40.6176C51.9665 41.2317 52.1128 41.836 52.3152 42.4224C52.5222 43.0047 52.8492 43.537 53.2752 43.9848C53.6112 44.3208 53.8776 44.46 53.8656 44.4792Z" fill="var(--fill-0, #FAFAFA)"/>
<path id="Vector_53" d="M55.128 43.7976C55.0735 43.7594 55.025 43.7133 54.984 43.6608C54.8952 43.5672 54.7752 43.4208 54.6336 43.2456C54.2678 42.7722 53.9464 42.266 53.6736 41.7336C53.4002 41.2016 53.1784 40.6447 53.0112 40.0704C52.9464 39.852 52.9032 39.672 52.8792 39.5448C52.8581 39.4814 52.8491 39.4147 52.8528 39.348C52.945 39.5756 53.0251 39.8079 53.0928 40.044C53.284 40.6034 53.5141 41.1488 53.7816 41.676C54.0532 42.2019 54.3603 42.7086 54.7008 43.1928C54.856 43.385 54.9987 43.5871 55.128 43.7976Z" fill="var(--fill-0, #FAFAFA)"/>
<path id="Vector_54" d="M38.088 60.96C38.0426 60.993 37.9944 61.0219 37.944 61.0464L37.5192 61.2696L37.2 61.44C37.0872 61.4952 36.96 61.5456 36.8232 61.6056C36.5496 61.7208 36.2424 61.8672 35.8872 61.9824L35.3328 62.1768C35.1408 62.244 34.9344 62.292 34.7232 62.3544C34.3032 62.484 33.84 62.5728 33.3576 62.676C32.302 62.8676 31.2313 62.964 30.1584 62.964C29.085 62.9475 28.0152 62.8359 26.9616 62.6304C26.4816 62.52 26.0184 62.4264 25.6008 62.2896C25.3896 62.2248 25.1832 62.172 24.9912 62.1024L24.4416 61.9008C24.0864 61.7808 23.784 61.6296 23.5128 61.512C23.376 61.4496 23.2488 61.3968 23.136 61.3392L22.8288 61.176L22.4088 60.936C22.3584 60.9115 22.3102 60.8825 22.2648 60.8496C22.3189 60.8658 22.3712 60.8875 22.4208 60.9144L22.8504 61.1256L23.1624 61.2792C23.2776 61.332 23.4024 61.3824 23.5392 61.44C23.8128 61.5528 24.1176 61.6968 24.4728 61.8096L25.0224 62.004C25.2144 62.0712 25.4184 62.1216 25.6296 62.1816C26.0448 62.3136 26.5056 62.4048 26.9832 62.5104C28.0305 62.708 29.0928 62.8156 30.1584 62.832C31.2235 62.8297 32.2865 62.7374 33.336 62.556C33.816 62.4552 34.2768 62.3736 34.6968 62.2464C34.9056 62.1888 35.112 62.1408 35.304 62.0784L35.8584 61.8912C36.2136 61.7832 36.5208 61.6512 36.7944 61.5336C36.9312 61.4784 37.0608 61.4304 37.176 61.3776L37.488 61.2288L37.9224 61.0248C37.9746 60.9962 38.0303 60.9745 38.088 60.96Z" fill="var(--fill-0, #FAFAFA)"/>
<path id="Vector_55" d="M35.5896 60.036L25.7112 57.5808C25.5971 57.5524 25.4897 57.5019 25.3952 57.432C25.3006 57.3622 25.2207 57.2743 25.1601 57.1736C25.0995 57.0729 25.0593 56.9612 25.0419 56.8449C25.0244 56.7287 25.03 56.6101 25.0584 56.496L28.368 43.1856C28.3961 43.0713 28.4465 42.9638 28.5162 42.869C28.586 42.7743 28.6739 42.6943 28.7747 42.6337C28.8755 42.573 28.9873 42.5329 29.1037 42.5155C29.22 42.4982 29.3387 42.5041 29.4528 42.5328L36.36 44.2512L39.2688 48.9432L36.6744 59.3832C36.646 59.4973 36.5955 59.6047 36.5256 59.6992C36.4558 59.7938 36.3679 59.8737 36.2672 59.9343C36.1665 59.9949 36.0548 60.0351 35.9385 60.0525C35.8223 60.07 35.7037 60.0644 35.5896 60.036Z" fill="var(--fill-0, #4E5159)"/>
<path id="Vector_56" d="M36.3672 44.2176L35.7096 46.8576C35.6705 47.0132 35.6626 47.1749 35.6862 47.3335C35.7098 47.4922 35.7646 47.6446 35.8473 47.782C35.9301 47.9194 36.0392 48.039 36.1684 48.1341C36.2975 48.2292 36.4442 48.2978 36.6 48.336L39.2688 48.9384L36.3672 44.2176Z" fill="var(--fill-0, #3E4551)"/>
<path id="Vector_57" d="M34.7592 57.0384C34.7592 57.0384 34.7592 56.9928 34.7856 56.9112C34.812 56.8296 34.8312 56.7072 34.8672 56.5584L35.1816 55.2336C35.4576 54.0936 35.8488 52.4784 36.3192 50.5416L36.3576 50.6088L29.6184 48.9432L29.6952 48.8976V48.912V48.9384V48.9936L29.6664 49.104L29.6112 49.3248C29.5752 49.4736 29.5392 49.6176 29.5032 49.764C29.4312 50.0544 29.3592 50.3448 29.2872 50.6304C29.1448 51.2016 29.0056 51.7616 28.8696 52.3104C28.596 53.3976 28.3392 54.4248 28.1016 55.3728L28.0608 55.3032L32.9208 56.5416L34.2936 56.8968L34.6584 56.9952L34.7856 57.0336C34.7458 57.0289 34.7065 57.0209 34.668 57.0096L34.3104 56.928L32.9424 56.604L28.0344 55.404L27.9792 55.3896L27.9936 55.3344C28.2336 54.3888 28.4736 53.3592 28.7472 52.272C28.884 51.7272 29.0208 51.168 29.1624 50.592C29.2344 50.3064 29.3064 50.016 29.3784 49.7256L29.4864 49.2864L29.5416 49.0656L29.5704 48.9552L29.5824 48.9V48.8736V48.8592L29.6616 48.8112L36.3984 50.4912L36.4512 50.5056L36.4368 50.5608C35.9424 52.5048 35.5296 54.1248 35.2368 55.272C35.0928 55.8264 34.9776 56.268 34.8984 56.5776C34.86 56.7192 34.8288 56.832 34.8072 56.9184C34.7956 56.96 34.7795 57.0002 34.7592 57.0384Z" fill="var(--fill-0, white)"/>
<path id="Vector_58" d="M31.308 56.2608C31.272 56.2608 31.6056 54.7944 32.0496 53.004C32.4936 51.2136 32.8848 49.7712 32.9184 49.7784C32.952 49.7856 32.6208 51.2448 32.1768 53.0352C31.7328 54.8256 31.3416 56.2704 31.308 56.2608Z" fill="var(--fill-0, white)"/>
<path id="Vector_59" d="M35.1288 55.44C35.1288 55.476 33.6 55.128 31.7328 54.6624C29.8656 54.1968 28.356 53.7936 28.3728 53.7576C28.3896 53.7216 29.9016 54.072 31.7712 54.5376C33.6408 55.0032 35.1384 55.4088 35.1288 55.44Z" fill="var(--fill-0, white)"/>
<path id="Vector_60" d="M35.6184 53.8104C35.6184 53.844 34.0872 53.496 32.22 53.0304C30.3528 52.5648 28.8432 52.1616 28.86 52.128C28.8768 52.0944 30.3888 52.4424 32.2584 52.9056C34.128 53.3688 35.6256 53.7744 35.6184 53.8104Z" fill="var(--fill-0, white)"/>
<path id="Vector_61" d="M35.976 52.1448C35.976 52.1784 34.4592 51.8328 32.604 51.372C30.7488 50.9112 29.256 50.5104 29.2632 50.4744C29.2704 50.4384 30.7824 50.7864 32.6232 51.2472C34.464 51.708 35.9856 52.1088 35.976 52.1448Z" fill="var(--fill-0, white)"/>
<path id="Vector_62" d="M30.648 54.0168L32.328 53.832C32.328 53.832 33.024 52.6776 33.48 52.2744C33.936 51.8712 36.2976 50.7432 36.2976 50.7432C36.3938 50.8597 36.4464 51.0061 36.4464 51.1572C36.4464 51.3083 36.3938 51.4547 36.2976 51.5712C36.1416 51.7584 35.0256 52.3848 35.0256 52.3848C34.9953 52.4902 34.9924 52.6016 35.0172 52.7085C35.0419 52.8153 35.0934 52.9141 35.1669 52.9955C35.2404 53.0769 35.3334 53.1383 35.4372 53.1738C35.5409 53.2093 35.652 53.2177 35.76 53.1984C36.4512 53.0712 37.2576 52.9272 37.3632 52.9272C37.4688 52.9272 38.172 52.2744 38.6784 51.78C38.7443 51.7162 38.8288 51.6752 38.9196 51.6629C39.0105 51.6505 39.1029 51.6676 39.1834 51.7116C39.2638 51.7556 39.3281 51.8242 39.3668 51.9073C39.4055 51.9904 39.4165 52.0837 39.3984 52.1736C39.3887 52.2123 39.3678 52.2474 39.3384 52.2744C39.3384 52.2744 40.0584 52.2504 39.4176 53.2344C39.4176 53.2344 39.5664 54.1368 39.0336 54.552C39.0336 54.552 38.7936 55.644 38.46 56.0208C38.1264 56.3976 34.7856 57.12 34.7856 57.12L29.9856 57.7008L30.648 54.0168Z" fill="var(--fill-0, #FFBE9D)"/>
<path id="Vector_63" d="M36.0696 54.24C36.2679 54.2732 36.4699 54.2781 36.6696 54.2544C37.161 54.2437 37.6429 54.1171 38.076 53.8848C38.4881 53.6133 38.8256 53.2428 39.0576 52.8072C39.1694 52.6403 39.2551 52.4574 39.312 52.2648C39.1803 52.4128 39.0637 52.5736 38.964 52.7448C38.7205 53.1442 38.3929 53.4857 38.004 53.7456C37.588 53.964 37.1328 54.0978 36.6648 54.1392C36.4631 54.1487 36.2632 54.1826 36.0696 54.24Z" fill="var(--fill-0, #EB996E)"/>
<path id="Vector_64" d="M36.4152 55.0104C36.5914 55.0692 36.7792 55.084 36.9624 55.0536C37.161 55.0387 37.3583 55.0099 37.5528 54.9672C37.7989 54.9207 38.0332 54.8252 38.2416 54.6864C38.432 54.5302 38.6043 54.3531 38.7552 54.1584L39.1224 53.7C39.248 53.5666 39.3532 53.4154 39.4344 53.2512C39.2866 53.3583 39.1542 53.485 39.0408 53.628C38.9256 53.7504 38.8008 53.8992 38.6472 54.0672C38.4973 54.2479 38.3301 54.4135 38.148 54.5616C37.9562 54.6892 37.742 54.7795 37.5168 54.828C37.3303 54.8769 37.1412 54.9154 36.9504 54.9432C36.6216 54.996 36.4176 54.9888 36.4152 55.0104Z" fill="var(--fill-0, #EB996E)"/>
<path id="Vector_65" d="M36.8856 55.872C36.8856 55.9344 37.4928 55.8072 38.2008 55.6104C38.2987 55.5804 38.3877 55.5269 38.46 55.4544C38.5272 55.392 38.5872 55.3296 38.6424 55.2696C38.7381 55.16 38.8248 55.0428 38.9016 54.9192C39.0312 54.7056 39.0672 54.552 39.048 54.5472C39.0288 54.5424 38.9568 54.6696 38.808 54.8568C38.7237 54.9674 38.6323 55.0724 38.5344 55.1712C38.4796 55.2308 38.421 55.2869 38.3592 55.3392C38.3035 55.3953 38.2352 55.4373 38.16 55.4616C37.8 55.5576 37.4832 55.6584 37.2528 55.7328C37.1256 55.7653 37.0024 55.812 36.8856 55.872Z" fill="var(--fill-0, #EB996E)"/>
<path id="Vector_66" d="M23.8056 51.9504L25.3392 43.6584C25.356 43.524 24.4416 39.8952 20.376 39.4896L18.5424 45.7296C18.0624 47.6952 17.3424 50.4384 17.0376 54.0144C16.8432 56.2368 18.9792 58.2888 21.4752 58.6344L21.576 58.6488C25.848 59.172 29.976 58.488 30.5304 58.3392L31.1304 53.8056C31.1808 53.8224 23.8056 51.9504 23.8056 51.9504Z" fill="var(--fill-0, #6869AC)"/>
<path id="Vector_67" d="M19.7952 52.8C19.7894 52.7658 19.7894 52.731 19.7952 52.6968C19.8142 52.5995 19.8415 52.5039 19.8768 52.4112C20.0047 52.061 20.2136 51.746 20.4864 51.492C20.9013 51.0952 21.4485 50.866 22.0224 50.8488C22.3827 50.8376 22.741 50.905 23.0726 51.0463C23.4042 51.1877 23.701 51.3995 23.9424 51.6672L23.8368 51.6984C23.9112 51.2016 23.9904 50.676 24.0768 50.1384C24.3672 48.2784 24.6312 46.596 24.8256 45.3576C24.924 44.7576 25.0056 44.268 25.0656 43.9176C25.0944 43.7568 25.1184 43.6272 25.1376 43.524C25.1425 43.4779 25.1538 43.4326 25.1712 43.3896C25.1749 43.4359 25.1749 43.4825 25.1712 43.5288C25.1712 43.632 25.1424 43.7688 25.1232 43.9248C25.0728 44.2848 25.0056 44.7768 24.9216 45.3768C24.7368 46.6176 24.4872 48.3024 24.2016 50.1624L23.9616 51.7248L23.9424 51.8544L23.856 51.756C23.6275 51.5014 23.3471 51.2985 23.0338 51.1611C22.7204 51.0237 22.3813 50.9548 22.0392 50.9592C21.488 50.972 20.9601 51.1844 20.5536 51.5568C20.2836 51.8002 20.0706 52.1001 19.9296 52.4352C19.8288 52.6536 19.8048 52.8 19.7952 52.8Z" fill="var(--fill-0, #3E4551)"/>
<path id="Vector_68" d="M23.94 51.84C23.9856 51.8489 24.0305 51.8609 24.0744 51.876L24.4656 51.996C24.804 52.1016 25.3032 52.2528 25.9344 52.4328C27.1992 52.7904 29.0064 53.2512 31.1448 53.7432L31.1952 53.7552V53.8056C31.0296 55.2048 30.8448 56.7432 30.6504 58.3656V58.4136H30.6024L30.3024 58.4592C28.7121 58.6932 27.1092 58.8326 25.5024 58.8768C24.1918 58.9448 22.8777 58.8861 21.5784 58.7016C20.6959 58.5705 19.8543 58.2424 19.116 57.7416C19.0021 57.6609 18.8931 57.5736 18.7896 57.48C18.7116 57.4143 18.6379 57.3438 18.5688 57.2688L18.444 57.1296C18.4152 57.0984 18.4032 57.0816 18.4056 57.0792L18.4536 57.1224L18.588 57.252C18.6588 57.3233 18.7341 57.3898 18.8136 57.4512C18.9185 57.5385 19.0291 57.6187 19.1448 57.6912C19.885 58.1765 20.7235 58.4921 21.6 58.6152C22.6992 58.8024 24.0312 58.8024 25.5072 58.7616C27.1068 58.7101 28.7022 58.5674 30.2856 58.3344L30.5832 58.2888L30.5328 58.344L31.0872 53.784L31.1304 53.8464C28.992 53.3472 27.1872 52.8696 25.9272 52.4928C25.296 52.3032 24.8016 52.1424 24.4656 52.0128C24.2952 51.9552 24.168 51.9072 24.0816 51.876C24.0334 51.8683 23.986 51.8562 23.94 51.84Z" fill="var(--fill-0, #3E4551)"/>
<g id="Group_9" opacity="0.3">
<path id="Vector_69" d="M23.9088 51.6456C23.7407 51.5822 23.5603 51.5582 23.3814 51.5752C23.2025 51.5923 23.0299 51.65 22.8768 51.744C22.5144 51.9306 22.1965 52.1931 21.9447 52.5137C21.6928 52.8342 21.5131 53.2053 21.4176 53.6016C21.3706 53.7664 21.364 53.9401 21.3984 54.108C21.4161 54.1919 21.4559 54.2695 21.5137 54.3329C21.5715 54.3962 21.6452 54.4428 21.7272 54.468C21.8314 54.4829 21.9377 54.4661 22.0322 54.4199C22.1268 54.3737 22.2053 54.3001 22.2576 54.2088C22.3604 54.025 22.4348 53.8268 22.4784 53.6208C22.7191 52.8381 23.2194 52.1609 23.8968 51.7008" fill="var(--fill-0, #101723)"/>
</g>
<path id="Vector_70" d="M26.88 58.6008C26.8442 58.532 26.8183 58.4585 26.8032 58.3824C26.747 58.1819 26.7021 57.9784 26.6688 57.7728C26.4371 56.3997 26.5831 54.9894 27.0912 53.6928C27.1655 53.4975 27.2512 53.3068 27.348 53.1216C27.3786 53.0507 27.419 52.9845 27.468 52.9248C27.4872 52.9248 27.3456 53.2272 27.1728 53.7216C26.722 55.0132 26.579 56.3922 26.7552 57.7488C26.82 58.2792 26.8992 58.596 26.88 58.6008Z" fill="var(--fill-0, #FAFAFA)"/>
<path id="Vector_71" d="M28.5312 58.6272C28.5312 58.6272 28.4424 58.6272 28.3464 58.5C28.2339 58.3244 28.1731 58.1206 28.1712 57.912C28.1149 57.2484 28.1149 56.5812 28.1712 55.9176C28.2218 55.2534 28.3302 54.5949 28.4952 53.9496C28.56 53.7096 28.62 53.5056 28.6656 53.3712C28.6832 53.2982 28.7124 53.2286 28.752 53.1648C28.7688 53.1648 28.6872 53.4744 28.5816 53.9712C28.3059 55.2639 28.2002 56.5871 28.2672 57.9072C28.2597 58.1031 28.3035 58.2975 28.3944 58.4712C28.4592 58.5888 28.5384 58.6176 28.5312 58.6272Z" fill="var(--fill-0, #FAFAFA)"/>
<path id="Vector_72" d="M27.5568 25.2768L27.8832 34.7712C27.9095 35.549 28.2436 36.2844 28.812 36.816C29.3804 37.3475 30.1366 37.6315 30.9144 37.6056C31.6624 37.5814 32.373 37.2727 32.9011 36.7423C33.4292 36.212 33.735 35.5001 33.756 34.752C33.78 33.9024 33.7968 33.192 33.7968 33.192C33.7968 33.192 36.1608 32.94 36.3 30.5952C36.3672 29.4648 36.3192 27.1272 36.2472 25.0104C36.2098 23.8701 35.7304 22.789 34.9103 21.9958C34.0902 21.2025 32.9937 20.7594 31.8528 20.76C31.2718 20.7666 30.6979 20.8896 30.1652 21.1217C29.6325 21.3539 29.1517 21.6904 28.7512 22.1114C28.3507 22.5325 28.0387 23.0295 27.8336 23.5732C27.6284 24.1169 27.5343 24.6961 27.5568 25.2768Z" fill="var(--fill-0, #FFBE9D)"/>
<path id="Vector_73" d="M33.7992 33.1992C32.715 33.1682 31.6647 32.8148 30.7824 32.184C30.7824 32.184 31.4256 33.9072 33.7752 33.8064L33.7992 33.1992Z" fill="var(--fill-0, #EB996E)"/>
<path id="Vector_74" d="M35.4768 26.64C35.4737 26.7272 35.4365 26.8097 35.3732 26.8699C35.31 26.93 35.2257 26.9629 35.1384 26.9616C35.0947 26.9642 35.0509 26.9579 35.0098 26.9428C34.9686 26.9278 34.931 26.9045 34.8993 26.8744C34.8676 26.8442 34.8424 26.8078 34.8253 26.7675C34.8082 26.7272 34.7996 26.6838 34.8 26.64C34.8031 26.5526 34.8402 26.4698 34.9034 26.4093C34.9666 26.3488 35.0509 26.3153 35.1384 26.316C35.1822 26.3137 35.2261 26.3204 35.2672 26.3357C35.3083 26.351 35.3459 26.3745 35.3776 26.4049C35.4093 26.4352 35.4345 26.4717 35.4515 26.5122C35.4686 26.5526 35.4772 26.5961 35.4768 26.64Z" fill="var(--fill-0, #3E4551)"/>
<path id="Vector_75" d="M35.6856 26.16C35.6424 26.2008 35.3976 26.0016 35.0376 25.9848C34.6776 25.968 34.404 26.136 34.3656 26.0904C34.3272 26.0448 34.3944 25.992 34.5144 25.9152C34.6745 25.8134 34.8626 25.7647 35.052 25.776C35.2398 25.7834 35.42 25.8516 35.5656 25.9704C35.6736 26.0616 35.7072 26.1432 35.6856 26.16Z" fill="var(--fill-0, #3E4551)"/>
<path id="Vector_76" d="M32.0616 26.64C32.0579 26.7276 32.0202 26.8104 31.9567 26.8709C31.8931 26.9313 31.8085 26.9647 31.7208 26.964C31.678 26.9653 31.6353 26.958 31.5953 26.9426C31.5554 26.9271 31.5189 26.9038 31.488 26.8741C31.4572 26.8444 31.4326 26.8088 31.4157 26.7694C31.3988 26.73 31.3899 26.6876 31.3896 26.6448C31.3927 26.5574 31.4298 26.4746 31.493 26.4141C31.5562 26.3536 31.6405 26.3201 31.728 26.3208C31.7709 26.3195 31.8137 26.3268 31.8538 26.3422C31.8939 26.3576 31.9306 26.3809 31.9616 26.4106C31.9927 26.4403 32.0175 26.4758 32.0347 26.5152C32.0518 26.5546 32.061 26.597 32.0616 26.64Z" fill="var(--fill-0, #3E4551)"/>
<path id="Vector_77" d="M32.1384 26.0616C32.0952 26.1024 31.8504 25.9032 31.4904 25.8864C31.1304 25.8696 30.8568 26.0376 30.8184 25.992C30.78 25.9464 30.8472 25.896 30.9648 25.8168C31.126 25.7155 31.3147 25.6668 31.5048 25.6776C31.6926 25.685 31.8728 25.7532 32.0184 25.872C32.1264 25.9608 32.16 26.0424 32.1384 26.0616Z" fill="var(--fill-0, #3E4551)"/>
<path id="Vector_78" d="M33.3216 28.8C33.514 28.7473 33.7125 28.7206 33.912 28.7208C34.0032 28.7208 34.092 28.7016 34.1112 28.6392C34.1223 28.5442 34.1047 28.4481 34.0608 28.3632C33.9872 28.1376 33.9072 27.8976 33.8208 27.6432C33.4896 26.628 33.2544 25.7928 33.2952 25.7808C33.336 25.7688 33.6384 26.58 33.9696 27.5952L34.1952 28.3152C34.2494 28.429 34.2605 28.5586 34.2264 28.68C34.2112 28.7112 34.1893 28.7388 34.1624 28.7607C34.1354 28.7827 34.1041 28.7986 34.0704 28.8072C34.0184 28.8185 33.9652 28.8233 33.912 28.8216C33.7151 28.8383 33.5168 28.831 33.3216 28.8Z" fill="var(--fill-0, #3E4551)"/>
<path id="Vector_79" d="M32.2488 28.9968C32.3064 28.9968 32.2896 29.388 32.6112 29.6808C32.9328 29.9736 33.36 29.952 33.36 30C33.36 30.048 33.264 30.072 33.0888 30.0696C32.8607 30.0646 32.6415 29.9796 32.4696 29.8296C32.3058 29.6816 32.2052 29.4762 32.1888 29.256C32.172 29.088 32.22 28.992 32.2488 28.9968Z" fill="var(--fill-0, #3E4551)"/>
<path id="Vector_80" d="M32.2992 24.6528C32.2584 24.7488 31.9008 24.6864 31.476 24.7152C31.0512 24.744 30.7008 24.8472 30.6504 24.756C30.6264 24.7128 30.6912 24.624 30.8328 24.5352C31.0217 24.4255 31.2339 24.3621 31.452 24.3504C31.6694 24.334 31.8876 24.3702 32.088 24.456C32.2416 24.5256 32.316 24.6072 32.2992 24.6528Z" fill="var(--fill-0, #3E4551)"/>
<path id="Vector_81" d="M35.6016 25.1112C35.5344 25.1904 35.292 25.0944 34.992 25.0752C34.692 25.056 34.4376 25.104 34.3848 25.0152C34.3608 24.9744 34.404 24.8928 34.5192 24.8208C34.6707 24.7324 34.8462 24.6938 35.0208 24.7104C35.1963 24.7216 35.364 24.787 35.5008 24.8976C35.6016 24.9864 35.6328 25.0728 35.6016 25.1112Z" fill="var(--fill-0, #3E4551)"/>
<path id="Vector_82" d="M30.2232 22.8624H30.2112C29.8229 23.1394 29.5564 23.5555 29.4672 24.024V24.072C29.3424 24.7368 29.328 25.4184 29.1984 26.0808C29.1015 26.7562 28.7813 27.3797 28.2888 27.852C28.0752 28.032 27.7104 28.1448 27.5544 27.9144C27.5014 27.8202 27.4772 27.7126 27.4848 27.6048C27.4368 25.9824 27.0624 24.528 27.144 22.8384C27.1552 22.6119 27.2197 22.3912 27.3323 22.1944C27.4449 21.9975 27.6024 21.8301 27.792 21.7056C28.1568 21.4656 28.6008 21.2256 28.992 21.432C29.3832 21.6384 29.8512 22.392 30.1416 22.7232" fill="var(--fill-0, #3E4551)"/>
<path id="Vector_83" d="M28.296 26.4144C28.2552 26.3952 26.7048 25.8624 26.6808 27.468C26.6568 29.0736 28.2744 28.7688 28.2768 28.7208C28.2792 28.6728 28.296 26.4144 28.296 26.4144Z" fill="var(--fill-0, #FFBE9D)"/>
<path id="Vector_84" d="M27.7968 28.1064C27.7968 28.1064 27.768 28.1256 27.72 28.1448C27.653 28.1719 27.5782 28.1719 27.5112 28.1448C27.4086 28.0773 27.3258 27.9837 27.2714 27.8736C27.217 27.7635 27.1929 27.6409 27.2016 27.5184C27.1985 27.3801 27.2273 27.243 27.2856 27.1176C27.3015 27.0678 27.3292 27.0225 27.3664 26.9858C27.4036 26.949 27.4492 26.9217 27.4992 26.9064C27.5314 26.8989 27.5651 26.9027 27.5948 26.9171C27.6246 26.9315 27.6484 26.9557 27.6624 26.9856C27.684 27.0312 27.6624 27.0624 27.6816 27.0672C27.7008 27.072 27.7152 27.0408 27.7032 26.9736C27.6954 26.9341 27.6742 26.8985 27.6432 26.8728C27.622 26.8554 27.5973 26.8426 27.5709 26.8351C27.5445 26.8277 27.5168 26.8258 27.4896 26.8296C27.4235 26.8406 27.3614 26.8684 27.3093 26.9105C27.2571 26.9525 27.2167 27.0073 27.192 27.0696C27.1219 27.207 27.0865 27.3594 27.0888 27.5136C27.0775 27.6566 27.1092 27.7997 27.1797 27.9245C27.2503 28.0494 27.3565 28.1503 27.4848 28.2144C27.5277 28.228 27.5731 28.2316 27.6177 28.225C27.6622 28.2183 27.7046 28.2016 27.7416 28.176C27.792 28.1448 27.8016 28.1088 27.7968 28.1064Z" fill="var(--fill-0, #EB996E)"/>
<path id="Vector_85" d="M28.7352 21.9336C28.2744 21.3384 29.2512 20.304 30.012 19.968C30.7728 19.632 31.8528 19.9056 32.652 20.0808C33.1656 20.1888 33.684 20.364 34.2024 20.2872C34.5469 20.2136 34.8786 20.089 35.1864 19.9176C35.4949 19.7476 35.8344 19.6415 36.1848 19.6056C36.3606 19.5896 36.5373 19.6223 36.6957 19.7002C36.854 19.7782 36.9878 19.8982 37.0824 20.0472C37.1241 20.1232 37.1491 20.2072 37.1557 20.2936C37.1623 20.38 37.1502 20.4669 37.1205 20.5483C37.0907 20.6296 37.0438 20.7037 36.983 20.7655C36.9222 20.8273 36.8489 20.8753 36.768 20.9064C36.8727 20.8369 36.9926 20.7934 37.1176 20.7797C37.2425 20.766 37.369 20.7824 37.4863 20.8275C37.6036 20.8727 37.7084 20.9453 37.7919 21.0393C37.8754 21.1332 37.9352 21.2458 37.9663 21.3677C37.9973 21.4895 37.9988 21.617 37.9705 21.7395C37.9422 21.8619 37.8849 21.9759 37.8035 22.0717C37.7222 22.1675 37.619 22.2425 37.5028 22.2903C37.3865 22.3381 37.2604 22.3573 37.1352 22.3464C37.344 22.1496 37.7232 22.3968 37.7256 22.6824C37.71 22.8253 37.6575 22.9617 37.5734 23.0782C37.4892 23.1947 37.3763 23.2874 37.2456 23.3472C36.612 23.712 35.8272 23.7024 35.112 23.5464C34.3968 23.3904 33.7176 23.0976 33.0096 22.9248C32.3016 22.752 31.104 22.428 30.4464 22.7448C29.9664 22.9848 29.676 23.6232 29.376 23.52C29.2335 23.4612 29.107 23.3694 29.0068 23.2521C28.9067 23.1349 28.8358 22.9956 28.8 22.8456C28.7275 22.5474 28.704 22.2394 28.7304 21.9336" fill="var(--fill-0, #3E4551)"/>
<path id="Vector_86" d="M36.696 21.0216C36.696 21.0216 36.7248 21.036 36.7752 21.072C36.849 21.1246 36.9064 21.197 36.9408 21.2808C37.0034 21.4337 37.0087 21.604 36.9558 21.7605C36.9029 21.917 36.7953 22.0492 36.6528 22.1328C36.4554 22.2514 36.2303 22.3159 36 22.32C35.7358 22.3224 35.4727 22.2844 35.22 22.2072C34.6456 22.0044 34.0964 21.7362 33.5832 21.408C33.0627 21.077 32.482 20.8519 31.8744 20.7456C31.6058 20.7111 31.333 20.7273 31.0704 20.7936C30.8433 20.8558 30.6288 20.9573 30.4368 21.0936C30.1602 21.2846 29.9351 21.541 29.7816 21.84C29.7252 21.9499 29.684 22.067 29.6592 22.188C29.6592 22.188 29.6976 22.0608 29.8056 21.852C29.9637 21.5586 30.1901 21.3076 30.4656 21.12C30.654 20.9888 30.8646 20.8928 31.0872 20.8368C31.343 20.7736 31.6084 20.7589 31.8696 20.7936C32.4668 20.9036 33.0372 21.1276 33.5496 21.4536C34.0657 21.7858 34.6201 22.0541 35.2008 22.2528C35.4589 22.3317 35.7278 22.3689 35.9976 22.3632C36.2361 22.3595 36.4695 22.2933 36.6744 22.1712C36.7606 22.1125 36.8361 22.0394 36.8976 21.9552C36.9513 21.8791 36.9882 21.7923 37.0056 21.7008C37.0363 21.5546 37.0195 21.4024 36.9576 21.2664C36.9193 21.1807 36.8567 21.1081 36.7776 21.0576C36.7522 21.0419 36.7247 21.0298 36.696 21.0216Z" fill="var(--fill-0, #4E5159)"/>
<path id="Vector_87" d="M31.0176 20.2104C31.0176 20.2104 30.9816 20.2104 30.9144 20.2104C30.8199 20.216 30.7265 20.2329 30.636 20.2608C30.3306 20.346 30.0583 20.522 29.8551 20.7654C29.652 21.0089 29.5276 21.3083 29.4984 21.624C29.4872 21.7181 29.4872 21.8131 29.4984 21.9072C29.4984 21.9427 29.5057 21.9779 29.52 22.0104C29.52 22.0104 29.52 21.8616 29.544 21.6288C29.5843 21.3263 29.7094 21.0414 29.9047 20.807C30.1001 20.5726 30.3578 20.3982 30.648 20.304C30.8712 20.2272 31.02 20.2224 31.0176 20.2104Z" fill="var(--fill-0, #4E5159)"/>
<path id="Vector_88" d="M27.1704 24.3264C27.211 24.3485 27.2562 24.3608 27.3024 24.3624C27.4284 24.3729 27.5547 24.3453 27.6648 24.2832C27.8302 24.1954 27.9638 24.0577 28.0464 23.8896C28.1471 23.6897 28.2214 23.4775 28.2672 23.2584C28.3125 23.0436 28.3851 22.8355 28.4832 22.6392C28.5626 22.4823 28.6871 22.3527 28.8408 22.2672C28.9445 22.208 29.0623 22.1781 29.1816 22.1808C29.2656 22.1808 29.3112 22.2024 29.3136 22.1976C29.2745 22.1733 29.2299 22.1593 29.184 22.1568C29.0584 22.1425 28.9314 22.1658 28.8192 22.224C28.6517 22.3088 28.5149 22.4439 28.428 22.6104C28.3267 22.8105 28.2509 23.0226 28.2024 23.2416C28.1572 23.4555 28.0872 23.6633 27.9936 23.8608C27.9168 24.0204 27.7939 24.1533 27.6408 24.2424C27.5394 24.3056 27.4219 24.3381 27.3024 24.336C27.2184 24.336 27.1728 24.3192 27.1704 24.3264Z" fill="var(--fill-0, #4E5159)"/>
<path id="Vector_89" d="M27.2544 25.3872C27.2544 25.3872 27.2688 25.3872 27.2952 25.3872C27.3332 25.3947 27.3717 25.3995 27.4104 25.4016C27.5537 25.4118 27.6977 25.4004 27.8376 25.368C28.3056 25.2567 28.7153 24.9752 28.9872 24.5784C29.2541 24.1841 29.419 23.7297 29.4672 23.256C29.471 23.175 29.483 23.0946 29.5032 23.016C29.518 22.9591 29.5508 22.9086 29.5968 22.872C29.6358 22.8406 29.6836 22.8221 29.7336 22.8192C29.7074 22.8113 29.6797 22.81 29.6529 22.8155C29.6261 22.8209 29.601 22.8329 29.58 22.8504C29.5274 22.8887 29.488 22.9424 29.4672 23.004C29.4427 23.0821 29.4266 23.1625 29.4192 23.244C29.3616 23.7058 29.1973 24.1479 28.9392 24.5352C28.6762 24.9192 28.2847 25.1966 27.8352 25.3176C27.6458 25.3681 27.4503 25.3915 27.2544 25.3872Z" fill="var(--fill-0, #4E5159)"/>
</g>
<g id="freepik--Box--inject-2">
<path id="Vector_90" d="M72.0498 78.7751C72.0162 78.7751 71.9874 77.0207 71.9874 74.8559C71.9874 72.6911 72.0162 70.9343 72.0498 70.9343C72.0834 70.9343 72.1122 72.6911 72.1122 74.8559C72.1122 77.0207 72.0834 78.7751 72.0498 78.7751Z" fill="var(--fill-0, #3E4551)"/>
<path id="Vector_91" d="M73.161 79.6007C73.125 79.6007 73.0986 78.0215 73.0986 76.0751C73.0986 74.1287 73.125 72.5471 73.161 72.5471C73.197 72.5471 73.2234 74.1263 73.2234 76.0751C73.2234 78.0239 73.1898 79.6007 73.161 79.6007Z" fill="var(--fill-0, #3E4551)"/>
<path id="Vector_92" d="M79.2402 61.3367C79.2066 61.3367 79.1778 59.7431 79.1778 57.7775C79.1778 55.8119 79.2066 54.2183 79.2402 54.2183C79.2738 54.2183 79.3026 55.8119 79.3026 57.7775C79.3026 59.7431 79.2762 61.3367 79.2402 61.3367Z" fill="var(--fill-0, #3E4551)"/>
<path id="Vector_93" d="M80.277 57.9719C80.241 57.9719 80.2146 56.7839 80.2146 55.3175C80.2146 53.8511 80.241 52.6655 80.277 52.6655C80.313 52.6655 80.3394 53.8511 80.3394 55.3175C80.3394 56.7839 80.3106 57.9719 80.277 57.9719Z" fill="var(--fill-0, #3E4551)"/>
<path id="Vector_94" d="M85.7106 79.0223L78.2346 74.5583C77.9869 74.4102 77.808 74.1698 77.7374 73.8899C77.6668 73.61 77.7101 73.3135 77.8578 73.0655L84.0354 62.7191C84.1085 62.5962 84.2052 62.489 84.3199 62.4035C84.4345 62.318 84.5649 62.256 84.7036 62.221C84.8423 62.186 84.9865 62.1787 85.128 62.1995C85.2695 62.2203 85.4055 62.2689 85.5282 62.3423L90.2706 65.1719L91.6818 71.1455L87.2034 78.6455C87.1303 78.7684 87.0336 78.8757 86.9189 78.9612C86.8043 79.0467 86.6739 79.1087 86.5352 79.1437C86.3965 79.1787 86.2523 79.186 86.1108 79.1652C85.9693 79.1443 85.8333 79.0958 85.7106 79.0223Z" fill="var(--fill-0, #6869AC)"/>
<g id="Group_10" opacity="0.2">
<path id="Vector_95" d="M79.5098 70.2947L88.8548 75.8743L87.3464 78.4007C87.1595 78.7138 86.8558 78.9399 86.5021 79.0291C86.1485 79.1183 85.7739 79.0634 85.4607 78.8764L78.4772 74.7068C78.164 74.5198 77.938 74.2161 77.8487 73.8625C77.7595 73.5088 77.8144 73.1342 78.0014 72.8211L79.5098 70.2947Z" fill="var(--fill-0, #101723)"/>
</g>
<path id="Vector_96" d="M90.2706 65.1719L88.521 68.0855C88.3838 68.316 88.3436 68.5915 88.4093 68.8516C88.475 69.1117 88.6412 69.335 88.8714 69.4727L91.6722 71.1527L90.2706 65.1719Z" fill="var(--fill-0, #6869AC)"/>
<g id="Group_11" opacity="0.2">
<path id="Vector_97" d="M88.4178 68.3639C88.2879 68.585 88.2375 68.8439 88.275 69.0975C88.3126 69.3512 88.4358 69.5844 88.6242 69.7583C88.6488 69.7857 88.6753 69.8114 88.7034 69.8351C89.0298 70.1183 91.1826 71.9831 91.2138 71.9279L91.6818 71.1455L88.881 69.4655C88.881 69.4655 88.197 69.0335 88.4178 68.3639Z" fill="var(--fill-0, #101723)"/>
</g>
<g id="Group_12" opacity="0.3">
<path id="Vector_98" d="M90.2706 65.1719L88.521 68.0855C88.3838 68.316 88.3436 68.5915 88.4093 68.8516C88.475 69.1117 88.6412 69.335 88.8714 69.4727L91.6722 71.1527L90.2706 65.1719Z" fill="var(--fill-0, white)"/>
</g>
<path id="Vector_99" d="M69.3354 87.0959L59.481 89.1047C59.319 89.138 59.152 89.139 58.9896 89.1077C58.8272 89.0764 58.6726 89.0133 58.5346 88.9221C58.3966 88.8309 58.2779 88.7134 58.1854 88.5763C58.0929 88.4392 58.0283 88.2852 57.9954 88.1231L55.2162 74.4695C55.1829 74.3075 55.1819 74.1405 55.2132 73.9781C55.2446 73.8157 55.3076 73.6611 55.3988 73.5231C55.49 73.3851 55.6075 73.2664 55.7446 73.1739C55.8817 73.0814 56.0357 73.0168 56.1978 72.9839L62.4546 71.7095L68.313 75.7151L70.3266 85.6103C70.3598 85.773 70.3604 85.9407 70.3285 86.1036C70.2965 86.2665 70.2326 86.4215 70.1405 86.5596C70.0483 86.6977 69.9298 86.8162 69.7916 86.9083C69.6534 87.0003 69.4984 87.0641 69.3354 87.0959Z" fill="var(--fill-0, #4E5159)"/>
<path id="Vector_100" d="M62.445 71.7095L63.2274 75.5495C63.2575 75.7004 63.3171 75.8439 63.4028 75.9717C63.4886 76.0995 63.5988 76.209 63.7271 76.294C63.8553 76.379 63.9992 76.4378 64.1502 76.4669C64.3013 76.4961 64.4567 76.4951 64.6074 76.4639L68.3034 75.7127L62.445 71.7095Z" fill="var(--fill-0, #3E4551)"/>
<path id="Vector_101" d="M62.361 75.5639C62.361 75.6143 61.3578 75.8615 60.0978 76.1183C58.8378 76.3751 57.8082 76.5431 57.7962 76.4927C57.7842 76.4423 58.7994 76.1975 60.0594 75.9407C61.3194 75.6839 62.361 75.5159 62.361 75.5639Z" fill="var(--fill-0, #FAFAFA)"/>
<path id="Vector_102" d="M65.757 77.1359C65.757 77.1863 64.0938 77.5679 62.0202 77.9903C59.9466 78.4127 58.257 78.7103 58.2474 78.6671C58.2378 78.6239 59.9106 78.2351 61.9842 77.8127C64.0578 77.3903 65.7474 77.0879 65.757 77.1359Z" fill="var(--fill-0, #FAFAFA)"/>
<path id="Vector_103" d="M66.8034 78.8135C66.8034 78.8615 64.989 79.2767 62.7234 79.7351C60.4578 80.1935 58.6218 80.5295 58.6122 80.4791C58.6026 80.4287 60.4266 80.0183 62.6922 79.5575C64.9578 79.0967 66.7938 78.7631 66.8034 78.8135Z" fill="var(--fill-0, #FAFAFA)"/>
<path id="Vector_104" d="M67.161 80.5247C67.161 80.5751 65.3466 80.9879 63.081 81.4487C60.8154 81.9095 58.9794 82.2407 58.9698 82.1927C58.9602 82.1447 60.7842 81.7295 63.0498 81.2687C65.3154 80.8079 67.1418 80.4743 67.161 80.5247Z" fill="var(--fill-0, #FAFAFA)"/>
<path id="Vector_105" d="M67.4994 82.2359C67.4994 82.2863 65.685 82.6991 63.4194 83.1599C61.1538 83.6207 59.3178 83.9519 59.3082 83.9039C59.2986 83.8559 61.1226 83.4407 63.3882 82.9799C65.6538 82.5191 67.4898 82.1879 67.4994 82.2359Z" fill="var(--fill-0, #FAFAFA)"/>
<path id="Vector_106" d="M67.8474 83.9471C67.8594 83.9975 66.033 84.4103 63.7674 84.8711C61.5018 85.3319 59.6658 85.6631 59.6562 85.6151C59.6466 85.5671 61.4706 85.1519 63.7362 84.6911C66.0018 84.2303 67.8378 83.8991 67.8474 83.9471Z" fill="var(--fill-0, #FAFAFA)"/>
<path id="Vector_107" d="M87.1626 50.9375L78.3738 51.5471C78.2294 51.5576 78.0843 51.5394 77.9469 51.4936C77.8096 51.4478 77.6826 51.3753 77.5733 51.2803C77.464 51.1853 77.3746 51.0697 77.3102 50.94C77.2457 50.8103 77.2075 50.6692 77.1978 50.5247L76.353 38.3567C76.3429 38.2124 76.3613 38.0674 76.4072 37.9302C76.4531 37.793 76.5256 37.6661 76.6206 37.5569C76.7155 37.4477 76.831 37.3583 76.9605 37.2937C77.0901 37.2292 77.231 37.1908 77.3754 37.1807L82.9506 36.7943L87.5754 40.9439L88.1874 49.7615C88.2072 50.0533 88.1104 50.341 87.9182 50.5615C87.7261 50.782 87.4543 50.9172 87.1626 50.9375Z" fill="var(--fill-0, #4E5159)"/>
<g id="Group_13" opacity="0.2">
<path id="Vector_108" d="M76.9719 47.2622L87.9615 46.4995L88.1494 49.2074C88.1644 49.4243 88.1366 49.6421 88.0675 49.8483C87.9984 50.0545 87.8893 50.2451 87.7466 50.4091C87.6038 50.5732 87.4302 50.7075 87.2355 50.8045C87.0408 50.9014 86.829 50.959 86.612 50.9741L78.9241 51.5076C78.7072 51.5227 78.4894 51.4949 78.2832 51.4257C78.077 51.3566 77.8864 51.2476 77.7224 51.1048C77.5583 50.9621 77.424 50.7884 77.3271 50.5937C77.2301 50.3991 77.1725 50.1872 77.1574 49.9702L76.9695 47.2624L76.9719 47.2622Z" fill="var(--fill-0, #101723)"/>
</g>
<path id="Vector_109" d="M82.9506 36.7943L83.1906 40.2191C83.1991 40.3541 83.2343 40.4861 83.2939 40.6075C83.3536 40.7289 83.4367 40.8373 83.5384 40.9265C83.6401 41.0157 83.7584 41.0839 83.8865 41.1273C84.0146 41.1706 84.15 41.1883 84.285 41.1791L87.5778 40.9511L82.9506 36.7943Z" fill="var(--fill-0, #3E4551)"/>
<path id="Vector_110" d="M96.7146 82.8167H50.7378V112.692H96.7146V82.8167Z" fill="var(--fill-0, #6869AC)"/>
<g id="Group_14" opacity="0.3">
<path id="Vector_111" d="M96.7146 82.8167H84.5634V112.692H96.7146V82.8167Z" fill="var(--fill-0, #101723)"/>
</g>
<path id="Vector_112" d="M84.5634 82.8167L91.5138 90.9959H102.998L96.7146 82.8167H84.5634Z" fill="var(--fill-0, #6869AC)"/>
<path id="Vector_113" d="M50.7378 82.8167L41.2938 90.9959H77.0202L84.5634 82.8167H50.7378Z" fill="var(--fill-0, #6869AC)"/>
<path id="Vector_114" d="M84.5634 82.8119C84.5634 82.8119 84.5202 82.8671 84.4314 82.9679L84.0354 83.4095L82.521 85.0823C81.201 86.5223 79.3218 88.5671 77.0634 91.0319L77.0466 91.0487H77.0226L64.5594 91.0679H47.8746L42.8202 91.0535L41.445 91.0415H41.0874H40.965C40.965 91.0415 41.0058 91.0415 41.0874 91.0415H41.445L42.8202 91.0271L47.8746 91.0031L64.5594 90.9719H77.0226L76.9842 90.9887C79.2594 88.5383 81.1482 86.4983 82.4754 85.0703L84.0138 83.4215C84.1914 83.2367 84.3258 83.0927 84.4218 82.9895L84.5634 82.8119Z" fill="var(--fill-0, #3E4551)"/>
<path id="Vector_115" d="M84.5634 112.692C84.5298 112.692 84.501 106.006 84.501 97.7567C84.501 89.5079 84.5298 82.8167 84.5634 82.8167C84.597 82.8167 84.6258 89.5055 84.6258 97.7567C84.6258 106.008 84.5994 112.692 84.5634 112.692Z" fill="var(--fill-0, #3E4551)"/>
<g id="Group_15" opacity="0.3">
<path id="Vector_116" d="M68.9634 108.283H64.0242V112.694H68.9634V108.283Z" fill="var(--fill-0, white)"/>
</g>
<path id="Vector_117" d="M74.6908 94.5939L58.2136 98.2558L59.8256 105.509L76.3028 101.847L74.6908 94.5939Z" fill="var(--fill-0, white)"/>
<path id="Vector_118" d="M75.885 101.695C75.885 101.695 75.873 101.652 75.8538 101.573C75.8346 101.494 75.8058 101.371 75.7698 101.22C75.6978 100.906 75.5922 100.452 75.4578 99.8687C75.1938 98.6975 74.8098 97.0103 74.337 94.9295L74.3898 94.9631L58.5954 98.4911C58.5522 98.5583 58.6506 98.3999 58.641 98.4191V98.4311V98.4431V98.4719V98.5271L58.6674 98.6399L58.7154 98.8607L58.8138 99.3047C58.8786 99.5975 58.9458 99.8903 59.0082 100.181C59.1378 100.763 59.2658 101.338 59.3922 101.906C59.6322 103.039 59.8866 104.138 60.1122 105.192L60.0426 105.146L71.3706 102.66L74.661 101.94L75.5442 101.753L75.7842 101.705L75.8634 101.69L75.7914 101.71L75.5706 101.762L74.7018 101.964L71.433 102.708L60.0762 105.259L60.0186 105.271L60.0066 105.214L59.2746 101.928C59.1474 101.362 59.0202 100.786 58.8906 100.205C58.8258 99.9119 58.761 99.6191 58.6938 99.3263L58.617 98.8919L58.569 98.6711L58.545 98.5607L58.5306 98.5031V98.4767V98.4551C58.5306 98.4695 58.6218 98.3135 58.581 98.3783L74.361 94.8767H74.4042V94.9199L75.4866 99.8951C75.609 100.476 75.7074 100.927 75.7722 101.242C75.8034 101.39 75.8274 101.506 75.8466 101.59C75.8658 101.674 75.885 101.695 75.885 101.695Z" fill="var(--fill-0, #3E4551)"/>
<g id="Group_16" opacity="0.3">
<path id="Vector_119" d="M50.7378 91.0247V93.3095L77.5506 93.1727L84.4194 82.9751L77.0202 90.9959L50.7378 91.0247Z" fill="var(--fill-0, #101723)"/>
</g>
<path id="Vector_120" d="M50.301 67.1783L41.5386 65.0183C41.3344 64.9678 41.1586 64.8384 41.0497 64.6584C40.9409 64.4784 40.9078 64.2626 40.9578 64.0583L43.881 52.2431C43.9315 52.039 44.061 51.8631 44.2409 51.7543C44.4209 51.6454 44.6367 51.6123 44.841 51.6623L50.9682 53.1767L53.5554 57.3359L51.2634 66.5975C51.2123 66.8019 51.0824 66.9777 50.9021 67.0866C50.7217 67.1954 50.5056 67.2284 50.301 67.1783Z" fill="var(--fill-0, #6869AC)"/>
<path id="Vector_121" d="M50.973 53.1479L50.3922 55.4951C50.3581 55.6332 50.3516 55.7766 50.3729 55.9172C50.3943 56.0577 50.4432 56.1927 50.5167 56.3144C50.5903 56.4361 50.6871 56.5421 50.8016 56.6264C50.9161 56.7107 51.0461 56.7715 51.1842 56.8055L53.553 57.3359L50.973 53.1479Z" fill="var(--fill-0, #6869AC)"/>
<path id="Vector_122" d="M49.5618 64.5191C49.5618 64.5191 49.5618 64.4783 49.5834 64.4087C49.605 64.3391 49.6266 64.2263 49.6554 64.0943C49.7226 63.8135 49.8162 63.4175 49.9338 62.9183C50.1738 61.9055 50.5218 60.4751 50.937 58.7567L50.973 58.8167L44.9922 57.3455L45.0618 57.3047V57.3287L45.0498 57.3791L45.0258 57.4775L44.9778 57.6719C44.9442 57.8015 44.913 57.9335 44.8794 58.0607C44.817 58.3199 44.7522 58.5767 44.6898 58.8287C44.565 59.3351 44.4498 59.8319 44.3226 60.3143C44.0826 61.2743 43.8546 62.1911 43.6434 63.0287L43.6074 62.9687L47.9274 64.0607L49.1466 64.3751L49.4706 64.4615L49.5834 64.4951L49.4778 64.4759L49.161 64.4015L47.9466 64.1159L43.593 63.0647H43.545L43.557 63.0143C43.7634 62.1743 43.9866 61.2623 44.2242 60.2975C44.3418 59.8175 44.4642 59.3183 44.589 58.8119C44.6514 58.5575 44.7162 58.3031 44.7786 58.0439C44.8098 57.9143 44.8434 57.7847 44.8746 57.6551L44.9226 57.4583L44.949 57.3599V57.3119V57.2855V57.2639C44.8866 57.2999 45.033 57.2111 45.0186 57.2207L50.9946 58.7063H51.0426V58.7543C50.6034 60.4799 50.2386 61.9175 49.9818 62.9327C49.8546 63.4271 49.7538 63.8159 49.6818 64.0919L49.6026 64.3943C49.5943 64.4375 49.5806 64.4794 49.5618 64.5191Z" fill="var(--fill-0, white)"/>
<path id="Vector_123" d="M46.4994 63.8351C46.4682 63.8351 46.7634 62.5343 47.1546 60.9551C47.5458 59.3759 47.8914 58.0871 47.9226 58.0943C47.9538 58.1015 47.6586 59.3951 47.265 60.9743C46.8714 62.5535 46.521 63.8519 46.4994 63.8351Z" fill="var(--fill-0, white)"/>
<path id="Vector_124" d="M49.881 63.1055C49.881 63.1343 48.5226 62.8271 46.8666 62.4191C45.2106 62.0111 43.881 61.6511 43.881 61.6199C43.881 61.5887 45.237 61.8959 46.8954 62.3063C48.5538 62.7167 49.8954 63.0743 49.881 63.1055Z" fill="var(--fill-0, white)"/>
<path id="Vector_125" d="M50.3178 61.6559C50.3178 61.6847 48.9618 61.3775 47.3058 60.9695C45.6498 60.5615 44.3106 60.2015 44.3178 60.1703C44.325 60.1391 45.6738 60.4487 47.3322 60.8567C48.9906 61.2647 50.3274 61.6247 50.3178 61.6559Z" fill="var(--fill-0, white)"/>
<path id="Vector_126" d="M50.6346 60.1775C50.6346 60.2087 49.2882 59.9039 47.6442 59.4983C46.0002 59.0927 44.673 58.7351 44.6802 58.7063C44.6874 58.6775 46.0266 58.9799 47.673 59.3855C49.3194 59.7911 50.6442 60.1463 50.6346 60.1775Z" fill="var(--fill-0, white)"/>
<g id="Group_17" opacity="0.4">
<path id="Vector_127" d="M50.973 53.1479L50.3922 55.4951C50.3581 55.6332 50.3516 55.7766 50.3729 55.9172C50.3943 56.0577 50.4432 56.1927 50.5167 56.3144C50.5903 56.4361 50.6871 56.5421 50.8016 56.6264C50.9161 56.7107 51.0461 56.7715 51.1842 56.8055L53.553 57.3359L50.973 53.1479Z" fill="var(--fill-0, white)"/>
</g>
<path id="Vector_128" d="M75.8442 67.5071L65.3682 69.9815C65.1959 70.0226 65.0173 70.0292 64.8425 70.0011C64.6677 69.973 64.5001 69.9106 64.3494 69.8177C64.1987 69.7247 64.0678 69.6029 63.9642 69.4593C63.8607 69.3157 63.7864 69.1531 63.7458 68.9807L60.321 54.4919C60.28 54.3198 60.2734 54.1413 60.3015 53.9667C60.3297 53.792 60.392 53.6246 60.485 53.4741C60.578 53.3236 60.6998 53.1929 60.8434 53.0896C60.987 52.9863 61.1496 52.9123 61.3218 52.8719L67.965 51.2999L74.361 55.3799L76.845 65.8895C76.9258 66.2367 76.8658 66.6017 76.6783 66.9048C76.4908 67.2079 76.1909 67.4244 75.8442 67.5071Z" fill="var(--fill-0, #6869AC)"/>
<g id="Group_18" opacity="0.2">
<path id="Vector_129" d="M62.8338 65.0902L75.932 61.9939L76.8629 65.9318C76.9417 66.2651 76.8848 66.616 76.7049 66.9073C76.5249 67.1987 76.2366 67.4066 75.9034 67.4854L65.3183 69.9876C64.985 70.0664 64.6341 70.0096 64.3428 69.8296C64.0514 69.6497 63.8435 69.3613 63.7647 69.0281L62.8338 65.0902Z" fill="var(--fill-0, #101723)"/>
</g>
<path id="Vector_130" d="M67.965 51.2879L68.925 55.3679C69.002 55.6909 69.2038 55.9703 69.4863 56.1448C69.7688 56.3194 70.1089 56.3748 70.4322 56.2991L74.361 55.3751L67.965 51.2879Z" fill="var(--fill-0, #6869AC)"/>
<g id="Group_19" opacity="0.2">
<path id="Vector_131" d="M69.081 55.7159C69.1564 56.0241 69.3348 56.2972 69.5866 56.4902C69.8385 56.6831 70.1486 56.7842 70.4658 56.7767C70.5114 56.7791 70.557 56.7791 70.6026 56.7767C71.1354 56.7479 74.6514 56.5511 74.6322 56.4743C74.613 56.3975 74.373 55.3775 74.373 55.3775L70.449 56.3039C70.449 56.3039 69.4506 56.5007 69.081 55.7159Z" fill="var(--fill-0, #101723)"/>
</g>
<g id="Group_20" opacity="0.4">
<path id="Vector_132" d="M67.965 51.2879L68.925 55.3679C69.002 55.6909 69.2038 55.9703 69.4863 56.1448C69.7688 56.3194 70.1089 56.3748 70.4322 56.2991L74.361 55.3751L67.965 51.2879Z" fill="var(--fill-0, white)"/>
</g>
</g>
<g id="Watchlist">
<path d="M60 100.585L60.4278 100.479L61.0776 102.051L61.2627 100.271L61.6682 100.17L62.6123 101.602L62.4792 99.9682L62.8942 99.8649L63.0325 102.245L62.6318 102.345L61.5627 100.716L61.3357 102.668L60.9397 102.766L60 100.585Z" fill="var(--fill-0, #101723)"/>
<path d="M63.5058 101.575C63.4232 101.244 63.6236 101.017 64.107 100.897C64.2205 100.869 64.3365 100.851 64.4553 100.844L64.424 100.719C64.3868 100.569 64.2606 100.521 64.0453 100.575C63.863 100.62 63.6671 100.697 63.4577 100.805L63.3745 100.472C63.584 100.363 63.7799 100.286 63.9622 100.241C64.4584 100.117 64.7521 100.239 64.8434 100.606L65.1221 101.725L64.8772 101.786L64.6905 101.674C64.5701 101.81 64.4224 101.899 64.2474 101.943C63.8393 102.045 63.5921 101.922 63.5058 101.575ZM64.5265 101.13C64.4152 101.136 64.2991 101.153 64.1783 101.183C63.9758 101.234 63.8917 101.328 63.926 101.466C63.9629 101.614 64.0662 101.667 64.2358 101.625C64.3758 101.59 64.4948 101.514 64.593 101.398L64.5265 101.13Z" fill="var(--fill-0, #101723)"/>
<path d="M65.0145 99.6918L65.3262 99.6142L65.4571 99.8687L65.8769 99.7642L65.96 100.098L65.5863 100.191L65.7775 100.959C65.8163 101.115 65.903 101.176 66.0376 101.143L66.2094 101.1L66.2925 101.434L65.9172 101.527C65.6373 101.597 65.46 101.482 65.3854 101.182L65.0145 99.6918Z" fill="var(--fill-0, #101723)"/>
<path d="M67.8009 101.008C67.671 101.074 67.5318 101.125 67.3834 101.162C66.7897 101.31 66.421 101.095 66.2771 100.517C66.1439 99.982 66.3741 99.6404 66.9678 99.4927C67.1162 99.4557 67.2633 99.436 67.409 99.4335L67.4921 99.7675C67.3464 99.77 67.2099 99.787 67.0827 99.8187C66.7488 99.9018 66.6207 100.1 66.6986 100.413C66.787 100.768 66.9981 100.904 67.3321 100.821C67.4593 100.789 67.5879 100.74 67.7178 100.674L67.8009 101.008Z" fill="var(--fill-0, #101723)"/>
<path d="M68.0911 100.986L67.525 98.7122L67.9464 98.6073L68.1499 99.4247C68.246 99.2499 68.3964 99.1371 68.601 99.0862C68.9964 98.9877 69.2453 99.1442 69.3477 99.5555L69.6097 100.608L69.1883 100.713L68.9263 99.6604C68.8804 99.476 68.7657 99.4065 68.5823 99.4522C68.4455 99.4862 68.3256 99.5741 68.2223 99.7157L68.5125 100.881L68.0911 100.986Z" fill="var(--fill-0, #101723)"/>
<path d="M69.8643 98.13L70.4303 100.404L70.0089 100.509L69.4429 98.2349L69.8643 98.13Z" fill="var(--fill-0, #101723)"/>
<path d="M70.6848 97.9257L70.768 98.2597L70.3465 98.3646L70.2634 98.0306L70.6848 97.9257ZM70.8353 98.53L71.2509 100.2L70.8295 100.305L70.4138 98.6349L70.8353 98.53Z" fill="var(--fill-0, #101723)"/>
<path d="M71.6302 100.021L71.5431 99.6711C71.7471 99.6991 71.9705 99.6829 72.2133 99.6225C72.3946 99.5773 72.4707 99.4965 72.4417 99.3798C72.414 99.2685 72.3392 99.228 72.2173 99.2584L71.9151 99.3336C71.5759 99.418 71.3647 99.2933 71.2816 98.9593C71.1945 98.6095 71.3985 98.3729 71.8936 98.2497C72.1035 98.1975 72.3091 98.18 72.5105 98.1975L72.5976 98.5473C72.3936 98.5193 72.1829 98.5323 71.9656 98.5864C71.7376 98.6432 71.6382 98.7298 71.6672 98.8465C71.6949 98.9578 71.775 98.9969 71.9075 98.964L72.1779 98.8967C72.5489 98.8043 72.776 98.9251 72.8592 99.259C72.9462 99.6089 72.7534 99.8427 72.2805 99.9604C72.0484 100.018 71.8316 100.038 71.6302 100.021Z" fill="var(--fill-0, #101723)"/>
<path d="M72.7748 97.7601L73.0865 97.6826L73.2174 97.9371L73.6373 97.8326L73.7204 98.1665L73.3467 98.2595L73.5379 99.0276C73.5767 99.1835 73.6634 99.2446 73.798 99.2111L73.9698 99.1684L74.0529 99.5023L73.6776 99.5957C73.3977 99.6654 73.2204 99.5502 73.1457 99.2502L72.7748 97.7601Z" fill="var(--fill-0, #101723)"/>
</g>
<g id="NU">
<path d="M64.8546 62.8683L63.9822 58.9116L64.7154 58.7499L67.4402 61.1725L66.8045 58.2893L67.51 58.1337L68.3825 62.0905L67.6492 62.2521L64.911 59.7687L65.5602 62.7128L64.8546 62.8683Z" fill="var(--fill-0, #AEADD5)"/>
<path d="M68.8724 60.3518L68.3429 57.9501L69.0761 57.7884L69.6057 60.1901C69.7448 60.821 70.1371 61.0652 70.7828 60.9229C71.4284 60.7805 71.6817 60.3939 71.5426 59.7631L71.013 57.3613L71.7462 57.1997L72.2758 59.6014C72.5084 60.6565 72.0575 61.3091 70.9231 61.5593C69.7886 61.8094 69.1051 61.4069 68.8724 60.3518Z" fill="var(--fill-0, #AEADD5)"/>
</g>
<g id="Nu Bank">
<path d="M64.8374 67.7879L64.3964 65.8444L64.7565 65.7626L66.104 66.946L65.7827 65.5298L66.1293 65.4512L66.5702 67.3947L66.2101 67.4764L64.8558 66.2632L65.1839 67.7093L64.8374 67.7879Z" fill="var(--fill-0, white)"/>
<path d="M67.9059 65.5911L68.2297 67.0182L67.9484 67.082L67.8636 66.9098C67.7271 67.0684 67.5669 67.1686 67.383 67.2103C67.0912 67.2765 66.9062 67.137 66.8279 66.7918L66.6216 65.8825L66.9817 65.8008L67.1859 66.7005C67.2216 66.8582 67.3084 66.9214 67.4461 66.8902C67.563 66.8636 67.6716 66.7899 67.7718 66.6691L67.5458 65.6728L67.9059 65.5911Z" fill="var(--fill-0, white)"/>
<path d="M69.2164 66.7943L68.7755 64.8508L69.6861 64.6441C70.0557 64.5603 70.2748 64.6692 70.3433 64.9709C70.3934 65.192 70.3088 65.3774 70.0894 65.5273C70.3576 65.5169 70.5197 65.6349 70.5756 65.8814C70.6626 66.2647 70.5035 66.5023 70.0985 66.5942L69.2164 66.7943ZM70.0126 66.2849C70.1721 66.2488 70.2333 66.1491 70.1963 65.986C70.1505 65.784 70.0084 65.71 69.7701 65.764L69.6614 65.7887L69.6087 65.5563C69.8964 65.4386 70.0175 65.2797 69.972 65.0794C69.9474 64.9707 69.868 64.9315 69.7339 64.962L69.2066 65.0816L69.5057 66.4L70.0126 66.2849Z" fill="var(--fill-0, white)"/>
<path d="M70.8104 65.9653C70.7461 65.6817 70.9205 65.493 71.3337 65.3993C71.4306 65.3773 71.5296 65.3643 71.6307 65.3605L71.6063 65.2531C71.5773 65.1253 71.4709 65.0823 71.2869 65.1241C71.1311 65.1594 70.9632 65.2213 70.7832 65.3098L70.7184 65.0244C70.8984 64.9359 71.0663 64.874 71.2222 64.8386C71.6462 64.7424 71.8938 64.8511 71.9649 65.1646L72.182 66.1214L71.9727 66.1689L71.816 66.0701C71.7112 66.1835 71.584 66.2571 71.4345 66.291C71.0857 66.3702 70.8777 66.2616 70.8104 65.9653ZM71.6862 65.6051C71.5915 65.6075 71.4925 65.6205 71.3892 65.6439C71.2161 65.6832 71.1429 65.7617 71.1697 65.8795C71.1985 66.0064 71.2853 66.0533 71.4303 66.0204C71.5499 65.9933 71.6525 65.931 71.738 65.8334L71.6862 65.6051Z" fill="var(--fill-0, white)"/>
<path d="M72.5232 66.044L72.1994 64.6169L72.478 64.5537L72.5703 64.7528C72.6755 64.5822 72.8155 64.4771 72.9904 64.4374C73.3284 64.3608 73.5372 64.4982 73.617 64.8497L73.8211 65.7495L73.461 65.8312L73.2568 64.9315C73.2211 64.7738 73.1248 64.7128 72.968 64.7483C72.8512 64.7749 72.7476 64.8474 72.6573 64.966L72.8834 65.9623L72.5232 66.044Z" fill="var(--fill-0, white)"/>
<path d="M74.1623 65.6721L73.7213 63.7285L74.0815 63.6468L74.2239 64.2747C74.3548 64.1669 74.5017 64.0945 74.6648 64.0575C75.0291 63.9749 75.2423 64.0708 75.3046 64.3453C75.3499 64.5447 75.2584 64.7293 75.0302 64.8992L75.5975 65.3464L75.1572 65.4463L74.6691 65.0212L74.6312 64.854C74.8787 64.7397 74.9882 64.6196 74.9596 64.4937C74.9304 64.365 74.8297 64.3202 74.6576 64.3593C74.537 64.3866 74.4143 64.4545 74.2893 64.5629L74.5224 65.5904L74.1623 65.6721Z" fill="var(--fill-0, white)"/>
</g>
<g id="Microsoft">
<path d="M79.0581 73.0983L79.8187 71.8002L80.0684 71.9464L79.9316 73.1894L80.9399 72.457L81.1804 72.598L80.4198 73.8961L80.1974 73.7658L80.7272 72.8617L79.8452 73.5595L79.64 73.4393L79.8103 72.3245L79.2806 73.2287L79.0581 73.0983Z" fill="var(--fill-0, white)"/>
<path d="M81.6706 72.8852L81.5589 73.0758L81.3184 72.9349L81.4301 72.7442L81.6706 72.8852ZM81.4685 73.2302L80.9101 74.1834L80.6695 74.0424L81.228 73.0892L81.4685 73.2302Z" fill="var(--fill-0, white)"/>
<path d="M81.8574 74.7018C81.7681 74.6739 81.6811 74.6351 81.5964 74.5854C81.2575 74.3869 81.1846 74.1227 81.3779 73.7928C81.5569 73.4872 81.8159 73.4337 82.1548 73.6323C82.2396 73.6819 82.3159 73.7388 82.384 73.8031L82.2723 73.9937C82.2042 73.9295 82.1339 73.8761 82.0613 73.8335C81.8707 73.7218 81.723 73.7553 81.6184 73.9338C81.4996 74.1365 81.5356 74.2938 81.7262 74.4054C81.7988 74.448 81.8798 74.4832 81.9691 74.5112L81.8574 74.7018Z" fill="var(--fill-0, white)"/>
<path d="M82.0003 74.8221L82.5588 73.8689L82.7449 73.978L82.7036 74.1172C82.8346 74.085 82.9467 74.0962 83.0399 74.1508L82.9261 74.3451C82.8365 74.2926 82.7346 74.2829 82.6201 74.3158L82.2409 74.9631L82.0003 74.8221Z" fill="var(--fill-0, white)"/>
<path d="M83.0942 74.8179C82.9775 75.017 82.9964 75.1618 83.1507 75.2522C83.305 75.3426 83.4405 75.2883 83.5572 75.0892C83.671 74.8949 83.6507 74.7526 83.4964 74.6621C83.3421 74.5717 83.208 74.6237 83.0942 74.8179ZM82.8515 74.6806C83.0387 74.3611 83.2897 74.2935 83.6044 74.4779C83.9191 74.6622 83.9828 74.9142 83.7956 75.2338C83.6087 75.5527 83.358 75.62 83.0433 75.4356C82.7298 75.2519 82.6658 75.0003 82.8515 74.6806Z" fill="var(--fill-0, white)"/>
<path d="M83.7245 75.7713L83.8415 75.5716C83.9226 75.676 84.0325 75.7688 84.1711 75.85C84.2746 75.9107 84.3458 75.9077 84.3848 75.8411C84.422 75.7776 84.4059 75.7254 84.3363 75.6846L84.1638 75.5836C83.9701 75.4701 83.9291 75.3181 84.0408 75.1274C84.1578 74.9277 84.3576 74.9106 84.6403 75.0762C84.7601 75.1464 84.8623 75.2307 84.947 75.3291L84.83 75.5288C84.7489 75.4244 84.6463 75.3358 84.5222 75.2632C84.3921 75.1869 84.3075 75.1821 84.2685 75.2487C84.2313 75.3122 84.2505 75.3661 84.3262 75.4105L84.4805 75.5009C84.6923 75.625 84.7424 75.7824 84.6307 75.973C84.5137 76.1727 84.3202 76.1935 84.0503 76.0354C83.9178 75.9577 83.8092 75.8697 83.7245 75.7713Z" fill="var(--fill-0, white)"/>
<path d="M85.1059 75.9965C84.9892 76.1957 85.0081 76.3404 85.1624 76.4308C85.3167 76.5213 85.4522 76.4669 85.5689 76.2678C85.6827 76.0735 85.6624 75.9312 85.5081 75.8408C85.3538 75.7503 85.2197 75.8023 85.1059 75.9965ZM84.8632 75.8592C85.0504 75.5397 85.3014 75.4721 85.6161 75.6565C85.9308 75.8409 85.9945 76.0928 85.8073 76.4124C85.6204 76.7313 85.3697 76.7986 85.055 76.6142C84.7415 76.4305 84.6775 76.1789 84.8632 75.8592Z" fill="var(--fill-0, white)"/>
<path d="M85.7096 76.9953L86.2681 76.0421C86.4213 75.7807 86.6407 75.7337 86.9264 75.901C87.0044 75.9468 87.0681 76.0003 87.1175 76.0618L87.0058 76.2524C86.9601 76.1931 86.9021 76.1429 86.8319 76.1018C86.6951 76.0216 86.5874 76.0487 86.5087 76.1831L86.7946 76.3506L86.6829 76.5413L86.397 76.3737L85.9502 77.1363L85.7096 76.9953Z" fill="var(--fill-0, white)"/>
<path d="M87.0185 76.2745L87.1964 76.3787L87.1423 76.5543L87.382 76.6947L87.2703 76.8854L87.057 76.7604L86.8001 77.1989C86.7479 77.2878 86.7603 77.3548 86.8372 77.3999L86.9352 77.4573L86.8235 77.6479L86.6093 77.5224C86.4495 77.4288 86.4198 77.2964 86.5201 77.1251L87.0185 76.2745Z" fill="var(--fill-0, white)"/>
</g>
<g id="MSFT">
<path d="M81.0603 69.5677L82.2526 67.3874L82.6719 67.6167L82.5067 69.6754L84.1356 68.4172L84.5396 68.6381L83.3473 70.8184L82.9738 70.6142L83.8042 69.0956L82.3822 70.2906L82.0376 70.1022L82.2643 68.2534L81.4338 69.772L81.0603 69.5677Z" fill="var(--fill-0, #AEADD5)"/>
<path d="M83.8166 70.9563L84.0167 70.5903C84.1908 70.7912 84.4156 70.9669 84.691 71.1175C85.0254 71.3004 85.2538 71.28 85.3761 71.0564C85.465 70.8938 85.4068 70.7563 85.2015 70.644L84.86 70.4573C84.4138 70.2132 84.3018 69.8879 84.5242 69.4814C84.7687 69.0341 85.2087 68.9842 85.844 69.3316C86.0879 69.465 86.2997 69.6271 86.4793 69.8177L86.2792 70.1836C86.1052 69.9828 85.8961 69.8157 85.6522 69.6823C85.2863 69.4822 85.0449 69.4889 84.9282 69.7023C84.8393 69.8649 84.8832 69.9946 85.0601 70.0913L85.4016 70.2781C85.8763 70.5377 86.0025 70.8708 85.7801 71.2774C85.53 71.7348 85.103 71.7984 84.4993 71.4682C84.2238 71.3176 83.9963 71.1469 83.8166 70.9563Z" fill="var(--fill-0, #AEADD5)"/>
<path d="M88.3803 70.7385L88.1902 71.0861L87.1595 70.5225L86.8594 71.0713L87.8382 71.6066L87.6406 71.968L86.6572 71.4302L86.1527 72.3526L85.7563 72.1358L86.9487 69.9555L88.3803 70.7385Z" fill="var(--fill-0, #AEADD5)"/>
<path d="M90.149 71.7057L89.9572 72.0564L89.3321 71.7145L88.3315 73.5441L87.9275 73.3232L88.928 71.4935L88.3029 71.1517L88.4947 70.801L90.149 71.7057Z" fill="var(--fill-0, #AEADD5)"/>
</g>
<g id="Tesla">
<path d="M80.2677 47.597L80.2944 47.9688L79.6315 48.0163L79.7706 49.9563L79.3422 49.987L79.2031 48.047L78.5403 48.0945L78.5136 47.7227L80.2677 47.597Z" fill="var(--fill-0, white)"/>
<path d="M81.2317 48.1454C81.7468 48.1084 82.0233 48.353 82.061 48.8789C82.066 48.949 82.0662 49.0194 82.0615 49.0901L80.9346 49.1709C80.9518 49.4102 81.136 49.5172 81.4874 49.492C81.6588 49.4797 81.829 49.4513 81.998 49.4067L82.0224 49.7462C81.8749 49.7892 81.6939 49.8185 81.4794 49.8338C80.864 49.8779 80.5355 49.6106 80.4941 49.0318C80.4544 48.4789 80.7003 48.1834 81.2317 48.1454ZM80.9133 48.8734L81.6376 48.8215L81.6367 48.8086C81.6198 48.5736 81.4929 48.4646 81.2557 48.4816C81.0294 48.4979 80.9153 48.6284 80.9133 48.8734Z" fill="var(--fill-0, white)"/>
<path d="M82.442 49.6836L82.4165 49.3279C82.6105 49.3899 82.8309 49.412 83.0778 49.3943C83.2621 49.3811 83.35 49.3152 83.3415 49.1966C83.3334 49.0835 83.2673 49.0313 83.1434 49.0402L82.8362 49.0622C82.4913 49.087 82.3067 48.9296 82.2824 48.5901C82.2569 48.2344 82.4958 48.0385 82.9991 48.0024C83.2125 47.9872 83.4159 48.0051 83.6091 48.0562L83.6346 48.4119C83.4406 48.35 83.2331 48.3269 83.0121 48.3428C82.7804 48.3594 82.6688 48.4269 82.6773 48.5455C82.6854 48.6587 82.7568 48.7104 82.8916 48.7008L83.1664 48.6811C83.5436 48.654 83.7444 48.8103 83.7687 49.1498C83.7942 49.5054 83.5666 49.7005 83.0859 49.735C82.8499 49.7519 82.6352 49.7348 82.442 49.6836Z" fill="var(--fill-0, white)"/>
<path d="M84.3692 47.303L84.5349 49.6149L84.1065 49.6456L83.9408 47.3337L84.3692 47.303Z" fill="var(--fill-0, white)"/>
<path d="M84.822 49.0629C84.7978 48.7256 85.0315 48.5393 85.5229 48.5041C85.6383 48.4958 85.7543 48.4983 85.8712 48.5116L85.8621 48.3839C85.8512 48.2319 85.7363 48.1638 85.5175 48.1795C85.3322 48.1927 85.1282 48.2344 84.9058 48.3046L84.8814 47.9651C85.1039 47.8949 85.3078 47.8532 85.4932 47.84C85.9976 47.8038 86.2632 47.9722 86.2899 48.3451L86.3715 49.4833L86.1225 49.5011L85.9596 49.36C85.8192 49.4719 85.6601 49.5342 85.4823 49.547C85.0673 49.5767 84.8472 49.4154 84.822 49.0629ZM85.8921 48.8026C85.7827 48.7888 85.6666 48.7863 85.5438 48.7951C85.3379 48.8098 85.24 48.8873 85.2501 49.0274C85.2609 49.1783 85.3525 49.2475 85.5249 49.2352C85.6672 49.225 85.7961 49.1713 85.9115 49.0742L85.8921 48.8026Z" fill="var(--fill-0, white)"/>
</g>
<g id="TSLA">
<path d="M79.6463 42.8731L79.6746 43.2872L78.9363 43.3376L79.0837 45.4982L78.6066 45.5308L78.4592 43.3701L77.721 43.4205L77.6928 43.0064L79.6463 42.8731Z" fill="var(--fill-0, #B9BBC0)"/>
<path d="M80.0414 45.3243L80.012 44.8922C80.2766 44.9707 80.5715 44.9988 80.8968 44.9766C81.2917 44.9496 81.4802 44.8041 81.4622 44.5401C81.4491 44.348 81.3213 44.2602 81.0788 44.2768L80.6755 44.3043C80.1486 44.3402 79.8687 44.1181 79.836 43.638C79.7999 43.1099 80.157 42.8202 80.9072 42.769C81.1953 42.7494 81.4713 42.7728 81.7351 42.8392L81.7645 43.2713C81.4999 43.1929 81.2236 43.1635 80.9355 43.1831C80.5034 43.2126 80.2959 43.3534 80.3131 43.6055C80.3262 43.7975 80.4372 43.8864 80.646 43.8722L81.0493 43.8447C81.6099 43.8064 81.9066 44.0274 81.9393 44.5075C81.9762 45.0477 81.6381 45.3421 80.9251 45.3907C80.5998 45.4129 80.3052 45.3908 80.0414 45.3243Z" fill="var(--fill-0, #B9BBC0)"/>
<path d="M82.7 42.6648L82.8474 44.8254L83.87 44.7557L83.8983 45.1698L82.3985 45.2721L82.2228 42.6974L82.7 42.6648Z" fill="var(--fill-0, #B9BBC0)"/>
<path d="M84.6149 45.1209L84.1252 45.1543L85.0424 42.505L85.5556 42.47L86.8475 44.9686L86.3344 45.0036L85.993 44.3214L85.1378 44.3798L85.2734 43.9545L85.7919 43.9191L85.3208 42.9799L84.6149 45.1209Z" fill="var(--fill-0, #B9BBC0)"/>
</g>
</g>
</svg>
