<svg preserveAspectRatio="none" width="100%" height="100%" overflow="visible" style="display: block;" viewBox="0 0 20 20" fill="none" xmlns="http://www.w3.org/2000/svg">
<g id="ellipsis-v" clip-path="url(#clip0_2035_282)">
<path id="Vector" d="M9.76562 7.01904C11.2839 7.01904 12.5122 8.24738 12.5122 9.76562C12.5122 11.2839 11.2839 12.5122 9.76562 12.5122C8.24738 12.5122 7.01904 11.2839 7.01904 9.76562C7.01904 8.24738 8.24738 7.01904 9.76562 7.01904ZM7.01904 3.05176C7.01904 4.57001 8.24738 5.79834 9.76562 5.79834C11.2839 5.79834 12.5122 4.57001 12.5122 3.05176C12.5122 1.53351 11.2839 0.305176 9.76562 0.305176C8.24738 0.305176 7.01904 1.53351 7.01904 3.05176ZM7.01904 16.4795C7.01904 17.9977 8.24738 19.2261 9.76562 19.2261C11.2839 19.2261 12.5122 17.9977 12.5122 16.4795C12.5122 14.9612 11.2839 13.7329 9.76562 13.7329C8.24738 13.7329 7.01904 14.9612 7.01904 16.4795Z" fill="var(--fill-0, #787C84)"/>
</g>
<defs>
<clipPath id="clip0_2035_282">
<rect width="19.5312" height="19.5312" fill="white"/>
</clipPath>
</defs>
</svg>
