<svg width="19" height="19" viewBox="0 0 19 19" fill="none" xmlns="http://www.w3.org/2000/svg">
<path d="M16.4062 7.61719H11.1328V2.34375C11.1328 1.69666 10.608 1.17188 9.96094 1.17188H8.78906C8.14197 1.17188 7.61719 1.69666 7.61719 2.34375V7.61719H2.34375C1.69666 7.61719 1.17188 8.14197 1.17188 8.78906V9.96094C1.17188 10.608 1.69666 11.1328 2.34375 11.1328H7.61719V16.4062C7.61719 17.0533 8.14197 17.5781 8.78906 17.5781H9.96094C10.608 17.5781 11.1328 17.0533 11.1328 16.4062V11.1328H16.4062C17.0533 11.1328 17.5781 10.608 17.5781 9.96094V8.78906C17.5781 8.14197 17.0533 7.61719 16.4062 7.61719Z" fill="#8886BE"/>
</svg>
