<svg width="120" height="120" viewBox="0 0 120 120" fill="none" xmlns="http://www.w3.org/2000/svg">
<path d="M18.7047 97.6125C41.5108 109.527 78.4893 109.527 101.295 97.6125C124.102 85.6984 124.102 66.3812 101.295 54.4644C78.4893 42.5477 41.5213 42.5503 18.7047 54.4644C-4.11187 66.3786 -4.09101 85.6984 18.7047 97.6125Z" fill="#E8E5F9"/>
<path d="M29.3959 85.0594C29.3959 85.0594 29.4246 80.9237 26.817 77.8232C24.5092 75.0774 23.281 73.3356 24.0086 72.5324C24.7361 71.7293 26.3007 71.5363 28.4102 73.758C30.5198 75.9797 30.684 82.1336 30.392 83.5261L29.3959 85.0594Z" fill="#6869AC"/>
<path opacity="0.2" d="M29.3959 85.0594C29.3959 85.0594 29.4246 80.9237 26.817 77.8232C24.5092 75.0774 23.281 73.3356 24.0086 72.5324C24.7361 71.7293 26.3007 71.5363 28.4102 73.758C30.5198 75.9797 30.684 82.1336 30.392 83.5261L29.3959 85.0594Z" fill="#101723"/>
<path d="M29.8339 80.6133C29.8042 80.6135 29.7753 80.6034 29.7521 80.5849C29.7289 80.5665 29.7126 80.5406 29.7061 80.5116C28.7934 76.243 26.4518 73.8831 25.135 72.8557C25.1077 72.8346 25.0899 72.8035 25.0855 72.7693C25.0811 72.7351 25.0905 72.7005 25.1115 72.6731C25.1331 72.6457 25.1646 72.6279 25.1993 72.6235C25.2339 72.6191 25.2689 72.6285 25.2966 72.6497C26.6396 73.6927 29.0307 76.1074 29.9617 80.4569C29.9655 80.4735 29.9659 80.4907 29.963 80.5075C29.9601 80.5243 29.9538 80.5403 29.9446 80.5547C29.9353 80.569 29.9233 80.5814 29.9092 80.591C29.8951 80.6006 29.8793 80.6073 29.8626 80.6107L29.8339 80.6133Z" fill="white"/>
<path d="M29.2967 86.5951L28.2354 87.2079C28.1222 86.8985 27.9313 86.6235 27.681 86.4093C27.4308 86.1952 27.1296 86.049 26.8065 85.9849C25.6461 85.7241 24.4414 85.7685 23.6278 84.7619C22.8142 83.7554 23.8051 82.6602 23.6278 81.9196C23.4505 81.1791 23.3357 80.9653 21.8807 80.2247C20.4256 79.4841 19.852 78.2559 20.9472 77.4241C22.0424 76.5923 23.8155 77.2025 24.8899 77.9456C25.8443 78.5975 26.7517 78.7697 27.8182 78.9026C28.8847 79.0356 30.6214 79.6276 30.3554 82.1048C30.1813 83.6381 29.8259 85.1454 29.2967 86.5951Z" fill="#6869AC"/>
<path d="M25.2237 83.3408C25.1959 83.3406 25.1689 83.3317 25.1465 83.3153C25.124 83.2989 25.1072 83.276 25.0985 83.2496C25.0887 83.2164 25.0921 83.1807 25.1082 83.15C25.1243 83.1193 25.1517 83.0961 25.1846 83.0853C25.2785 83.0566 27.5314 82.3421 28.4884 83.1088C28.5122 83.1312 28.5267 83.1617 28.529 83.1943C28.5313 83.2269 28.5213 83.2591 28.501 83.2847C28.4807 83.3103 28.4515 83.3273 28.4192 83.3324C28.387 83.3375 28.354 83.3302 28.3268 83.3122C27.4819 82.6342 25.2863 83.3278 25.2628 83.3356L25.2237 83.3408Z" fill="white"/>
<path d="M29.414 86.3971C29.3822 86.3972 29.3516 86.3856 29.3279 86.3644C29.3043 86.3432 29.2894 86.3139 29.2862 86.2823C28.7047 80.7907 22.0892 78.1857 22.024 78.1596C22.0078 78.1536 21.993 78.1444 21.9805 78.1325C21.9679 78.1207 21.9578 78.1065 21.9508 78.0907C21.9437 78.0749 21.9399 78.0579 21.9395 78.0407C21.9391 78.0234 21.9421 78.0062 21.9484 77.9902C21.9612 77.9586 21.9857 77.9331 22.0167 77.919C22.0478 77.9049 22.0831 77.9033 22.1153 77.9145C22.1857 77.9432 28.9472 80.603 29.5444 86.2589C29.548 86.2931 29.538 86.3274 29.5165 86.3542C29.495 86.3811 29.4638 86.3984 29.4296 86.4023L29.414 86.3971Z" fill="white"/>
<path d="M94.2731 82.9889C94.3018 82.8976 95.4205 77.14 94.2731 73.0565C93.2301 69.312 91.8689 67.9299 89.9289 67.6249C87.9888 67.3198 87.1465 68.7174 88.1765 70.6106C89.2066 72.5037 91.6864 75.0148 92.294 79.2444C92.5547 80.9862 92.7529 82.4987 92.7529 82.4987L94.2731 82.9889Z" fill="#6869AC"/>
<path opacity="0.2" d="M94.2731 82.9889C94.3018 82.8976 95.4205 77.14 94.2731 73.0565C93.2301 69.312 91.8689 67.9299 89.9289 67.6249C87.9888 67.3198 87.1465 68.7174 88.1765 70.6106C89.2066 72.5037 91.6864 75.0148 92.294 79.2444C92.5547 80.9862 92.7529 82.4987 92.7529 82.4987L94.2731 82.9889Z" fill="#101723"/>
<path d="M93.6186 79.6824C93.6015 79.6814 93.5847 79.6771 93.5693 79.6696C93.5538 79.6621 93.54 79.6516 93.5286 79.6388C93.5173 79.6259 93.5085 79.611 93.5029 79.5947C93.4973 79.5785 93.495 79.5613 93.4961 79.5442C93.7568 74.8818 92.234 70.7201 89.5038 68.6783C89.4762 68.6576 89.4579 68.6267 89.453 68.5925C89.4481 68.5582 89.457 68.5234 89.4777 68.4958C89.4989 68.4687 89.5297 68.4508 89.5638 68.446C89.5978 68.4411 89.6324 68.4496 89.6603 68.4697C92.4582 70.5558 94.028 74.8114 93.7542 79.5599C93.7522 79.594 93.7368 79.626 93.7115 79.6489C93.6861 79.6718 93.6528 79.6839 93.6186 79.6824Z" fill="white"/>
<path d="M97.2745 85.9875C97.1259 84.9158 97.7413 83.3095 99.2041 82.9288C100.667 82.5481 101.319 81.7084 100.792 80.7905C100.265 79.8727 100.388 79.0304 101.715 78.6497C103.043 78.269 104.206 77.6067 103.441 76.2038C102.886 75.1894 102.764 74.5323 104.125 72.5349C105.254 70.8764 104.331 69.9038 102.917 70.0863C101.504 70.2689 100.63 71.9534 99.7465 72.235C98.8625 72.5166 98.6591 71.0146 97.4935 71.6874C96.3279 72.3602 96.3983 74.0838 96.3618 75.2859C96.3253 76.488 96.2471 76.7592 95.1936 76.6132C94.1401 76.4671 93.1075 76.6392 93.131 79.1869C93.1493 81.372 94.3149 84.0787 94.3149 84.0787L97.2745 85.9875Z" fill="#6869AC"/>
<path d="M95.4258 84.3579H95.4127C95.3779 84.354 95.346 84.3364 95.324 84.3091C95.302 84.2817 95.2917 84.2468 95.2954 84.2119C96.0307 77.6433 101.668 72.1022 103.139 70.9783C103.167 70.9572 103.202 70.9479 103.236 70.9526C103.271 70.9572 103.302 70.9754 103.323 71.0031C103.344 71.0307 103.353 71.0656 103.349 71.1001C103.344 71.1346 103.326 71.1658 103.298 71.1869C101.846 72.2951 96.2811 77.7633 95.5562 84.2406C95.5524 84.2726 95.5371 84.3022 95.5131 84.3238C95.4891 84.3454 95.4581 84.3575 95.4258 84.3579Z" fill="white"/>
<path d="M97.9967 77.3354C97.9703 77.3353 97.9445 77.3272 97.9227 77.3124C97.9009 77.2975 97.884 77.2765 97.8741 77.252C97.863 77.2191 97.8649 77.1832 97.8794 77.1516C97.894 77.1201 97.9201 77.0954 97.9524 77.0825C100.054 76.3002 102.437 76.6705 102.539 76.6861C102.573 76.6919 102.603 76.7107 102.623 76.7385C102.643 76.7664 102.651 76.8009 102.646 76.8348C102.64 76.8684 102.621 76.8984 102.593 76.9187C102.566 76.9391 102.531 76.9482 102.497 76.9443C102.474 76.9443 100.08 76.5688 98.0436 77.3276C98.0285 77.3327 98.0126 77.3354 97.9967 77.3354Z" fill="white"/>
<path d="M96.1245 81.2835C96.1062 81.2833 96.0882 81.2792 96.0715 81.2716C96.0549 81.2639 96.0401 81.2529 96.028 81.2391C95.154 80.2213 94.5615 78.9923 94.3096 77.6745C94.307 77.6576 94.3078 77.6403 94.3119 77.6236C94.316 77.607 94.3233 77.5913 94.3335 77.5775C94.3437 77.5637 94.3565 77.552 94.3712 77.5432C94.3859 77.5343 94.4022 77.5285 94.4191 77.5259C94.4361 77.5233 94.4534 77.5241 94.47 77.5282C94.4867 77.5323 94.5024 77.5397 94.5162 77.5498C94.53 77.56 94.5416 77.5728 94.5505 77.5875C94.5593 77.6022 94.5652 77.6185 94.5678 77.6354C94.8171 78.9013 95.3872 80.082 96.2236 81.0644C96.2399 81.0836 96.2504 81.1071 96.2539 81.132C96.2574 81.1569 96.2538 81.1824 96.2434 81.2053C96.233 81.2283 96.2163 81.2478 96.1953 81.2616C96.1742 81.2755 96.1497 81.283 96.1245 81.2835Z" fill="white"/>
<path d="M29.2966 46.2372V86.5977L70.6064 62.7485L70.6038 26.0569L39.8887 43.7912L38.8274 40.7325L29.2966 46.2372Z" fill="#6869AC"/>
<path opacity="0.7" d="M29.2966 46.2372V86.5977L70.6064 62.7485L70.6038 26.0569L39.8887 43.7912L38.8274 40.7325L29.2966 46.2372Z" fill="#101723"/>
<path d="M29.2966 86.5977L31.414 49.9061L72.7237 26.0569L70.6064 62.7485L29.2966 86.5977Z" fill="#9A99C9"/>
<path d="M29.2966 86.5976L32.4727 50.5188L73.7824 26.667L70.6064 62.7485L29.2966 86.5976Z" fill="#6869AC"/>
<path opacity="0.7" d="M29.2966 86.5976L32.4727 50.5188L73.7824 26.667L70.6064 62.7485L29.2966 86.5976Z" fill="#101723"/>
<path d="M35.6514 49.9063V90.2695L76.9611 66.4177V29.726L46.2435 47.4604L45.1848 44.4016L35.6514 49.9063Z" fill="#6869AC"/>
<path opacity="0.5" d="M35.6514 49.9063V90.2695L76.9611 66.4177V29.726L46.2435 47.4604L45.1848 44.4016L35.6514 49.9063Z" fill="#101723"/>
<path d="M35.6514 90.2695L37.7687 53.5752L79.0785 29.726L76.9611 66.4177L35.6514 90.2695Z" fill="#9A99C9"/>
<path d="M35.6514 90.2694L38.8274 54.188L80.1372 30.3362L76.9611 66.4177L35.6514 90.2694Z" fill="#6869AC"/>
<path opacity="0.5" d="M35.6514 90.2694L38.8274 54.188L80.1372 30.3362L76.9611 66.4177L35.6514 90.2694Z" fill="#101723"/>
<path d="M70.5961 103.112C63.1801 98.8302 56.3012 94.1756 53.1616 88.7153L62.7055 83.2054L70.5961 103.112Z" fill="#9A99C9"/>
<path d="M43.0649 54.1879V94.5485L84.3747 70.6993V34.0076L53.657 51.742L52.5984 48.6832L43.0649 54.1879Z" fill="#6869AC"/>
<path opacity="0.2" d="M43.0649 54.1879V94.5485L84.3747 70.6993V34.0076L53.657 51.742L52.5984 48.6832L43.0649 54.1879Z" fill="#101723"/>
<path d="M54.9661 66.1203C54.8618 66.1203 54.8462 66.0004 54.8462 65.93V31.5096C54.8546 31.376 54.8938 31.2463 54.9607 31.1305C55.0277 31.0146 55.1206 30.9159 55.2321 30.842L85.0475 13.6318C85.0883 13.6063 85.135 13.592 85.1831 13.5901C85.2874 13.5901 85.3031 13.71 85.3031 13.7804V48.2009C85.2949 48.3348 85.2558 48.465 85.1888 48.5813C85.1218 48.6976 85.0289 48.7967 84.9171 48.871L55.1017 66.0812C55.0605 66.1055 55.0139 66.1189 54.9661 66.1203Z" fill="white"/>
<path d="M85.1673 13.7101C85.1694 13.7292 85.1694 13.7484 85.1673 13.7675V48.1879C85.1587 48.2989 85.1255 48.4066 85.07 48.5032C85.0145 48.5997 84.9382 48.6826 84.8466 48.7459L55.0312 65.9561L54.979 65.9796C54.9755 65.9606 54.9755 65.9412 54.979 65.9222V31.5018C54.988 31.3912 55.0214 31.2841 55.0769 31.188C55.1323 31.0919 55.2085 31.0094 55.2998 30.9464L85.1151 13.7362C85.1316 13.7247 85.1502 13.7167 85.1699 13.7127M85.1856 13.4519C85.1145 13.4541 85.0453 13.4747 84.9848 13.5119L55.1694 30.7221C55.0383 30.8082 54.9292 30.9238 54.8509 31.0597C54.7726 31.1955 54.7271 31.3478 54.7183 31.5044V65.9248C54.7183 66.1282 54.82 66.2456 54.979 66.2456C55.0501 66.2437 55.1194 66.223 55.1798 66.1856L84.9952 48.9754C85.1268 48.8899 85.2364 48.7744 85.3148 48.6385C85.3932 48.5025 85.4383 48.3499 85.4463 48.1931V13.7727C85.4463 13.5693 85.3446 13.4493 85.1856 13.4519Z" fill="#6869AC"/>
<path opacity="0.7" d="M85.1673 13.7101C85.1694 13.7292 85.1694 13.7484 85.1673 13.7675V48.1879C85.1587 48.2989 85.1255 48.4066 85.07 48.5032C85.0145 48.5997 84.9382 48.6826 84.8466 48.7459L55.0312 65.9561L54.979 65.9796C54.9755 65.9606 54.9755 65.9412 54.979 65.9222V31.5018C54.988 31.3912 55.0214 31.2841 55.0769 31.188C55.1323 31.0919 55.2085 31.0094 55.2998 30.9464L85.1151 13.7362C85.1316 13.7247 85.1502 13.7167 85.1699 13.7127M85.1856 13.4519C85.1145 13.4541 85.0453 13.4747 84.9848 13.5119L55.1694 30.7221C55.0383 30.8082 54.9292 30.9238 54.8509 31.0597C54.7726 31.1955 54.7271 31.3478 54.7183 31.5044V65.9248C54.7183 66.1282 54.82 66.2456 54.979 66.2456C55.0501 66.2437 55.1194 66.223 55.1798 66.1856L84.9952 48.9754C85.1268 48.8899 85.2364 48.7744 85.3148 48.6385C85.3932 48.5025 85.4383 48.3499 85.4463 48.1931V13.7727C85.4463 13.5693 85.3446 13.4493 85.1856 13.4519Z" fill="white"/>
<path d="M57.8945 32.8161L68.4866 26.7013V38.931L57.8945 45.0458V32.8161Z" fill="#6869AC"/>
<path opacity="0.8" d="M57.8945 32.8161L68.4866 26.7013V38.931L57.8945 45.0458V32.8161Z" fill="white"/>
<path d="M66.8984 29.7494V33.4261L66.5646 33.6113V32.4874C66.5646 31.8668 66.0613 31.6556 65.4355 32.0154L60.9478 34.61C60.3246 34.9698 59.8187 35.7651 59.8187 36.3858V37.5096L59.4875 37.7078V34.0389L66.8984 29.7494Z" fill="white"/>
<path d="M64.8593 39.1107C64.3169 39.4236 63.8762 39.095 63.8762 38.3727V32.4874L62.5124 33.2279V39.1602C62.5124 39.8799 62.0718 40.7248 61.5294 41.0299L60.5437 41.5983V41.9895L65.8398 38.9308V38.5422L64.8593 39.1107Z" fill="white"/>
<path d="M70.5959 26.0987C70.5959 26.4377 70.901 26.5342 71.2739 26.3204L81.5792 20.362C81.762 20.2583 81.9184 20.1138 82.036 19.9396C82.1536 19.7654 82.2293 19.5664 82.2572 19.3581C82.2572 19.0217 81.9521 18.9226 81.5792 19.139L71.2817 25.0844C71.0959 25.1878 70.937 25.3335 70.8178 25.5097C70.6987 25.6859 70.6227 25.8877 70.5959 26.0987Z" fill="#3E4551"/>
<path d="M70.5959 29.7494C70.5959 30.0884 70.901 30.1875 71.2739 29.971L81.5714 24.0257C81.7542 23.922 81.9106 23.7775 82.0282 23.6033C82.1458 23.4291 82.2215 23.2301 82.2493 23.0217C82.2493 22.6854 81.9443 22.5863 81.5714 22.8027L71.2739 28.7481C71.0914 28.8514 70.9352 28.9956 70.8176 29.1693C70.7 29.343 70.6242 29.5415 70.5959 29.7494Z" fill="#3E4551"/>
<path d="M70.5959 33.4261C70.5959 33.7651 70.901 33.8642 71.2739 33.6478L81.5714 27.7024C81.7539 27.5991 81.9101 27.4549 82.0277 27.2812C82.1453 27.1075 82.2211 26.909 82.2493 26.7011C82.2493 26.3621 81.9443 26.263 81.5714 26.4795L71.2739 32.4248C71.0914 32.5282 70.9352 32.6724 70.8176 32.8461C70.7 33.0198 70.6242 33.2183 70.5959 33.4261Z" fill="#3E4551"/>
<path d="M70.5959 37.0951C70.5959 37.4341 70.901 37.5332 71.2739 37.3168L81.5714 31.3714C81.7539 31.2681 81.9101 31.1239 82.0277 30.9502C82.1453 30.7765 82.2211 30.578 82.2493 30.3701C82.2493 30.0311 81.9443 29.932 81.5714 30.1485L71.2739 36.0938C71.0914 36.1972 70.9352 36.3414 70.8176 36.5151C70.7 36.6888 70.6242 36.8873 70.5959 37.0951Z" fill="#3E4551"/>
<path d="M57.8945 48.1044C57.8945 48.4434 58.197 48.5425 58.5725 48.3261L81.5794 35.0273C81.7622 34.9242 81.9186 34.7801 82.0362 34.6064C82.1539 34.4326 82.2296 34.2339 82.2574 34.0259C82.2574 33.687 81.9523 33.5905 81.5794 33.8043L58.5725 47.1031C58.3896 47.206 58.2331 47.35 58.1155 47.5238C57.9978 47.6976 57.9222 47.8964 57.8945 48.1044Z" fill="#3E4551"/>
<path d="M57.8945 51.7733C57.8945 52.1123 58.197 52.2114 58.5725 51.995L81.5794 38.7118C81.7623 38.6082 81.9186 38.4636 82.0363 38.2895C82.1539 38.1153 82.2296 37.9162 82.2574 37.7079C82.2574 37.3715 81.9523 37.2724 81.5794 37.4889L58.5725 50.772C58.3896 50.8749 58.2331 51.019 58.1155 51.1927C57.9978 51.3665 57.9222 51.5653 57.8945 51.7733Z" fill="#3E4551"/>
<path d="M57.8945 55.4449C57.8945 55.7813 58.197 55.8804 58.5725 55.6639L81.5794 42.3808C81.7623 42.2771 81.9186 42.1326 82.0363 41.9584C82.1539 41.7842 82.2296 41.5852 82.2574 41.3769C82.2574 41.0405 81.9523 40.9414 81.5794 41.1578L58.5725 54.441C58.3893 54.5441 58.2326 54.6886 58.1149 54.8628C57.9972 55.0371 57.9218 55.2364 57.8945 55.4449Z" fill="#3E4551"/>
<path d="M43.0649 94.5486L50.4784 62.1386L91.7881 38.2868L84.3747 70.6994L43.0649 94.5486Z" fill="#6869AC"/>
<path d="M53.1721 64.6756V88.7152L62.7055 83.2105V59.1736L53.1721 64.6756Z" fill="#6869AC"/>
<path opacity="0.2" d="M53.1721 64.6756V88.7152L62.7055 83.2105V59.1736L53.1721 64.6756Z" fill="#101723"/>
<path d="M70.6143 102.955C69.8033 102.35 61.9857 96.3764 58.0117 87.8312C53.7821 78.7463 53.7874 68.149 53.7874 64.162V64.0368L82.1268 47.6767C82.1268 51.7002 82.1268 62.3132 86.3746 71.4294C90.2574 79.7737 97.7751 85.6722 98.9668 86.5744L70.6143 102.955Z" fill="white"/>
<path d="M81.9965 47.9115C81.9965 52.1045 82.0773 62.5141 86.2573 71.4947C90.0097 79.5522 97.1441 85.3463 98.7321 86.5693L70.6221 102.799C69.5243 101.972 62.0014 96.0975 58.1317 87.787C53.9073 78.7282 53.9073 68.1517 53.9073 64.1699V64.1204L81.9861 47.9089M82.2468 47.4577L53.6466 63.9717C53.6466 67.7241 53.5684 78.6265 57.8839 87.8965C62.1317 96.9945 70.596 103.112 70.596 103.112L99.2041 86.5953C99.2041 86.5953 90.7294 80.4779 86.4946 71.3799C82.1764 62.1099 82.2573 51.2075 82.2573 47.4551L82.2468 47.4577Z" fill="#6869AC"/>
<path opacity="0.7" d="M81.9965 47.9115C81.9965 52.1045 82.0773 62.5141 86.2573 71.4947C90.0097 79.5522 97.1441 85.3463 98.7321 86.5693L70.6221 102.799C69.5243 101.972 62.0014 96.0975 58.1317 87.787C53.9073 78.7282 53.9073 68.1517 53.9073 64.1699V64.1204L81.9861 47.9089M82.2468 47.4577L53.6466 63.9717C53.6466 67.7241 53.5684 78.6265 57.8839 87.8965C62.1317 96.9945 70.596 103.112 70.596 103.112L99.2041 86.5953C99.2041 86.5953 90.7294 80.4779 86.4946 71.3799C82.1764 62.1099 82.2573 51.2075 82.2573 47.4551L82.2468 47.4577Z" fill="white"/>
<path d="M79.0211 52.9964L69.9779 58.2116C69.7969 58.3112 69.6426 58.4531 69.5282 58.6252C69.4138 58.7973 69.3426 58.9944 69.3208 59.1999C69.3338 59.5311 69.6494 59.6249 70.0222 59.4085L79.068 54.1933C79.2469 54.0946 79.3996 53.9546 79.5135 53.785C79.6273 53.6153 79.699 53.421 79.7226 53.218C79.7069 52.8738 79.3966 52.78 79.0211 52.9964Z" fill="#3E4551"/>
<path d="M79.2143 56.5556L70.1711 61.7708C69.9922 61.867 69.8406 62.0068 69.7303 62.1773C69.6199 62.3478 69.5545 62.5435 69.54 62.746C69.5687 63.0668 69.8973 63.1528 70.2702 62.9364L79.316 57.7212C79.4939 57.6254 79.6446 57.4858 79.7536 57.3156C79.8627 57.1454 79.9265 56.9503 79.9392 56.7485C79.9131 56.4252 79.5898 56.347 79.2143 56.5556Z" fill="#3E4551"/>
<path d="M79.5766 60.0159L70.5308 65.2311C70.1579 65.4475 69.8867 65.8778 69.931 66.1881C69.9753 66.4984 70.3169 66.5792 70.6924 66.3628L79.7382 61.1476C80.1111 60.9311 80.3771 60.5035 80.3302 60.1932C80.2832 59.8829 79.9494 59.7994 79.5766 60.0159Z" fill="#3E4551"/>
<path d="M80.119 63.3721L71.0732 68.5873C70.7003 68.8037 70.4421 69.2261 70.5047 69.5286C70.5673 69.8311 70.9219 69.8989 71.287 69.6825L80.3302 64.4673C80.7057 64.2508 80.956 63.831 80.8934 63.5285C80.8308 63.226 80.5049 63.1556 80.119 63.3721Z" fill="#3E4551"/>
<path d="M80.8544 66.6158L71.8086 71.8311C71.4357 72.0475 71.1932 72.4595 71.2871 72.7489C71.381 73.0384 71.7382 73.1036 72.1111 72.8871L81.1569 67.6719C81.5324 67.4555 81.7671 67.0461 81.6784 66.754C81.5898 66.462 81.2273 66.3994 80.8544 66.6158Z" fill="#3E4551"/>
<path d="M81.8088 69.7423L59.7641 82.47C59.3912 82.6865 59.1643 83.0881 59.266 83.3671C59.3677 83.6461 59.7563 83.6982 60.1291 83.4818L82.1739 70.7541C82.5494 70.5376 82.7658 70.1387 82.6641 69.857C82.5624 69.5754 82.1687 69.5259 81.8088 69.7423Z" fill="#3E4551"/>
<path d="M82.9692 72.7279L60.9271 85.4557C60.5516 85.6721 60.3456 86.0632 60.4707 86.3292C60.5959 86.5952 60.9923 86.6369 61.373 86.4205L83.4177 73.6927C83.7932 73.4763 83.994 73.0852 83.8688 72.8192C83.7436 72.5532 83.3447 72.5141 82.9692 72.7279Z" fill="#3E4551"/>
<path d="M84.4165 75.573L62.3718 88.3007C61.9963 88.5171 61.8112 88.8978 61.9598 89.1508C62.1084 89.4037 62.5335 89.4298 62.909 89.2134L84.938 76.4856C85.3109 76.2718 85.4908 75.8937 85.3422 75.6408C85.1936 75.3878 84.7816 75.3565 84.4165 75.573Z" fill="#3E4551"/>
<path d="M86.1036 78.2639L64.0615 90.989C63.686 91.2055 63.5191 91.5784 63.6886 91.8157C63.8581 92.0529 64.304 92.0764 64.6795 91.8574L86.7216 79.1296C87.0971 78.9132 87.2587 78.5455 87.0892 78.3056C86.9198 78.0657 86.4791 78.0475 86.1036 78.2639Z" fill="#3E4551"/>
<path d="M88.0278 80.822L65.9831 93.5471C65.6102 93.7635 65.4616 94.126 65.6493 94.3528C65.8371 94.5797 66.2986 94.5901 66.6741 94.3737L88.7188 81.6408C89.0917 81.4243 89.2404 81.0671 89.0474 80.8402C88.8544 80.6134 88.4033 80.5977 88.0278 80.822Z" fill="#3E4551"/>
<path d="M90.1531 83.2575L68.1162 95.9826C67.7407 96.1991 67.5947 96.5537 67.8138 96.7649C68.0328 96.9761 68.497 96.9813 68.8698 96.7649L90.9146 84.0372C91.2901 83.8208 91.4204 83.4713 91.2118 83.2549C91.0032 83.0385 90.5338 83.0437 90.1531 83.2575Z" fill="#3E4551"/>
<path d="M92.4999 85.5861L70.4552 98.3112C70.0823 98.5277 69.9598 98.8745 70.1944 99.0805C70.4291 99.2865 70.9089 99.2786 71.2844 99.0622L93.3109 86.3345C93.6838 86.118 93.8011 85.7791 93.5716 85.5705C93.3422 85.3618 92.865 85.3697 92.4999 85.5861Z" fill="#3E4551"/>
<path d="M66.7004 60.1125L56.3013 66.11C56.416 69.878 56.8463 75.3122 58.4213 80.7856L68.823 74.7881C67.2454 69.3147 66.8151 63.8779 66.7004 60.1125Z" fill="#6869AC"/>
<path opacity="0.8" d="M66.7004 60.1125L56.3013 66.11C56.416 69.878 56.8463 75.3122 58.4213 80.7856L68.823 74.7881C67.2454 69.3147 66.8151 63.8779 66.7004 60.1125Z" fill="white"/>
<path d="M60.5412 65.2808C60.5553 65.0375 60.5174 64.7941 60.4302 64.5666C60.343 64.3391 60.2084 64.1328 60.0354 63.9613L56.3013 66.1152C56.3326 67.1113 56.3847 68.2247 56.476 69.4242C56.9617 69.4801 57.453 69.3893 57.8867 69.1635C59.3548 68.4907 60.5412 66.7462 60.5412 65.2808Z" fill="#6869AC"/>
<path opacity="0.6" d="M60.5412 65.2808C60.5553 65.0375 60.5174 64.7941 60.4302 64.5666C60.343 64.3391 60.2084 64.1328 60.0354 63.9613L56.3013 66.1152C56.3326 67.1113 56.3847 68.2247 56.476 69.4242C56.9617 69.4801 57.453 69.3893 57.8867 69.1635C59.3548 68.4907 60.5412 66.7462 60.5412 65.2808Z" fill="white"/>
<path d="M67.9389 71.1896C67.2453 70.316 65.8345 67.6172 65.2322 66.4411C65.2085 66.3947 65.1714 66.3563 65.1258 66.3311C65.0801 66.3059 65.0279 66.295 64.976 66.2998C64.924 66.3046 64.8747 66.3248 64.8344 66.3579C64.794 66.391 64.7646 66.4354 64.7498 66.4855C64.0981 68.713 63.7198 71.0115 63.6233 73.3304C62.7548 72.641 62.0082 71.8107 61.4147 70.8741C61.3893 70.8378 61.3542 70.8095 61.3133 70.7925C61.2725 70.7755 61.2276 70.7706 61.184 70.7783C61.1405 70.7859 61.1 70.8059 61.0674 70.8358C61.0348 70.8657 61.0114 70.9043 61 70.9471C59.8631 75.3253 60.4342 79.633 60.4342 79.633L68.8229 74.7881C68.4734 73.5782 68.184 72.3735 67.9389 71.1896Z" fill="#6869AC"/>
<path opacity="0.6" d="M67.9389 71.1896C67.2453 70.316 65.8345 67.6172 65.2322 66.4411C65.2085 66.3947 65.1714 66.3563 65.1258 66.3311C65.0801 66.3059 65.0279 66.295 64.976 66.2998C64.924 66.3046 64.8747 66.3248 64.8344 66.3579C64.794 66.391 64.7646 66.4354 64.7498 66.4855C64.0981 68.713 63.7198 71.0115 63.6233 73.3304C62.7548 72.641 62.0082 71.8107 61.4147 70.8741C61.3893 70.8378 61.3542 70.8095 61.3133 70.7925C61.2725 70.7755 61.2276 70.7706 61.184 70.7783C61.1405 70.7859 61.1 70.8059 61.0674 70.8358C61.0348 70.8657 61.0114 70.9043 61 70.9471C59.8631 75.3253 60.4342 79.633 60.4342 79.633L68.8229 74.7881C68.4734 73.5782 68.184 72.3735 67.9389 71.1896Z" fill="white"/>
</svg>
