<svg width="120" height="120" viewBox="0 0 120 120" fill="none" xmlns="http://www.w3.org/2000/svg">
<path d="M111.672 112.632C111.672 112.668 88.3463 112.694 59.5919 112.694C30.8375 112.694 7.49512 112.668 7.49512 112.632C7.49512 112.596 30.8159 112.57 59.5919 112.57C88.3679 112.57 111.672 112.598 111.672 112.632Z" fill="#3E4551"/>
<path d="M55.0344 39.0792C55.0344 39.0792 57.504 36.8544 57.8592 36.7176C58.2144 36.5808 61.0848 36.4128 61.284 36.5496C61.4832 36.6864 64.4544 38.1648 63.9816 38.4288C63.5088 38.6928 61.44 37.6296 61.44 37.6296L61.1016 37.6872C61.1016 37.6872 62.8968 38.556 63.2256 38.9064C63.5544 39.2568 63.2664 39.6264 62.9328 39.4968C62.5992 39.3672 61.0536 38.5368 60.936 38.5848C60.8184 38.6328 62.5872 39.564 62.7528 39.744C62.976 39.984 62.8584 40.4808 62.5128 40.3536C62.3136 40.2768 60.6792 39.2856 60.6792 39.2856C60.6792 39.2856 61.92 40.2456 62.0136 40.4136C62.1648 40.6776 61.9032 40.9344 61.62 40.7736C61.4256 40.6656 60.5736 39.8928 60.312 39.7464C60.312 39.7464 60.0288 39.7464 59.6328 40.1952C59.4432 40.4136 58.4328 41.6352 57.6192 41.0976L56.7216 41.7984L55.0344 39.0792Z" fill="#FFBE9D"/>
<path d="M63.9744 38.4336C63.7692 38.472 63.5583 38.4671 63.3552 38.4192C63.1327 38.3844 62.9141 38.3282 62.7024 38.2512C62.4624 38.1528 62.2224 38.0376 61.9584 37.9176L61.3992 37.656H61.4352C60.9437 37.7029 60.4491 37.7078 59.9568 37.6704C60.4418 37.5758 60.934 37.5221 61.428 37.5096H61.44H61.4592L62.0136 37.7616L62.748 38.1048C62.9509 38.185 63.1594 38.25 63.372 38.2992C63.7416 38.4 63.9744 38.4 63.9744 38.4336Z" fill="#EB996E"/>
<path d="M66.4801 48L58.7161 46.08C58.5884 46.0486 58.4682 45.9922 58.3623 45.9143C58.2564 45.8363 58.1669 45.7383 58.099 45.6257C58.031 45.5132 57.9858 45.3883 57.9661 45.2583C57.9464 45.1283 57.9525 44.9957 57.9841 44.868L60.6241 34.1208C60.6904 33.8678 60.8531 33.6508 61.0773 33.5162C61.3016 33.3817 61.5697 33.3402 61.8241 33.4008L66.7489 34.6008L69.5929 39.4704L67.6729 47.2584C67.6113 47.5139 67.4516 47.7349 67.2285 47.8736C67.0053 48.0124 66.7365 48.0578 66.4801 48Z" fill="#6869AC"/>
<path d="M66.7752 34.608L66.0312 37.6344C66.0016 37.7536 65.996 37.8775 66.0147 37.9988C66.0334 38.1202 66.076 38.2366 66.1401 38.3414C66.2042 38.4461 66.2885 38.537 66.388 38.6089C66.4876 38.6808 66.6005 38.7322 66.72 38.76L69.6288 39.48L66.7752 34.608Z" fill="#6869AC"/>
<path d="M65.4097 37.3488C65.4097 37.3896 64.5889 37.2216 63.5953 36.9768C62.99 36.8533 62.3954 36.6823 61.8169 36.4656C62.4304 36.5423 63.0371 36.6667 63.6313 36.8376C64.2362 36.9625 64.8308 37.1334 65.4097 37.3488Z" fill="#FAFAFA"/>
<path d="M67.308 39.6313C67.308 39.6697 65.9664 39.3769 64.3344 38.9737C62.7024 38.5705 61.3872 38.2153 61.3968 38.1745C61.4064 38.1337 62.736 38.4313 64.3704 38.8321C66.0048 39.2329 67.3176 39.6001 67.308 39.6313Z" fill="#FAFAFA"/>
<path d="M67.488 41.1913C67.488 41.2297 66.0288 40.9057 64.2504 40.4713C62.472 40.0369 61.0344 39.6481 61.044 39.6073C61.0536 39.5665 62.5032 39.8929 64.284 40.3273C66.0648 40.7617 67.4976 41.1529 67.488 41.1913Z" fill="#FAFAFA"/>
<path d="M67.1569 42.5377C67.1569 42.5761 65.6977 42.2521 63.9169 41.8177C62.1361 41.3833 60.7033 40.9921 60.7129 40.9537C60.7225 40.9153 62.1721 41.2393 63.9529 41.6737C65.7337 42.1081 67.1665 42.4993 67.1569 42.5377Z" fill="#FAFAFA"/>
<path d="M66.8256 43.8865C66.8256 43.9249 65.3664 43.6009 63.5856 43.1665C61.8048 42.7321 60.372 42.3409 60.3816 42.3025C60.3912 42.2641 61.8408 42.5881 63.6216 43.0225C65.4024 43.4569 66.8352 43.8457 66.8256 43.8865Z" fill="#FAFAFA"/>
<path d="M66.4943 45.2329C66.4943 45.2713 65.0327 44.9473 63.2543 44.5129C61.4759 44.0785 60.0383 43.6873 60.0479 43.6489C60.0575 43.6105 61.5095 43.9321 63.2879 44.3689C65.0663 44.8057 66.5039 45.1945 66.4943 45.2329Z" fill="#FAFAFA"/>
<path d="M56.8633 39.2304C56.9459 39.337 57.0595 39.4152 57.1885 39.4543C57.3175 39.4934 57.4554 39.4915 57.5833 39.4488C57.8473 39.3816 58.0801 39.228 58.3393 39.1416C59.1097 38.8848 59.9953 39.2688 60.7537 38.976C60.8593 38.9352 60.9769 38.8512 60.9601 38.736C60.9433 38.6208 60.8257 38.5848 60.7201 38.5584L58.1233 37.8384" fill="#FFBE9D"/>
<path d="M58.1328 37.8433C58.2305 37.8483 58.3273 37.8652 58.4208 37.8937C58.6056 37.9345 58.8696 37.9969 59.1936 38.0809L60.3336 38.3785L60.6624 38.4649C60.8018 38.4804 60.9294 38.5502 61.0176 38.6593C61.0364 38.6978 61.0437 38.7409 61.0385 38.7835C61.0334 38.8261 61.0162 38.8662 60.9888 38.8993C60.9395 38.9551 60.8779 38.9986 60.8088 39.0265C60.6851 39.0751 60.5563 39.1097 60.4248 39.1297C59.8944 39.2041 59.4072 39.1009 58.9728 39.1081C58.7691 39.1045 58.5659 39.1321 58.3704 39.1897C58.1904 39.2473 58.0272 39.3313 57.8688 39.3961C57.7459 39.4599 57.6106 39.4964 57.4722 39.503C57.3339 39.5097 57.1957 39.4863 57.0672 39.4345C56.8872 39.3385 56.856 39.2185 56.8632 39.2185C56.9287 39.2857 57.006 39.3402 57.0912 39.3793C57.2127 39.4176 57.3409 39.4299 57.4674 39.4155C57.5939 39.401 57.716 39.36 57.8256 39.2953C57.9768 39.2281 58.1376 39.1369 58.332 39.0673C58.5384 39.001 58.7537 38.967 58.9704 38.9665C59.424 38.9521 59.9112 39.0481 60.4104 38.9665C60.5294 38.95 60.6461 38.9202 60.7584 38.8777C60.8616 38.8345 60.9312 38.7553 60.8952 38.7073C60.8592 38.6593 60.7464 38.6161 60.6336 38.5849L60.3072 38.4937L59.1744 38.1625C58.8528 38.0689 58.5936 37.9873 58.416 37.9225C58.3183 37.9101 58.2228 37.8834 58.1328 37.8433Z" fill="#EB996E"/>
<path d="M17.0736 104.05L15.5424 110.124L12.96 114.578C12.9156 114.654 12.8873 114.739 12.8769 114.826C12.8664 114.914 12.874 115.002 12.8992 115.087C12.9244 115.171 12.9667 115.249 13.0234 115.317C13.0801 115.384 13.15 115.439 13.2288 115.478C13.3198 115.525 13.4206 115.55 13.5228 115.55C13.6251 115.55 13.7259 115.525 13.8168 115.478C14.9832 114.85 19.2576 112.514 19.3368 112.063C19.4376 111.542 21.3768 105.763 21.3768 105.763L17.0736 104.05Z" fill="#6869AC"/>
<g opacity="0.6">
<path d="M13.2168 115.478L19.4568 111.638L19.3848 111.895C19.3248 112.116 19.1878 112.309 18.9984 112.438C18.48 112.8 17.0568 113.71 13.824 115.474C13.7305 115.523 13.6262 115.549 13.5204 115.549C13.4145 115.549 13.3103 115.523 13.2168 115.474V115.478Z" fill="white"/>
</g>
<g opacity="0.6">
<path d="M18.7464 109.356C18.6566 109.39 18.5824 109.455 18.5381 109.54C18.4938 109.626 18.4825 109.724 18.5064 109.817C18.5367 109.907 18.6007 109.983 18.6852 110.028C18.7696 110.072 18.868 110.083 18.96 110.057C19.0509 110.019 19.1252 109.95 19.1693 109.861C19.2134 109.773 19.2243 109.672 19.2 109.577C19.158 109.486 19.0823 109.414 18.9888 109.377C18.8953 109.341 18.7912 109.342 18.6984 109.38" fill="white"/>
</g>
<path d="M15.3265 113.222C15.2346 112.993 15.0993 112.784 14.9281 112.606C14.7299 112.457 14.5062 112.347 14.2681 112.279C14.2681 112.265 14.3569 112.238 14.5081 112.258C14.6999 112.285 14.8793 112.369 15.0241 112.498C15.1689 112.625 15.2739 112.792 15.3265 112.978C15.3601 113.129 15.3433 113.22 15.3265 113.222Z" fill="#3E4551"/>
<path d="M14.6736 113.911C14.6376 113.928 14.4984 113.671 14.2104 113.503C14.0256 113.412 13.8357 113.332 13.6416 113.263C13.7507 113.232 13.8656 113.227 13.977 113.249C14.0883 113.271 14.193 113.318 14.2824 113.388C14.6088 113.59 14.7096 113.904 14.6736 113.911Z" fill="#3E4551"/>
<path d="M16.4137 112.406C16.2065 112.165 15.9819 111.939 15.7417 111.73C15.4743 111.557 15.1943 111.404 14.9041 111.274C15.2419 111.275 15.5681 111.398 15.8233 111.619C16.1075 111.803 16.3169 112.082 16.4137 112.406Z" fill="#3E4551"/>
<path d="M17.0401 110.599C17.0137 110.63 16.7185 110.4 16.2889 110.263C15.8593 110.126 15.4873 110.136 15.4849 110.095C15.7631 110.009 16.0628 110.022 16.3321 110.134C16.6156 110.201 16.8663 110.365 17.0401 110.599Z" fill="#3E4551"/>
<path d="M17.52 108.828C17.2807 108.669 17.0206 108.544 16.7472 108.456C16.4647 108.41 16.1771 108.404 15.8928 108.437C15.8928 108.422 15.972 108.365 16.1328 108.322C16.3456 108.272 16.5669 108.273 16.7793 108.324C16.9918 108.375 17.1895 108.474 17.3568 108.614C17.4888 108.72 17.5392 108.816 17.52 108.828Z" fill="#3E4551"/>
<path d="M16.8599 108.122C16.8599 108.122 16.8599 108.036 16.9151 107.882C16.9922 107.679 17.1097 107.492 17.2607 107.335C17.3621 107.214 17.5004 107.13 17.6543 107.095C17.707 107.087 17.761 107.095 17.8088 107.118C17.8566 107.142 17.8958 107.18 17.9207 107.227C17.9627 107.321 17.9695 107.427 17.9399 107.525C17.8706 107.724 17.7339 107.893 17.5533 108.002C17.3728 108.111 17.1598 108.154 16.9511 108.122C16.7458 108.088 16.5554 107.993 16.4042 107.85C16.2529 107.706 16.1476 107.522 16.1015 107.318C16.0896 107.267 16.0892 107.214 16.1004 107.162C16.1116 107.111 16.1341 107.063 16.1663 107.021C16.201 106.98 16.2485 106.952 16.3012 106.941C16.3538 106.93 16.4086 106.937 16.4567 106.961C16.5969 107.036 16.7152 107.146 16.7999 107.28C16.9267 107.457 17.0218 107.654 17.0807 107.863C17.1094 107.94 17.1217 108.022 17.1167 108.103C17.0217 107.833 16.8883 107.577 16.7207 107.345C16.6443 107.231 16.5402 107.139 16.4183 107.076C16.3922 107.063 16.3625 107.059 16.3338 107.065C16.3051 107.07 16.2792 107.085 16.2599 107.107C16.2409 107.136 16.2283 107.168 16.2229 107.202C16.2176 107.236 16.2195 107.271 16.2287 107.304C16.2734 107.478 16.3672 107.636 16.4992 107.759C16.6311 107.882 16.7955 107.964 16.9727 107.995C17.1493 108.021 17.3294 107.985 17.4833 107.895C17.6372 107.805 17.7559 107.665 17.8199 107.498C17.8454 107.431 17.8454 107.357 17.8199 107.29C17.8067 107.264 17.7857 107.243 17.7599 107.229C17.7341 107.216 17.7047 107.211 17.6759 107.215C17.5446 107.248 17.4264 107.32 17.3375 107.422C17.1385 107.625 16.9768 107.863 16.8599 108.122Z" fill="#3E4551"/>
<path d="M37.56 104.849L37.2216 109.951C37.2216 109.951 42.3 111.631 42.3312 112.591L32.4072 112.663L32.6064 104.69L37.56 104.849Z" fill="#6869AC"/>
<g opacity="0.6">
<path d="M34.1689 109.44C34.0722 109.466 33.9885 109.526 33.9339 109.61C33.8794 109.694 33.8579 109.795 33.8737 109.894C33.8967 109.991 33.956 110.076 34.0394 110.13C34.1229 110.185 34.2242 110.206 34.3225 110.189C34.4235 110.16 34.5106 110.096 34.5672 110.007C34.6238 109.919 34.646 109.813 34.6297 109.709C34.5957 109.61 34.5248 109.528 34.4317 109.48C34.3387 109.432 34.2308 109.422 34.1305 109.452" fill="white"/>
</g>
<g opacity="0.6">
<path d="M32.3999 112.658L32.4191 111.854L42.0047 112.121C42.1063 112.172 42.1934 112.249 42.258 112.343C42.3226 112.436 42.3626 112.545 42.3743 112.658H32.3999Z" fill="white"/>
</g>
<path d="M37.3848 109.906C37.3848 109.956 37.1448 109.97 36.9048 110.119C36.6648 110.268 36.528 110.467 36.4848 110.446C36.4416 110.424 36.5208 110.148 36.8184 109.966C37.116 109.783 37.3968 109.862 37.3848 109.906Z" fill="#3E4551"/>
<path d="M38.412 110.369C38.412 110.414 38.208 110.491 38.0376 110.69C37.8672 110.89 37.8144 111.106 37.764 111.103C37.7136 111.101 37.6944 110.825 37.9104 110.58C38.1264 110.335 38.412 110.323 38.412 110.369Z" fill="#3E4551"/>
<path d="M38.9639 111.631C38.9207 111.631 38.8607 111.391 38.9927 111.134C39.1247 110.878 39.3551 110.774 39.3743 110.815C39.3935 110.856 39.2495 110.995 39.1343 111.211C39.0191 111.427 39.0119 111.629 38.9639 111.631Z" fill="#3E4551"/>
<path d="M37.3321 108.734C37.3105 108.778 37.0921 108.706 36.8161 108.715C36.5401 108.725 36.3361 108.806 36.3025 108.763C36.2689 108.72 36.4873 108.554 36.8113 108.547C37.1353 108.54 37.3561 108.698 37.3321 108.734Z" fill="#3E4551"/>
<g opacity="0.3">
<path d="M37.4927 105.859L37.4327 106.769L32.5583 106.577L32.5776 105.756L37.4927 105.859Z" fill="#101723"/>
</g>
<path d="M37.3823 107.705C37.2179 107.742 37.0465 107.736 36.8855 107.686C36.7064 107.651 36.5328 107.592 36.3695 107.51C36.2719 107.465 36.1781 107.412 36.0887 107.352C36.0336 107.319 35.9841 107.278 35.9423 107.23C35.9112 107.195 35.8928 107.15 35.8902 107.104C35.8876 107.057 35.9009 107.011 35.9279 106.973C35.9528 106.939 35.9855 106.912 36.0231 106.894C36.0606 106.875 36.1021 106.866 36.1439 106.867C36.2067 106.869 36.2689 106.88 36.3287 106.898C36.4343 106.928 36.5371 106.966 36.6359 107.014C36.8 107.096 36.9512 107.202 37.0847 107.328C37.3079 107.549 37.3799 107.731 37.3631 107.741C37.3463 107.75 37.2335 107.602 37.0055 107.419C36.8718 107.313 36.725 107.224 36.5687 107.155C36.4781 107.115 36.3842 107.083 36.2879 107.059C36.1823 107.028 36.0935 107.023 36.0647 107.071C36.0359 107.119 36.0527 107.095 36.0647 107.126C36.0962 107.161 36.1326 107.191 36.1727 107.215C36.2554 107.273 36.3411 107.326 36.4295 107.374C36.5829 107.454 36.7436 107.52 36.9095 107.57C37.07 107.605 37.2279 107.649 37.3823 107.705Z" fill="#3E4551"/>
<path d="M37.3152 107.772C37.227 107.628 37.1866 107.46 37.2 107.292C37.1958 107.108 37.2242 106.926 37.284 106.752C37.3187 106.649 37.3638 106.549 37.4184 106.454C37.448 106.39 37.4935 106.334 37.5506 106.292C37.6077 106.25 37.6745 106.223 37.7448 106.214C37.7883 106.218 37.8301 106.233 37.8656 106.258C37.9012 106.284 37.9291 106.318 37.9464 106.358C37.9704 106.418 37.9857 106.48 37.992 106.543C38.009 106.654 38.009 106.766 37.992 106.877C37.959 107.062 37.8807 107.236 37.764 107.383C37.5624 107.635 37.3584 107.688 37.356 107.671C37.3536 107.654 37.512 107.558 37.668 107.316C37.758 107.176 37.8162 107.018 37.8384 106.853C37.8516 106.757 37.8516 106.66 37.8384 106.565C37.8264 106.459 37.7904 106.373 37.7496 106.382C37.7088 106.392 37.6128 106.457 37.5696 106.541C37.5187 106.623 37.4753 106.71 37.44 106.8C37.3797 106.958 37.3417 107.124 37.3272 107.292C37.296 107.582 37.3416 107.76 37.3152 107.772Z" fill="#3E4551"/>
<path d="M37.5601 60.5185L22.4401 60.4033L15.1345 108.391L21.4081 109.188L29.4505 69.7297L31.8577 109.327L31.8649 109.445L38.6497 109.327L37.5601 60.5185Z" fill="#3E4551"/>
<path d="M29.9568 68.6976C29.9526 68.5017 29.9655 68.3057 29.9952 68.112C30.0312 67.752 30.0696 67.2552 30.0864 66.7056C30.1032 66.156 30.0864 65.6568 30.0864 65.2944C30.0701 65.0988 30.0701 64.9021 30.0864 64.7064C30.1415 64.8962 30.173 65.0921 30.18 65.2896C30.2219 65.7612 30.2355 66.2348 30.2208 66.708C30.2078 67.1814 30.1653 67.6535 30.0936 68.1216C30.072 68.3185 30.026 68.512 29.9568 68.6976Z" fill="#4E5159"/>
<path d="M31.2 64.8456C31.2 64.8456 31.2264 64.8168 31.2888 64.812C31.3789 64.8066 31.468 64.833 31.5408 64.8864C31.5967 64.9255 31.6427 64.9771 31.6752 65.0371C31.7077 65.0971 31.7257 65.1638 31.728 65.232C31.721 65.3174 31.6892 65.3989 31.6365 65.4664C31.5838 65.534 31.5126 65.5846 31.4314 65.6122C31.3503 65.6397 31.2629 65.643 31.18 65.6215C31.0971 65.6 31.0223 65.5547 30.9648 65.4912C30.9243 65.4355 30.8978 65.371 30.8873 65.3029C30.8769 65.2349 30.8829 65.1653 30.9048 65.1C30.9291 65.0136 30.9836 64.9387 31.0584 64.8888C31.1112 64.8576 31.1471 64.8576 31.1495 64.8624C31.1519 64.8672 31.0272 64.9344 30.9888 65.124C30.9778 65.175 30.978 65.2277 30.9891 65.2787C31.0003 65.3296 31.0223 65.3775 31.0536 65.4192C31.0957 65.4645 31.1507 65.4959 31.2112 65.5092C31.2716 65.5225 31.3347 65.5171 31.392 65.4936C31.4514 65.4776 31.5045 65.4437 31.544 65.3964C31.5835 65.3492 31.6075 65.291 31.6128 65.2296C31.6124 65.1776 31.6009 65.1262 31.579 65.079C31.557 65.0318 31.5252 64.9898 31.4856 64.956C31.4029 64.8927 31.3037 64.8544 31.2 64.8456Z" fill="#4E5159"/>
<path d="M27.3313 63.8784C27.3313 63.8784 27.2857 63.9312 27.1921 64.0056C27.0575 64.1102 26.9128 64.2011 26.7601 64.2768C26.5307 64.3921 26.2892 64.4815 26.0401 64.5432C25.7392 64.6175 25.4308 64.657 25.1209 64.6608C24.8101 64.6584 24.5007 64.6189 24.1993 64.5432C23.95 64.482 23.7084 64.3926 23.4793 64.2768C23.3271 64.2014 23.1832 64.1106 23.0497 64.0056C22.9537 63.9312 22.9057 63.888 22.9105 63.8808C22.9153 63.8736 23.1337 64.0224 23.5177 64.1976C23.7426 64.2989 23.9764 64.3793 24.2161 64.4376C24.5101 64.5033 24.8101 64.5379 25.1113 64.5408C25.4115 64.5353 25.7105 64.5008 26.0041 64.4376C26.2438 64.3793 26.4776 64.299 26.7025 64.1976C27.1057 64.0224 27.3169 63.8592 27.3313 63.8784Z" fill="#4E5159"/>
<path d="M36.6889 64.896C36.5587 64.9528 36.4182 64.9822 36.2761 64.9825C35.5846 65.0319 34.8978 64.8355 34.3369 64.4281C34.1257 64.2721 34.0225 64.1473 34.0321 64.1353C34.4213 64.3998 34.8454 64.609 35.2921 64.7569C35.7494 64.8656 36.2192 64.9124 36.6889 64.896Z" fill="#4E5159"/>
<path d="M17.52 108.828C17.5386 108.796 17.5531 108.761 17.5632 108.725C17.5872 108.656 17.616 108.55 17.6496 108.408C17.7168 108.127 17.8056 107.71 17.916 107.17C18.132 106.092 18.4248 104.53 18.7776 102.593C19.4808 98.7216 20.4216 93.3696 21.456 87.4584C22.4904 81.5472 23.4384 76.1976 24.12 72.3168C24.4704 70.3968 24.7536 68.8224 24.9504 67.7328C25.0512 67.1976 25.128 66.7728 25.1904 66.4872C25.2168 66.3504 25.2384 66.2472 25.2552 66.1656C25.272 66.084 25.2816 66.0552 25.2816 66.0552C25.2816 66.0552 25.2816 66.0936 25.2672 66.168C25.2528 66.2424 25.2384 66.3552 25.2144 66.492C25.1664 66.7848 25.0944 67.212 25.0056 67.7424C24.8184 68.832 24.5472 70.3992 24.216 72.3336C23.5416 76.2144 22.6128 81.5664 21.576 87.48C20.5392 93.3936 19.5864 98.7432 18.8592 102.6C18.4968 104.52 18.1896 106.094 17.9568 107.16C17.724 108.226 17.5728 108.847 17.52 108.828Z" fill="#4E5159"/>
<path d="M36.7967 108.286C36.7946 108.249 36.7946 108.212 36.7967 108.175C36.7967 108.096 36.7967 107.99 36.7967 107.851C36.7967 107.558 36.7967 107.131 36.7847 106.603C36.7727 106.075 36.7847 105.403 36.7655 104.626C36.7463 103.848 36.7463 102.979 36.7199 102.01C36.6815 100.07 36.6071 97.764 36.4967 95.2032C36.3863 92.6424 36.2159 89.8272 35.9975 86.8776C35.7791 83.928 35.5175 81.1176 35.2487 78.5712C34.9799 76.0248 34.7063 73.728 34.4543 71.8056C34.3343 70.8456 34.2143 69.9744 34.1063 69.2112C33.9983 68.448 33.9119 67.7904 33.8327 67.2552C33.7535 66.72 33.6983 66.2952 33.6575 66.0192C33.6407 65.8824 33.6263 65.7792 33.6167 65.6976C33.6071 65.616 33.6047 65.5872 33.6047 65.5872C33.6047 65.5872 33.6047 65.6232 33.6287 65.6952C33.6527 65.7672 33.6599 65.8776 33.6839 66.0144C33.7295 66.3024 33.7967 66.7176 33.8807 67.248C33.9647 67.7784 34.0679 68.448 34.1759 69.2016C34.2839 69.9552 34.4159 70.8312 34.5407 71.7936C34.8047 73.7136 35.0855 76.008 35.3639 78.5568C35.6423 81.1056 35.8991 83.916 36.1223 86.868C36.3455 89.82 36.4991 92.628 36.6023 95.1984C36.7055 97.7688 36.7727 100.068 36.7991 102.007C36.8183 102.967 36.8183 103.855 36.8255 104.626C36.8327 105.396 36.8255 106.066 36.8255 106.603C36.8255 107.141 36.8255 107.563 36.8255 107.851C36.8255 107.99 36.8255 108.091 36.8255 108.175C36.8255 108.259 36.7967 108.286 36.7967 108.286Z" fill="#4E5159"/>
<path d="M37.0728 35.112C36.888 34.956 33.7608 34.5576 33.7608 34.5576C32.1192 34.5096 29.64 34.1832 27.8688 34.3728C25.9687 35.0443 24.106 35.8174 22.2888 36.6888C21.269 37.3838 20.5664 38.4549 20.3352 39.6672L23.04 54.8376L21.9 61.68C21.7224 63.2352 27.5064 63.9312 30.96 64.2072C32.5492 64.3339 34.1437 64.0418 35.5848 63.36L38.0208 62.2056C38.0258 62.2064 38.0309 62.206 38.0357 62.2045C38.0406 62.2029 38.045 62.2004 38.0487 62.1969C38.0524 62.1934 38.0553 62.1892 38.0571 62.1845C38.0589 62.1797 38.0596 62.1747 38.0592 62.1696L37.9464 54.2832L39.3744 39.192C39.5664 37.8528 38.112 35.9856 37.0728 35.112Z" fill="#6869AC"/>
<path d="M33.9624 34.9728C33.9624 34.9728 37.1808 34.7976 38.796 35.5896C40.4112 36.3816 47.5344 41.28 47.5344 41.28L54.8352 38.5752L57.4176 42.0768L51.0936 46.6848C50.3477 47.1888 49.4869 47.4969 48.5906 47.5808C47.6943 47.6647 46.7913 47.5216 45.9648 47.1648L37.7736 43.92L33.9624 34.9728Z" fill="#6869AC"/>
<path d="M39.0936 41.2416C39.1368 41.2416 38.9352 43.6416 38.6424 46.5888C38.3496 49.536 38.0808 51.9216 38.0376 51.9168C37.9944 51.912 38.196 49.5168 38.4888 46.572C38.7816 43.6272 39.0528 41.2392 39.0936 41.2416Z" fill="#3E4551"/>
<g opacity="0.3">
<path d="M22.4832 58.4184L22.2432 59.6616C23.9928 59.8776 25.6032 60.024 27.3624 60.24L34.5432 61.1232C35.1048 61.1928 35.7072 61.2552 36.2232 60.9984C36.996 60.6024 37.2456 59.6232 37.2888 58.7568C37.332 57.8904 37.272 56.964 37.7184 56.2224C32.5176 56.82 27.6264 57.5184 22.4832 58.4184Z" fill="#101723"/>
</g>
<g opacity="0.3">
<path d="M25.3633 52.4545C26.0528 49.59 26.9783 46.7877 28.1305 44.076C27.8326 47.0346 27.303 49.9652 26.5465 52.8409" fill="#101723"/>
</g>
<path d="M25.1809 40.6969C24.9361 40.158 24.6027 39.6639 24.1945 39.2353C23.7594 38.8353 23.2606 38.5108 22.7185 38.2753C22.8956 38.2936 23.0675 38.3458 23.2249 38.4289C23.6184 38.6027 23.9771 38.8467 24.2833 39.1489C24.5892 39.4511 24.8387 39.8054 25.0201 40.1953C25.1041 40.3512 25.1586 40.5212 25.1809 40.6969Z" fill="#3E4551"/>
<path d="M39.1199 38.6784C39.0138 38.2666 38.9479 37.8454 38.9231 37.4208C38.8565 36.9995 38.8316 36.5726 38.8487 36.1464C38.9545 36.5592 39.0204 36.9811 39.0455 37.4064C39.1121 37.8269 39.137 38.253 39.1199 38.6784Z" fill="#3E4551"/>
<path d="M47.9569 44.724C47.8532 44.5822 47.7722 44.4251 47.7169 44.2584C47.5599 43.8636 47.4566 43.4495 47.4097 43.0272C47.3633 42.6044 47.3754 42.1772 47.4457 41.7576C47.4627 41.5821 47.5098 41.4108 47.5849 41.2512C47.5083 41.8352 47.4914 42.4254 47.5345 43.0128C47.6189 43.5957 47.7604 44.1688 47.9569 44.724Z" fill="#3E4551"/>
<g opacity="0.3">
<path d="M47.5201 41.3304C47.2177 41.5944 47.1529 42.0312 47.1289 42.432C47.0949 43.0291 47.1102 43.6279 47.1745 44.2224C47.1929 44.5503 47.2795 44.8708 47.4289 45.1632C47.4542 45.2192 47.4907 45.2693 47.5361 45.3106C47.5815 45.3519 47.6349 45.3834 47.6929 45.4032C47.9017 45.4512 48.0889 45.2256 48.0937 45.012C48.0772 44.7985 48.0079 44.5923 47.8921 44.412C47.4446 43.5179 47.3135 42.4984 47.5201 41.52" fill="#101723"/>
</g>
<path d="M37.2791 35.4193C37.2776 35.4755 37.2728 35.5316 37.2647 35.5872C37.2527 35.6976 37.2383 35.8608 37.2047 36.0672C37.1123 36.6654 36.9817 37.257 36.8135 37.8385C36.2455 39.8215 35.2776 41.6674 33.9695 43.2624L33.9407 43.2985L33.8999 43.2793C33.3023 43.0177 32.6855 42.7392 32.0687 42.4296C29.8215 41.3093 27.6965 39.9589 25.7279 38.4001C24.9719 37.8025 24.3911 37.2841 23.9903 36.9241L23.5391 36.4993L23.4239 36.3865C23.4105 36.3733 23.3984 36.3588 23.3879 36.3432C23.4044 36.3526 23.4197 36.3639 23.4335 36.3769L23.5559 36.4801C23.6711 36.5809 23.8271 36.72 24.0215 36.888C24.4319 37.236 25.0223 37.7424 25.7807 38.328C27.7597 39.8605 29.8842 41.1949 32.1239 42.3121C32.7383 42.6217 33.3551 42.9 33.9479 43.1616L33.8759 43.1785C35.1755 41.5968 36.1479 39.7727 36.7367 37.8121C36.9101 37.2354 37.0519 36.6497 37.1615 36.0577C37.2023 35.8489 37.2215 35.6857 37.2431 35.5777C37.2496 35.5237 37.2616 35.4706 37.2791 35.4193Z" fill="#FAFAFA"/>
<path d="M36.1487 35.2944C36.1431 35.3398 36.1343 35.3847 36.1223 35.4288C36.0983 35.5152 36.0695 35.6448 36.0215 35.808C35.9303 36.1368 35.7815 36.612 35.5751 37.1952C35.0184 38.7448 34.3 40.2313 33.4319 41.6304L33.3983 41.6856L33.3455 41.6496L32.2007 40.8648L27.3719 37.5288L25.9199 36.5064L25.5287 36.2232C25.4807 36.1933 25.4364 36.1579 25.3967 36.1176C25.4479 36.1422 25.4969 36.1711 25.5431 36.204L25.9487 36.468L27.4247 37.4568L32.2727 40.7616L33.4175 41.5488L33.3287 41.5656C34.195 40.1735 34.9233 38.7001 35.5031 37.1664C35.7191 36.5904 35.8775 36.12 35.9831 35.796L36.1031 35.424C36.1129 35.3791 36.1282 35.3356 36.1487 35.2944Z" fill="#FAFAFA"/>
<path d="M53.8656 44.4793C53.7967 44.4617 53.7316 44.4316 53.6736 44.3905C53.5086 44.2933 53.3549 44.1782 53.2152 44.0473C52.7582 43.6059 52.4098 43.0645 52.1976 42.4657C51.991 41.8724 51.854 41.257 51.7896 40.6321C51.7472 40.3759 51.7287 40.1164 51.7344 39.8569C51.8019 40.1064 51.85 40.3608 51.8784 40.6177C51.9665 41.2318 52.1128 41.8361 52.3152 42.4225C52.5222 43.0048 52.8492 43.5371 53.2752 43.9849C53.6112 44.3209 53.8776 44.4601 53.8656 44.4793Z" fill="#FAFAFA"/>
<path d="M55.1281 43.7976C55.0736 43.7594 55.025 43.7133 54.9841 43.6608C54.8953 43.5672 54.7753 43.4208 54.6337 43.2456C54.2679 42.7722 53.9465 42.2661 53.6737 41.7336C53.4002 41.2017 53.1784 40.6447 53.0113 40.0704C52.9465 39.852 52.9033 39.672 52.8793 39.5448C52.8581 39.4815 52.8492 39.4147 52.8529 39.348C52.9451 39.5756 53.0252 39.808 53.0929 40.044C53.284 40.6035 53.5142 41.1488 53.7817 41.676C54.0533 42.2019 54.3604 42.7087 54.7009 43.1928C54.856 43.3851 54.9987 43.5871 55.1281 43.7976Z" fill="#FAFAFA"/>
<path d="M38.0881 60.96C38.0427 60.993 37.9945 61.0219 37.9441 61.0464L37.5193 61.2696L37.2001 61.44C37.0873 61.4952 36.9601 61.5456 36.8233 61.6056C36.5497 61.7208 36.2425 61.8672 35.8873 61.9824L35.3329 62.1768C35.1409 62.244 34.9345 62.292 34.7233 62.3544C34.3033 62.484 33.8401 62.5728 33.3577 62.676C32.3021 62.8676 31.2314 62.964 30.1585 62.964C29.0851 62.9475 28.0153 62.8359 26.9617 62.6304C26.4817 62.52 26.0185 62.4264 25.6009 62.2896C25.3897 62.2248 25.1833 62.172 24.9913 62.1024L24.4417 61.9008C24.0865 61.7808 23.7841 61.6296 23.5129 61.512C23.3761 61.4496 23.2489 61.3968 23.1361 61.3392L22.8289 61.176L22.4089 60.936C22.3585 60.9115 22.3103 60.8826 22.2649 60.8496C22.319 60.8658 22.3712 60.8875 22.4209 60.9144L22.8505 61.1256L23.1625 61.2792C23.2777 61.332 23.4025 61.3824 23.5393 61.44C23.8129 61.5528 24.1177 61.6968 24.4729 61.8096L25.0225 62.004C25.2145 62.0712 25.4185 62.1216 25.6297 62.1816C26.0449 62.3136 26.5057 62.4048 26.9833 62.5104C28.0306 62.708 29.0929 62.8156 30.1585 62.832C31.2236 62.8297 32.2866 62.7374 33.3361 62.556C33.8161 62.4552 34.2769 62.3736 34.6969 62.2464C34.9057 62.1888 35.1121 62.1408 35.3041 62.0784L35.8585 61.8912C36.2137 61.7832 36.5209 61.6512 36.7945 61.5336C36.9313 61.4784 37.0609 61.4304 37.1761 61.3776L37.4881 61.2288L37.9225 61.0248C37.9747 60.9962 38.0304 60.9745 38.0881 60.96Z" fill="#FAFAFA"/>
<path d="M35.5896 60.036L25.7112 57.5808C25.5971 57.5525 25.4898 57.5019 25.3952 57.432C25.3006 57.3622 25.2208 57.2744 25.1602 57.1736C25.0995 57.0729 25.0594 56.9612 25.0419 56.8449C25.0244 56.7287 25.0301 56.6101 25.0584 56.496L28.368 43.1856C28.3961 43.0714 28.4465 42.9638 28.5163 42.8691C28.5861 42.7743 28.6739 42.6944 28.7747 42.6337C28.8755 42.573 28.9873 42.5329 29.1037 42.5156C29.2201 42.4983 29.3387 42.5041 29.4528 42.5328L36.36 44.2512L39.2688 48.9432L36.6744 59.3832C36.6461 59.4973 36.5955 59.6047 36.5257 59.6993C36.4558 59.7938 36.368 59.8737 36.2673 59.9343C36.1665 59.9949 36.0548 60.0351 35.9386 60.0526C35.8223 60.07 35.7037 60.0644 35.5896 60.036Z" fill="#4E5159"/>
<path d="M36.3672 44.2177L35.7096 46.8577C35.6705 47.0132 35.6625 47.1749 35.6861 47.3336C35.7098 47.4922 35.7646 47.6446 35.8473 47.782C35.93 47.9194 36.0391 48.0391 36.1683 48.1342C36.2975 48.2293 36.4442 48.2979 36.6 48.336L39.2688 48.9385L36.3672 44.2177Z" fill="#3E4551"/>
<path d="M34.7592 57.0384C34.7592 57.0384 34.7592 56.9928 34.7856 56.9112C34.812 56.8296 34.8312 56.7072 34.8672 56.5584L35.1816 55.2336C35.4576 54.0936 35.8488 52.4784 36.3192 50.5416L36.3576 50.6088L29.6184 48.9432L29.6952 48.8976V48.912V48.9384V48.9936L29.6664 49.104L29.6112 49.3248C29.5752 49.4736 29.5392 49.6176 29.5032 49.764C29.4312 50.0544 29.3592 50.3448 29.2872 50.6304C29.1448 51.2016 29.0056 51.7616 28.8696 52.3104C28.596 53.3976 28.3392 54.4248 28.1016 55.3728L28.0608 55.3032L32.9208 56.5416L34.2936 56.8968L34.6584 56.9952L34.7856 57.0336C34.7458 57.0289 34.7065 57.0209 34.668 57.0096L34.3104 56.928L32.9424 56.604L28.0344 55.404L27.9792 55.3896L27.9936 55.3344C28.2336 54.3888 28.4736 53.3592 28.7472 52.272C28.884 51.7272 29.0208 51.168 29.1624 50.592C29.2344 50.3064 29.3064 50.016 29.3784 49.7256L29.4864 49.2864L29.5416 49.0656L29.5704 48.9552L29.5824 48.9V48.8736V48.8592L29.6616 48.8112L36.3984 50.4912L36.4512 50.5056L36.4368 50.5608C35.9424 52.5048 35.5296 54.1248 35.2368 55.272C35.0928 55.8264 34.9776 56.268 34.8984 56.5776C34.86 56.7192 34.8288 56.832 34.8072 56.9184C34.7956 56.96 34.7795 57.0003 34.7592 57.0384Z" fill="white"/>
<path d="M31.3081 56.2609C31.2721 56.2609 31.6057 54.7945 32.0497 53.0041C32.4937 51.2137 32.8849 49.7713 32.9185 49.7785C32.9521 49.7857 32.6209 51.2449 32.1769 53.0353C31.7329 54.8257 31.3417 56.2705 31.3081 56.2609Z" fill="white"/>
<path d="M35.1287 55.4401C35.1287 55.4761 33.5999 55.1281 31.7327 54.6625C29.8655 54.1969 28.3559 53.7937 28.3727 53.7577C28.3895 53.7217 29.9015 54.0721 31.7711 54.5377C33.6407 55.0033 35.1383 55.4089 35.1287 55.4401Z" fill="white"/>
<path d="M35.6184 53.8104C35.6184 53.844 34.0872 53.496 32.22 53.0304C30.3528 52.5648 28.8432 52.1616 28.86 52.128C28.8768 52.0944 30.3888 52.4424 32.2584 52.9056C34.128 53.3688 35.6256 53.7744 35.6184 53.8104Z" fill="white"/>
<path d="M35.976 52.1448C35.976 52.1784 34.4592 51.8328 32.604 51.372C30.7488 50.9112 29.256 50.5104 29.2632 50.4744C29.2704 50.4384 30.7824 50.7864 32.6232 51.2472C34.464 51.708 35.9856 52.1088 35.976 52.1448Z" fill="white"/>
<path d="M30.648 54.0168L32.328 53.832C32.328 53.832 33.024 52.6776 33.48 52.2744C33.936 51.8712 36.2976 50.7432 36.2976 50.7432C36.3938 50.8598 36.4464 51.0061 36.4464 51.1572C36.4464 51.3083 36.3938 51.4547 36.2976 51.5712C36.1416 51.7584 35.0256 52.3848 35.0256 52.3848C34.9953 52.4902 34.9924 52.6016 35.0172 52.7085C35.0419 52.8153 35.0934 52.9141 35.1669 52.9955C35.2404 53.0769 35.3334 53.1383 35.4372 53.1738C35.5409 53.2093 35.652 53.2178 35.76 53.1984C36.4512 53.0712 37.2576 52.9272 37.3632 52.9272C37.4688 52.9272 38.172 52.2744 38.6784 51.78C38.7443 51.7162 38.8288 51.6752 38.9196 51.6629C39.0105 51.6506 39.1029 51.6677 39.1834 51.7116C39.2638 51.7556 39.3281 51.8242 39.3668 51.9073C39.4055 51.9904 39.4165 52.0838 39.3984 52.1736C39.3887 52.2124 39.3678 52.2474 39.3384 52.2744C39.3384 52.2744 40.0584 52.2504 39.4176 53.2344C39.4176 53.2344 39.5664 54.1368 39.0336 54.552C39.0336 54.552 38.7936 55.644 38.46 56.0208C38.1264 56.3976 34.7856 57.12 34.7856 57.12L29.9856 57.7008L30.648 54.0168Z" fill="#FFBE9D"/>
<path d="M36.0696 54.24C36.2679 54.2732 36.4699 54.2781 36.6696 54.2544C37.1609 54.2437 37.6428 54.1171 38.076 53.8848C38.4881 53.6133 38.8256 53.2428 39.0576 52.8072C39.1693 52.6403 39.2551 52.4575 39.312 52.2648C39.1803 52.4128 39.0637 52.5736 38.964 52.7448C38.7205 53.1442 38.3929 53.4858 38.004 53.7456C37.588 53.9641 37.1328 54.0978 36.6648 54.1392C36.463 54.1487 36.2632 54.1826 36.0696 54.24Z" fill="#EB996E"/>
<path d="M36.4153 55.0104C36.5914 55.0692 36.7793 55.084 36.9625 55.0536C37.1611 55.0388 37.3584 55.0099 37.5529 54.9672C37.799 54.9208 38.0332 54.8253 38.2417 54.6864C38.4321 54.5302 38.6044 54.3531 38.7553 54.1584L39.1225 53.7C39.2481 53.5667 39.3532 53.4154 39.4345 53.2512C39.2867 53.3583 39.1543 53.4851 39.0409 53.628C38.9257 53.7504 38.8009 53.8992 38.6473 54.0672C38.4974 54.2479 38.3302 54.4135 38.1481 54.5616C37.9562 54.6892 37.7421 54.7796 37.5169 54.828C37.3304 54.877 37.1413 54.9154 36.9505 54.9432C36.6217 54.996 36.4177 54.9888 36.4153 55.0104Z" fill="#EB996E"/>
<path d="M36.8855 55.8721C36.8855 55.9345 37.4927 55.8073 38.2007 55.6105C38.2986 55.5805 38.3876 55.5269 38.4599 55.4545C38.5271 55.3921 38.5871 55.3296 38.6423 55.2696C38.738 55.16 38.8247 55.0428 38.9015 54.9193C39.0311 54.7057 39.0671 54.5521 39.0479 54.5473C39.0287 54.5425 38.9567 54.6697 38.8079 54.8569C38.7236 54.9675 38.6322 55.0725 38.5343 55.1713C38.4795 55.2308 38.4209 55.287 38.3591 55.3393C38.3034 55.3954 38.2351 55.4374 38.1599 55.4616C37.7999 55.5576 37.4831 55.6585 37.2527 55.7329C37.1255 55.7653 37.0023 55.812 36.8855 55.8721Z" fill="#EB996E"/>
<path d="M23.8057 51.9504L25.3393 43.6584C25.3561 43.524 24.4417 39.8952 20.3761 39.4896L18.5425 45.7296C18.0625 47.6952 17.3425 50.4384 17.0377 54.0144C16.8433 56.2368 18.9793 58.2888 21.4753 58.6344L21.5761 58.6488C25.8481 59.172 29.9761 58.488 30.5305 58.3392L31.1305 53.8056C31.1809 53.8224 23.8057 51.9504 23.8057 51.9504Z" fill="#6869AC"/>
<path d="M19.7951 52.8001C19.7893 52.7659 19.7893 52.731 19.7951 52.6969C19.8141 52.5995 19.8414 52.504 19.8767 52.4113C20.0046 52.0611 20.2135 51.7461 20.4863 51.4921C20.9013 51.0952 21.4484 50.8661 22.0223 50.8488C22.3826 50.8376 22.741 50.9051 23.0726 51.0464C23.4041 51.1877 23.7009 51.3996 23.9423 51.6673L23.8367 51.6985C23.9111 51.2017 23.9903 50.6761 24.0767 50.1385C24.3671 48.2785 24.6311 46.5961 24.8255 45.3577C24.9239 44.7577 25.0055 44.2681 25.0655 43.9177C25.0943 43.7569 25.1183 43.6273 25.1375 43.5241C25.1424 43.4779 25.1537 43.4327 25.1711 43.3896C25.1749 43.436 25.1749 43.4825 25.1711 43.5288C25.1711 43.632 25.1423 43.7689 25.1231 43.9249C25.0727 44.2849 25.0055 44.7769 24.9215 45.3769C24.7367 46.6177 24.4871 48.3024 24.2015 50.1624L23.9615 51.7249L23.9423 51.8545L23.8559 51.756C23.6274 51.5014 23.3471 51.2986 23.0337 51.1611C22.7204 51.0237 22.3813 50.9549 22.0391 50.9593C21.4879 50.9721 20.9601 51.1844 20.5535 51.5569C20.2835 51.8003 20.0705 52.1002 19.9295 52.4353C19.8287 52.6537 19.8047 52.8001 19.7951 52.8001Z" fill="#3E4551"/>
<path d="M23.94 51.84C23.9856 51.8489 24.0305 51.8609 24.0744 51.876L24.4656 51.996C24.804 52.1016 25.3032 52.2528 25.9344 52.4328C27.1992 52.7904 29.0064 53.2512 31.1448 53.7432L31.1952 53.7552V53.8056C31.0296 55.2048 30.8448 56.7432 30.6504 58.3656V58.4136H30.6024L30.3024 58.4592C28.712 58.6932 27.1092 58.8326 25.5024 58.8768C24.1918 58.9448 22.8777 58.8861 21.5784 58.7016C20.6959 58.5705 19.8543 58.2424 19.116 57.7416C19.0021 57.661 18.8931 57.5736 18.7896 57.48C18.7116 57.4143 18.6379 57.3438 18.5688 57.2688L18.444 57.1296C18.4152 57.0984 18.4032 57.0816 18.4056 57.0792L18.4536 57.1224L18.588 57.252C18.6587 57.3233 18.7341 57.3898 18.8136 57.4512C18.9185 57.5386 19.0291 57.6188 19.1448 57.6912C19.885 58.1766 20.7234 58.4921 21.6 58.6152C22.6992 58.8024 24.0312 58.8024 25.5072 58.7616C27.1068 58.7101 28.7022 58.5675 30.2856 58.3344L30.5832 58.2888L30.5328 58.344L31.0872 53.784L31.1304 53.8464C28.992 53.3472 27.1872 52.8696 25.9272 52.4928C25.296 52.3032 24.8016 52.1424 24.4656 52.0128C24.2952 51.9552 24.168 51.9072 24.0816 51.876C24.0334 51.8683 23.986 51.8562 23.94 51.84Z" fill="#3E4551"/>
<g opacity="0.3">
<path d="M23.9088 51.6456C23.7407 51.5823 23.5603 51.5582 23.3814 51.5753C23.2025 51.5923 23.0299 51.6501 22.8768 51.744C22.5144 51.9307 22.1965 52.1932 21.9447 52.5137C21.6929 52.8343 21.5131 53.2054 21.4176 53.6016C21.3706 53.7664 21.364 53.9402 21.3984 54.108C21.4161 54.192 21.4559 54.2696 21.5137 54.3329C21.5715 54.3962 21.6453 54.4429 21.7272 54.468C21.8314 54.4829 21.9377 54.4662 22.0322 54.4199C22.1268 54.3737 22.2053 54.3002 22.2576 54.2088C22.3604 54.0251 22.4348 53.8268 22.4784 53.6208C22.7191 52.8382 23.2194 52.1609 23.8968 51.7008" fill="#101723"/>
</g>
<path d="M26.88 58.6009C26.8442 58.5321 26.8183 58.4585 26.8032 58.3825C26.747 58.1819 26.7021 57.9784 26.6688 57.7729C26.4371 56.3997 26.5831 54.9894 27.0912 53.6929C27.1655 53.4976 27.2513 53.3068 27.348 53.1217C27.3786 53.0508 27.419 52.9845 27.468 52.9249C27.4872 52.9249 27.3456 53.2273 27.1728 53.7217C26.722 55.0133 26.579 56.3923 26.7552 57.7489C26.82 58.2793 26.8992 58.5961 26.88 58.6009Z" fill="#FAFAFA"/>
<path d="M28.5311 58.6273C28.5311 58.6273 28.4423 58.6273 28.3463 58.5001C28.2338 58.3244 28.173 58.1206 28.1711 57.9121C28.1148 57.2484 28.1148 56.5813 28.1711 55.9177C28.2217 55.2535 28.3302 54.595 28.4951 53.9497C28.5599 53.7097 28.6199 53.5057 28.6655 53.3713C28.6831 53.2983 28.7123 53.2286 28.7519 53.1649C28.7687 53.1649 28.6871 53.4745 28.5815 53.9713C28.3058 55.264 28.2001 56.5872 28.2671 57.9073C28.2596 58.1031 28.3034 58.2976 28.3943 58.4713C28.4591 58.5889 28.5383 58.6177 28.5311 58.6273Z" fill="#FAFAFA"/>
<path d="M27.5567 25.2768L27.8831 34.7712C27.9094 35.549 28.2435 36.2845 28.8119 36.816C29.3803 37.3475 30.1366 37.6315 30.9143 37.6056C31.6624 37.5814 32.373 37.2727 32.9011 36.7424C33.4291 36.212 33.7349 35.5001 33.7559 34.752C33.7799 33.9024 33.7967 33.192 33.7967 33.192C33.7967 33.192 36.1607 32.94 36.2999 30.5952C36.3671 29.4648 36.3191 27.1272 36.2471 25.0104C36.2097 23.8701 35.7303 22.789 34.9102 21.9958C34.0901 21.2026 32.9937 20.7594 31.8527 20.76C31.2717 20.7666 30.6978 20.8896 30.1651 21.1217C29.6324 21.3539 29.1516 21.6904 28.7511 22.1114C28.3507 22.5325 28.0386 23.0295 27.8335 23.5732C27.6283 24.1169 27.5342 24.6962 27.5567 25.2768Z" fill="#FFBE9D"/>
<path d="M33.7993 33.1992C32.7151 33.1682 31.6648 32.8148 30.7825 32.184C30.7825 32.184 31.4257 33.9072 33.7753 33.8064L33.7993 33.1992Z" fill="#EB996E"/>
<path d="M35.4769 26.64C35.4737 26.7272 35.4366 26.8097 35.3733 26.8698C35.31 26.93 35.2257 26.9629 35.1385 26.9616C35.0948 26.9642 35.051 26.9578 35.0098 26.9428C34.9687 26.9278 34.9311 26.9045 34.8994 26.8743C34.8676 26.8442 34.8424 26.8078 34.8253 26.7675C34.8083 26.7272 34.7997 26.6838 34.8001 26.64C34.8032 26.5526 34.8403 26.4698 34.9035 26.4093C34.9667 26.3488 35.051 26.3153 35.1385 26.316C35.1823 26.3137 35.2261 26.3204 35.2673 26.3357C35.3084 26.351 35.346 26.3745 35.3777 26.4049C35.4094 26.4352 35.4345 26.4717 35.4516 26.5122C35.4687 26.5526 35.4773 26.5961 35.4769 26.64Z" fill="#3E4551"/>
<path d="M35.6856 26.16C35.6424 26.2008 35.3976 26.0016 35.0376 25.9848C34.6776 25.968 34.404 26.136 34.3656 26.0904C34.3272 26.0448 34.3943 25.992 34.5143 25.9152C34.6745 25.8135 34.8626 25.7647 35.052 25.776C35.2397 25.7834 35.42 25.8516 35.5656 25.9704C35.6736 26.0616 35.7072 26.1432 35.6856 26.16Z" fill="#3E4551"/>
<path d="M32.0616 26.64C32.0579 26.7277 32.0203 26.8104 31.9567 26.8709C31.8931 26.9313 31.8086 26.9647 31.7208 26.964C31.678 26.9653 31.6354 26.958 31.5954 26.9426C31.5554 26.9271 31.5189 26.9039 31.4881 26.8741C31.4572 26.8444 31.4326 26.8088 31.4157 26.7694C31.3988 26.73 31.3899 26.6877 31.3896 26.6448C31.3928 26.5574 31.4299 26.4746 31.4931 26.4141C31.5563 26.3536 31.6406 26.3201 31.728 26.3208C31.771 26.3195 31.8138 26.3268 31.8539 26.3422C31.894 26.3576 31.9306 26.3809 31.9617 26.4106C31.9927 26.4403 32.0176 26.4759 32.0347 26.5153C32.0519 26.5546 32.061 26.5971 32.0616 26.64Z" fill="#3E4551"/>
<path d="M32.1384 26.0616C32.0952 26.1024 31.8504 25.9032 31.4904 25.8864C31.1304 25.8696 30.8568 26.0376 30.8184 25.992C30.78 25.9464 30.8472 25.896 30.9648 25.8168C31.126 25.7155 31.3148 25.6668 31.5048 25.6776C31.6926 25.685 31.8729 25.7532 32.0184 25.872C32.1264 25.9608 32.16 26.0424 32.1384 26.0616Z" fill="#3E4551"/>
<path d="M33.3215 28.8001C33.5139 28.7473 33.7125 28.7207 33.9119 28.7209C34.0031 28.7209 34.0919 28.7017 34.1111 28.6393C34.1222 28.5443 34.1046 28.4482 34.0607 28.3633C33.9871 28.1377 33.9071 27.8977 33.8207 27.6433C33.4895 26.6281 33.2543 25.7929 33.2951 25.7809C33.3359 25.7689 33.6383 26.5801 33.9695 27.5953L34.1951 28.3153C34.2493 28.4291 34.2604 28.5587 34.2263 28.6801C34.2111 28.7113 34.1892 28.7389 34.1623 28.7608C34.1354 28.7828 34.104 28.7987 34.0703 28.8073C34.0183 28.8186 33.9651 28.8234 33.9119 28.8217C33.715 28.8384 33.5167 28.8311 33.3215 28.8001Z" fill="#3E4551"/>
<path d="M32.2488 28.9968C32.3064 28.9968 32.2896 29.388 32.6112 29.6808C32.9328 29.9736 33.36 29.952 33.36 30C33.36 30.048 33.264 30.072 33.0888 30.0696C32.8606 30.0646 32.6415 29.9797 32.4696 29.8296C32.3058 29.6816 32.2052 29.4762 32.1888 29.256C32.172 29.088 32.22 28.992 32.2488 28.9968Z" fill="#3E4551"/>
<path d="M32.2992 24.6528C32.2584 24.7488 31.9008 24.6864 31.476 24.7152C31.0512 24.744 30.7008 24.8472 30.6504 24.756C30.6264 24.7128 30.6912 24.624 30.8328 24.5352C31.0217 24.4255 31.2339 24.3621 31.452 24.3504C31.6694 24.334 31.8876 24.3702 32.088 24.456C32.2416 24.5256 32.316 24.6072 32.2992 24.6528Z" fill="#3E4551"/>
<path d="M35.6016 25.1112C35.5344 25.1904 35.292 25.0944 34.992 25.0752C34.692 25.056 34.4376 25.104 34.3848 25.0152C34.3608 24.9744 34.404 24.8928 34.5192 24.8208C34.6707 24.7324 34.8462 24.6938 35.0208 24.7104C35.1963 24.7217 35.3641 24.7871 35.5008 24.8976C35.6016 24.9864 35.6328 25.0728 35.6016 25.1112Z" fill="#3E4551"/>
<path d="M30.2231 22.8624H30.2111C29.8228 23.1394 29.5564 23.5555 29.4671 24.024V24.072C29.3423 24.7368 29.3279 25.4184 29.1983 26.0808C29.1014 26.7562 28.7812 27.3797 28.2887 27.852C28.0751 28.032 27.7103 28.1448 27.5543 27.9144C27.5013 27.8202 27.4771 27.7126 27.4847 27.6048C27.4367 25.9824 27.0623 24.528 27.1439 22.8384C27.1551 22.6119 27.2196 22.3912 27.3322 22.1944C27.4448 21.9975 27.6023 21.83 27.7919 21.7056C28.1567 21.4656 28.6007 21.2256 28.9919 21.432C29.3831 21.6384 29.8511 22.392 30.1415 22.7232" fill="#3E4551"/>
<path d="M28.2961 26.4145C28.2553 26.3953 26.7049 25.8625 26.6809 27.4681C26.6569 29.0737 28.2745 28.7689 28.2769 28.7209C28.2793 28.6729 28.2961 26.4145 28.2961 26.4145Z" fill="#FFBE9D"/>
<path d="M27.7969 28.1064C27.7969 28.1064 27.7681 28.1256 27.7201 28.1448C27.6531 28.1719 27.5783 28.1719 27.5113 28.1448C27.4087 28.0774 27.3259 27.9837 27.2715 27.8737C27.2171 27.7636 27.193 27.641 27.2017 27.5185C27.1986 27.3802 27.2274 27.243 27.2857 27.1176C27.3016 27.0678 27.3294 27.0226 27.3666 26.9858C27.4037 26.949 27.4493 26.9218 27.4993 26.9064C27.5315 26.8989 27.5652 26.9027 27.5949 26.9171C27.6247 26.9315 27.6485 26.9557 27.6625 26.9857C27.6841 27.0313 27.6625 27.0624 27.6817 27.0672C27.7009 27.072 27.7153 27.0408 27.7033 26.9736C27.6955 26.9342 27.6743 26.8986 27.6433 26.8729C27.6221 26.8555 27.5975 26.8426 27.571 26.8352C27.5446 26.8278 27.5169 26.8259 27.4897 26.8296C27.4236 26.8406 27.3615 26.8685 27.3094 26.9105C27.2572 26.9526 27.2168 27.0074 27.1921 27.0696C27.122 27.207 27.0866 27.3594 27.0889 27.5136C27.0776 27.6566 27.1093 27.7997 27.1798 27.9246C27.2504 28.0494 27.3566 28.1504 27.4849 28.2144C27.5278 28.228 27.5732 28.2317 27.6178 28.225C27.6623 28.2183 27.7047 28.2016 27.7417 28.1761C27.7921 28.1449 27.8017 28.1088 27.7969 28.1064Z" fill="#EB996E"/>
<path d="M28.7352 21.9336C28.2744 21.3384 29.2512 20.304 30.012 19.968C30.7728 19.632 31.8528 19.9056 32.652 20.0808C33.1656 20.1888 33.684 20.364 34.2024 20.2872C34.5469 20.2136 34.8786 20.0891 35.1864 19.9176C35.4949 19.7476 35.8344 19.6415 36.1848 19.6056C36.3606 19.5896 36.5373 19.6224 36.6957 19.7003C36.854 19.7782 36.9878 19.8982 37.0824 20.0472C37.1241 20.1232 37.1491 20.2072 37.1557 20.2936C37.1623 20.3801 37.1502 20.4669 37.1205 20.5483C37.0907 20.6297 37.0438 20.7038 36.983 20.7655C36.9222 20.8273 36.8489 20.8754 36.768 20.9064C36.8727 20.8369 36.9926 20.7934 37.1176 20.7797C37.2425 20.766 37.369 20.7824 37.4863 20.8276C37.6036 20.8727 37.7084 20.9453 37.7919 21.0393C37.8754 21.1333 37.9352 21.2459 37.9663 21.3677C37.9973 21.4895 37.9988 21.617 37.9705 21.7395C37.9422 21.862 37.8849 21.9759 37.8035 22.0717C37.7222 22.1676 37.619 22.2425 37.5028 22.2903C37.3865 22.3381 37.2604 22.3573 37.1352 22.3464C37.344 22.1496 37.7232 22.3968 37.7256 22.6824C37.71 22.8253 37.6575 22.9617 37.5734 23.0782C37.4892 23.1948 37.3763 23.2874 37.2456 23.3472C36.612 23.712 35.8272 23.7024 35.112 23.5464C34.3968 23.3904 33.7176 23.0976 33.0096 22.9248C32.3016 22.752 31.104 22.428 30.4464 22.7448C29.9664 22.9848 29.676 23.6232 29.376 23.52C29.2335 23.4612 29.107 23.3694 29.0068 23.2522C28.9067 23.1349 28.8358 22.9956 28.8 22.8456C28.7275 22.5474 28.704 22.2394 28.7304 21.9336" fill="#3E4551"/>
<path d="M36.696 21.0217C36.696 21.0217 36.7248 21.0361 36.7752 21.0721C36.849 21.1246 36.9064 21.197 36.9408 21.2809C37.0033 21.4338 37.0087 21.6041 36.9558 21.7606C36.9029 21.9171 36.7953 22.0493 36.6528 22.1329C36.4554 22.2514 36.2302 22.316 36 22.3201C35.7357 22.3225 35.4727 22.2844 35.22 22.2073C34.6456 22.0045 34.0964 21.7363 33.5832 21.4081C33.0627 21.0771 32.482 20.852 31.8744 20.7457C31.6057 20.7111 31.333 20.7274 31.0704 20.7937C30.8433 20.8559 30.6288 20.9574 30.4368 21.0937C30.1602 21.2846 29.9351 21.541 29.7816 21.8401C29.7252 21.95 29.684 22.0671 29.6592 22.1881C29.6592 22.1881 29.6976 22.0609 29.8056 21.8521C29.9637 21.5587 30.1901 21.3076 30.4656 21.1201C30.654 20.9889 30.8646 20.8929 31.0872 20.8369C31.343 20.7736 31.6084 20.759 31.8696 20.7937C32.4668 20.9036 33.0372 21.1277 33.5496 21.4537C34.0656 21.7858 34.6201 22.0542 35.2008 22.2529C35.4588 22.3317 35.7278 22.369 35.9976 22.3633C36.2361 22.3596 36.4695 22.2934 36.6744 22.1713C36.7606 22.1126 36.8361 22.0395 36.8976 21.9553C36.9513 21.8792 36.9881 21.7924 37.0056 21.7009C37.0363 21.5547 37.0195 21.4025 36.9576 21.2665C36.9193 21.1808 36.8567 21.1082 36.7776 21.0577C36.7522 21.042 36.7247 21.0299 36.696 21.0217Z" fill="#4E5159"/>
<path d="M31.0176 20.2104C31.0176 20.2104 30.9816 20.2104 30.9144 20.2104C30.8199 20.2161 30.7264 20.233 30.636 20.2608C30.3306 20.3461 30.0583 20.522 29.8551 20.7655C29.652 21.0089 29.5276 21.3083 29.4984 21.624C29.4872 21.7181 29.4872 21.8132 29.4984 21.9072C29.4984 21.9428 29.5057 21.9779 29.52 22.0104C29.52 22.0104 29.52 21.8617 29.544 21.6289C29.5843 21.3264 29.7094 21.0415 29.9047 20.8071C30.1001 20.5726 30.3577 20.3983 30.648 20.304C30.8712 20.2272 31.02 20.2224 31.0176 20.2104Z" fill="#4E5159"/>
<path d="M27.1704 24.3264C27.211 24.3485 27.2562 24.3608 27.3024 24.3624C27.4284 24.3729 27.5547 24.3453 27.6648 24.2832C27.8302 24.1954 27.9638 24.0577 28.0464 23.8896C28.1472 23.6897 28.2214 23.4775 28.2672 23.2584C28.3125 23.0436 28.3851 22.8356 28.4832 22.6392C28.5626 22.4823 28.6871 22.3527 28.8408 22.2672C28.9445 22.208 29.0623 22.1782 29.1816 22.1808C29.2656 22.1808 29.3112 22.2024 29.3136 22.1976C29.2745 22.1733 29.23 22.1593 29.184 22.1568C29.0584 22.1425 28.9314 22.1659 28.8192 22.224C28.6517 22.3089 28.5149 22.444 28.428 22.6104C28.3267 22.8106 28.2509 23.0226 28.2024 23.2416C28.1573 23.4555 28.0872 23.6633 27.9936 23.8608C27.9168 24.0204 27.7939 24.1534 27.6408 24.2424C27.5394 24.3056 27.4219 24.3381 27.3024 24.336C27.2184 24.336 27.1728 24.3192 27.1704 24.3264Z" fill="#4E5159"/>
<path d="M27.2544 25.3873C27.2544 25.3873 27.2688 25.3873 27.2952 25.3873C27.3332 25.3948 27.3717 25.3996 27.4104 25.4017C27.5537 25.4119 27.6977 25.4005 27.8376 25.3681C28.3055 25.2568 28.7153 24.9753 28.9872 24.5785C29.2541 24.1841 29.419 23.7298 29.4672 23.2561C29.471 23.1751 29.483 23.0947 29.5032 23.0161C29.518 22.9592 29.5508 22.9087 29.5968 22.8721C29.6358 22.8407 29.6836 22.8222 29.7336 22.8193C29.7074 22.8114 29.6797 22.8101 29.6529 22.8156C29.6261 22.821 29.601 22.833 29.58 22.8505C29.5274 22.8888 29.488 22.9425 29.4672 23.0041C29.4427 23.0822 29.4266 23.1626 29.4192 23.2441C29.3616 23.7059 29.1973 24.148 28.9392 24.5353C28.6761 24.9193 28.2846 25.1967 27.8352 25.3177C27.6458 25.3682 27.4503 25.3916 27.2544 25.3873Z" fill="#4E5159"/>
<path d="M72.05 78.7751C72.0164 78.7751 71.9875 77.0207 71.9875 74.8559C71.9875 72.6911 72.0164 70.9343 72.05 70.9343C72.0836 70.9343 72.1124 72.6911 72.1124 74.8559C72.1124 77.0207 72.0836 78.7751 72.05 78.7751Z" fill="#3E4551"/>
<path d="M73.161 79.6007C73.125 79.6007 73.0986 78.0215 73.0986 76.0751C73.0986 74.1287 73.125 72.5471 73.161 72.5471C73.197 72.5471 73.2234 74.1263 73.2234 76.0751C73.2234 78.0239 73.1898 79.6007 73.161 79.6007Z" fill="#3E4551"/>
<path d="M79.2401 61.3367C79.2065 61.3367 79.1777 59.7431 79.1777 57.7775C79.1777 55.8119 79.2065 54.2183 79.2401 54.2183C79.2737 54.2183 79.3025 55.8119 79.3025 57.7775C79.3025 59.7431 79.2761 61.3367 79.2401 61.3367Z" fill="#3E4551"/>
<path d="M80.277 57.9719C80.241 57.9719 80.2146 56.7839 80.2146 55.3175C80.2146 53.8511 80.241 52.6655 80.277 52.6655C80.313 52.6655 80.3394 53.8511 80.3394 55.3175C80.3394 56.7839 80.3106 57.9719 80.277 57.9719Z" fill="#3E4551"/>
<path d="M85.7107 79.0223L78.2347 74.5583C77.987 74.4101 77.8081 74.1697 77.7375 73.8898C77.6668 73.61 77.7101 73.3135 77.8579 73.0655L84.0355 62.7191C84.1086 62.5962 84.2053 62.4889 84.32 62.4034C84.4346 62.3179 84.565 62.2559 84.7037 62.2209C84.8424 62.1859 84.9866 62.1786 85.1281 62.1995C85.2696 62.2203 85.4056 62.2688 85.5283 62.3423L90.2707 65.1719L91.6819 71.1455L87.2035 78.6455C87.1303 78.7684 87.0337 78.8757 86.919 78.9611C86.8043 79.0466 86.6739 79.1087 86.5353 79.1437C86.3966 79.1787 86.2524 79.186 86.1109 79.1651C85.9694 79.1443 85.8334 79.0958 85.7107 79.0223Z" fill="#6869AC"/>
<g opacity="0.2">
<path d="M79.5098 70.2947L88.8548 75.8743L87.3464 78.4006C87.1594 78.7138 86.8557 78.9398 86.5021 79.0291C86.1484 79.1183 85.7738 79.0634 85.4607 78.8764L78.4771 74.7068C78.164 74.5198 77.9379 74.2161 77.8487 73.8624C77.7595 73.5088 77.8144 73.1342 78.0014 72.821L79.5098 70.2947Z" fill="#101723"/>
</g>
<path d="M90.2705 65.1719L88.5209 68.0855C88.3837 68.316 88.3436 68.5915 88.4093 68.8516C88.475 69.1117 88.6411 69.335 88.8713 69.4727L91.6721 71.1527L90.2705 65.1719Z" fill="#6869AC"/>
<g opacity="0.2">
<path d="M88.4178 68.3639C88.2879 68.585 88.2375 68.8438 88.275 69.0975C88.3126 69.3512 88.4358 69.5843 88.6242 69.7583C88.6488 69.7857 88.6753 69.8114 88.7034 69.8351C89.0298 70.1183 91.1826 71.9831 91.2138 71.9279L91.6818 71.1455L88.881 69.4655C88.881 69.4655 88.197 69.0335 88.4178 68.3639Z" fill="#101723"/>
</g>
<g opacity="0.3">
<path d="M90.2705 65.1719L88.5209 68.0855C88.3837 68.316 88.3436 68.5915 88.4093 68.8516C88.475 69.1117 88.6411 69.335 88.8713 69.4727L91.6721 71.1527L90.2705 65.1719Z" fill="white"/>
</g>
<path d="M69.3354 87.0959L59.481 89.1047C59.319 89.138 59.152 89.139 58.9896 89.1077C58.8272 89.0764 58.6725 89.0133 58.5345 88.9221C58.3965 88.8309 58.2779 88.7134 58.1854 88.5763C58.0929 88.4392 58.0283 88.2852 57.9954 88.1231L55.2162 74.4695C55.1829 74.3075 55.1819 74.1405 55.2132 73.9781C55.2445 73.8157 55.3076 73.6611 55.3988 73.5231C55.49 73.3851 55.6075 73.2664 55.7446 73.1739C55.8817 73.0814 56.0357 73.0168 56.1978 72.9839L62.4546 71.7095L68.313 75.7151L70.3266 85.6103C70.3598 85.773 70.3604 85.9407 70.3284 86.1036C70.2965 86.2665 70.2326 86.4215 70.1405 86.5596C70.0483 86.6977 69.9297 86.8162 69.7915 86.9083C69.6534 87.0003 69.4983 87.0641 69.3354 87.0959Z" fill="#4E5159"/>
<path d="M62.4451 71.7095L63.2275 75.5495C63.2575 75.7004 63.3172 75.8439 63.4029 75.9717C63.4887 76.0995 63.5989 76.209 63.7271 76.294C63.8554 76.379 63.9992 76.4378 64.1503 76.4669C64.3014 76.4961 64.4568 76.4951 64.6075 76.4639L68.3035 75.7127L62.4451 71.7095Z" fill="#3E4551"/>
<path d="M62.361 75.5639C62.361 75.6143 61.3579 75.8615 60.0979 76.1183C58.8379 76.3751 57.8082 76.5431 57.7962 76.4927C57.7842 76.4423 58.7994 76.1975 60.0594 75.9407C61.3194 75.6839 62.361 75.5159 62.361 75.5639Z" fill="#FAFAFA"/>
<path d="M65.757 77.1359C65.757 77.1863 64.0938 77.5679 62.0202 77.9903C59.9466 78.4127 58.257 78.7103 58.2474 78.6671C58.2378 78.6239 59.9106 78.2351 61.9842 77.8127C64.0578 77.3903 65.7474 77.0879 65.757 77.1359Z" fill="#FAFAFA"/>
<path d="M66.8035 78.8135C66.8035 78.8615 64.9891 79.2767 62.7235 79.7351C60.4579 80.1935 58.6219 80.5295 58.6123 80.4791C58.6027 80.4287 60.4267 80.0183 62.6923 79.5575C64.9579 79.0967 66.7939 78.7631 66.8035 78.8135Z" fill="#FAFAFA"/>
<path d="M67.161 80.5247C67.161 80.5751 65.3466 80.9879 63.081 81.4487C60.8154 81.9095 58.9794 82.2407 58.9698 82.1927C58.9602 82.1447 60.7842 81.7295 63.0498 81.2687C65.3154 80.8079 67.1418 80.4743 67.161 80.5247Z" fill="#FAFAFA"/>
<path d="M67.4993 82.2359C67.4993 82.2863 65.6849 82.6991 63.4193 83.1599C61.1537 83.6207 59.3177 83.9519 59.3081 83.9039C59.2985 83.8559 61.1225 83.4407 63.3881 82.9799C65.6537 82.5191 67.4897 82.1879 67.4993 82.2359Z" fill="#FAFAFA"/>
<path d="M67.8475 83.9471C67.8595 83.9975 66.0331 84.4103 63.7675 84.8711C61.5019 85.3319 59.6659 85.6631 59.6563 85.6151C59.6467 85.5671 61.4707 85.1519 63.7363 84.6911C66.0019 84.2303 67.8379 83.8991 67.8475 83.9471Z" fill="#FAFAFA"/>
<path d="M87.1626 50.9375L78.3738 51.5471C78.2294 51.5576 78.0844 51.5394 77.947 51.4936C77.8096 51.4478 77.6826 51.3753 77.5734 51.2803C77.4641 51.1853 77.3747 51.0696 77.3102 50.94C77.2458 50.8103 77.2076 50.6692 77.1978 50.5247L76.353 38.3567C76.3429 38.2124 76.3613 38.0674 76.4072 37.9302C76.4532 37.7929 76.5257 37.6661 76.6206 37.5569C76.7155 37.4477 76.8311 37.3582 76.9606 37.2937C77.0901 37.2292 77.2311 37.1908 77.3754 37.1807L82.9506 36.7943L87.5754 40.9439L88.1874 49.7615C88.2072 50.0533 88.1104 50.341 87.9183 50.5615C87.7262 50.782 87.4544 50.9172 87.1626 50.9375Z" fill="#4E5159"/>
<g opacity="0.2">
<path d="M76.9719 47.2622L87.9614 46.4995L88.1494 49.2074C88.1644 49.4244 88.1366 49.6422 88.0675 49.8484C87.9984 50.0546 87.8893 50.2451 87.7466 50.4092C87.6038 50.5732 87.4301 50.7075 87.2355 50.8045C87.0408 50.9014 86.8289 50.9591 86.612 50.9741L78.9241 51.5077C78.7071 51.5227 78.4894 51.4949 78.2832 51.4258C78.077 51.3567 77.8864 51.2476 77.7224 51.1049C77.5583 50.9621 77.424 50.7884 77.327 50.5938C77.2301 50.3991 77.1725 50.1872 77.1574 49.9703L76.9695 47.2624L76.9719 47.2622Z" fill="#101723"/>
</g>
<path d="M82.9507 36.7943L83.1907 40.2191C83.1992 40.3541 83.2343 40.4861 83.294 40.6075C83.3537 40.7289 83.4368 40.8373 83.5385 40.9265C83.6401 41.0157 83.7584 41.0839 83.8866 41.1272C84.0147 41.1706 84.1501 41.1882 84.2851 41.1791L87.5779 40.9511L82.9507 36.7943Z" fill="#3E4551"/>
<path d="M96.7146 82.8167H50.7378V112.692H96.7146V82.8167Z" fill="#6869AC"/>
<g opacity="0.3">
<path d="M96.7147 82.8167H84.5635V112.692H96.7147V82.8167Z" fill="#101723"/>
</g>
<path d="M84.5635 82.8167L91.5139 90.9959H102.998L96.7147 82.8167H84.5635Z" fill="#6869AC"/>
<path d="M50.7379 82.8167L41.2939 90.9959H77.0203L84.5635 82.8167H50.7379Z" fill="#6869AC"/>
<path d="M84.5635 82.8119C84.5635 82.8119 84.5203 82.8671 84.4315 82.9679L84.0355 83.4095L82.5211 85.0823C81.2011 86.5223 79.3219 88.5671 77.0635 91.0319L77.0467 91.0487H77.0227L64.5595 91.0679H47.8747L42.8203 91.0535L41.4451 91.0415H41.0875H40.9651C40.9651 91.0415 41.0059 91.0415 41.0875 91.0415H41.4451L42.8203 91.0271L47.8747 91.0031L64.5595 90.9719H77.0227L76.9843 90.9887C79.2595 88.5383 81.1483 86.4983 82.4755 85.0703L84.0139 83.4215C84.1915 83.2367 84.3259 83.0927 84.4219 82.9895L84.5635 82.8119Z" fill="#3E4551"/>
<path d="M84.5634 112.692C84.5298 112.692 84.501 106.006 84.501 97.7567C84.501 89.5079 84.5298 82.8167 84.5634 82.8167C84.597 82.8167 84.6258 89.5055 84.6258 97.7567C84.6258 106.008 84.5994 112.692 84.5634 112.692Z" fill="#3E4551"/>
<g opacity="0.3">
<path d="M68.9634 108.283H64.0242V112.694H68.9634V108.283Z" fill="white"/>
</g>
<path d="M74.6908 94.5938L58.2136 98.2558L59.8257 105.509L76.3028 101.847L74.6908 94.5938Z" fill="white"/>
<path d="M75.8849 101.695C75.8849 101.695 75.8729 101.652 75.8537 101.573C75.8345 101.494 75.8057 101.371 75.7697 101.22C75.6977 100.906 75.5921 100.452 75.4577 99.8687C75.1937 98.6975 74.8097 97.0103 74.3369 94.9295L74.3897 94.9631L58.5953 98.4911C58.5521 98.5583 58.6505 98.3999 58.6409 98.4191V98.4311V98.4431V98.4719V98.5271L58.6673 98.6399L58.7153 98.8607L58.8137 99.3047C58.8785 99.5975 58.9457 99.8903 59.0081 100.181C59.1377 100.763 59.2657 101.338 59.3921 101.906C59.6321 103.039 59.8865 104.138 60.1121 105.192L60.0425 105.146L71.3705 102.66L74.6609 101.94L75.5441 101.753L75.7841 101.705L75.8633 101.69L75.7913 101.71L75.5705 101.762L74.7017 101.964L71.4329 102.708L60.0761 105.259L60.0185 105.271L60.0065 105.214L59.2745 101.928C59.1473 101.362 59.0201 100.786 58.8905 100.205C58.8257 99.9119 58.7609 99.6191 58.6937 99.3263L58.6169 98.8919L58.5689 98.6711L58.5449 98.5607L58.5305 98.5031V98.4767V98.4551C58.5305 98.4695 58.6217 98.3135 58.5809 98.3783L74.3609 94.8767H74.4041V94.9199L75.4865 99.8951C75.6089 100.476 75.7073 100.927 75.7721 101.242C75.8033 101.39 75.8273 101.506 75.8465 101.59C75.8657 101.674 75.8849 101.695 75.8849 101.695Z" fill="#3E4551"/>
<g opacity="0.3">
<path d="M50.7378 91.0247V93.3095L77.5506 93.1727L84.4194 82.9751L77.0202 90.9959L50.7378 91.0247Z" fill="#101723"/>
</g>
<path d="M50.301 67.1783L41.5386 65.0183C41.3345 64.9678 41.1586 64.8383 41.0498 64.6584C40.9409 64.4784 40.9078 64.2626 40.9578 64.0583L43.881 52.2431C43.9316 52.0389 44.061 51.8631 44.241 51.7542C44.4209 51.6454 44.6367 51.6123 44.841 51.6623L50.9682 53.1767L53.5554 57.3359L51.2634 66.5975C51.2124 66.8019 51.0825 66.9777 50.9021 67.0865C50.7218 67.1954 50.5056 67.2284 50.301 67.1783Z" fill="#6869AC"/>
<path d="M50.9729 53.1479L50.3921 55.4951C50.3581 55.6331 50.3515 55.7765 50.3729 55.9171C50.3942 56.0577 50.4431 56.1927 50.5166 56.3144C50.5902 56.4361 50.687 56.5421 50.8015 56.6263C50.9161 56.7106 51.0461 56.7715 51.1841 56.8055L53.5529 57.3359L50.9729 53.1479Z" fill="#6869AC"/>
<path d="M49.5617 64.5191C49.5617 64.5191 49.5617 64.4783 49.5833 64.4087C49.6049 64.3391 49.6265 64.2263 49.6553 64.0943C49.7225 63.8135 49.8161 63.4175 49.9337 62.9183C50.1737 61.9055 50.5217 60.4751 50.9369 58.7567L50.9729 58.8167L44.9921 57.3455L45.0617 57.3047V57.3287L45.0497 57.3791L45.0257 57.4775L44.9777 57.6719C44.9441 57.8015 44.9129 57.9335 44.8793 58.0607C44.8169 58.3199 44.7521 58.5767 44.6897 58.8287C44.5649 59.3351 44.4497 59.8319 44.3225 60.3143C44.0825 61.2743 43.8545 62.1911 43.6433 63.0287L43.6073 62.9687L47.9273 64.0607L49.1465 64.3751L49.4705 64.4615L49.5833 64.4951L49.4777 64.4759L49.1609 64.4015L47.9465 64.1159L43.5929 63.0647H43.5449L43.5569 63.0143C43.7633 62.1743 43.9865 61.2623 44.2241 60.2975C44.3417 59.8175 44.4641 59.3183 44.5889 58.8119C44.6513 58.5575 44.7161 58.3031 44.7785 58.0439C44.8097 57.9143 44.8433 57.7847 44.8745 57.6551L44.9225 57.4583L44.9489 57.3599V57.3119V57.2855V57.2639C44.8865 57.2999 45.0329 57.2111 45.0185 57.2207L50.9945 58.7063H51.0425V58.7543C50.6033 60.4799 50.2385 61.9175 49.9817 62.9327C49.8545 63.4271 49.7537 63.8159 49.6817 64.0919L49.6025 64.3943C49.5943 64.4375 49.5806 64.4794 49.5617 64.5191Z" fill="white"/>
<path d="M46.4993 63.8351C46.4681 63.8351 46.7633 62.5343 47.1545 60.9551C47.5457 59.3759 47.8913 58.0871 47.9225 58.0943C47.9537 58.1015 47.6585 59.3951 47.2649 60.9743C46.8713 62.5535 46.5209 63.8519 46.4993 63.8351Z" fill="white"/>
<path d="M49.8811 63.1055C49.8811 63.1343 48.5227 62.8271 46.8667 62.4191C45.2107 62.0111 43.8811 61.6511 43.8811 61.6199C43.8811 61.5887 45.2371 61.8959 46.8955 62.3063C48.5539 62.7167 49.8955 63.0743 49.8811 63.1055Z" fill="white"/>
<path d="M50.3179 61.6559C50.3179 61.6847 48.9619 61.3775 47.3059 60.9695C45.6499 60.5615 44.3107 60.2015 44.3179 60.1703C44.3251 60.1391 45.6739 60.4487 47.3323 60.8567C48.9907 61.2647 50.3275 61.6247 50.3179 61.6559Z" fill="white"/>
<path d="M50.6346 60.1775C50.6346 60.2087 49.2882 59.9039 47.6442 59.4983C46.0002 59.0927 44.673 58.7351 44.6802 58.7063C44.6874 58.6775 46.0266 58.9799 47.673 59.3855C49.3194 59.7911 50.6442 60.1463 50.6346 60.1775Z" fill="white"/>
<g opacity="0.4">
<path d="M50.9729 53.1479L50.3921 55.4951C50.3581 55.6331 50.3515 55.7765 50.3729 55.9171C50.3942 56.0577 50.4431 56.1927 50.5166 56.3144C50.5902 56.4361 50.687 56.5421 50.8015 56.6263C50.9161 56.7106 51.0461 56.7715 51.1841 56.8055L53.5529 57.3359L50.9729 53.1479Z" fill="white"/>
</g>
<path d="M75.8442 67.5071L65.3682 69.9815C65.196 70.0226 65.0173 70.0292 64.8425 70.0011C64.6677 69.973 64.5001 69.9106 64.3494 69.8177C64.1987 69.7247 64.0678 69.6029 63.9642 69.4593C63.8607 69.3157 63.7864 69.1531 63.7458 68.9807L60.321 54.4919C60.28 54.3198 60.2734 54.1413 60.3015 53.9667C60.3297 53.792 60.392 53.6246 60.485 53.4741C60.578 53.3236 60.6998 53.1929 60.8434 53.0896C60.987 52.9863 61.1496 52.9123 61.3218 52.8719L67.965 51.2999L74.361 55.3799L76.845 65.8895C76.9258 66.2367 76.8658 66.6017 76.6783 66.9048C76.4908 67.2079 76.1909 67.4244 75.8442 67.5071Z" fill="#6869AC"/>
<g opacity="0.2">
<path d="M62.8337 65.0902L75.9319 61.9939L76.8628 65.9318C76.9416 66.2651 76.8848 66.616 76.7048 66.9073C76.5249 67.1987 76.2366 67.4066 75.9033 67.4854L65.3182 69.9876C64.985 70.0664 64.634 70.0096 64.3427 69.8296C64.0513 69.6497 63.8434 69.3613 63.7646 69.0281L62.8337 65.0902Z" fill="#101723"/>
</g>
<path d="M67.9651 51.2879L68.9251 55.3679C69.0021 55.6909 69.2039 55.9703 69.4864 56.1448C69.7688 56.3193 70.109 56.3748 70.4323 56.2991L74.3611 55.3751L67.9651 51.2879Z" fill="#6869AC"/>
<g opacity="0.2">
<path d="M69.0811 55.7159C69.1564 56.0241 69.3348 56.2972 69.5867 56.4901C69.8385 56.683 70.1487 56.7842 70.4659 56.7767C70.5114 56.7791 70.5571 56.7791 70.6027 56.7767C71.1355 56.7479 74.6515 56.5511 74.6323 56.4743C74.6131 56.3975 74.3731 55.3775 74.3731 55.3775L70.4491 56.3039C70.4491 56.3039 69.4507 56.5007 69.0811 55.7159Z" fill="#101723"/>
</g>
<g opacity="0.4">
<path d="M67.9651 51.2879L68.9251 55.3679C69.0021 55.6909 69.2039 55.9703 69.4864 56.1448C69.7688 56.3193 70.109 56.3748 70.4323 56.2991L74.3611 55.3751L67.9651 51.2879Z" fill="white"/>
</g>
<path d="M60 100.585L60.4278 100.479L61.0776 102.051L61.2627 100.271L61.6682 100.17L62.6123 101.602L62.4792 99.9682L62.8942 99.8649L63.0325 102.245L62.6318 102.345L61.5627 100.717L61.3357 102.668L60.9397 102.766L60 100.585Z" fill="#101723"/>
<path d="M63.5058 101.575C63.4232 101.244 63.6236 101.018 64.107 100.897C64.2205 100.869 64.3365 100.851 64.4553 100.844L64.424 100.719C64.3868 100.569 64.2606 100.521 64.0453 100.575C63.863 100.62 63.6671 100.697 63.4577 100.805L63.3745 100.472C63.584 100.363 63.7799 100.286 63.9622 100.241C64.4584 100.117 64.7521 100.239 64.8434 100.606L65.1221 101.725L64.8772 101.786L64.6905 101.674C64.5701 101.81 64.4224 101.899 64.2474 101.943C63.8393 102.045 63.5921 101.922 63.5058 101.575ZM64.5265 101.131C64.4152 101.136 64.2991 101.153 64.1783 101.183C63.9758 101.234 63.8917 101.328 63.926 101.466C63.9629 101.614 64.0662 101.667 64.2358 101.625C64.3758 101.59 64.4948 101.514 64.593 101.398L64.5265 101.131Z" fill="#101723"/>
<path d="M65.0145 99.6918L65.3262 99.6142L65.4571 99.8687L65.8769 99.7642L65.96 100.098L65.5863 100.191L65.7775 100.959C65.8163 101.115 65.903 101.176 66.0376 101.143L66.2094 101.1L66.2925 101.434L65.9172 101.527C65.6373 101.597 65.46 101.482 65.3854 101.182L65.0145 99.6918Z" fill="#101723"/>
<path d="M67.8009 101.008C67.671 101.074 67.5318 101.126 67.3834 101.162C66.7897 101.31 66.421 101.095 66.2771 100.517C66.1439 99.9821 66.3741 99.6405 66.9678 99.4927C67.1162 99.4558 67.2633 99.436 67.409 99.4335L67.4921 99.7675C67.3464 99.77 67.2099 99.7871 67.0827 99.8187C66.7488 99.9019 66.6207 100.1 66.6986 100.413C66.787 100.768 66.9981 100.904 67.3321 100.821C67.4593 100.789 67.5879 100.74 67.7178 100.674L67.8009 101.008Z" fill="#101723"/>
<path d="M68.0911 100.986L67.525 98.7123L67.9464 98.6074L68.1499 99.4248C68.246 99.25 68.3964 99.1371 68.601 99.0862C68.9964 98.9878 69.2453 99.1442 69.3477 99.5556L69.6097 100.608L69.1883 100.713L68.9263 99.6605C68.8804 99.476 68.7657 99.4066 68.5823 99.4522C68.4455 99.4863 68.3256 99.5741 68.2223 99.7158L68.5125 100.881L68.0911 100.986Z" fill="#101723"/>
<path d="M69.8643 98.13L70.4303 100.404L70.0089 100.509L69.4429 98.2349L69.8643 98.13Z" fill="#101723"/>
<path d="M70.6848 97.9258L70.768 98.2597L70.3465 98.3646L70.2634 98.0307L70.6848 97.9258ZM70.8353 98.53L71.2509 100.2L70.8295 100.305L70.4138 98.6349L70.8353 98.53Z" fill="#101723"/>
<path d="M71.6302 100.021L71.5431 99.6711C71.7471 99.6991 71.9705 99.6829 72.2133 99.6225C72.3946 99.5774 72.4707 99.4965 72.4417 99.3799C72.414 99.2686 72.3392 99.2281 72.2173 99.2584L71.9151 99.3336C71.5759 99.4181 71.3647 99.2933 71.2816 98.9594C71.1945 98.6095 71.3985 98.373 71.8936 98.2497C72.1035 98.1975 72.3091 98.1801 72.5105 98.1975L72.5976 98.5474C72.3936 98.5193 72.1829 98.5324 71.9656 98.5865C71.7376 98.6432 71.6382 98.7299 71.6672 98.8465C71.6949 98.9578 71.775 98.997 71.9075 98.964L72.1779 98.8967C72.5489 98.8043 72.776 98.9251 72.8592 99.2591C72.9462 99.6089 72.7534 99.8427 72.2805 99.9604C72.0484 100.018 71.8316 100.038 71.6302 100.021Z" fill="#101723"/>
<path d="M72.7748 97.7602L73.0865 97.6826L73.2174 97.9371L73.6373 97.8326L73.7204 98.1666L73.3467 98.2596L73.5379 99.0277C73.5767 99.1835 73.6634 99.2447 73.798 99.2112L73.9698 99.1684L74.0529 99.5024L73.6776 99.5958C73.3977 99.6654 73.2204 99.5503 73.1457 99.2502L72.7748 97.7602Z" fill="#101723"/>
<path d="M64.8546 62.8683L63.9822 58.9116L64.7154 58.7499L67.4402 61.1724L66.8045 58.2893L67.51 58.1337L68.3825 62.0904L67.6492 62.2521L64.911 59.7687L65.5602 62.7127L64.8546 62.8683Z" fill="#AEADD5"/>
<path d="M68.8725 60.3518L68.3429 57.9501L69.0761 57.7884L69.6057 60.1901C69.7448 60.821 70.1372 61.0652 70.7828 60.9229C71.4284 60.7805 71.6817 60.3939 71.5426 59.763L71.013 57.3613L71.7462 57.1996L72.2758 59.6014C72.5085 60.6565 72.0576 61.3091 70.9231 61.5593C69.7887 61.8094 69.1051 61.4069 68.8725 60.3518Z" fill="#AEADD5"/>
<path d="M64.8375 67.7879L64.3965 65.8444L64.7567 65.7626L66.1041 66.946L65.7828 65.5298L66.1294 65.4512L66.5704 67.3947L66.2102 67.4764L64.8559 66.2632L65.1841 67.7093L64.8375 67.7879Z" fill="white"/>
<path d="M67.906 65.5911L68.2298 67.0182L67.9485 67.082L67.8637 66.9098C67.7272 67.0684 67.567 67.1686 67.3831 67.2103C67.0913 67.2765 66.9063 67.137 66.828 66.7918L66.6217 65.8825L66.9818 65.8008L67.186 66.7005C67.2218 66.8582 67.3085 66.9214 67.4462 66.8901C67.5631 66.8636 67.6717 66.7899 67.7719 66.6691L67.5459 65.6728L67.906 65.5911Z" fill="white"/>
<path d="M69.2166 66.7943L68.7756 64.8507L69.6862 64.6441C70.0559 64.5602 70.2749 64.6692 70.3434 64.9709C70.3936 65.192 70.3089 65.3774 70.0895 65.5273C70.3577 65.5169 70.5198 65.6349 70.5757 65.8814C70.6627 66.2647 70.5036 66.5022 70.0986 66.5941L69.2166 66.7943ZM70.0127 66.2849C70.1722 66.2488 70.2334 66.1491 70.1964 65.986C70.1506 65.784 70.0085 65.71 69.7702 65.764L69.6615 65.7887L69.6088 65.5563C69.8965 65.4386 70.0176 65.2797 69.9722 65.0794C69.9475 64.9707 69.8681 64.9315 69.734 64.962L69.2067 65.0816L69.5058 66.4L70.0127 66.2849Z" fill="white"/>
<path d="M70.8105 65.9653C70.7462 65.6817 70.9206 65.493 71.3338 65.3993C71.4307 65.3773 71.5297 65.3643 71.6308 65.3605L71.6064 65.2531C71.5774 65.1253 71.471 65.0823 71.287 65.1241C71.1312 65.1594 70.9633 65.2213 70.7833 65.3098L70.7185 65.0244C70.8985 64.9359 71.0664 64.874 71.2223 64.8386C71.6463 64.7424 71.8939 64.8511 71.9651 65.1646L72.1822 66.1214L71.9728 66.1689L71.8161 66.0701C71.7113 66.1834 71.5841 66.2571 71.4346 66.291C71.0858 66.3702 70.8778 66.2616 70.8105 65.9653ZM71.6863 65.6051C71.5916 65.6075 71.4926 65.6205 71.3893 65.6439C71.2162 65.6832 71.1431 65.7617 71.1698 65.8795C71.1986 66.0063 71.2854 66.0533 71.4304 66.0204C71.55 65.9933 71.6526 65.931 71.7381 65.8334L71.6863 65.6051Z" fill="white"/>
<path d="M72.5233 66.044L72.1995 64.6169L72.4781 64.5537L72.5704 64.7528C72.6756 64.5822 72.8156 64.4771 72.9905 64.4374C73.3285 64.3607 73.5373 64.4982 73.6171 64.8497L73.8213 65.7495L73.4611 65.8312L73.2569 64.9315C73.2212 64.7738 73.1249 64.7128 72.9681 64.7483C72.8513 64.7748 72.7477 64.8474 72.6574 64.966L72.8835 65.9623L72.5233 66.044Z" fill="white"/>
<path d="M74.1624 65.6721L73.7214 63.7285L74.0816 63.6468L74.224 64.2747C74.3549 64.1669 74.5018 64.0945 74.6649 64.0575C75.0292 63.9749 75.2424 64.0708 75.3047 64.3453C75.35 64.5447 75.2585 64.7293 75.0303 64.8992L75.5976 65.3464L75.1573 65.4463L74.6692 65.0212L74.6313 64.854C74.8788 64.7397 74.9883 64.6196 74.9597 64.4937C74.9305 64.365 74.8298 64.3202 74.6577 64.3593C74.5371 64.3866 74.4144 64.4545 74.2894 64.5629L74.5226 65.5903L74.1624 65.6721Z" fill="white"/>
<path d="M79.0582 73.0984L79.8188 71.8002L80.0684 71.9465L79.9316 73.1894L80.9399 72.4571L81.1805 72.598L80.4199 73.8962L80.1975 73.7659L80.7272 72.8617L79.8453 73.5595L79.6401 73.4393L79.8104 72.3245L79.2806 73.2287L79.0582 73.0984Z" fill="white"/>
<path d="M81.6707 72.8852L81.559 73.0758L81.3184 72.9349L81.4301 72.7443L81.6707 72.8852ZM81.4686 73.2302L80.9101 74.1834L80.6696 74.0424L81.228 73.0892L81.4686 73.2302Z" fill="white"/>
<path d="M81.8575 74.7018C81.7682 74.6739 81.6812 74.6351 81.5964 74.5855C81.2575 74.3869 81.1847 74.1227 81.3779 73.7929C81.557 73.4872 81.816 73.4337 82.1549 73.6323C82.2396 73.6819 82.316 73.7389 82.384 73.8031L82.2724 73.9937C82.2043 73.9295 82.134 73.8761 82.0614 73.8335C81.8707 73.7219 81.7231 73.7553 81.6185 73.9338C81.4997 74.1366 81.5356 74.2938 81.7263 74.4055C81.7989 74.448 81.8799 74.4833 81.9692 74.5112L81.8575 74.7018Z" fill="white"/>
<path d="M82.0004 74.8221L82.5589 73.8689L82.745 73.978L82.7037 74.1172C82.8347 74.085 82.9468 74.0962 83.04 74.1508L82.9262 74.3451C82.8366 74.2926 82.7346 74.2829 82.6202 74.3158L82.241 74.9631L82.0004 74.8221Z" fill="white"/>
<path d="M83.0943 74.8179C82.9776 75.0171 82.9964 75.1618 83.1508 75.2522C83.3051 75.3427 83.4406 75.2883 83.5572 75.0892C83.6711 74.8949 83.6508 74.7526 83.4965 74.6622C83.3421 74.5717 83.2081 74.6237 83.0943 74.8179ZM82.8516 74.6806C83.0388 74.3611 83.2897 74.2935 83.6044 74.4779C83.9192 74.6623 83.9829 74.9142 83.7957 75.2338C83.6088 75.5527 83.358 75.62 83.0433 75.4356C82.7298 75.2519 82.6659 75.0003 82.8516 74.6806Z" fill="white"/>
<path d="M83.7246 75.7713L83.8416 75.5716C83.9227 75.676 84.0325 75.7689 84.1711 75.8501C84.2746 75.9107 84.3459 75.9077 84.3849 75.8411C84.4221 75.7776 84.4059 75.7254 84.3363 75.6847L84.1638 75.5836C83.9702 75.4701 83.9292 75.3181 84.0409 75.1274C84.1579 74.9277 84.3577 74.9107 84.6403 75.0763C84.7602 75.1465 84.8624 75.2307 84.947 75.3291L84.83 75.5288C84.7489 75.4244 84.6464 75.3359 84.5223 75.2632C84.3922 75.1869 84.3076 75.1821 84.2686 75.2487C84.2314 75.3122 84.2506 75.3662 84.3262 75.4105L84.4806 75.5009C84.6924 75.625 84.7425 75.7824 84.6308 75.973C84.5138 76.1727 84.3203 76.1935 84.0504 76.0354C83.9178 75.9577 83.8092 75.8697 83.7246 75.7713Z" fill="white"/>
<path d="M85.106 75.9966C84.9893 76.1957 85.0081 76.3404 85.1625 76.4309C85.3168 76.5213 85.4523 76.4669 85.5689 76.2678C85.6828 76.0735 85.6625 75.9312 85.5082 75.8408C85.3538 75.7504 85.2198 75.8023 85.106 75.9966ZM84.8633 75.8592C85.0505 75.5397 85.3014 75.4721 85.6161 75.6565C85.9309 75.8409 85.9946 76.0928 85.8074 76.4124C85.6205 76.7313 85.3697 76.7986 85.055 76.6142C84.7415 76.4306 84.6776 76.1789 84.8633 75.8592Z" fill="white"/>
<path d="M85.7097 76.9954L86.2682 76.0422C86.4213 75.7807 86.6408 75.7337 86.9264 75.901C87.0045 75.9468 87.0682 76.0004 87.1176 76.0618L87.0059 76.2524C86.9601 76.1931 86.9022 76.1429 86.832 76.1018C86.6952 76.0216 86.5875 76.0488 86.5087 76.1831L86.7947 76.3506L86.683 76.5413L86.397 76.3737L85.9503 77.1363L85.7097 76.9954Z" fill="white"/>
<path d="M87.0186 76.2745L87.1965 76.3787L87.1424 76.5544L87.382 76.6948L87.2704 76.8854L87.057 76.7604L86.8001 77.1989C86.748 77.2879 86.7604 77.3548 86.8372 77.3999L86.9353 77.4573L86.8236 77.648L86.6093 77.5224C86.4496 77.4288 86.4199 77.2964 86.5202 77.1251L87.0186 76.2745Z" fill="white"/>
<path d="M81.0603 69.5677L82.2526 67.3874L82.6719 67.6167L82.5067 69.6754L84.1356 68.4172L84.5397 68.6381L83.3474 70.8184L82.9738 70.6142L83.8043 69.0956L82.3822 70.2907L82.0376 70.1022L82.2643 68.2534L81.4339 69.772L81.0603 69.5677Z" fill="#AEADD5"/>
<path d="M83.8167 70.9563L84.0168 70.5903C84.1909 70.7912 84.4156 70.9669 84.6911 71.1175C85.0255 71.3004 85.2538 71.28 85.3761 71.0564C85.4651 70.8938 85.4069 70.7563 85.2016 70.644L84.86 70.4573C84.4138 70.2132 84.3019 69.8879 84.5242 69.4814C84.7688 69.0341 85.2087 68.9842 85.844 69.3316C86.088 69.465 86.2998 69.6271 86.4794 69.8177L86.2793 70.1837C86.1052 69.9828 85.8962 69.8157 85.6522 69.6823C85.2863 69.4822 85.045 69.4889 84.9282 69.7023C84.8393 69.865 84.8833 69.9946 85.0601 70.0913L85.4017 70.2781C85.8764 70.5377 86.0025 70.8708 85.7802 71.2774C85.53 71.7348 85.1031 71.7984 84.4993 71.4682C84.2238 71.3176 83.9963 71.1469 83.8167 70.9563Z" fill="#AEADD5"/>
<path d="M88.3804 70.7385L88.1903 71.0861L87.1596 70.5225L86.8594 71.0713L87.8383 71.6066L87.6407 71.968L86.6572 71.4302L86.1528 72.3526L85.7564 72.1359L86.9487 69.9555L88.3804 70.7385Z" fill="#AEADD5"/>
<path d="M90.149 71.7057L89.9572 72.0564L89.3321 71.7145L88.3316 73.5441L87.9275 73.3232L88.9281 71.4936L88.303 71.1517L88.4947 70.801L90.149 71.7057Z" fill="#AEADD5"/>
<path d="M80.2678 47.597L80.2944 47.9688L79.6316 48.0163L79.7706 49.9563L79.3422 49.987L79.2032 48.047L78.5403 48.0945L78.5137 47.7227L80.2678 47.597Z" fill="white"/>
<path d="M81.2317 48.1454C81.7469 48.1084 82.0233 48.353 82.061 48.8789C82.066 48.949 82.0662 49.0194 82.0615 49.0901L80.9347 49.1709C80.9518 49.4102 81.1361 49.5172 81.4874 49.492C81.6588 49.4797 81.829 49.4513 81.9981 49.4067L82.0224 49.7462C81.8749 49.7892 81.6939 49.8185 81.4794 49.8338C80.864 49.8779 80.5356 49.6106 80.4941 49.0318C80.4545 48.4789 80.7003 48.1834 81.2317 48.1454ZM80.9134 48.8734L81.6376 48.8215L81.6367 48.8086C81.6199 48.5736 81.4929 48.4646 81.2558 48.4816C81.0294 48.4979 80.9153 48.6284 80.9134 48.8734Z" fill="white"/>
<path d="M82.442 49.6836L82.4165 49.3279C82.6106 49.3899 82.831 49.412 83.0778 49.3943C83.2621 49.3811 83.35 49.3152 83.3415 49.1966C83.3334 49.0835 83.2674 49.0313 83.1434 49.0402L82.8362 49.0622C82.4914 49.087 82.3067 48.9296 82.2824 48.5901C82.2569 48.2344 82.4958 48.0385 82.9992 48.0024C83.2126 47.9872 83.4159 48.0051 83.6091 48.0562L83.6346 48.4119C83.4406 48.35 83.2331 48.3269 83.0122 48.3428C82.7805 48.3594 82.6688 48.4269 82.6773 48.5455C82.6854 48.6587 82.7569 48.7104 82.8916 48.7008L83.1664 48.6811C83.5436 48.654 83.7444 48.8103 83.7688 49.1498C83.7942 49.5054 83.5666 49.7005 83.086 49.735C82.8499 49.7519 82.6353 49.7348 82.442 49.6836Z" fill="white"/>
<path d="M84.3693 47.303L84.535 49.6149L84.1065 49.6456L83.9409 47.3337L84.3693 47.303Z" fill="white"/>
<path d="M84.822 49.0629C84.7978 48.7256 85.0315 48.5393 85.523 48.5041C85.6383 48.4958 85.7544 48.4983 85.8712 48.5116L85.8621 48.3839C85.8512 48.2319 85.7364 48.1638 85.5176 48.1795C85.3322 48.1927 85.1283 48.2344 84.9058 48.3046L84.8815 47.9651C85.1039 47.8949 85.3079 47.8532 85.4932 47.84C85.9976 47.8038 86.2632 47.9722 86.2899 48.3451L86.3715 49.4833L86.1225 49.5011L85.9597 49.36C85.8193 49.4719 85.6602 49.5342 85.4823 49.547C85.0674 49.5767 84.8473 49.4154 84.822 49.0629ZM85.8921 48.8026C85.7828 48.7888 85.6667 48.7863 85.5438 48.7951C85.338 48.8098 85.24 48.8873 85.2501 49.0274C85.2609 49.1783 85.3525 49.2475 85.525 49.2352C85.6672 49.225 85.7961 49.1713 85.9116 49.0742L85.8921 48.8026Z" fill="white"/>
<path d="M79.6462 42.8731L79.6744 43.2873L78.9362 43.3376L79.0836 45.4982L78.6065 45.5308L78.4591 43.3702L77.7209 43.4205L77.6926 43.0064L79.6462 42.8731Z" fill="#B9BBC0"/>
<path d="M80.0413 45.3244L80.0118 44.8922C80.2765 44.9707 80.5714 44.9988 80.8967 44.9766C81.2916 44.9497 81.4801 44.8042 81.4621 44.5401C81.449 44.348 81.3212 44.2603 81.0787 44.2768L80.6754 44.3043C80.1484 44.3403 79.8686 44.1182 79.8358 43.638C79.7998 43.1099 80.1569 42.8202 80.9071 42.769C81.1952 42.7494 81.4711 42.7728 81.7349 42.8392L81.7644 43.2713C81.4998 43.1929 81.2234 43.1635 80.9354 43.1832C80.5032 43.2126 80.2958 43.3534 80.313 43.6055C80.3261 43.7975 80.4371 43.8864 80.6459 43.8722L81.0492 43.8447C81.6098 43.8064 81.9064 44.0274 81.9392 44.5075C81.976 45.0477 81.638 45.3421 80.925 45.3907C80.5997 45.4129 80.3051 45.3908 80.0413 45.3244Z" fill="#B9BBC0"/>
<path d="M82.6998 42.6648L82.8472 44.8255L83.8699 44.7557L83.8982 45.1698L82.3983 45.2721L82.2227 42.6974L82.6998 42.6648Z" fill="#B9BBC0"/>
<path d="M84.6148 45.1209L84.125 45.1543L85.0423 42.5051L85.5555 42.4701L86.8474 44.9686L86.3343 45.0036L85.9929 44.3215L85.1376 44.3798L85.2732 43.9545L85.7918 43.9191L85.3207 42.9799L84.6148 45.1209Z" fill="#B9BBC0"/>
</svg>
